<?xml version="1.0" standalone="no"?>
<!DOCTYPE svg PUBLIC "-//W3C//DTD SVG 1.1//EN" "http://www.w3.org/Graphics/SVG/1.1/DTD/svg11.dtd" >
<svg xmlns="http://www.w3.org/2000/svg" xmlns:xlink="http://www.w3.org/1999/xlink" version="1.1">
<metadata></metadata>
<defs>
<font id="caslon_bd_btitalic" horiz-adv-x="1014" >
<font-face units-per-em="2048" ascent="1556" descent="-492" />
<missing-glyph horiz-adv-x="508" />
<glyph horiz-adv-x="0" />
<glyph unicode="&#xd;" horiz-adv-x="508" />
<glyph unicode=" "  horiz-adv-x="508" />
<glyph unicode="&#x09;" horiz-adv-x="508" />
<glyph unicode="&#xa0;" horiz-adv-x="508" />
<glyph unicode="!" horiz-adv-x="797" d="M96 117q0 62 42.5 104.5t103.5 42.5q60 0 102.5 -43t42.5 -104q0 -62 -42 -104t-103 -42q-62 0 -104 42t-42 104zM285 395q60 223 76 618q6 143 12 210q12 148 57.5 217t130.5 69q68 0 103.5 -41.5t35.5 -119.5q0 -67 -24 -153t-72 -185q-20 -43 -61 -126 q-161 -330 -207 -497z" />
<glyph unicode="&#x22;" horiz-adv-x="694" d="M84 1354q0 52 24.5 80t69.5 28q47 0 71.5 -27.5t24.5 -80.5q0 -16 -0.5 -24.5t-1.5 -15.5l-73 -458h-39l-74 459q-1 7 -1.5 15.5t-0.5 23.5zM420 1354q0 51 25.5 79.5t70.5 28.5t70.5 -28t25.5 -78q0 -13 -3 -36q-1 -4 -1 -5l-73 -459h-39l-74 458q-1 8 -1.5 16.5 t-0.5 23.5z" />
<glyph unicode="#" horiz-adv-x="1575" d="M70 428l59 168h301l92 262h-319l61 166h318l155 436h183l-156 -436h268l156 436h182l-156 -436h291l-59 -166h-291l-92 -262h307l-59 -168h-307l-154 -434h-184l155 434h-268l-154 -434h-184l156 434h-301zM608 594h275l94 264h-275z" />
<glyph unicode="$" d="M45 334q0 69 29.5 107t81.5 38q45 0 75.5 -29.5t30.5 -74.5q0 -28 -24.5 -85.5t-24.5 -88.5q0 -43 23 -74t65 -43l154 590q-110 99 -164.5 204t-54.5 218q0 183 108 288t297 105h29l28 106h62l-31 -114q107 -35 172.5 -110.5t65.5 -160.5q0 -56 -32.5 -91.5t-84.5 -35.5 q-39 0 -65.5 31t-26.5 78q0 28 14 75t14 66q0 28 -17.5 48.5t-55.5 35.5l-127 -483q141 -121 204.5 -232.5t63.5 -238.5q0 -199 -130.5 -331t-326.5 -132h-37h-20l-55 -211h-62l58 221q-111 48 -173.5 134t-62.5 190zM356 63h21q137 0 219 73t82 194q0 81 -43 155t-129 142z M406 1204q0 -56 32 -111t99 -112l118 451q-119 0 -184 -59.5t-65 -168.5z" />
<glyph unicode="%" horiz-adv-x="1810" d="M129 944q0 77 32 160t91 160q76 100 167.5 155.5t178.5 55.5q77 0 134.5 -31t98.5 -94q41 -12 71.5 -17.5t55.5 -5.5q88 0 171.5 45.5t158.5 134.5h105l-858 -1554h-115l760 1380q-54 -33 -107.5 -49t-114.5 -16q-20 0 -46.5 2.5t-63.5 6.5q3 -21 4.5 -42t1.5 -41 q0 -80 -25 -156t-75 -151q-68 -101 -157.5 -154t-193.5 -53q-119 0 -196.5 75t-77.5 189zM330 885q0 -68 33 -104t96 -36q74 0 148 61t128 167q30 57 45 115t15 120q0 20 -1.5 40t-5.5 40q-38 22 -71 48.5t-60 58.5q-51 -14 -96 -50.5t-84 -97.5q-67 -103 -107 -204.5 t-40 -157.5zM942 256q0 77 32 161t91 158q78 101 169 156t177 55q122 0 191 -70.5t69 -197.5q0 -103 -41.5 -204.5t-118.5 -184.5q-65 -70 -138.5 -104.5t-155.5 -34.5q-120 0 -197.5 76t-77.5 190zM1145 199q0 -68 33 -104t96 -36q62 0 122.5 42t114.5 122q49 72 75 150.5 t26 154.5q0 82 -34.5 129.5t-92.5 47.5q-48 0 -95.5 -33.5t-89.5 -96.5q-72 -110 -113.5 -212t-41.5 -164z" />
<glyph unicode="&#x26;" horiz-adv-x="1792" d="M100 451q0 119 70 221t215 194q-43 55 -64.5 119t-21.5 135q0 171 130.5 279t336.5 108q151 0 241.5 -69t90.5 -185q0 -77 -48.5 -124.5t-127.5 -47.5q-64 0 -103 36.5t-39 96.5q0 53 30 84t79 31q7 0 28 -2t35 -2t24.5 9.5t10.5 21.5q0 41 -58.5 71.5t-144.5 30.5 q-134 0 -213 -108t-79 -289q0 -35 3 -69t9 -66q36 13 71 19.5t72 6.5q84 0 129 -33t45 -94q0 -48 -39.5 -77t-105.5 -29q-56 0 -113 23.5t-125 74.5q-74 -36 -111.5 -94t-37.5 -135q0 -164 151.5 -263.5t409.5 -99.5q211 0 344 97.5t133 244.5q0 99 -58 151t-169 52 q-54 0 -80.5 -12t-26.5 -37q0 -15 12.5 -26t40.5 -21q42 -16 59 -40t17 -65q0 -55 -32.5 -87.5t-88.5 -32.5q-63 0 -100 41t-37 112q0 110 83.5 199.5t217.5 120.5q29 6 83 17q169 34 241 69q75 36 113 84.5t38 107.5q0 65 -42.5 107.5t-106.5 42.5q-22 0 -38.5 -11 t-16.5 -24q0 -10 26.5 -50t26.5 -75q0 -48 -32.5 -77.5t-86.5 -29.5q-62 0 -97.5 36t-35.5 100q0 83 59 135.5t152 52.5q128 0 211.5 -86t83.5 -217q0 -139 -106.5 -235.5t-297.5 -129.5q35 -67 52.5 -135t17.5 -139q0 -222 -183 -358t-487 -136q-290 0 -464.5 132 t-174.5 348zM524 879q24 -52 59 -79.5t79 -27.5q30 0 46.5 15t16.5 42q0 35 -27.5 53.5t-79.5 18.5q-20 0 -44 -5.5t-50 -16.5z" />
<glyph unicode="'" horiz-adv-x="358" d="M84 1354q0 52 24.5 80t69.5 28q47 0 71.5 -27.5t24.5 -80.5q0 -16 -0.5 -24.5t-1.5 -15.5l-73 -458h-39l-74 459q-1 7 -1.5 15.5t-0.5 23.5z" />
<glyph unicode="(" horiz-adv-x="797" d="M106 520q0 288 166 541.5t482 445.5l26 -30q-248 -222 -368.5 -502.5t-120.5 -634.5q0 -130 30 -264.5t91 -280.5l-33 -22q-140 207 -206.5 389t-66.5 358z" />
<glyph unicode=")" horiz-adv-x="797" d="M-33 -199q248 222 369 503t121 636q0 127 -30.5 261.5t-92.5 283.5l35 22q138 -205 204 -388t66 -361q0 -289 -165.5 -542t-479.5 -445z" />
<glyph unicode="*" horiz-adv-x="1024" d="M242 930q0 47 35 71.5t114 30.5q68 5 113.5 20t77.5 42q-68 48 -199 60q-19 2 -28 3q-54 5 -83.5 31.5t-29.5 68.5q0 37 25 64t61 27q57 0 117 -85q10 -14 16 -22q29 -40 63.5 -70.5t77.5 -52.5v10q0 76 -39 170t-39 123q0 39 25.5 62.5t66.5 23.5q44 0 67.5 -22.5 t23.5 -65.5q0 -26 -37 -116.5t-37 -165.5v-21l1 1q91 57 136 122v1q76 108 137 108q32 0 58 -29.5t26 -65.5t-30.5 -64.5t-72.5 -31.5h-3q-173 -15 -236 -67q73 -49 198 -57q22 -2 32 -3q50 -4 81 -33.5t31 -72.5q0 -34 -28 -61t-62 -27q-54 0 -124 98q-4 6 -7 10 q-32 44 -65 72.5t-74 48.5v-14q0 -77 38 -167t38 -114q0 -43 -24.5 -68.5t-66.5 -25.5q-43 0 -67.5 23.5t-24.5 64.5q0 28 38 115.5t38 162.5v25q-87 -51 -137 -122v-1l-1 -1q-77 -105 -132 -105q-36 0 -62 27t-26 65z" />
<glyph unicode="+" horiz-adv-x="1706" d="M254 528v166h514v527h170v-527h514v-166h-514v-528h-170v528h-514z" />
<glyph unicode="," horiz-adv-x="508" d="M-74 -180q93 20 147 50t54 60q0 28 -38 47q-13 7 -20 11q-37 21 -55 52.5t-18 74.5q0 73 42 116t112 43q72 0 116.5 -50t44.5 -134q0 -131 -102.5 -219t-282.5 -109v58z" />
<glyph unicode="-" horiz-adv-x="682" d="M14 346l52 209h458l-51 -209h-459z" />
<glyph unicode="." horiz-adv-x="508" d="M0 123q0 64 43.5 107.5t108.5 43.5q63 0 107 -43.5t44 -107.5q0 -63 -44 -107.5t-107 -44.5q-65 0 -108.5 43.5t-43.5 108.5z" />
<glyph unicode="/" horiz-adv-x="569" d="M-111 -190l613 1697h116l-612 -1697h-117z" />
<glyph unicode="0" d="M27 469q0 142 33.5 293t97.5 295q98 222 224 337t271 115q163 0 251.5 -130t88.5 -369q0 -144 -33 -294t-96 -292q-99 -223 -226 -340t-269 -117q-163 0 -252.5 131.5t-89.5 370.5zM221 174q0 -70 36.5 -114t94.5 -44q78 0 131 80t138 371q81 280 130.5 515t49.5 325 q0 69 -37 112t-96 43q-76 0 -127.5 -76t-141.5 -372q-80 -272 -129 -512.5t-49 -327.5z" />
<glyph unicode="1" d="M10 0l10 47q64 0 109 14t74 43q15 16 32 58.5t52 163.5l223 780q2 8 7 25q18 61 18 98q0 34 -39.5 51.5t-116.5 17.5q-19 0 -29 -0.5t-18 -0.5l12 44q152 12 268 52t209 114h39l-362 -1257q-10 -30 -14.5 -55t-4.5 -48q0 -56 38 -78t140 -22h21l-8 -47h-660z" />
<glyph unicode="2" d="M12 0v18q0 124 58.5 239t193.5 253q43 43 123 122q313 307 313 476q0 91 -51 145t-137 54q-77 0 -146 -50.5t-151 -166.5l-43 10q84 210 190 308.5t248 98.5q147 0 241.5 -90t94.5 -229q0 -153 -94.5 -293.5t-278.5 -261.5l-54 -36q-316 -207 -388 -376h332 q119 0 172.5 26.5t83.5 92.5h51l-96 -340h-662z" />
<glyph unicode="3" d="M20 219q0 73 37.5 116.5t98.5 43.5q53 0 89 -33.5t36 -83.5q0 -52 -50.5 -103t-50.5 -65q0 -32 37.5 -55t91.5 -23q110 0 185 107t75 266q0 151 -64.5 235.5t-199.5 108.5l6 60q215 77 327 174t112 207q0 79 -45.5 125.5t-122.5 46.5q-73 0 -146.5 -50t-146.5 -149 l-31 22q85 170 192.5 254t239.5 84q126 0 199.5 -65t73.5 -176q0 -113 -85.5 -210.5t-304.5 -224.5q112 -45 174 -137t62 -213q0 -93 -38 -186.5t-105 -165.5q-73 -79 -158.5 -118.5t-183.5 -39.5q-132 0 -218 71t-86 177z" />
<glyph unicode="4" d="M35 508v121l831 878h82l-237 -880h204l-32 -119h-203l-135 -508h-232l136 508h-414zM131 627h348q45 143 97 290.5t114 309.5l-559 -586v-14z" />
<glyph unicode="5" d="M39 236q0 80 43 128t115 48q56 0 89 -33.5t33 -89.5q0 -31 -8.5 -56.5t-25.5 -43.5q-10 -12 -30 -29q-40 -34 -40 -62q0 -33 38.5 -56.5t96.5 -23.5q127 0 217 110.5t90 272.5q0 160 -102 253.5t-279 93.5q-17 0 -26 -0.5t-19 -1.5l-24 16l248 727h364q40 0 73 7t64 22 h43l-125 -238h-436l-96 -283q228 -13 356.5 -139t128.5 -336q0 -236 -139 -393.5t-348 -157.5q-136 0 -218.5 73t-82.5 192z" />
<glyph unicode="6" d="M57 383q0 194 83.5 388.5t242.5 371.5q124 139 260 235.5t287 153.5l16 -39q-193 -103 -336 -285.5t-248 -462.5l17 -8q62 91 121 131.5t129 40.5q109 0 179.5 -89t70.5 -232q0 -95 -23.5 -183t-69.5 -167q-74 -129 -174.5 -198t-214.5 -69q-157 0 -248.5 110.5 t-91.5 301.5zM256 166q0 -65 32 -103t85 -38t95 42t77 130q42 104 68 228.5t26 205.5q0 79 -24 117t-74 38q-48 0 -94.5 -48t-106.5 -158q-40 -144 -62 -252.5t-22 -161.5z" />
<glyph unicode="7" d="M152 0q48 270 226.5 588t471.5 655v25h-428q-49 0 -86 -16t-70 -50l-24 19l151 268h627v-74q-251 -347 -406 -700.5t-215 -714.5h-247z" />
<glyph unicode="8" d="M25 266q0 135 96.5 253.5t286.5 215.5q-63 124 -91 219t-28 181q0 162 103 267t261 105q141 0 229.5 -77t88.5 -199q0 -110 -79 -213.5t-239 -202.5q71 -134 104.5 -237.5t33.5 -186.5q0 -194 -115 -307t-314 -113q-155 0 -246 80.5t-91 214.5zM139 262q0 -110 59 -177 t156 -67q89 0 148 77t59 196q0 79 -32 176t-95 207q-135 -68 -215 -181t-80 -231zM500 1235q0 -74 32 -164.5t95 -193.5q114 68 172.5 160.5t58.5 205.5q0 100 -49.5 157.5t-134.5 57.5q-78 0 -126 -61t-48 -162z" />
<glyph unicode="9" d="M68 -14q189 99 334.5 285t248.5 462l-18 8q-63 -91 -122 -131.5t-128 -40.5q-110 0 -180 89.5t-70 232.5q0 95 23.5 184t68.5 168q74 129 175 197.5t214 68.5q157 0 248.5 -111t91.5 -302q0 -194 -83 -388.5t-242 -371.5q-125 -140 -260 -236.5t-285 -152.5zM373 848 q0 -78 24.5 -116t75.5 -38q48 0 95 48t106 157q39 139 60.5 249t21.5 165q0 65 -31 103t-84 38t-95.5 -42.5t-76.5 -129.5q-42 -106 -69 -231t-27 -203z" />
<glyph unicode=":" horiz-adv-x="682" d="M27 117q0 62 42 104.5t103 42.5q60 0 102.5 -43t42.5 -104q0 -62 -42 -104t-103 -42t-103 42t-42 104zM211 782q0 62 42 105t103 43t103.5 -43.5t42.5 -104.5t-42 -103t-104 -42q-61 0 -103 42t-42 103z" />
<glyph unicode=";" horiz-adv-x="682" d="M-45 -180q93 20 148 50t55 60q0 28 -39 47q-12 7 -19 11q-37 21 -55 52.5t-18 74.5q0 73 41.5 116t111.5 43q73 0 117.5 -50t44.5 -134q0 -131 -103.5 -219t-283.5 -109v58zM211 782q0 62 42 105t103 43t103.5 -43.5t42.5 -104.5t-42 -103t-104 -42q-61 0 -103 42 t-42 103z" />
<glyph unicode="&#x3c;" horiz-adv-x="1706" d="M264 530v160l1178 486v-185l-934 -381l934 -381v-182z" />
<glyph unicode="=" horiz-adv-x="1706" d="M254 322v165h1198v-165h-1198zM254 733v168h1198v-168h-1198z" />
<glyph unicode="&#x3e;" horiz-adv-x="1706" d="M264 47v182l934 381l-934 381v185l1178 -486v-160z" />
<glyph unicode="?" horiz-adv-x="1139" d="M162 117q0 62 42 104.5t103 42.5q60 0 103 -43t43 -104q0 -62 -42 -104t-104 -42q-61 0 -103 42t-42 104zM266 526q0 121 234 241q64 33 98 52q165 92 244.5 190t79.5 210q0 113 -68 177t-188 64q-117 0 -199 -64.5t-82 -154.5q0 -45 24.5 -78t55.5 -33q13 0 24 8t11 17 q0 14 -7.5 42t-7.5 44q0 53 36.5 86t96.5 33q59 0 96.5 -41t37.5 -107q0 -84 -62 -140t-155 -56q-96 0 -151.5 57t-55.5 154q0 126 100.5 203t267.5 77q180 0 294 -95t114 -243q0 -132 -98 -237t-279 -166q-44 -15 -160.5 -46.5t-163.5 -62.5q-40 -27 -60.5 -62t-20.5 -77 q0 -41 22 -65.5t59 -24.5q21 0 31 7t10 22q0 10 -15 37t-15 47q0 34 22 52.5t62 18.5q36 0 58 -26.5t22 -71.5q0 -62 -45.5 -102.5t-114.5 -40.5q-68 0 -110 42.5t-42 112.5z" />
<glyph unicode="@" horiz-adv-x="2019" d="M139 537q0 203 86 381t250 313q135 111 297.5 168t345.5 57q348 0 557 -188.5t209 -501.5q0 -159 -59 -297.5t-168 -237.5q-62 -54 -129 -82t-133 -28q-98 0 -152.5 52.5t-60.5 152.5q-64 -105 -137.5 -154t-165.5 -49q-134 0 -212.5 92t-78.5 248q0 112 49 219t141 195 q68 65 147.5 99t161.5 34q90 0 145.5 -47.5t72.5 -139.5l51 170h172l-172 -616l-2 -6q-15 -59 -15 -90q0 -49 22 -76t60 -27q34 0 84 22t92 56q110 88 169 222t59 296q0 279 -191 450t-504 171q-173 0 -328.5 -65t-273.5 -185q-122 -125 -183.5 -286t-61.5 -357 q0 -172 59.5 -306.5t179.5 -234.5q106 -88 247 -135t302 -47q166 0 321 51.5t304 157.5l37 -47q-148 -111 -315 -167.5t-347 -56.5q-188 0 -347 46.5t-275 134.5q-151 113 -230.5 277t-79.5 362zM772 367q0 -83 36.5 -133t94.5 -50q62 0 115.5 41.5t107.5 132.5 q56 96 89.5 210t33.5 204q0 83 -37.5 132.5t-99.5 49.5q-64 0 -117 -45t-106 -147q-57 -107 -87 -209.5t-30 -185.5z" />
<glyph unicode="A" horiz-adv-x="1479" d="M-141 0l10 47q116 16 267 240q24 35 36 53l766 1114q54 2 105 15t102 38h51l-43 -1265v-27q0 -98 42 -133t161 -35l-10 -47h-682l10 47h26q116 0 152.5 37t40.5 173l4 153h-604l-103 -160q-17 -26 -25.5 -53t-8.5 -54q0 -43 29.5 -66.5t90.5 -29.5l-8 -47h-409zM340 475 h559l31 862z" />
<glyph unicode="B" horiz-adv-x="1479" d="M-57 0l8 47q97 4 145.5 45t79.5 152l293 1024q8 28 12 47t4 31q0 54 -31.5 75t-121.5 21h-19l11 47h567q217 0 348 -92t131 -242q0 -140 -126.5 -242t-332.5 -125q171 -36 266 -134t95 -238q0 -202 -157.5 -309t-455.5 -107h-716zM424 129q0 -42 31.5 -60t109.5 -18 q99 0 164 24.5t115 78.5q59 63 96 164.5t37 199.5q0 122 -69 187t-199 65h-107l-162 -571q-8 -29 -12 -46t-4 -24zM618 823h93q110 0 174 21.5t106 70.5q49 56 77 134.5t28 162.5q0 109 -55 169.5t-154 60.5h-92z" />
<glyph unicode="C" horiz-adv-x="1511" d="M92 526q0 154 69.5 318.5t198.5 316.5q143 167 319.5 256.5t358.5 89.5q62 0 119 -10.5t111 -32.5q36 -15 93 -46.5t77 -31.5q9 1 24 7t58 28h26l-133 -477l-61 10v60q0 238 -66.5 340t-218.5 102q-131 0 -258.5 -98t-239.5 -285q-88 -149 -134 -310t-46 -321 q0 -192 83 -303.5t224 -111.5q138 0 265 110t241 330l62 -18l-160 -478h-36q-15 29 -32.5 43.5t-38.5 14.5q-3 0 -106.5 -29t-204.5 -29q-258 0 -426 157t-168 398z" />
<glyph unicode="D" horiz-adv-x="1706" d="M-63 0l10 47q97 4 145.5 45t79.5 152l293 1024q7 24 10.5 43.5t3.5 34.5q0 55 -31 75.5t-120 20.5h-19l8 47h555q336 0 523.5 -179.5t187.5 -498.5q0 -174 -64 -331.5t-180 -268.5q-119 -113 -286.5 -162t-464.5 -49h-651zM426 141q0 -45 40 -67.5t120 -22.5 q182 0 292.5 40t194.5 132q51 56 97 146.5t83 210.5q31 96 46.5 190.5t15.5 185.5q0 235 -109.5 352t-328.5 117q-38 0 -57.5 -1t-37.5 -3l-334 -1170v-2q-22 -76 -22 -108z" />
<glyph unicode="E" horiz-adv-x="1432" d="M-57 0l8 47q97 4 145.5 45t79.5 152l293 1024q8 28 12 47t4 31q0 54 -31.5 75t-121.5 21h-19l11 47h1030l63 -383h-47q-112 207 -186.5 271.5t-179.5 64.5h-209l-187 -649h117q154 0 223 54t129 208l49 -8l-182 -635l-47 12q12 57 17.5 93t5.5 61q0 83 -47.5 117 t-165.5 34h-115l-148 -508q-6 -20 -9 -39.5t-3 -42.5q0 -53 32.5 -72.5t131.5 -19.5q169 0 238.5 16t119.5 54q63 46 122 117t116 169l47 -10l-129 -393h-1167z" />
<glyph unicode="F" horiz-adv-x="1356" d="M-57 0l8 47q97 4 145.5 45t79.5 152l293 1024q8 28 12 47t4 31q0 54 -31.5 75t-121.5 21h-19l11 47h1081l63 -383h-47q-112 207 -186.5 271.5t-179.5 64.5h-260l-183 -637h166q155 0 223.5 54t128.5 208l48 -10l-181 -633l-47 10q12 57 17.5 93t5.5 61q0 84 -48 118.5 t-165 34.5h-164l-151 -519q-7 -22 -11 -43t-4 -36q0 -56 33 -76t133 -20l-8 -47h-645z" />
<glyph unicode="G" horiz-adv-x="1593" d="M92 526q0 154 69.5 318.5t198.5 316.5q143 167 319.5 256.5t358.5 89.5q103 0 219 -39q6 -2 11 -4q39 -12 94 -45t76 -33q8 0 46 19q22 10 36 16h26l-133 -477l-61 10v60q0 238 -67 340t-220 102t-296.5 -125.5t-248.5 -353.5q-70 -153 -110.5 -318t-40.5 -290 q0 -159 80.5 -252.5t216.5 -93.5q116 0 187 60.5t110 195.5l55 198q8 27 12 47t4 31q0 55 -31.5 75.5t-121.5 20.5h-19l10 47h650l-9 -47q-68 -7 -102 -13.5t-45 -14.5q-21 -15 -37.5 -49t-40.5 -119l-102 -357q-161 -65 -285 -96t-223 -31q-254 0 -420 157.5t-166 397.5z " />
<glyph unicode="H" horiz-adv-x="1821" d="M-57 0l8 47q97 4 145.5 45t79.5 152l293 1024q8 28 12 47t4 31q0 54 -31.5 75t-121.5 21h-19l11 47h649l-8 -47q-98 -5 -146 -45.5t-80 -151.5l-121 -424h637l129 446q8 25 11.5 44.5t3.5 34.5q0 55 -31 75.5t-121 20.5h-18l8 47h651l-10 -47q-98 -5 -146 -45.5 t-79 -151.5l-293 -1024q-9 -29 -13 -47.5t-4 -30.5q0 -55 32 -75.5t122 -20.5h19l-11 -47h-649l8 47q98 4 146 45t80 152l145 512h-635l-155 -534q-7 -22 -11 -43t-4 -36q0 -55 32 -75.5t122 -20.5h18l-10 -47h-649z" />
<glyph unicode="I" horiz-adv-x="909" d="M-57 0l8 47q97 4 145.5 45t79.5 152l293 1024q8 28 12 47t4 31q0 54 -31.5 75t-121.5 21h-19l11 47h649l-8 -47q-98 -5 -146 -45.5t-80 -151.5l-294 -1023q-8 -25 -11.5 -45t-3.5 -34q0 -55 32 -75.5t122 -20.5h18l-10 -47h-649z" />
<glyph unicode="J" horiz-adv-x="1024" d="M-190 168q0 65 43.5 109.5t107.5 44.5q59 0 99 -38t40 -94q0 -31 -27.5 -79.5t-27.5 -69.5q0 -20 18 -32.5t48 -12.5q74 0 125 67t98 234l278 970q7 24 11 44.5t4 34.5q0 55 -31.5 75.5t-120.5 20.5h-18l8 47h651l-10 -47q-98 -5 -146 -45.5t-79 -151.5l-222 -777l-5 -17 q-79 -274 -158 -361q-66 -72 -159.5 -109.5t-205.5 -37.5q-142 0 -231.5 64t-89.5 161z" />
<glyph unicode="K" horiz-adv-x="1489" d="M-57 0l8 47q97 4 145.5 45t79.5 152l293 1024q8 28 12 47t4 31q0 54 -31.5 75t-121.5 21h-19l11 47h643l-11 -47q-97 -5 -145.5 -45.5t-79.5 -151.5l-145 -510l506 455q86 77 113.5 113t27.5 65q0 25 -27 44t-78 30l11 47h454l-10 -47q-177 -50 -395 -250 q-16 -15 -24 -22l-310 -283l244 -640l6 -15q60 -162 190 -185l-8 -47h-575l4 47q82 5 110.5 22t28.5 58q0 19 -7 47t-22 68l-174 467l-98 -82l-113 -406q-9 -34 -12.5 -51t-3.5 -27q0 -55 31.5 -75.5t122.5 -20.5l-11 -47h-624z" />
<glyph unicode="L" horiz-adv-x="1346" d="M-57 0l8 47q97 4 145.5 45t79.5 152l293 1024q8 28 12 47t4 31q0 54 -31.5 75t-121.5 21h-19l11 47h649l-8 -47q-98 -5 -146 -45.5t-80 -151.5l-294 -1023q-8 -25 -11.5 -45t-3.5 -34q0 -56 32 -76t134 -20h172q72 0 134 31.5t120 97.5l199 227l47 -10l-129 -393h-1196z " />
<glyph unicode="M" horiz-adv-x="2015" d="M-39 0l10 47q87 13 135 66t103 245l258 908q8 30 11 48.5t3 33.5q0 44 -28 63.5t-125 30.5l12 47h487l58 -1118l712 1118h482l-11 -47q-97 -5 -145 -45.5t-80 -151.5l-293 -1024q-8 -29 -12 -47.5t-4 -30.5q0 -55 32 -75.5t122 -20.5h18l-10 -47h-635l8 47q98 4 146 45 t79 152l338 1173l-905 -1417h-72l-75 1395l-306 -1053q-20 -68 -28 -110t-8 -74q0 -45 36 -75t97 -36l-11 -47h-399z" />
<glyph unicode="N" horiz-adv-x="1802" d="M-57 0l10 47q99 22 152 77t104 234l258 908q8 30 11 48.5t3 33.5q0 44 -28 63.5t-125 30.5l12 47h463l520 -1088l213 744q13 44 20 81t7 66q0 66 -40 101.5t-128 48.5l8 47h465l-10 -47q-100 -22 -152.5 -77t-103.5 -235l-322 -1130h-70l-645 1356l-291 -1014 q-13 -45 -19.5 -81t-6.5 -64q0 -66 40.5 -101.5t129.5 -48.5l-10 -47h-465z" />
<glyph unicode="O" horiz-adv-x="1583" d="M102 612q0 162 56.5 317t163.5 285q115 143 268 220t321 77q256 0 413 -176.5t157 -464.5q0 -172 -62 -335t-180 -299q-111 -129 -258 -199t-305 -70q-260 0 -417 176.5t-157 468.5zM358 383q0 -166 75.5 -262t205.5 -96q104 0 197.5 72.5t169.5 211.5q43 79 79.5 170.5 t65.5 194.5q35 124 53.5 230.5t18.5 191.5q0 166 -75.5 262t-205.5 96q-103 0 -197 -73t-170 -212q-42 -80 -78 -172t-65 -192q-37 -127 -55.5 -233t-18.5 -189z" />
<glyph unicode="P" horiz-adv-x="1450" d="M-57 0l8 47q97 4 145.5 45t79.5 152l293 1024q8 28 12 47t4 31q0 54 -31.5 75t-121.5 21h-19l11 47h477q301 0 460.5 -93t159.5 -268q0 -195 -190.5 -295t-562.5 -100h-76l-147 -511q-8 -25 -11.5 -45t-3.5 -34q0 -55 32 -75.5t122 -20.5h18l-10 -47h-649zM610 795 q13 -1 27.5 -1.5t42.5 -0.5q217 0 339 101t122 280q0 124 -64 187.5t-188 63.5q-60 0 -84.5 -20.5t-44.5 -91.5z" />
<glyph unicode="Q" horiz-adv-x="1583" d="M102 604q0 164 56 320t164 290q113 143 267 220t322 77q256 0 413 -176.5t157 -464.5q0 -171 -63 -334.5t-181 -299.5q-101 -116 -232 -182t-296 -85q-14 -26 -21.5 -50t-7.5 -42q0 -37 30 -62.5t74 -25.5q62 0 150.5 35t191.5 100l29 -55q-135 -94 -268.5 -142.5 t-255.5 -48.5q-121 0 -189.5 57.5t-68.5 158.5q0 33 9 67t28 72q-147 67 -227.5 216t-80.5 355zM358 383q0 -166 75.5 -262t205.5 -96q104 0 197.5 72.5t169.5 211.5q43 79 79.5 170.5t65.5 194.5q35 124 53.5 230.5t18.5 191.5q0 166 -75.5 262t-205.5 96q-103 0 -197 -73 t-170 -212q-42 -80 -78 -172t-65 -192q-37 -127 -55.5 -233t-18.5 -189z" />
<glyph unicode="R" horiz-adv-x="1593" d="M-57 0l8 47q97 4 145.5 45t79.5 152l293 1024q8 28 12 47t4 31q0 54 -31.5 75t-121.5 21h-19l11 47h512q300 0 465 -101t165 -282q0 -148 -121.5 -234.5t-359.5 -107.5l-4 -12q46 -40 75.5 -99.5t59.5 -191.5l49 -219q2 -7 5 -19q40 -172 200 -176l-10 -47h-406l-100 428 l-2 8q-67 291 -199 291h-63l-145 -505q-8 -25 -11.5 -45t-3.5 -34q0 -55 32 -75.5t122 -20.5h18l-10 -47h-649zM606 787q16 -2 32.5 -2.5t49.5 -0.5q238 0 362 97.5t124 283.5q0 129 -69 194.5t-204 65.5q-62 0 -94 -24.5t-51 -87.5z" />
<glyph unicode="S" horiz-adv-x="1346" d="M41 53l90 465l53 -12q3 -225 97.5 -351t261.5 -126q117 0 197.5 69.5t80.5 169.5q0 50 -14 95.5t-43 91.5q-59 86 -198 206q-34 29 -50 44q-113 103 -162 190t-49 182q0 190 144 313t370 123q95 0 181 -23t165 -71l64 35l33 -8l-99 -445l-53 15q0 215 -78 327.5 t-227 112.5q-111 0 -187.5 -72.5t-76.5 -175.5q0 -129 280 -369q43 -37 66 -57q106 -92 158.5 -190t52.5 -205q0 -185 -154 -302.5t-399 -117.5q-104 0 -200 28t-191 87l-72 -39z" />
<glyph unicode="T" horiz-adv-x="1366" d="M115 1094l90 395h1292l-100 -395h-43q-4 186 -64.5 267t-193.5 81q-59 0 -90 -31t-60 -129l-305 -1061q-8 -26 -12 -46t-4 -32q0 -55 31.5 -75.5t121.5 -20.5h19l-11 -47h-649l10 47q97 4 144.5 44.5t79.5 152.5l307 1063q2 6 4 15q16 57 16 83q0 18 -24 27.5t-72 9.5 q-131 0 -237 -84t-201 -264h-49z" />
<glyph unicode="U" horiz-adv-x="1792" d="M209 322q0 84 46 240q8 26 11 38l195 668q7 22 10.5 42t3.5 36q0 55 -31 75.5t-120 20.5h-19l8 47h652l-11 -47q-98 -4 -145.5 -44.5t-79.5 -152.5l-235 -813q-18 -57 -25.5 -95.5t-7.5 -66.5q0 -108 90 -166.5t256 -58.5q210 0 332.5 98t187.5 320l201 682 q13 43 19.5 81t6.5 66q0 66 -40.5 101.5t-129.5 48.5l11 47h463l-9 -47q-100 -22 -153.5 -78t-104.5 -234l-176 -614q-48 -170 -92.5 -257t-105.5 -140q-87 -75 -205 -111.5t-273 -36.5q-253 0 -391.5 92t-138.5 259z" />
<glyph unicode="V" horiz-adv-x="1413" d="M125 1442l8 47h684l-10 -47h-25q-115 0 -152 -35t-42 -174l-39 -936l723 920q28 34 41.5 65t13.5 61q0 43 -31.5 68t-93.5 31l10 47h443l-9 -47q-117 -8 -292 -235q-30 -38 -45 -58l-934 -1178h-92l45 1276v27q0 98 -42 133t-161 35z" />
<glyph unicode="W" horiz-adv-x="1878" d="M51 1442l12 47h668l-10 -47h-10q-101 0 -134 -34.5t-40 -174.5l-41 -868l477 688l14 194q1 7 1.5 16.5t0.5 26.5q0 82 -34 116t-117 36l12 47h649l-10 -47h-19q-141 0 -183.5 -35.5t-49.5 -173.5l-41 -860l588 844q37 55 47 82t10 55q0 38 -34 60t-103 28l10 47h500 l-8 -47q-110 -9 -193 -68t-198 -225l-816 -1178h-81l51 965l-672 -965h-76l64 1276v29q0 95 -48.5 130.5t-185.5 35.5z" />
<glyph unicode="X" horiz-adv-x="1706" d="M-80 0l8 47q132 13 348 219q28 27 43 41l406 383l-172 541q-3 9 -9 28q-39 124 -63 144q-16 15 -52 24.5t-93 14.5l10 47h602l-8 -47q-79 -5 -112 -18.5t-33 -41.5q0 -39 26 -122q4 -13 6 -20l111 -351l389 362q41 38 58.5 65t17.5 52q0 33 -27.5 52.5t-76.5 21.5l10 47 h450l-10 -47q-144 -21 -373 -234l-24 -22l-391 -365l172 -538q46 -145 92 -187.5t131 -48.5l-10 -47h-603l11 47q63 5 98 28.5t35 61.5q0 40 -29 129q-5 17 -8 27l-105 325l-393 -368q-49 -46 -71.5 -76t-22.5 -49q0 -38 23 -58t67 -20h6l-6 -47h-428z" />
<glyph unicode="Y" horiz-adv-x="1432" d="M119 0l8 47h41q115 0 168.5 40.5t85.5 156.5l147 506l-190 507q-40 105 -84 145t-115 40h-10l10 47h602l-10 -47h-29q-63 0 -92.5 -13.5t-29.5 -42.5q0 -20 7 -47.5t31 -89.5l166 -432l359 397q36 40 56 77.5t20 66.5q0 35 -31 58t-82 26l10 47h391l-8 -47 q-102 -24 -308 -256q-26 -30 -40 -45l-350 -393l-150 -527q-9 -34 -12.5 -50.5t-3.5 -27.5q0 -55 34.5 -76.5t129.5 -21.5q8 0 28.5 1t32.5 1l-10 -47h-772z" />
<glyph unicode="Z" horiz-adv-x="1460" d="M-57 0v25l1114 1392v25h-291q-81 0 -152 -34t-120 -95l-146 -180l-47 4l96 352h1057l-1132 -1419v-23h401q72 0 134 31.5t120 97.5l199 227l47 -10l-113 -393h-1167z" />
<glyph unicode="[" horiz-adv-x="797" d="M-82 -209l485 1698h490l-19 -68h-294l-449 -1562h365l-17 -68h-561z" />
<glyph unicode="\" horiz-adv-x="569" d="M186 1507h109l115 -1697h-111z" />
<glyph unicode="]" horiz-adv-x="797" d="M-158 -209l17 68h297l448 1562h-364l16 68h561l-487 -1698h-488z" />
<glyph unicode="^" horiz-adv-x="2048" d="M412 897l503 565h215l502 -565h-104l-506 397l-506 -397h-104z" />
<glyph unicode="_" horiz-adv-x="1024" d="M0 -311h1024v-172h-1024v172z" />
<glyph unicode="`" horiz-adv-x="1024" d="M369 1331q0 28 20 48t47 20q21 0 45 -15.5t43 -42.5l213 -301h-67l-244 205q-34 28 -45.5 46.5t-11.5 39.5z" />
<glyph unicode="a" horiz-adv-x="1118" d="M-29 209q0 90 46 202t135 238q95 134 210.5 207.5t229.5 73.5q51 0 100.5 -18.5t100.5 -55.5l100 74h55l-219 -717q-5 -17 -7.5 -32.5t-2.5 -30.5q0 -22 5.5 -30.5t18.5 -8.5q30 0 60.5 33t107.5 167l39 -26q-68 -146 -158 -230t-176 -84q-50 0 -75 26t-25 79 q0 19 7.5 54t29.5 116l-21 6q-83 -143 -168 -212t-178 -69q-99 0 -157 64t-58 174zM201 188q0 -42 24.5 -68t63.5 -26q52 0 110 58t129 182q73 124 115.5 246.5t42.5 197.5q0 56 -24.5 83.5t-73.5 27.5q-62 0 -117 -54t-117 -176q-69 -134 -111 -268t-42 -203z" />
<glyph unicode="b" d="M-6 186q0 38 37 166l2 7l256 884q13 46 19.5 78t6.5 45q0 37 -25 58.5t-69 21.5h-12l10 47l350 14l-215 -753h19q62 88 129 132t141 44q101 0 160 -67.5t59 -182.5q0 -99 -53 -222.5t-145 -236.5q-102 -124 -212 -189t-219 -65q-113 0 -176 57.5t-63 161.5zM178 123 q0 -46 25 -74.5t65 -28.5q58 0 114.5 65.5t129.5 217.5q56 120 88.5 224t32.5 163q0 54 -24 84.5t-66 30.5q-49 0 -98.5 -42t-90.5 -118q-78 -145 -127 -296t-49 -226z" />
<glyph unicode="c" horiz-adv-x="901" d="M-12 250q0 89 33 191t94 198q90 143 199 217t229 74q104 0 168.5 -47.5t64.5 -122.5q0 -41 -27 -66.5t-71 -25.5q-49 0 -83 31t-34 75q0 7 3 23t3 24q0 29 -14.5 45.5t-40.5 16.5q-46 0 -88.5 -36.5t-83.5 -111.5q-53 -95 -88 -235.5t-35 -255.5q0 -94 25.5 -132 t85.5 -38q73 0 152.5 74t142.5 204l39 -20q-71 -170 -185 -266.5t-241 -96.5q-116 0 -182 74.5t-66 206.5z" />
<glyph unicode="d" horiz-adv-x="1118" d="M-27 209q0 93 45.5 205t131.5 233q96 137 211.5 210t234.5 73q33 0 67 -9.5t72 -29.5l109 352l1 3q27 94 27 120q0 38 -26.5 59t-75.5 21h-6l8 47l350 14l-393 -1294q-5 -19 -7.5 -34.5t-2.5 -28.5q0 -22 5.5 -30.5t18.5 -8.5q30 0 60.5 33t107.5 167l39 -26 q-68 -146 -158 -230t-176 -84q-50 0 -75 26t-25 79q0 19 7.5 54t29.5 116l-21 6q-83 -143 -168 -212t-178 -69q-98 0 -155.5 64t-57.5 174zM201 188q0 -42 24.5 -68t63.5 -26q52 0 110 58t129 182q73 124 115.5 246.5t42.5 197.5q0 56 -24.5 83.5t-73.5 27.5q-62 0 -117 -54 t-117 -176q-69 -134 -111 -268t-42 -203z" />
<glyph unicode="e" horiz-adv-x="901" d="M-14 266q0 95 41.5 195.5t126.5 210.5q102 132 201.5 195t207.5 63q94 0 151.5 -46.5t57.5 -121.5q0 -112 -136 -213t-407 -191q-11 -56 -16.5 -97t-5.5 -71q0 -61 26.5 -92.5t77.5 -31.5q70 0 149.5 67t166.5 199l35 -33q-85 -160 -190.5 -244t-221.5 -84 q-123 0 -193.5 79t-70.5 216zM242 422q154 49 248 146.5t94 203.5q0 48 -20.5 76.5t-55.5 28.5q-71 0 -145.5 -125.5t-120.5 -329.5z" />
<glyph unicode="f" horiz-adv-x="674" d="M-356 -287q0 40 23.5 63t64.5 23q26 0 44.5 -10.5t39.5 -38.5q6 -8 17 -24q32 -48 65 -48q78 0 193 551q73 348 126 572h-199l21 90h199q83 306 206.5 461t284.5 155q90 0 148.5 -44t58.5 -111q0 -42 -26.5 -67t-69.5 -25q-35 0 -59.5 20.5t-35.5 58.5q-4 15 -9 39 q-14 64 -64 64q-65 0 -115.5 -117.5t-114.5 -433.5h193l-19 -90h-198q-101 -429 -157.5 -626t-104.5 -298q-67 -136 -161.5 -213.5t-193.5 -77.5q-66 0 -111.5 37.5t-45.5 89.5z" />
<glyph unicode="g" horiz-adv-x="909" d="M-121 -174q0 79 52.5 128.5t162.5 74.5q-55 37 -77.5 69t-22.5 72q0 70 49.5 122.5t155.5 92.5q-69 47 -103.5 105.5t-34.5 127.5q0 126 97.5 219t234.5 93q27 0 56.5 -2.5t59.5 -7.5q80 102 125 133.5t97 31.5q55 0 91 -31t36 -77q0 -38 -24 -64t-60 -26 q-25 0 -73.5 26.5t-73.5 26.5q-17 0 -32 -9t-28 -26q90 -44 136.5 -108.5t46.5 -145.5q0 -129 -96.5 -215t-241.5 -86q-36 0 -72 4.5t-71 13.5q-46 -19 -73.5 -44t-27.5 -45q0 -61 223 -134q35 -11 56 -18q115 -39 170 -101t55 -153q0 -130 -112.5 -208.5t-301.5 -78.5 q-172 0 -275.5 66.5t-103.5 173.5zM-10 -174q0 -83 73 -133.5t195 -50.5q124 0 187 33t63 98q0 97 -271 200q-44 16 -67 25q-85 -16 -132.5 -62t-47.5 -110zM252 528q0 -51 27.5 -81.5t72.5 -30.5q44 0 79 28.5t67 90.5q28 56 45.5 117t17.5 100q0 61 -25 93t-73 32 q-44 0 -76 -28t-68 -99q-31 -63 -49 -123.5t-18 -98.5z" />
<glyph unicode="h" horiz-adv-x="1139" d="M-39 0l371 1243q18 58 23 82.5t5 40.5q0 38 -26.5 59t-75.5 21h-6l8 47l350 14l-305 -977l21 -6q119 212 221 309t205 97q76 0 119.5 -40t43.5 -110q0 -73 -68 -253l-3 -8l-117 -310q-6 -18 -9 -31.5t-3 -21.5q0 -17 10 -28t25 -11q23 0 60 44.5t112 168.5l43 -23 q-84 -159 -167.5 -240t-164.5 -81q-63 0 -92 30.5t-29 98.5q0 20 8.5 54t24.5 77l137 372q18 49 27.5 88.5t9.5 65.5q0 19 -16.5 34t-38.5 15q-97 0 -237 -223.5t-271 -597.5h-195z" />
<glyph unicode="i" horiz-adv-x="682" d="M20 608q84 160 167.5 241t164.5 81q63 0 92 -32t29 -101q0 -21 -8.5 -54t-24.5 -75l-170 -459q-9 -28 -11.5 -38t-2.5 -15q0 -16 11 -27.5t26 -11.5q24 0 61 44.5t111 168.5l43 -23q-84 -159 -167.5 -240t-164.5 -81q-63 0 -92 30.5t-29 98.5q0 22 8.5 55t24.5 76 l172 461q6 19 9 31t3 20q0 16 -10 28.5t-24 12.5q-25 0 -64 -47t-111 -166zM332 1272q0 51 35.5 87t87.5 36q50 0 85 -36t35 -87t-35 -87t-85 -36q-53 0 -88 35.5t-35 87.5z" />
<glyph unicode="j" horiz-adv-x="616" d="M-354 -297q0 39 25 63.5t65 24.5q29 0 50 -10.5t34 -30.5q9 -15 20 -48q15 -50 41 -50q28 0 56 56t67 194l207 802q5 18 7.5 33t2.5 25q0 12 -11 23.5t-24 11.5q-24 0 -62 -48t-108 -169l-43 22q81 163 164.5 245.5t167.5 82.5q60 0 88.5 -32.5t28.5 -98.5q0 -7 -14 -62 q-10 -41 -17 -67l-135 -541q-73 -292 -176 -417.5t-264 -125.5q-75 0 -122.5 33.5t-47.5 83.5zM246 1272q0 51 35.5 87t87.5 36q50 0 86.5 -36.5t36.5 -86.5q0 -51 -36.5 -87t-86.5 -36q-53 0 -88 35.5t-35 87.5z" />
<glyph unicode="k" d="M-47 0l356 1243q17 64 22 87t5 34q0 38 -27 60t-73 22h-7l11 47l348 14l-221 -770q110 93 207 143t167 50q68 0 108 -39t40 -105q0 -90 -94 -173.5t-277 -155.5q38 -31 57 -82t19 -119v-70q0 -39 7.5 -54t25.5 -15t45.5 34t62.5 101l39 -23q-47 -126 -118.5 -192 t-159.5 -66q-62 0 -92.5 35.5t-30.5 106.5q0 12 0.5 19t1.5 14l12 138q1 7 1.5 14.5t0.5 20.5q0 43 -15.5 59.5t-54.5 16.5q-12 0 -40 -3q-6 0 -11 -1l-112 -391h-203zM281 442q195 34 304 105.5t109 163.5q0 42 -24.5 67t-65.5 25q-46 0 -112.5 -42t-151.5 -126z" />
<glyph unicode="l" horiz-adv-x="578" d="M-18 96q0 24 6.5 62t19.5 88l281 998q2 9 8 29q16 60 16 83q0 44 -25 67t-73 23h-6l10 47l350 14l-370 -1269q-7 -25 -11 -46t-4 -34q0 -20 8 -31.5t21 -11.5q24 0 63 48.5t109 166.5l43 -23q-86 -164 -170.5 -243.5t-171.5 -79.5q-50 0 -77 29.5t-27 82.5z" />
<glyph unicode="m" horiz-adv-x="1593" d="M-29 582q80 164 167 256t163 92q52 0 82.5 -37t30.5 -100q0 -38 -16.5 -112t-49.5 -187l19 -7q99 214 198.5 328.5t186.5 114.5q55 0 91 -42t36 -108q0 -46 -18 -113.5t-58 -172.5l18 -7q118 218 225.5 330.5t198.5 112.5q62 0 99.5 -43t37.5 -115q0 -37 -14 -90.5 t-55 -163.5l-117 -309q-9 -27 -11.5 -37t-2.5 -16q0 -17 10 -28t25 -11q24 0 63 47t111 166l43 -23q-84 -159 -167.5 -240t-164.5 -81q-63 0 -92 30.5t-29 98.5q0 20 8.5 54t24.5 77l137 372q19 53 29 93.5t10 64.5q0 14 -12 22.5t-33 8.5q-78 0 -219 -233.5t-248 -573.5 h-195l189 644l2 7q26 96 26 125q0 13 -12 22t-31 9q-71 0 -196.5 -227.5t-237.5 -579.5h-194l200 696q7 22 11 44t4 40q0 13 -10 24t-21 11q-23 0 -80.5 -72t-114.5 -180z" />
<glyph unicode="n" horiz-adv-x="1139" d="M-29 582q80 164 167 256t163 92q52 0 82.5 -37t30.5 -100q0 -38 -16.5 -112t-49.5 -187l19 -7q119 221 225 332t196 111q63 0 101.5 -43.5t38.5 -114.5q0 -37 -14 -90.5t-56 -163.5l-119 -309q-6 -18 -9 -31.5t-3 -21.5q0 -17 10.5 -28t24.5 -11q24 0 63 47t111 166 l43 -23q-84 -159 -167.5 -240t-164.5 -81q-63 0 -92 30.5t-29 98.5q0 20 8.5 54t24.5 77l135 372q19 53 29 93.5t10 64.5q0 15 -11 23t-32 8q-78 0 -218.5 -233.5t-248.5 -573.5h-194l200 696q8 25 11.5 44.5t3.5 37.5q0 14 -10 25.5t-21 11.5q-23 0 -80.5 -72t-114.5 -180z " />
<glyph unicode="o" horiz-adv-x="901" d="M-14 322q0 100 29 201.5t81 185.5q68 107 160.5 164t198.5 57q132 0 215.5 -97t83.5 -253q0 -102 -29.5 -204t-81.5 -183q-69 -110 -162 -169t-196 -59q-134 0 -216.5 98t-82.5 259zM162 131q0 -52 24.5 -83.5t65.5 -31.5q53 0 100 59t103 199q56 144 89.5 282t33.5 214 q0 52 -23.5 80.5t-65.5 28.5q-56 0 -103 -57t-101 -193q-57 -142 -90 -281.5t-33 -216.5z" />
<glyph unicode="p" d="M-209 -389l10 46q77 6 117 45.5t84 197.5l252 882q-60 -35 -117 -91.5t-119 -141.5l-36 26q49 94 124 173t181 149l59 207l217 74l-71 -248q181 -6 279.5 -102.5t98.5 -268.5q0 -104 -35 -205t-104 -192q-71 -94 -149 -142.5t-158 -48.5q-47 0 -92 19.5t-94 60.5 l-62 -215q-12 -40 -16 -61t-4 -37q0 -31 26.5 -50t83.5 -30l-10 -47h-465zM260 129q26 -42 57.5 -62t69.5 -20q59 0 110 58t91 169q29 82 44 163.5t15 156.5q0 121 -44 177.5t-140 59.5z" />
<glyph unicode="q" horiz-adv-x="1024" d="M-20 250q0 97 38 205.5t109 214.5q89 130 190 195t215 65q63 0 114.5 -22t94.5 -66l54 41q7 5 20 17q29 28 49 28q14 0 24.5 -9t10.5 -20q0 -6 -3 -19.5t-9 -37.5l-289 -967q-12 -36 -17.5 -63.5t-5.5 -49.5q0 -45 28.5 -68t103.5 -36l-9 -47h-514l11 47q61 15 94 28 t47 27q22 22 63 169l2 7l62 213l-17 7q-53 -69 -115.5 -103.5t-133.5 -34.5q-97 0 -157 76.5t-60 202.5zM166 137q0 -51 20.5 -75.5t63.5 -24.5q56 0 121.5 61t120.5 168q71 137 117 288t46 218q0 47 -23 78t-57 31q-58 0 -122.5 -72t-128.5 -209q-70 -147 -114 -280.5 t-44 -182.5z" />
<glyph unicode="r" horiz-adv-x="909" d="M-29 582q80 164 167 256t163 92q52 0 82.5 -37.5t30.5 -101.5q0 -43 -18 -115t-68 -221l20 -9q120 255 215.5 369.5t186.5 114.5q59 0 94 -30.5t35 -82.5q0 -55 -33 -90t-84 -35q-53 0 -89 45t-52 45q-47 0 -169.5 -230t-228.5 -552h-194l200 696q7 22 11 44t4 40 q0 13 -10 24t-21 11q-25 0 -81 -70.5t-114 -181.5z" />
<glyph unicode="s" horiz-adv-x="797" d="M-92 160q0 44 29 71t75 27q39 0 71 -20t52 -58q10 -18 24 -53q40 -100 117 -100q55 0 89 36.5t34 96.5q0 52 -33 109.5t-118 146.5q-89 91 -121.5 150.5t-32.5 121.5q0 108 79 175t208 67q131 0 211 -46t80 -118q0 -41 -26 -68.5t-64 -27.5q-48 0 -76.5 28t-28.5 74v14 q0 46 -27 71.5t-75 25.5q-46 0 -74.5 -28t-28.5 -73q0 -78 147 -216q27 -26 42 -40q59 -56 92 -125.5t33 -138.5q0 -129 -100 -210t-261 -81q-139 0 -228 54t-89 135z" />
<glyph unicode="t" horiz-adv-x="682" d="M4 104q0 11 9 45t24 82l176 570h-133l20 90h142l69 213q61 24 114 55t99 70h27l-105 -338h170l-18 -90h-190l-189 -607q-5 -18 -8.5 -33.5t-3.5 -21.5q0 -14 10.5 -25.5t24.5 -11.5q24 0 60.5 45t111.5 168l43 -22q-78 -154 -164.5 -238t-167.5 -84q-63 0 -92 32t-29 101 z" />
<glyph unicode="u" horiz-adv-x="1186" d="M12 608q88 159 176 240.5t172 81.5q66 0 96.5 -32t30.5 -101q0 -18 -8 -49t-26 -80l-144 -373q-24 -63 -31.5 -91.5t-7.5 -49.5q0 -24 12.5 -34.5t41.5 -10.5q75 0 223 234.5t260 569.5h203l-209 -694q-8 -24 -12.5 -47t-4.5 -37t10.5 -25.5t22.5 -11.5q26 0 84.5 71 t118.5 181l49 -16q-84 -166 -175 -258t-169 -92q-53 0 -86 38t-33 101q0 39 17 114t51 185l-19 4q-123 -220 -235 -331t-209 -111q-66 0 -105.5 43.5t-39.5 115.5q0 35 13 84t60 170l123 309q7 19 10.5 31.5t3.5 20.5q0 15 -11.5 28t-24.5 13q-26 0 -66.5 -46.5 t-116.5 -166.5z" />
<glyph unicode="v" horiz-adv-x="1139" d="M8 698q0 96 73 164t179 68q30 0 90 -12.5t88 -12.5q24 0 49 6t54 19q-26 -46 -74 -130q-209 -366 -209 -468q0 -84 52 -135.5t136 -51.5q69 0 142 42.5t145 123.5q61 69 92 135t31 127q0 56 -34 137t-34 111q0 46 31.5 77.5t77.5 31.5q56 0 87.5 -37.5t31.5 -106.5 q0 -85 -42.5 -191t-121.5 -218q-133 -188 -281 -297t-268 -109q-104 0 -162.5 56t-58.5 155q0 88 51.5 198.5t226.5 362.5q-99 8 -188 60q-24 14 -31 14q-17 0 -28 -12t-11 -31q0 -16 35 -48t35 -60q0 -32 -21.5 -53t-54.5 -21q-39 0 -63.5 29t-24.5 77z" />
<glyph unicode="w" horiz-adv-x="1593" d="M4 690q0 100 70 170t172 70q16 0 60.5 -10.5t74.5 -10.5q41 0 85.5 5.5t90.5 15.5l-25 -37q-311 -449 -311 -604q0 -71 39.5 -111.5t108.5 -40.5q48 0 92.5 18t82.5 53q-2 33 -3.5 66t-1.5 68q0 81 29 181.5t81 195.5q54 96 118.5 148.5t129.5 52.5q56 0 84.5 -35.5 t28.5 -104.5q0 -112 -70 -238t-207 -261q47 -69 101 -100t127 -31q135 0 239.5 112t104.5 256q0 71 -37 163.5t-37 125.5q0 53 30 88t76 35q59 0 94 -55.5t35 -149.5q0 -116 -47.5 -233t-140.5 -230q-106 -129 -241 -210t-234 -81q-80 0 -135 36.5t-88 111.5 q-98 -77 -178.5 -112.5t-155.5 -35.5q-102 0 -168 61.5t-66 155.5q0 127 241 426q63 78 97 121q-92 13 -177 64q-23 14 -30 14q-15 0 -24.5 -9.5t-9.5 -23.5q0 -11 24.5 -47.5t24.5 -64.5q0 -34 -20.5 -56t-51.5 -22q-36 0 -59 27.5t-23 72.5zM680 485q0 -22 6.5 -54 t20.5 -79q92 84 140 165.5t48 156.5q0 46 -22 74t-58 28q-59 0 -97 -80t-38 -211z" />
<glyph unicode="x" horiz-adv-x="1139" d="M-53 141q0 41 13 91.5t40 113.5l53 -18q-14 -44 -20 -75.5t-6 -55.5q0 -53 25 -83t69 -30q88 0 278 282l9 13l-48 264q-14 81 -34.5 116.5t-53.5 35.5q-49 0 -118 -168q-11 -25 -17 -39l-45 12q57 176 119.5 253t146.5 77q88 0 134.5 -67.5t74.5 -239.5q99 162 175 234.5 t147 72.5q63 0 99 -35.5t36 -97.5q0 -34 -9 -72.5t-28 -85.5l-47 12q6 31 8 46t2 26q0 44 -24 68t-68 24q-63 0 -134 -75.5t-138 -215.5l51 -276q12 -70 28 -93.5t46 -23.5q29 0 64.5 52t76.5 155l43 -19q-46 -156 -127.5 -255t-157.5 -99q-72 0 -112.5 69t-71.5 261 q-121 -179 -203.5 -253.5t-154.5 -74.5q-59 0 -90 45t-31 129z" />
<glyph unicode="y" horiz-adv-x="858" d="M-332 -305q0 45 33 76.5t80 31.5q37 0 97.5 -45t101.5 -45q82 0 157.5 83.5t75.5 189.5q0 64 -14.5 223.5t-38.5 347.5l-1 5q-27 194 -89 194q-33 0 -58.5 -35t-62.5 -139l-41 12q39 172 95 254t134 82q111 0 165 -163t87 -671h21q102 127 154 231.5t52 184.5 q0 61 -52 158t-52 143q0 55 26.5 86t73.5 31q66 0 99.5 -48.5t33.5 -142.5q0 -145 -79.5 -327.5t-225.5 -368.5q-182 -235 -335.5 -346t-294.5 -111q-66 0 -104 29t-38 80z" />
<glyph unicode="z" horiz-adv-x="1024" d="M-104 18q0 34 80 98q16 12 24 19l596 486q-71 35 -163 120.5t-140 85.5q-32 0 -52 -18.5t-20 -46.5q0 -29 39 -70.5t39 -68.5q0 -33 -23.5 -55.5t-58.5 -22.5q-44 0 -73 36t-29 93q0 106 86.5 181t212.5 75q45 0 87 -11t79 -32q29 -17 84 -61t86 -44q22 0 36.5 15 t28.5 53q14 37 30.5 52.5t43.5 15.5q26 0 40.5 -15t14.5 -41q0 -23 -16.5 -46.5t-55.5 -55.5l-608 -502q74 -29 165.5 -106.5t141.5 -77.5q40 0 68.5 27.5t28.5 64.5t-41 47q-10 3 -15 4q-48 15 -73 40t-25 58q0 34 24 55t62 21q60 0 98.5 -48t38.5 -124q0 -108 -81.5 -179 t-204.5 -71q-60 0 -109 16.5t-96 53.5q-16 12 -41 34q-55 48 -84 48q-43 0 -91 -81q-7 -11 -10 -16q-15 -24 -35.5 -37.5t-41.5 -13.5q-22 0 -34.5 12t-12.5 33z" />
<glyph unicode="{" horiz-adv-x="1024" d="M178 602v68q159 15 216 76t57 223v200q0 200 84.5 273.5t314.5 73.5v-57q-128 -2 -175.5 -55t-47.5 -210v-137q0 -225 -56.5 -307.5t-208.5 -114.5q152 -32 208.5 -114.5t56.5 -307.5v-137q0 -157 47 -209t176 -54v-57h-10q-222 0 -305.5 74t-83.5 272v201 q0 161 -58 223.5t-215 75.5z" />
<glyph unicode="|" horiz-adv-x="1024" d="M424 -483v2048h178v-2048h-178z" />
<glyph unicode="}" horiz-adv-x="1024" d="M174 -187q129 2 176 54t47 209v137q0 227 56.5 308.5t208.5 113.5q-151 32 -208 113.5t-57 308.5v137q0 157 -47.5 210t-175.5 55v57h10q223 0 307 -74.5t84 -272.5v-200q0 -162 57 -223t216 -76v-68q-157 -13 -215 -74.5t-58 -224.5v-201q0 -197 -84 -271.5t-307 -74.5 h-10v57z" />
<glyph unicode="~" horiz-adv-x="1706" d="M178 434v187q106 72 202 107.5t185 35.5q62 0 125.5 -12t168.5 -48q13 -4 42 -15q164 -58 250 -58q85 0 177 37t202 116v-184q-103 -71 -197.5 -106t-183.5 -35q-44 0 -92.5 8.5t-98.5 26.5q-25 8 -76 26q-212 74 -319 74q-82 0 -174 -38t-211 -122z" />
<glyph unicode="&#xa0;" />
<glyph unicode="&#xa1;" horiz-adv-x="797" d="M115 131q0 67 24.5 153t71.5 185q21 45 64 132q161 328 206 493l49 -11q-60 -223 -76 -616q-6 -143 -12 -209q-12 -150 -57 -219.5t-129 -69.5q-68 0 -104.5 42t-36.5 120zM430 1362q0 61 42 103t103 42q62 0 104 -42t42 -103q0 -62 -42 -103.5t-104 -41.5 q-60 0 -102.5 42t-42.5 103z" />
<glyph unicode="&#xa2;" d="M76 244q0 138 68.5 288t181.5 259q71 69 144.5 103t154.5 34q17 0 34.5 -1.5t34.5 -4.5l94 235h74l-104 -256q55 -25 81.5 -59.5t26.5 -79.5q0 -42 -27 -68t-71 -26q-25 0 -47.5 9t-42.5 28l-254 -631q85 15 156.5 84t132.5 194l39 -20q-59 -144 -151 -233.5t-218 -125.5 l-107 -262h-71l106 260q-116 11 -175.5 80t-59.5 193zM301 215q0 -51 14 -80t45 -43l293 729q0 31 -12.5 46.5t-38.5 15.5q-55 0 -108 -54.5t-97 -156.5q-45 -105 -70.5 -225.5t-25.5 -231.5z" />
<glyph unicode="&#xa3;" d="M-25 135q0 79 57 129.5t146 50.5q32 0 67.5 -6t73.5 -18v39q0 59 -6.5 120t-19.5 128h-227l20 90h196q-5 44 -7.5 89t-2.5 93q0 250 123.5 417t298.5 167q115 0 183.5 -75t68.5 -200q0 -118 -54 -196t-132 -78q-54 0 -88.5 32.5t-34.5 81.5q0 61 24.5 117t67.5 94l35 -26 q-46 -68 -61 -104.5t-15 -71.5q0 -33 20.5 -54.5t51.5 -21.5q53 0 93 66.5t40 160.5q0 92 -41.5 148.5t-108.5 56.5q-92 0 -144.5 -114t-123.5 -582h275l-21 -90h-274q-14 -100 -30.5 -176.5t-37.5 -137.5q115 -48 186 -67t127 -19q68 0 114 30.5t71 90.5l39 -16 q-33 -145 -119 -228.5t-201 -83.5q-65 0 -125 36t-143 128q-34 -84 -82 -122t-119 -38q-70 0 -115 44.5t-45 115.5zM41 137q0 -44 30 -74t74 -30q50 0 89.5 34.5t66.5 102.5q-27 39 -62 59.5t-75 20.5q-53 0 -88 -32t-35 -81z" />
<glyph unicode="&#xa4;" d="M-49 565l37 66h116q10 61 24.5 121t33.5 118h-144l37 66h131q26 65 55 121t62 106q105 160 244 253t268 93q69 0 121.5 -19t104.5 -63q3 -3 12 -11q29 -27 41 -27q16 0 26.5 7t18.5 27h32l-106 -387l-49 13v6q4 72 4 102q0 153 -41 227t-125 74q-93 0 -163 -58t-132 -183 q-12 -25 -47.5 -118.5t-58.5 -162.5h510l-35 -66h-496q-19 -64 -35.5 -125t-27.5 -114h424l-35 -66h-403q-10 -45 -15 -75.5t-6 -50.5q-3 -34 -4.5 -65t-1.5 -61q0 -143 38 -216.5t113 -73.5q90 0 181.5 102t183.5 305l41 -18l-140 -445h-24q-2 10 -4 24q-3 18 -11 25.5 t-26 8.5q-3 0 -74.5 -29t-138.5 -29q-163 0 -271 138.5t-108 349.5q0 11 1 27t3 40q1 7 2 21.5t2 21.5h-145z" />
<glyph unicode="&#xa5;" horiz-adv-x="1413" d="M70 635l16 65h487l13 50l-74 192h-354l18 66h311l-92 249q-40 107 -83 146t-113 39h-11l9 47h569l-10 -47h-29q-63 0 -93 -13.5t-30 -42.5q0 -33 35 -121q4 -11 6 -16l164 -432l358 397q38 41 58 78.5t20 65.5q0 35 -31.5 58t-82.5 26l10 47h391l-8 -47 q-103 -23 -318 -267l-30 -34l-117 -133h334l-21 -66h-373l-174 -194l-16 -48h496l-21 -65h-491l-117 -414q-10 -35 -13.5 -51.5t-3.5 -26.5q0 -55 35 -76.5t129 -21.5q9 0 29.5 1t32.5 1l-11 -47h-739l10 47h41q114 0 167 40t87 157l113 391h-483z" />
<glyph unicode="&#xa6;" horiz-adv-x="1024" d="M424 -350v758h178v-758h-178zM424 674v758h178v-758h-178z" />
<glyph unicode="&#xa7;" horiz-adv-x="1024" d="M80 27q0 53 34.5 86.5t90.5 33.5q39 0 67.5 -27.5t28.5 -66.5q0 -37 -35 -79.5t-35 -51.5q0 -28 35.5 -47.5t89.5 -19.5q83 0 137 47.5t54 120.5q0 80 -139 253q-17 21 -25 31l-102 129q-79 99 -109.5 164.5t-30.5 128.5q0 109 81 181.5t204 72.5q14 0 21 -0.5t14 -1.5 q-64 73 -96.5 138.5t-32.5 121.5q0 119 91 192.5t239 73.5q120 0 196 -56.5t76 -141.5q0 -54 -33 -89.5t-82 -35.5q-42 0 -72 27.5t-30 66.5q0 33 30.5 70t30.5 49q0 24 -32 41.5t-78 17.5q-85 0 -136 -41.5t-51 -109.5q0 -77 153 -267l13 -16l103 -127q77 -95 109 -164 t32 -135q0 -112 -75.5 -181t-199.5 -69q-16 0 -24.5 0.5t-15.5 1.5q64 -77 97.5 -148.5t33.5 -136.5q0 -112 -94.5 -185t-241.5 -73q-127 0 -209 63.5t-82 158.5zM285 793q0 -43 25.5 -98.5t78.5 -127.5q79 -107 123 -138.5t98 -31.5q59 0 97 36.5t38 92.5q0 42 -20.5 91.5 t-62.5 111.5q-72 104 -126 150.5t-104 46.5q-59 0 -103 -40.5t-44 -92.5z" />
<glyph unicode="&#xa8;" horiz-adv-x="1024" d="M322 1190q0 38 29.5 68t68.5 30q40 0 69 -29t29 -69q0 -44 -28 -72t-70 -28q-40 0 -69 29.5t-29 70.5zM696 1190q0 38 30 68t69 30q40 0 69 -29t29 -69q0 -44 -28 -72t-70 -28q-41 0 -70 29.5t-29 70.5z" />
<glyph unicode="&#xa9;" horiz-adv-x="1683" d="M121 678q0 143 54 274.5t157 235.5q102 102 235 157.5t277 55.5q140 0 272.5 -55.5t233.5 -155.5q101 -102 157 -235.5t56 -276.5q0 -142 -55.5 -274t-157.5 -236q-101 -102 -231 -155.5t-277 -53.5q-145 0 -274.5 53t-233.5 156q-104 104 -158.5 234.5t-54.5 275.5z M219 678q0 -126 47.5 -239.5t136.5 -202.5q91 -91 201.5 -137t237.5 -46q126 0 238.5 47t199.5 136q88 89 136 204.5t48 237.5q0 124 -48 241.5t-136 204.5q-86 86 -200 133.5t-236 47.5q-126 0 -241 -48t-202 -137q-88 -90 -135 -203.5t-47 -238.5zM416 670 q0 184 119.5 309t295.5 125q80 0 154 -33t78 -33q28 0 41.5 14t19.5 48h41l2 -320h-47q-32 134 -102 203.5t-172 69.5q-116 0 -176 -94t-60 -275q0 -184 65 -281.5t189 -97.5q82 0 151 43.5t126 130.5l43 -26q-63 -108 -150 -160.5t-200 -52.5q-177 0 -297.5 124t-120.5 306 z" />
<glyph unicode="&#xaa;" horiz-adv-x="840" d="M-23 983q0 63 35 142t103 167q70 94 156.5 145.5t172.5 51.5q38 0 75 -13t75 -38l76 51h41l-164 -502q-4 -12 -6 -23t-2 -22q0 -13 4.5 -20t13.5 -7q38 0 124 135l4 4l28 -18q-52 -101 -119.5 -160t-130.5 -59q-38 0 -57 18.5t-19 55.5q0 15 6.5 43t22.5 76l-17 4 q-63 -101 -126 -149t-134 -48q-74 0 -118 45t-44 121zM152 969q0 -29 18 -47.5t47 -18.5q38 0 82 40.5t98 127.5q54 86 85.5 171.5t31.5 139.5q0 39 -18.5 58.5t-55.5 19.5q-46 0 -87.5 -38.5t-86.5 -123.5q-52 -93 -83 -187t-31 -142z" />
<glyph unicode="&#xab;" horiz-adv-x="805" d="M-2 451q90 67 179 141t181 158h29l2 -29q-43 -60 -98 -127.5t-131 -153.5q31 -62 53.5 -127.5t36.5 -132.5v-28h-29q-53 85 -108.5 159.5t-114.5 139.5zM307 451q95 71 186 145.5t177 153.5h28v-29q-46 -65 -102 -134t-125 -147q29 -58 51.5 -123.5t36.5 -136.5v-28h-29 q-53 85 -108.5 159.5t-114.5 139.5z" />
<glyph unicode="&#xac;" horiz-adv-x="1706" d="M254 696v166h1198v-502h-166v336h-1032z" />
<glyph unicode="&#xad;" horiz-adv-x="682" d="M14 346l52 209h458l-51 -209h-459z" />
<glyph unicode="&#xae;" horiz-adv-x="1683" d="M121 678q0 143 54.5 275t156.5 235q102 102 235 157.5t277 55.5t279 -57t235 -160q98 -102 151.5 -235.5t53.5 -278.5q0 -138 -59.5 -272.5t-166.5 -239.5q-101 -100 -228 -149.5t-282 -49.5q-135 0 -264 54.5t-229 154.5q-105 104 -159 234t-54 276zM219 678 q0 -126 47.5 -239.5t136.5 -202.5q91 -91 201.5 -137t237.5 -46q126 0 238.5 47t199.5 136q89 90 136.5 204.5t47.5 237.5q0 122 -48.5 240t-135.5 206q-86 86 -200 133.5t-236 47.5q-126 0 -241 -48t-202 -137q-89 -90 -135.5 -203t-46.5 -239zM467 287v46q64 4 88.5 24.5 t24.5 72.5v520q0 52 -23.5 72t-89.5 25v49h399q145 0 232.5 -55t87.5 -142q0 -84 -65.5 -133t-217.5 -76q96 -25 147.5 -73t69.5 -127q6 -24 10 -67q9 -91 54 -91q29 0 44 34t15 99h49v-23q0 -85 -43 -129.5t-127 -44.5q-46 0 -80 14.5t-53 43.5q-24 39 -27 111.5t-8 93.5 q-16 74 -60.5 109.5t-121.5 35.5h-24v-246q0 -49 22.5 -69.5t85.5 -26.5v-47h-389zM748 723q14 -1 27 -1.5t26 -0.5q100 0 154.5 44t54.5 126q0 70 -46.5 114t-121.5 44q-47 0 -70.5 -17.5t-23.5 -50.5v-258z" />
<glyph unicode="&#xaf;" horiz-adv-x="1024" d="M336 1126l26 125h517l-27 -125h-516z" />
<glyph unicode="&#xb0;" horiz-adv-x="674" d="M43 1163q0 125 86 211t209 86t209 -87t86 -210q0 -121 -87 -208t-210 -87t-208 85.5t-85 209.5zM152 1165q0 -76 54.5 -131t131.5 -55t130.5 54.5t53.5 131.5t-53.5 131t-130.5 54t-131.5 -54t-54.5 -131z" />
<glyph unicode="&#xb1;" horiz-adv-x="1706" d="M254 14v168h1198v-168h-1198zM254 707v165h514v334h170v-334h514v-165h-514v-334h-170v334h-514z" />
<glyph unicode="&#xb2;" horiz-adv-x="670" d="M8 592v10q0 75 38.5 143.5t127.5 151.5q30 28 86 78q203 182 203 282q0 55 -34.5 87t-90.5 32q-51 0 -97 -30.5t-100 -100.5l-28 6q56 127 126.5 186.5t163.5 59.5q97 0 159.5 -54.5t62.5 -137.5q0 -91 -62.5 -176t-183.5 -158l-24 -14q-219 -128 -269 -232h219 q80 0 115 16t55 56h33l-64 -205h-436z" />
<glyph unicode="&#xb3;" horiz-adv-x="670" d="M14 723q0 44 24 70t64 26q35 0 58.5 -20t23.5 -49q0 -32 -32.5 -62t-32.5 -39q0 -19 24.5 -33t61.5 -14q72 0 121 63.5t49 159.5q0 91 -42.5 141.5t-131.5 65.5l4 35q142 47 216.5 105.5t74.5 123.5q0 47 -31 75t-82 28q-48 0 -96 -29.5t-97 -89.5l-20 14 q55 101 126.5 152t158.5 51q83 0 131.5 -39t48.5 -106q0 -69 -57.5 -128t-198.5 -132q74 -28 115 -83.5t41 -127.5q0 -57 -25 -112.5t-70 -98.5q-49 -48 -105 -71.5t-122 -23.5q-86 0 -142.5 42t-56.5 106z" />
<glyph unicode="&#xb4;" horiz-adv-x="1024" d="M422 1040l299 314q18 19 40.5 31t41.5 12q27 0 47 -21t20 -49q0 -21 -15 -39.5t-54 -44.5l-307 -203h-72z" />
<glyph unicode="&#xb5;" horiz-adv-x="1184" d="M-109 -319q0 52 69 282.5t108 409.5l108 512h207l-100 -467q-10 -46 -15.5 -82t-5.5 -57q0 -64 37 -101t102 -37q87 0 139 53.5t76 167.5l111 523h209l-113 -533l-3 -15q-15 -70 -15 -110q0 -42 22.5 -66t63.5 -24q40 0 71 21.5t58 68.5q9 17 23 49q25 60 51 60 q11 0 16.5 -7.5t5.5 -23.5q0 -28 -17 -85.5t-40 -100.5q-41 -72 -95.5 -108t-123.5 -36q-84 0 -129.5 55t-47.5 156q-42 -104 -109.5 -157.5t-156.5 -53.5q-99 0 -156.5 58t-68.5 168q-23 -124 -48 -315q-39 -306 -134 -306q-47 0 -73 26.5t-26 74.5z" />
<glyph unicode="&#xb6;" horiz-adv-x="1024" d="M55 1130q0 158 107 253.5t284 95.5h523v-99h-117v-1380h-129v1380h-168v-1380h-131v784q-168 6 -268.5 101t-100.5 245z" />
<glyph unicode="&#xb7;" horiz-adv-x="508" d="M109 739q0 65 43.5 108.5t107.5 43.5t108 -44t44 -108q0 -63 -44.5 -107t-107.5 -44q-64 0 -107.5 43.5t-43.5 107.5z" />
<glyph unicode="&#xb8;" horiz-adv-x="1024" d="M59 -371l35 78q61 -34 119.5 -53t103.5 -19q64 0 92.5 22t28.5 71q0 42 -29 66t-81 24q-19 0 -43 -4.5t-52 -12.5l66 199h66l-37 -112q16 2 31.5 3.5t29.5 2.5q87 0 134.5 -43.5t47.5 -120.5q0 -82 -58.5 -129t-160.5 -47q-54 0 -121.5 17t-171.5 58z" />
<glyph unicode="&#xb9;" horiz-adv-x="670" d="M6 592l6 29q43 0 72.5 8t48.5 26q10 8 20.5 31.5t34.5 99.5l148 470q2 6 5 17q11 34 11 56q0 20 -26 30.5t-76 10.5h-31l6 27q100 6 177 30.5t139 69.5h26l-239 -756q-6 -17 -9.5 -32t-3.5 -29q0 -33 25 -46t92 -13h14l-6 -29h-434z" />
<glyph unicode="&#xba;" horiz-adv-x="676" d="M-10 1063q0 69 21.5 140t60.5 130q52 76 121.5 116t148.5 40q99 0 161 -68t62 -178q0 -70 -21.5 -141.5t-60.5 -128.5q-53 -78 -122.5 -119t-147.5 -41q-99 0 -161 69t-62 181zM121 930q0 -36 19 -58t48 -22q41 0 76 40.5t78 139.5q42 102 67 198.5t25 147.5q0 36 -18 56 t-49 20q-43 0 -78 -40t-76 -134q-42 -100 -67 -198t-25 -150z" />
<glyph unicode="&#xbb;" horiz-adv-x="805" d="M-55 180q46 65 102 134t125 147q-29 59 -51.5 124t-36.5 136v29h29q55 -89 110.5 -164t112.5 -137q-96 -73 -186 -146.5t-175 -150.5h-28zM256 152v28q46 65 102 134t125 147q-29 59 -51 124t-37 136v29h27q52 -84 109 -160t116 -141q-102 -77 -192 -151t-170 -146h-29z " />
<glyph unicode="&#xbc;" horiz-adv-x="1620" d="M6 651l6 27q41 0 69 8t45 24q11 10 21.5 33t32.5 91l141 435l5 15q10 34 10 55q0 19 -25 29t-73 10q-11 0 -17.5 -0.5t-11.5 -1.5l8 27q97 6 170 28.5t129 63.5h25l-228 -704q-6 -16 -9 -30t-3 -28q0 -31 23.5 -43t89.5 -12h12l-4 -27h-416zM297 -47l909 1554h115 l-907 -1554h-117zM1004 285v67l522 492h53l-149 -494h129l-21 -65h-129l-84 -285h-147l86 285h-260zM1063 350h219q28 79 60.5 161.5t72.5 174.5l-352 -328v-8z" />
<glyph unicode="&#xbd;" horiz-adv-x="1620" d="M6 651l6 27q41 0 69 8t45 24q11 10 21.5 33t32.5 91l141 435l5 15q10 34 10 55q0 19 -25 29t-73 10q-11 0 -17.5 -0.5t-11.5 -1.5l8 27q97 6 170 28.5t129 63.5h25l-228 -704q-6 -16 -9 -30t-3 -28q0 -31 23.5 -43t89.5 -12h12l-4 -27h-416zM297 -47l909 1554h115 l-907 -1554h-117zM989 0v10q0 70 37 134.5t121 140.5q27 24 77 68q197 173 197 268q0 50 -31.5 80t-84.5 30q-50 0 -93 -27.5t-96 -93.5l-26 6q53 117 120 172.5t156 55.5q92 0 151.5 -50.5t59.5 -127.5q0 -87 -59.5 -165.5t-176.5 -146.5q-10 -6 -31 -19 q-200 -117 -247 -212h209q73 0 107.5 15t54.5 52h32l-61 -190h-416z" />
<glyph unicode="&#xbe;" horiz-adv-x="1620" d="M12 774q0 41 23.5 65.5t62.5 24.5q34 0 56 -18.5t22 -46.5q0 -31 -31.5 -59t-31.5 -35q0 -18 24 -32t58 -14q69 0 116 60t47 149q0 85 -41 133t-124 60l4 35q134 42 205 97t71 116q0 44 -29 70t-77 26q-46 0 -92.5 -27.5t-92.5 -83.5l-20 13q54 94 122 141t150 47 q79 0 125.5 -36.5t46.5 -98.5q0 -64 -54 -118.5t-192 -125.5q70 -24 110 -76t40 -118q0 -52 -23.5 -104t-66.5 -95q-47 -44 -101 -66t-114 -22q-83 0 -138 40t-55 99zM297 -47l909 1554h115l-907 -1554h-117zM1004 285v67l522 492h53l-149 -494h129l-21 -65h-129l-84 -285 h-147l86 285h-260zM1063 350h219q28 79 60.5 161.5t72.5 174.5l-352 -328v-8z" />
<glyph unicode="&#xbf;" horiz-adv-x="1139" d="M70 309q0 133 97.5 237.5t278.5 166.5q44 14 160 45.5t162 62.5q41 27 61.5 62t20.5 78q0 41 -22.5 66.5t-59.5 25.5q-20 0 -29.5 -7.5t-9.5 -23.5q0 -11 15.5 -37.5t15.5 -46.5q0 -34 -22 -53t-62 -19q-37 0 -59.5 27t-22.5 72q0 61 45.5 102t114.5 41q68 0 109.5 -43 t41.5 -113q0 -121 -233 -242q-63 -32 -97 -51q-165 -92 -244 -189.5t-79 -209.5q0 -113 67 -176.5t187 -63.5q117 0 199.5 64t82.5 154q0 45 -25 77.5t-56 32.5q-14 0 -23.5 -7.5t-9.5 -16.5q0 -14 6 -42.5t6 -43.5q0 -54 -35.5 -85.5t-95.5 -31.5t-97.5 40t-37.5 105 q0 84 61.5 140.5t155.5 56.5q95 0 152 -57.5t57 -153.5q0 -127 -100.5 -204t-268.5 -77q-179 0 -293 95.5t-114 242.5zM721 1362q0 61 42 103t103 42q62 0 104 -42t42 -103q0 -62 -42 -103.5t-104 -41.5q-60 0 -102.5 42t-42.5 103z" />
<glyph unicode="&#xc0;" horiz-adv-x="1479" d="M-141 0l10 47q116 16 267 240q24 35 36 53l766 1114q54 2 105 15t102 38h51l-43 -1265v-27q0 -98 42 -133t161 -35l-10 -47h-682l10 47h26q116 0 152.5 37t40.5 173l4 153h-604l-103 -160q-17 -26 -25.5 -53t-8.5 -54q0 -43 29.5 -66.5t90.5 -29.5l-8 -47h-409zM340 475 h559l31 862zM877 1909q0 28 20 48t47 20q21 0 45 -15.5t43 -42.5l213 -301h-67l-244 205q-34 28 -45.5 46.5t-11.5 39.5z" />
<glyph unicode="&#xc1;" horiz-adv-x="1479" d="M-141 0l10 47q116 16 267 240q24 35 36 53l766 1114q54 2 105 15t102 38h51l-43 -1265v-27q0 -98 42 -133t161 -35l-10 -47h-682l10 47h26q116 0 152.5 37t40.5 173l4 153h-604l-103 -160q-17 -26 -25.5 -53t-8.5 -54q0 -43 29.5 -66.5t90.5 -29.5l-8 -47h-409zM340 475 h559l31 862zM930 1618l299 314q18 19 40.5 31t41.5 12q27 0 47 -21t20 -49q0 -21 -15 -39.5t-54 -44.5l-307 -203h-72z" />
<glyph unicode="&#xc2;" horiz-adv-x="1479" d="M-141 0l10 47q116 16 267 240q24 35 36 53l766 1114q54 2 105 15t102 38h51l-43 -1265v-27q0 -98 42 -133t161 -35l-10 -47h-682l10 47h26q116 0 152.5 37t40.5 173l4 153h-604l-103 -160q-17 -26 -25.5 -53t-8.5 -54q0 -43 29.5 -66.5t90.5 -29.5l-8 -47h-409zM340 475 h559l31 862zM787 1618l309 349h104l162 -349h-55l-178 207l-275 -207h-67z" />
<glyph unicode="&#xc3;" horiz-adv-x="1479" d="M-141 0l10 47q116 16 267 240q24 35 36 53l766 1114q54 2 105 15t102 38h51l-43 -1265v-27q0 -98 42 -133t161 -35l-10 -47h-682l10 47h26q116 0 152.5 37t40.5 173l4 153h-604l-103 -160q-17 -26 -25.5 -53t-8.5 -54q0 -43 29.5 -66.5t90.5 -29.5l-8 -47h-409zM340 475 h559l31 862zM825 1676q16 93 59.5 139.5t115.5 46.5q17 0 34.5 -3t38.5 -9l131 -37q14 -3 27.5 -4.5t28.5 -1.5q41 0 66 20t36 62h49q-18 -99 -63 -147t-119 -48q-17 0 -32.5 2t-29.5 6l-130 37q-5 1 -16 4q-35 8 -52 9q-38 0 -62.5 -19.5t-31.5 -56.5h-50z" />
<glyph unicode="&#xc4;" horiz-adv-x="1479" d="M-141 0l10 47q116 16 267 240q24 35 36 53l766 1114q54 2 105 15t102 38h51l-43 -1265v-27q0 -98 42 -133t161 -35l-10 -47h-682l10 47h26q116 0 152.5 37t40.5 173l4 153h-604l-103 -160q-17 -26 -25.5 -53t-8.5 -54q0 -43 29.5 -66.5t90.5 -29.5l-8 -47h-409zM340 475 h559l31 862zM830 1768q0 38 29.5 68t68.5 30q40 0 69 -29t29 -69q0 -44 -28 -72t-70 -28q-40 0 -69 29.5t-29 70.5zM1204 1768q0 38 30 68t69 30q40 0 69 -29t29 -69q0 -44 -28 -72t-70 -28q-41 0 -70 29.5t-29 70.5z" />
<glyph unicode="&#xc5;" horiz-adv-x="1479" d="M-141 0l10 47q115 19 286 263l21 30l723 1026q59 3 119.5 17t122.5 38h53l-41 -1179v-27q0 -98 42 -133t161 -35l-10 -47h-682l10 47h26q116 0 152.5 37t40.5 173l4 153h-604l-103 -160q-17 -26 -25.5 -53t-8.5 -54q0 -43 29.5 -66.5t90.5 -29.5l-8 -47h-409zM340 475 h559l25 787h-31zM801 1718q0 101 70 170.5t171 69.5q102 0 171 -69t69 -171t-69.5 -171.5t-170.5 -69.5t-171 70t-70 171zM887 1716q0 -65 45 -109t110 -44t109.5 44.5t44.5 108.5q0 66 -44.5 111t-109.5 45q-66 0 -110.5 -45t-44.5 -111z" />
<glyph unicode="&#xc6;" horiz-adv-x="2105" d="M-197 0l11 47q135 25 311 251l18 24l691 880q29 37 44 72t15 65q0 46 -45.5 73.5t-126.5 29.5l8 47h1231l65 -383h-47q-111 205 -186.5 270.5t-181.5 65.5h-209l-184 -649h114q155 0 223.5 54t128.5 208l50 -8l-183 -635l-47 12q16 74 20.5 103.5t4.5 50.5q0 83 -48 117 t-167 34h-115l-145 -508q-9 -32 -12 -48.5t-3 -29.5q0 -55 33 -75.5t131 -20.5h25q150 0 217 16t117 54q62 46 121 117t116 169l47 -10l-129 -393h-1167l8 47q98 4 146 45t79 152l121 424h-407l-318 -400q-30 -37 -44.5 -68t-14.5 -55q0 -43 34 -69t92 -29l-7 -47h-435z M549 733h371l188 658h-51z" />
<glyph unicode="&#xc7;" horiz-adv-x="1511" d="M92 526q0 154 69.5 318.5t198.5 316.5q143 167 319.5 256.5t358.5 89.5q62 0 119 -10.5t111 -32.5q36 -15 93 -46.5t77 -31.5q9 1 24 7t58 28h26l-133 -477l-61 10v60q0 238 -66.5 340t-218.5 102q-131 0 -258.5 -98t-239.5 -285q-88 -149 -134 -310t-46 -321 q0 -192 83 -303.5t224 -111.5q138 0 265 110t241 330l62 -18l-160 -478h-36q-15 29 -32.5 43.5t-38.5 14.5q-3 0 -106.5 -29t-204.5 -29q-258 0 -426 157t-168 398zM348 -371l35 78q61 -34 119.5 -53t103.5 -19q64 0 92.5 22t28.5 71q0 42 -29 66t-81 24q-19 0 -43 -4.5 t-52 -12.5l66 199h66l-37 -112q16 2 31.5 3.5t29.5 2.5q87 0 134.5 -43.5t47.5 -120.5q0 -82 -58.5 -129t-160.5 -47q-54 0 -121.5 17t-171.5 58z" />
<glyph unicode="&#xc8;" horiz-adv-x="1432" d="M-57 0l8 47q97 4 145.5 45t79.5 152l293 1024q8 28 12 47t4 31q0 54 -31.5 75t-121.5 21h-19l11 47h1030l63 -383h-47q-112 207 -186.5 271.5t-179.5 64.5h-209l-187 -649h117q154 0 223 54t129 208l49 -8l-182 -635l-47 12q12 57 17.5 93t5.5 61q0 83 -47.5 117 t-165.5 34h-115l-148 -508q-6 -20 -9 -39.5t-3 -42.5q0 -53 32.5 -72.5t131.5 -19.5q169 0 238.5 16t119.5 54q63 46 122 117t116 169l47 -10l-129 -393h-1167zM721 1909q0 28 20 48t47 20q21 0 45 -15.5t43 -42.5l213 -301h-67l-244 205q-34 28 -45.5 46.5t-11.5 39.5z" />
<glyph unicode="&#xc9;" horiz-adv-x="1432" d="M-57 0l8 47q97 4 145.5 45t79.5 152l293 1024q8 28 12 47t4 31q0 54 -31.5 75t-121.5 21h-19l11 47h1030l63 -383h-47q-112 207 -186.5 271.5t-179.5 64.5h-209l-187 -649h117q154 0 223 54t129 208l49 -8l-182 -635l-47 12q12 57 17.5 93t5.5 61q0 83 -47.5 117 t-165.5 34h-115l-148 -508q-6 -20 -9 -39.5t-3 -42.5q0 -53 32.5 -72.5t131.5 -19.5q169 0 238.5 16t119.5 54q63 46 122 117t116 169l47 -10l-129 -393h-1167zM774 1618l299 314q18 19 40.5 31t41.5 12q27 0 47 -21t20 -49q0 -21 -15 -39.5t-54 -44.5l-307 -203h-72z" />
<glyph unicode="&#xca;" horiz-adv-x="1432" d="M-57 0l8 47q97 4 145.5 45t79.5 152l293 1024q8 28 12 47t4 31q0 54 -31.5 75t-121.5 21h-19l11 47h1030l63 -383h-47q-112 207 -186.5 271.5t-179.5 64.5h-209l-187 -649h117q154 0 223 54t129 208l49 -8l-182 -635l-47 12q12 57 17.5 93t5.5 61q0 83 -47.5 117 t-165.5 34h-115l-148 -508q-6 -20 -9 -39.5t-3 -42.5q0 -53 32.5 -72.5t131.5 -19.5q169 0 238.5 16t119.5 54q63 46 122 117t116 169l47 -10l-129 -393h-1167zM631 1618l309 349h104l162 -349h-55l-178 207l-275 -207h-67z" />
<glyph unicode="&#xcb;" horiz-adv-x="1432" d="M-57 0l8 47q97 4 145.5 45t79.5 152l293 1024q8 28 12 47t4 31q0 54 -31.5 75t-121.5 21h-19l11 47h1030l63 -383h-47q-112 207 -186.5 271.5t-179.5 64.5h-209l-187 -649h117q154 0 223 54t129 208l49 -8l-182 -635l-47 12q12 57 17.5 93t5.5 61q0 83 -47.5 117 t-165.5 34h-115l-148 -508q-6 -20 -9 -39.5t-3 -42.5q0 -53 32.5 -72.5t131.5 -19.5q169 0 238.5 16t119.5 54q63 46 122 117t116 169l47 -10l-129 -393h-1167zM674 1768q0 38 29.5 68t68.5 30q40 0 69 -29t29 -69q0 -44 -28 -72t-70 -28q-40 0 -69 29.5t-29 70.5z M1048 1768q0 38 30 68t69 30q40 0 69 -29t29 -69q0 -44 -28 -72t-70 -28q-41 0 -70 29.5t-29 70.5z" />
<glyph unicode="&#xcc;" horiz-adv-x="909" d="M-57 0l8 47q97 4 145.5 45t79.5 152l293 1024q8 28 12 47t4 31q0 54 -31.5 75t-121.5 21h-19l11 47h649l-8 -47q-98 -5 -146 -45.5t-80 -151.5l-294 -1023q-8 -25 -11.5 -45t-3.5 -34q0 -55 32 -75.5t122 -20.5h18l-10 -47h-649zM490 1909q0 28 20 48t47 20 q21 0 45 -15.5t43 -42.5l213 -301h-67l-244 205q-34 28 -45.5 46.5t-11.5 39.5z" />
<glyph unicode="&#xcd;" horiz-adv-x="909" d="M-57 0l8 47q97 4 145.5 45t79.5 152l293 1024q8 28 12 47t4 31q0 54 -31.5 75t-121.5 21h-19l11 47h649l-8 -47q-98 -5 -146 -45.5t-80 -151.5l-294 -1023q-8 -25 -11.5 -45t-3.5 -34q0 -55 32 -75.5t122 -20.5h18l-10 -47h-649zM543 1618l299 314q18 19 40.5 31t41.5 12 q27 0 47 -21t20 -49q0 -21 -15 -39.5t-54 -44.5l-307 -203h-72z" />
<glyph unicode="&#xce;" horiz-adv-x="909" d="M-57 0l8 47q97 4 145.5 45t79.5 152l293 1024q8 28 12 47t4 31q0 54 -31.5 75t-121.5 21h-19l11 47h649l-8 -47q-98 -5 -146 -45.5t-80 -151.5l-294 -1023q-8 -25 -11.5 -45t-3.5 -34q0 -55 32 -75.5t122 -20.5h18l-10 -47h-649zM400 1618l309 349h104l162 -349h-55 l-178 207l-275 -207h-67z" />
<glyph unicode="&#xcf;" horiz-adv-x="909" d="M-57 0l8 47q97 4 145.5 45t79.5 152l293 1024q8 28 12 47t4 31q0 54 -31.5 75t-121.5 21h-19l11 47h649l-8 -47q-98 -5 -146 -45.5t-80 -151.5l-294 -1023q-8 -25 -11.5 -45t-3.5 -34q0 -55 32 -75.5t122 -20.5h18l-10 -47h-649zM443 1768q0 38 29.5 68t68.5 30 q40 0 69 -29t29 -69q0 -44 -28 -72t-70 -28q-40 0 -69 29.5t-29 70.5zM817 1768q0 38 30 68t69 30q40 0 69 -29t29 -69q0 -44 -28 -72t-70 -28q-41 0 -70 29.5t-29 70.5z" />
<glyph unicode="&#xd0;" horiz-adv-x="1716" d="M-55 0l10 47q97 4 144 43.5t81 153.5l148 504h-320l23 79h317l125 441q10 35 13 51t3 27q0 54 -31.5 75t-121.5 21h-19l11 47h555q335 0 521.5 -179.5t186.5 -498.5q0 -175 -63.5 -332.5t-177.5 -267.5q-120 -113 -287.5 -162t-464.5 -49h-653zM434 141q0 -45 40.5 -67.5 t121.5 -22.5q182 0 291.5 40t193.5 132q51 56 97 146.5t84 210.5q31 99 47 193.5t16 182.5q0 235 -109.5 352t-328.5 117q-38 0 -57.5 -1t-36.5 -3l-168 -594h356l-23 -79h-358l-143 -496l-3 -10q-20 -72 -20 -101z" />
<glyph unicode="&#xd1;" horiz-adv-x="1802" d="M-57 0l10 47q99 22 152 77t104 234l258 908q8 30 11 48.5t3 33.5q0 44 -28 63.5t-125 30.5l12 47h463l520 -1088l213 744q13 44 20 81t7 66q0 66 -40 101.5t-128 48.5l8 47h465l-10 -47q-100 -22 -152.5 -77t-103.5 -235l-322 -1130h-70l-645 1356l-291 -1014 q-13 -45 -19.5 -81t-6.5 -64q0 -66 40.5 -101.5t129.5 -48.5l-10 -47h-465zM884 1676q16 93 59.5 139.5t115.5 46.5q17 0 34.5 -3t38.5 -9l131 -37q14 -3 27.5 -4.5t28.5 -1.5q41 0 66 20t36 62h49q-18 -99 -63 -147t-119 -48q-17 0 -32.5 2t-29.5 6l-130 37q-5 1 -16 4 q-35 8 -52 9q-38 0 -62.5 -19.5t-31.5 -56.5h-50z" />
<glyph unicode="&#xd2;" horiz-adv-x="1583" d="M102 612q0 162 56.5 317t163.5 285q115 143 268 220t321 77q256 0 413 -176.5t157 -464.5q0 -172 -62 -335t-180 -299q-111 -129 -258 -199t-305 -70q-260 0 -417 176.5t-157 468.5zM358 383q0 -166 75.5 -262t205.5 -96q104 0 197.5 72.5t169.5 211.5q43 79 79.5 170.5 t65.5 194.5q35 124 53.5 230.5t18.5 191.5q0 166 -75.5 262t-205.5 96q-103 0 -197 -73t-170 -212q-42 -80 -78 -172t-65 -192q-37 -127 -55.5 -233t-18.5 -189zM768 1909q0 28 20 48t47 20q21 0 45 -15.5t43 -42.5l213 -301h-67l-244 205q-34 28 -45.5 46.5t-11.5 39.5z " />
<glyph unicode="&#xd3;" horiz-adv-x="1583" d="M102 612q0 162 56.5 317t163.5 285q115 143 268 220t321 77q256 0 413 -176.5t157 -464.5q0 -172 -62 -335t-180 -299q-111 -129 -258 -199t-305 -70q-260 0 -417 176.5t-157 468.5zM358 383q0 -166 75.5 -262t205.5 -96q104 0 197.5 72.5t169.5 211.5q43 79 79.5 170.5 t65.5 194.5q35 124 53.5 230.5t18.5 191.5q0 166 -75.5 262t-205.5 96q-103 0 -197 -73t-170 -212q-42 -80 -78 -172t-65 -192q-37 -127 -55.5 -233t-18.5 -189zM821 1618l299 314q18 19 40.5 31t41.5 12q27 0 47 -21t20 -49q0 -21 -15 -39.5t-54 -44.5l-307 -203h-72z" />
<glyph unicode="&#xd4;" horiz-adv-x="1583" d="M102 612q0 162 56.5 317t163.5 285q115 143 268 220t321 77q256 0 413 -176.5t157 -464.5q0 -172 -62 -335t-180 -299q-111 -129 -258 -199t-305 -70q-260 0 -417 176.5t-157 468.5zM358 383q0 -166 75.5 -262t205.5 -96q104 0 197.5 72.5t169.5 211.5q43 79 79.5 170.5 t65.5 194.5q35 124 53.5 230.5t18.5 191.5q0 166 -75.5 262t-205.5 96q-103 0 -197 -73t-170 -212q-42 -80 -78 -172t-65 -192q-37 -127 -55.5 -233t-18.5 -189zM678 1618l309 349h104l162 -349h-55l-178 207l-275 -207h-67z" />
<glyph unicode="&#xd5;" horiz-adv-x="1583" d="M102 612q0 162 56.5 317t163.5 285q115 143 268 220t321 77q256 0 413 -176.5t157 -464.5q0 -172 -62 -335t-180 -299q-111 -129 -258 -199t-305 -70q-260 0 -417 176.5t-157 468.5zM358 383q0 -166 75.5 -262t205.5 -96q104 0 197.5 72.5t169.5 211.5q43 79 79.5 170.5 t65.5 194.5q35 124 53.5 230.5t18.5 191.5q0 166 -75.5 262t-205.5 96q-103 0 -197 -73t-170 -212q-42 -80 -78 -172t-65 -192q-37 -127 -55.5 -233t-18.5 -189zM716 1676q16 93 59.5 139.5t115.5 46.5q17 0 34.5 -3t38.5 -9l131 -37q14 -3 27.5 -4.5t28.5 -1.5q41 0 66 20 t36 62h49q-18 -99 -63 -147t-119 -48q-17 0 -32.5 2t-29.5 6l-130 37q-5 1 -16 4q-35 8 -52 9q-38 0 -62.5 -19.5t-31.5 -56.5h-50z" />
<glyph unicode="&#xd6;" horiz-adv-x="1583" d="M102 612q0 162 56.5 317t163.5 285q115 143 268 220t321 77q256 0 413 -176.5t157 -464.5q0 -172 -62 -335t-180 -299q-111 -129 -258 -199t-305 -70q-260 0 -417 176.5t-157 468.5zM358 383q0 -166 75.5 -262t205.5 -96q104 0 197.5 72.5t169.5 211.5q43 79 79.5 170.5 t65.5 194.5q35 124 53.5 230.5t18.5 191.5q0 166 -75.5 262t-205.5 96q-103 0 -197 -73t-170 -212q-42 -80 -78 -172t-65 -192q-37 -127 -55.5 -233t-18.5 -189zM721 1768q0 38 29.5 68t68.5 30q40 0 69 -29t29 -69q0 -44 -28 -72t-70 -28q-40 0 -69 29.5t-29 70.5z M1095 1768q0 38 30 68t69 30q40 0 69 -29t29 -69q0 -44 -28 -72t-70 -28q-41 0 -70 29.5t-29 70.5z" />
<glyph unicode="&#xd7;" horiz-adv-x="1706" d="M287 152l458 458l-458 461l116 117l459 -459l461 459l117 -117l-459 -461l459 -458l-117 -119l-461 461l-459 -461z" />
<glyph unicode="&#xd8;" horiz-adv-x="1583" d="M102 602q0 165 56 321.5t164 290.5q113 142 264.5 218.5t318.5 76.5q61 0 118.5 -10.5t111.5 -32.5l112 211h88l-131 -243q136 -88 206.5 -232.5t70.5 -335.5q0 -171 -62.5 -334t-179.5 -296q-113 -130 -262 -200.5t-311 -70.5q-54 0 -107 11t-110 34l-121 -227h-86 l135 258q-132 78 -203.5 224t-71.5 337zM352 352q0 -78 17.5 -134t52.5 -93l678 1274q-36 26 -74 38.5t-82 12.5q-111 0 -202.5 -71t-172.5 -220q-98 -181 -157.5 -402t-59.5 -405zM483 78q33 -23 72.5 -35t83.5 -12q133 0 235.5 97.5t196.5 315.5q76 174 117 343t41 303 q0 82 -17.5 144.5t-54.5 108.5z" />
<glyph unicode="&#xd9;" horiz-adv-x="1792" d="M209 322q0 84 46 240q8 26 11 38l195 668q7 22 10.5 42t3.5 36q0 55 -31 75.5t-120 20.5h-19l8 47h652l-11 -47q-98 -4 -145.5 -44.5t-79.5 -152.5l-235 -813q-18 -57 -25.5 -95.5t-7.5 -66.5q0 -108 90 -166.5t256 -58.5q210 0 332.5 98t187.5 320l201 682 q13 43 19.5 81t6.5 66q0 66 -40.5 101.5t-129.5 48.5l11 47h463l-9 -47q-100 -22 -153.5 -78t-104.5 -234l-176 -614q-48 -170 -92.5 -257t-105.5 -140q-87 -75 -205 -111.5t-273 -36.5q-253 0 -391.5 92t-138.5 259zM959 1909q0 28 20 48t47 20q21 0 45 -15.5t43 -42.5 l213 -301h-67l-244 205q-34 28 -45.5 46.5t-11.5 39.5z" />
<glyph unicode="&#xda;" horiz-adv-x="1792" d="M209 322q0 84 46 240q8 26 11 38l195 668q7 22 10.5 42t3.5 36q0 55 -31 75.5t-120 20.5h-19l8 47h652l-11 -47q-98 -4 -145.5 -44.5t-79.5 -152.5l-235 -813q-18 -57 -25.5 -95.5t-7.5 -66.5q0 -108 90 -166.5t256 -58.5q210 0 332.5 98t187.5 320l201 682 q13 43 19.5 81t6.5 66q0 66 -40.5 101.5t-129.5 48.5l11 47h463l-9 -47q-100 -22 -153.5 -78t-104.5 -234l-176 -614q-48 -170 -92.5 -257t-105.5 -140q-87 -75 -205 -111.5t-273 -36.5q-253 0 -391.5 92t-138.5 259zM1012 1618l299 314q18 19 40.5 31t41.5 12q27 0 47 -21 t20 -49q0 -21 -15 -39.5t-54 -44.5l-307 -203h-72z" />
<glyph unicode="&#xdb;" horiz-adv-x="1792" d="M209 322q0 84 46 240q8 26 11 38l195 668q7 22 10.5 42t3.5 36q0 55 -31 75.5t-120 20.5h-19l8 47h652l-11 -47q-98 -4 -145.5 -44.5t-79.5 -152.5l-235 -813q-18 -57 -25.5 -95.5t-7.5 -66.5q0 -108 90 -166.5t256 -58.5q210 0 332.5 98t187.5 320l201 682 q13 43 19.5 81t6.5 66q0 66 -40.5 101.5t-129.5 48.5l11 47h463l-9 -47q-100 -22 -153.5 -78t-104.5 -234l-176 -614q-48 -170 -92.5 -257t-105.5 -140q-87 -75 -205 -111.5t-273 -36.5q-253 0 -391.5 92t-138.5 259zM869 1618l309 349h104l162 -349h-55l-178 207l-275 -207 h-67z" />
<glyph unicode="&#xdc;" horiz-adv-x="1792" d="M209 322q0 84 46 240q8 26 11 38l195 668q7 22 10.5 42t3.5 36q0 55 -31 75.5t-120 20.5h-19l8 47h652l-11 -47q-98 -4 -145.5 -44.5t-79.5 -152.5l-235 -813q-18 -57 -25.5 -95.5t-7.5 -66.5q0 -108 90 -166.5t256 -58.5q210 0 332.5 98t187.5 320l201 682 q13 43 19.5 81t6.5 66q0 66 -40.5 101.5t-129.5 48.5l11 47h463l-9 -47q-100 -22 -153.5 -78t-104.5 -234l-176 -614q-48 -170 -92.5 -257t-105.5 -140q-87 -75 -205 -111.5t-273 -36.5q-253 0 -391.5 92t-138.5 259zM912 1768q0 38 29.5 68t68.5 30q40 0 69 -29t29 -69 q0 -44 -28 -72t-70 -28q-40 0 -69 29.5t-29 70.5zM1286 1768q0 38 30 68t69 30q40 0 69 -29t29 -69q0 -44 -28 -72t-70 -28q-41 0 -70 29.5t-29 70.5z" />
<glyph unicode="&#xdd;" horiz-adv-x="1432" d="M119 0l8 47h41q115 0 168.5 40.5t85.5 156.5l147 506l-190 507q-40 105 -84 145t-115 40h-10l10 47h602l-10 -47h-29q-63 0 -92.5 -13.5t-29.5 -42.5q0 -20 7 -47.5t31 -89.5l166 -432l359 397q36 40 56 77.5t20 66.5q0 35 -31 58t-82 26l10 47h391l-8 -47 q-102 -24 -308 -256q-26 -30 -40 -45l-350 -393l-150 -527q-9 -34 -12.5 -50.5t-3.5 -27.5q0 -55 34.5 -76.5t129.5 -21.5q8 0 28.5 1t32.5 1l-10 -47h-772zM805 1618l299 314q18 19 40.5 31t41.5 12q27 0 47 -21t20 -49q0 -21 -15 -39.5t-54 -44.5l-307 -203h-72z" />
<glyph unicode="&#xde;" horiz-adv-x="1450" d="M-57 0l8 47q97 4 145.5 45t79.5 152l293 1024q9 31 12.5 49.5t3.5 28.5q0 54 -31.5 75t-121.5 21h-19l11 47h657l-8 -47q-96 -6 -141.5 -42.5t-83.5 -154.5l-33 -100h24q276 0 430 -96t154 -265q0 -194 -193 -294.5t-565 -100.5h-73l-47 -167q-8 -27 -11.5 -46.5 t-3.5 -32.5q0 -55 31 -75.5t121 -20.5h20l-10 -47h-649zM512 449q13 -2 27.5 -2.5t42.5 -0.5q217 0 338.5 101t121.5 280q0 125 -64 189.5t-187 64.5q-57 0 -81 -19.5t-46 -94.5z" />
<glyph unicode="&#xdf;" horiz-adv-x="995" d="M-420 -262q0 39 24 62.5t64 23.5q25 0 43.5 -11t40.5 -40q6 -8 16 -22q34 -48 68 -48q81 0 179 486q37 185 61 294q131 608 257 817t329 209q126 0 203 -81t77 -216q0 -137 -82 -231t-252 -152q114 -47 171 -129.5t57 -199.5q0 -95 -39 -201t-101 -180q-61 -74 -126 -111 t-134 -37q-84 0 -135 48.5t-51 127.5q0 50 22 76.5t64 26.5q31 0 49 -15.5t18 -41.5q0 -22 -10 -60.5t-10 -54.5t10 -27.5t23 -11.5q22 0 58 57t69 148q40 114 64 229t24 191q0 74 -35.5 110.5t-108.5 36.5h-24l4 37q81 6 131 42.5t86 119.5q30 68 50 164t20 167 q0 60 -26 92.5t-73 32.5q-151 0 -304 -658q-41 -172 -64 -269q-83 -337 -133.5 -483t-104.5 -230q-66 -104 -146.5 -159.5t-164.5 -55.5q-67 0 -112.5 37t-45.5 90z" />
<glyph unicode="&#xe0;" horiz-adv-x="1118" d="M-29 209q0 90 46 202t135 238q95 134 210.5 207.5t229.5 73.5q51 0 100.5 -18.5t100.5 -55.5l100 74h55l-219 -717q-5 -17 -7.5 -32.5t-2.5 -30.5q0 -22 5.5 -30.5t18.5 -8.5q30 0 60.5 33t107.5 167l39 -26q-68 -146 -158 -230t-176 -84q-50 0 -75 26t-25 79 q0 19 7.5 54t29.5 116l-21 6q-83 -143 -168 -212t-178 -69q-99 0 -157 64t-58 174zM201 188q0 -42 24.5 -68t63.5 -26q52 0 110 58t129 182q73 124 115.5 246.5t42.5 197.5q0 56 -24.5 83.5t-73.5 27.5q-62 0 -117 -54t-117 -176q-69 -134 -111 -268t-42 -203zM406 1331 q0 28 20 48t47 20q21 0 45 -15.5t43 -42.5l213 -301h-67l-244 205q-34 28 -45.5 46.5t-11.5 39.5z" />
<glyph unicode="&#xe1;" horiz-adv-x="1118" d="M-29 209q0 90 46 202t135 238q95 134 210.5 207.5t229.5 73.5q51 0 100.5 -18.5t100.5 -55.5l100 74h55l-219 -717q-5 -17 -7.5 -32.5t-2.5 -30.5q0 -22 5.5 -30.5t18.5 -8.5q30 0 60.5 33t107.5 167l39 -26q-68 -146 -158 -230t-176 -84q-50 0 -75 26t-25 79 q0 19 7.5 54t29.5 116l-21 6q-83 -143 -168 -212t-178 -69q-99 0 -157 64t-58 174zM201 188q0 -42 24.5 -68t63.5 -26q52 0 110 58t129 182q73 124 115.5 246.5t42.5 197.5q0 56 -24.5 83.5t-73.5 27.5q-62 0 -117 -54t-117 -176q-69 -134 -111 -268t-42 -203zM459 1040 l299 314q18 19 40.5 31t41.5 12q27 0 47 -21t20 -49q0 -21 -15 -39.5t-54 -44.5l-307 -203h-72z" />
<glyph unicode="&#xe2;" horiz-adv-x="1118" d="M-29 209q0 90 46 202t135 238q95 134 210.5 207.5t229.5 73.5q51 0 100.5 -18.5t100.5 -55.5l100 74h55l-219 -717q-5 -17 -7.5 -32.5t-2.5 -30.5q0 -22 5.5 -30.5t18.5 -8.5q30 0 60.5 33t107.5 167l39 -26q-68 -146 -158 -230t-176 -84q-50 0 -75 26t-25 79 q0 19 7.5 54t29.5 116l-21 6q-83 -143 -168 -212t-178 -69q-99 0 -157 64t-58 174zM201 188q0 -42 24.5 -68t63.5 -26q52 0 110 58t129 182q73 124 115.5 246.5t42.5 197.5q0 56 -24.5 83.5t-73.5 27.5q-62 0 -117 -54t-117 -176q-69 -134 -111 -268t-42 -203zM316 1040 l309 349h104l162 -349h-55l-178 207l-275 -207h-67z" />
<glyph unicode="&#xe3;" horiz-adv-x="1118" d="M-29 209q0 90 46 202t135 238q95 134 210.5 207.5t229.5 73.5q51 0 100.5 -18.5t100.5 -55.5l100 74h55l-219 -717q-5 -17 -7.5 -32.5t-2.5 -30.5q0 -22 5.5 -30.5t18.5 -8.5q30 0 60.5 33t107.5 167l39 -26q-68 -146 -158 -230t-176 -84q-50 0 -75 26t-25 79 q0 19 7.5 54t29.5 116l-21 6q-83 -143 -168 -212t-178 -69q-99 0 -157 64t-58 174zM201 188q0 -42 24.5 -68t63.5 -26q52 0 110 58t129 182q73 124 115.5 246.5t42.5 197.5q0 56 -24.5 83.5t-73.5 27.5q-62 0 -117 -54t-117 -176q-69 -134 -111 -268t-42 -203zM354 1098 q16 93 59.5 139.5t115.5 46.5q17 0 34.5 -3t38.5 -9l131 -37q14 -3 27.5 -4.5t28.5 -1.5q41 0 66 20t36 62h49q-18 -99 -63 -147t-119 -48q-17 0 -32.5 2t-29.5 6l-130 37q-5 1 -16 4q-35 8 -52 9q-38 0 -62.5 -19.5t-31.5 -56.5h-50z" />
<glyph unicode="&#xe4;" horiz-adv-x="1118" d="M-29 209q0 90 46 202t135 238q95 134 210.5 207.5t229.5 73.5q51 0 100.5 -18.5t100.5 -55.5l100 74h55l-219 -717q-5 -17 -7.5 -32.5t-2.5 -30.5q0 -22 5.5 -30.5t18.5 -8.5q30 0 60.5 33t107.5 167l39 -26q-68 -146 -158 -230t-176 -84q-50 0 -75 26t-25 79 q0 19 7.5 54t29.5 116l-21 6q-83 -143 -168 -212t-178 -69q-99 0 -157 64t-58 174zM201 188q0 -42 24.5 -68t63.5 -26q52 0 110 58t129 182q73 124 115.5 246.5t42.5 197.5q0 56 -24.5 83.5t-73.5 27.5q-62 0 -117 -54t-117 -176q-69 -134 -111 -268t-42 -203zM359 1190 q0 38 29.5 68t68.5 30q40 0 69 -29t29 -69q0 -44 -28 -72t-70 -28q-40 0 -69 29.5t-29 70.5zM733 1190q0 38 30 68t69 30q40 0 69 -29t29 -69q0 -44 -28 -72t-70 -28q-41 0 -70 29.5t-29 70.5z" />
<glyph unicode="&#xe5;" horiz-adv-x="1118" d="M-29 209q0 90 46 202t135 238q97 136 212 210.5t228 74.5q48 0 97.5 -19.5t103.5 -58.5l100 74h55l-219 -717q-5 -17 -7.5 -32.5t-2.5 -30.5q0 -22 5.5 -30.5t18.5 -8.5q30 0 60.5 33t107.5 167l39 -26q-68 -146 -158 -230t-176 -84q-50 0 -75 26t-25 79q0 19 7.5 54 t29.5 116l-21 6q-83 -143 -168 -212t-178 -69q-99 0 -157 64t-58 174zM201 188q0 -42 24.5 -68t63.5 -26q52 0 110 58t129 182q73 124 115.5 246.5t42.5 197.5q0 56 -24.5 83.5t-73.5 27.5q-62 0 -117 -54t-117 -176q-69 -134 -111 -268t-42 -203zM446 1237q0 101 70 170.5 t172 69.5t171 -69.5t69 -170.5q0 -102 -69.5 -172t-170.5 -70t-171.5 70.5t-70.5 171.5zM532 1235q0 -65 45 -109.5t111 -44.5q65 0 109.5 44.5t44.5 109.5q0 66 -44.5 111t-109.5 45q-66 0 -111 -45t-45 -111z" />
<glyph unicode="&#xe6;" horiz-adv-x="1319" d="M-49 213q0 134 78 256t229 221q174 114 370 177t376 63q102 0 162.5 -45.5t60.5 -122.5q0 -112 -136 -213t-407 -191q-12 -56 -17 -97t-5 -71q0 -61 26.5 -92.5t77.5 -31.5q70 0 149.5 67t165.5 199l37 -33q-84 -159 -189.5 -242.5t-221.5 -83.5q-89 0 -151.5 44 t-111.5 139q-76 -103 -139 -143t-141 -40q-100 0 -156.5 64t-56.5 176zM158 227q0 -62 27 -97.5t75 -35.5q35 0 69 22.5t66 67.5q45 63 82 195q12 43 19 64q42 129 116.5 231t190.5 190q-298 -72 -471.5 -244.5t-173.5 -392.5zM698 422q154 49 247 146.5t93 203.5 q0 48 -20.5 76.5t-54.5 28.5q-71 0 -143 -123t-122 -332z" />
<glyph unicode="&#xe7;" horiz-adv-x="901" d="M-31 -371l35 78q61 -34 119.5 -53t103.5 -19q64 0 92.5 22t28.5 71q0 42 -29 66t-81 24q-19 0 -43 -4.5t-52 -12.5l66 199h66l-37 -112q16 2 31.5 3.5t29.5 2.5q87 0 134.5 -43.5t47.5 -120.5q0 -82 -58.5 -129t-160.5 -47q-54 0 -121.5 17t-171.5 58zM-12 250 q0 89 33 191t94 198q90 143 199 217t229 74q104 0 168.5 -47.5t64.5 -122.5q0 -41 -27 -66.5t-71 -25.5q-49 0 -83 31t-34 75q0 7 3 23t3 24q0 29 -14.5 45.5t-40.5 16.5q-46 0 -88.5 -36.5t-83.5 -111.5q-53 -95 -88 -235.5t-35 -255.5q0 -94 25.5 -132t85.5 -38 q73 0 152.5 74t142.5 204l39 -20q-71 -170 -185 -266.5t-241 -96.5q-116 0 -182 74.5t-66 206.5z" />
<glyph unicode="&#xe8;" horiz-adv-x="901" d="M-14 266q0 95 41.5 195.5t126.5 210.5q102 132 201.5 195t207.5 63q94 0 151.5 -46.5t57.5 -121.5q0 -112 -136 -213t-407 -191q-11 -56 -16.5 -97t-5.5 -71q0 -61 26.5 -92.5t77.5 -31.5q70 0 149.5 67t166.5 199l35 -33q-85 -160 -190.5 -244t-221.5 -84 q-123 0 -193.5 79t-70.5 216zM242 422q154 49 248 146.5t94 203.5q0 48 -20.5 76.5t-55.5 28.5q-71 0 -145.5 -125.5t-120.5 -329.5zM318 1331q0 28 20 48t47 20q21 0 45 -15.5t43 -42.5l213 -301h-67l-244 205q-34 28 -45.5 46.5t-11.5 39.5z" />
<glyph unicode="&#xe9;" horiz-adv-x="901" d="M-14 266q0 95 41.5 195.5t126.5 210.5q102 132 201.5 195t207.5 63q94 0 151.5 -46.5t57.5 -121.5q0 -112 -136 -213t-407 -191q-11 -56 -16.5 -97t-5.5 -71q0 -61 26.5 -92.5t77.5 -31.5q70 0 149.5 67t166.5 199l35 -33q-85 -160 -190.5 -244t-221.5 -84 q-123 0 -193.5 79t-70.5 216zM242 422q154 49 248 146.5t94 203.5q0 48 -20.5 76.5t-55.5 28.5q-71 0 -145.5 -125.5t-120.5 -329.5zM371 1040l299 314q18 19 40.5 31t41.5 12q27 0 47 -21t20 -49q0 -21 -15 -39.5t-54 -44.5l-307 -203h-72z" />
<glyph unicode="&#xea;" horiz-adv-x="901" d="M-14 266q0 95 41.5 195.5t126.5 210.5q102 132 201.5 195t207.5 63q94 0 151.5 -46.5t57.5 -121.5q0 -112 -136 -213t-407 -191q-11 -56 -16.5 -97t-5.5 -71q0 -61 26.5 -92.5t77.5 -31.5q70 0 149.5 67t166.5 199l35 -33q-85 -160 -190.5 -244t-221.5 -84 q-123 0 -193.5 79t-70.5 216zM228 1040l309 349h104l162 -349h-55l-178 207l-275 -207h-67zM242 422q154 49 248 146.5t94 203.5q0 48 -20.5 76.5t-55.5 28.5q-71 0 -145.5 -125.5t-120.5 -329.5z" />
<glyph unicode="&#xeb;" horiz-adv-x="901" d="M-14 266q0 95 41.5 195.5t126.5 210.5q102 132 201.5 195t207.5 63q94 0 151.5 -46.5t57.5 -121.5q0 -112 -136 -213t-407 -191q-11 -56 -16.5 -97t-5.5 -71q0 -61 26.5 -92.5t77.5 -31.5q70 0 149.5 67t166.5 199l35 -33q-85 -160 -190.5 -244t-221.5 -84 q-123 0 -193.5 79t-70.5 216zM242 422q154 49 248 146.5t94 203.5q0 48 -20.5 76.5t-55.5 28.5q-71 0 -145.5 -125.5t-120.5 -329.5zM271 1190q0 38 29.5 68t68.5 30q40 0 69 -29t29 -69q0 -44 -28 -72t-70 -28q-40 0 -69 29.5t-29 70.5zM645 1190q0 38 30 68t69 30 q40 0 69 -29t29 -69q0 -44 -28 -72t-70 -28q-41 0 -70 29.5t-29 70.5z" />
<glyph unicode="&#xec;" horiz-adv-x="682" d="M20 608q84 160 167.5 241t164.5 81q63 0 92 -32t29 -101q0 -21 -8.5 -54t-24.5 -75l-170 -459q-9 -28 -11.5 -38t-2.5 -15q0 -16 11 -27.5t26 -11.5q24 0 61 44.5t111 168.5l43 -23q-84 -159 -167.5 -240t-164.5 -81q-63 0 -92 30.5t-29 98.5q0 22 8.5 55t24.5 76 l172 461q6 19 9 31t3 20q0 16 -10 28.5t-24 12.5q-25 0 -64 -47t-111 -166zM199 1331q0 28 20 48t47 20q21 0 45 -15.5t43 -42.5l213 -301h-67l-244 205q-34 28 -45.5 46.5t-11.5 39.5z" />
<glyph unicode="&#xed;" horiz-adv-x="682" d="M20 608q84 160 167.5 241t164.5 81q63 0 92 -32t29 -101q0 -21 -8.5 -54t-24.5 -75l-170 -459q-9 -28 -11.5 -38t-2.5 -15q0 -16 11 -27.5t26 -11.5q24 0 61 44.5t111 168.5l43 -23q-84 -159 -167.5 -240t-164.5 -81q-63 0 -92 30.5t-29 98.5q0 22 8.5 55t24.5 76 l172 461q6 19 9 31t3 20q0 16 -10 28.5t-24 12.5q-25 0 -64 -47t-111 -166zM252 1040l299 314q18 19 40.5 31t41.5 12q27 0 47 -21t20 -49q0 -21 -15 -39.5t-54 -44.5l-307 -203h-72z" />
<glyph unicode="&#xee;" horiz-adv-x="682" d="M20 608q84 160 167.5 241t164.5 81q63 0 92 -32t29 -101q0 -21 -8.5 -54t-24.5 -75l-170 -459q-9 -28 -11.5 -38t-2.5 -15q0 -16 11 -27.5t26 -11.5q24 0 61 44.5t111 168.5l43 -23q-84 -159 -167.5 -240t-164.5 -81q-63 0 -92 30.5t-29 98.5q0 22 8.5 55t24.5 76 l172 461q6 19 9 31t3 20q0 16 -10 28.5t-24 12.5q-25 0 -64 -47t-111 -166zM109 1040l309 349h104l162 -349h-55l-178 207l-275 -207h-67z" />
<glyph unicode="&#xef;" horiz-adv-x="682" d="M20 608q84 160 167.5 241t164.5 81q63 0 92 -32t29 -101q0 -21 -8.5 -54t-24.5 -75l-170 -459q-9 -28 -11.5 -38t-2.5 -15q0 -16 11 -27.5t26 -11.5q24 0 61 44.5t111 168.5l43 -23q-84 -159 -167.5 -240t-164.5 -81q-63 0 -92 30.5t-29 98.5q0 22 8.5 55t24.5 76 l172 461q6 19 9 31t3 20q0 16 -10 28.5t-24 12.5q-25 0 -64 -47t-111 -166zM152 1190q0 38 29.5 68t68.5 30q40 0 69 -29t29 -69q0 -44 -28 -72t-70 -28q-40 0 -69 29.5t-29 70.5zM526 1190q0 38 30 68t69 30q40 0 69 -29t29 -69q0 -44 -28 -72t-70 -28q-41 0 -70 29.5 t-29 70.5z" />
<glyph unicode="&#xf0;" horiz-adv-x="901" d="M-14 322q0 100 29 201.5t81 185.5q70 110 161.5 168.5t193.5 58.5q29 0 58 -6t60 -19q-17 75 -39 142t-49 127l-233 -62l-15 60l216 55q-24 44 -66.5 106.5t-101.5 139.5l28 28q63 -53 123.5 -115t118.5 -132l229 61l17 -57l-205 -56q88 -133 132 -272t44 -281 q0 -123 -32.5 -243t-92.5 -219q-66 -109 -160 -168.5t-198 -59.5q-134 0 -216.5 98t-82.5 259zM162 131q0 -53 24 -84t64 -31q54 0 102 60t103 198q56 144 89.5 281.5t33.5 216.5q0 51 -25 82t-66 31q-53 0 -100 -58.5t-102 -197.5q-57 -143 -90 -281.5t-33 -216.5z" />
<glyph unicode="&#xf1;" horiz-adv-x="1139" d="M-29 582q80 164 167 256t163 92q52 0 82.5 -37t30.5 -100q0 -38 -16.5 -112t-49.5 -187l19 -7q119 221 225 332t196 111q63 0 101.5 -43.5t38.5 -114.5q0 -37 -14 -90.5t-56 -163.5l-119 -309q-6 -18 -9 -31.5t-3 -21.5q0 -17 10.5 -28t24.5 -11q24 0 63 47t111 166 l43 -23q-84 -159 -167.5 -240t-164.5 -81q-63 0 -92 30.5t-29 98.5q0 20 8.5 54t24.5 77l135 372q19 53 29 93.5t10 64.5q0 15 -11 23t-32 8q-78 0 -218.5 -233.5t-248.5 -573.5h-194l200 696q8 25 11.5 44.5t3.5 37.5q0 14 -10 25.5t-21 11.5q-23 0 -80.5 -72t-114.5 -180z M395 1098q16 93 59.5 139.5t115.5 46.5q17 0 34.5 -3t38.5 -9l131 -37q14 -3 27.5 -4.5t28.5 -1.5q41 0 66 20t36 62h49q-18 -99 -63 -147t-119 -48q-17 0 -32.5 2t-29.5 6l-130 37q-5 1 -16 4q-35 8 -52 9q-38 0 -62.5 -19.5t-31.5 -56.5h-50z" />
<glyph unicode="&#xf2;" horiz-adv-x="901" d="M-14 322q0 100 29 201.5t81 185.5q68 107 160.5 164t198.5 57q132 0 215.5 -97t83.5 -253q0 -102 -29.5 -204t-81.5 -183q-69 -110 -162 -169t-196 -59q-134 0 -216.5 98t-82.5 259zM162 131q0 -52 24.5 -83.5t65.5 -31.5q53 0 100 59t103 199q56 144 89.5 282t33.5 214 q0 52 -23.5 80.5t-65.5 28.5q-56 0 -103 -57t-101 -193q-57 -142 -90 -281.5t-33 -216.5zM297 1331q0 28 20 48t47 20q21 0 45 -15.5t43 -42.5l213 -301h-67l-244 205q-34 28 -45.5 46.5t-11.5 39.5z" />
<glyph unicode="&#xf3;" horiz-adv-x="901" d="M-14 322q0 100 29 201.5t81 185.5q68 107 160.5 164t198.5 57q132 0 215.5 -97t83.5 -253q0 -102 -29.5 -204t-81.5 -183q-69 -110 -162 -169t-196 -59q-134 0 -216.5 98t-82.5 259zM162 131q0 -52 24.5 -83.5t65.5 -31.5q53 0 100 59t103 199q56 144 89.5 282t33.5 214 q0 52 -23.5 80.5t-65.5 28.5q-56 0 -103 -57t-101 -193q-57 -142 -90 -281.5t-33 -216.5zM350 1040l299 314q18 19 40.5 31t41.5 12q27 0 47 -21t20 -49q0 -21 -15 -39.5t-54 -44.5l-307 -203h-72z" />
<glyph unicode="&#xf4;" horiz-adv-x="901" d="M-14 322q0 100 29 201.5t81 185.5q68 107 160.5 164t198.5 57q132 0 215.5 -97t83.5 -253q0 -102 -29.5 -204t-81.5 -183q-69 -110 -162 -169t-196 -59q-134 0 -216.5 98t-82.5 259zM162 131q0 -52 24.5 -83.5t65.5 -31.5q53 0 100 59t103 199q56 144 89.5 282t33.5 214 q0 52 -23.5 80.5t-65.5 28.5q-56 0 -103 -57t-101 -193q-57 -142 -90 -281.5t-33 -216.5zM207 1040l309 349h104l162 -349h-55l-178 207l-275 -207h-67z" />
<glyph unicode="&#xf5;" horiz-adv-x="901" d="M-14 322q0 100 29 201.5t81 185.5q68 107 160.5 164t198.5 57q132 0 215.5 -97t83.5 -253q0 -102 -29.5 -204t-81.5 -183q-69 -110 -162 -169t-196 -59q-134 0 -216.5 98t-82.5 259zM162 131q0 -52 24.5 -83.5t65.5 -31.5q53 0 100 59t103 199q56 144 89.5 282t33.5 214 q0 52 -23.5 80.5t-65.5 28.5q-56 0 -103 -57t-101 -193q-57 -142 -90 -281.5t-33 -216.5zM245 1098q16 93 59.5 139.5t115.5 46.5q17 0 34.5 -3t38.5 -9l131 -37q14 -3 27.5 -4.5t28.5 -1.5q41 0 66 20t36 62h49q-18 -99 -63 -147t-119 -48q-17 0 -32.5 2t-29.5 6l-130 37 q-5 1 -16 4q-35 8 -52 9q-38 0 -62.5 -19.5t-31.5 -56.5h-50z" />
<glyph unicode="&#xf6;" horiz-adv-x="901" d="M-14 322q0 100 29 201.5t81 185.5q68 107 160.5 164t198.5 57q132 0 215.5 -97t83.5 -253q0 -102 -29.5 -204t-81.5 -183q-69 -110 -162 -169t-196 -59q-134 0 -216.5 98t-82.5 259zM162 131q0 -52 24.5 -83.5t65.5 -31.5q53 0 100 59t103 199q56 144 89.5 282t33.5 214 q0 52 -23.5 80.5t-65.5 28.5q-56 0 -103 -57t-101 -193q-57 -142 -90 -281.5t-33 -216.5zM250 1190q0 38 29.5 68t68.5 30q40 0 69 -29t29 -69q0 -44 -28 -72t-70 -28q-40 0 -69 29.5t-29 70.5zM624 1190q0 38 30 68t69 30q40 0 69 -29t29 -69q0 -44 -28 -72t-70 -28 q-41 0 -70 29.5t-29 70.5z" />
<glyph unicode="&#xf7;" horiz-adv-x="1706" d="M254 528v166h1198v-166h-1198zM717 229q0 57 40.5 97.5t96.5 40.5q57 0 97 -40.5t40 -97.5q0 -56 -39.5 -95.5t-97.5 -39.5t-97.5 39t-39.5 96zM717 989q0 57 40.5 98t96.5 41q57 0 97 -41t40 -98q0 -56 -39.5 -95.5t-97.5 -39.5t-97.5 39t-39.5 96z" />
<glyph unicode="&#xf8;" horiz-adv-x="901" d="M-27 319q0 103 30.5 205t84.5 185q71 110 164.5 167.5t202.5 57.5q20 0 42.5 -3.5t53.5 -10.5l102 219h74l-115 -250q74 -42 113 -121.5t39 -189.5q0 -123 -45 -244.5t-123 -212.5q-67 -78 -151.5 -117t-186.5 -39q-16 0 -33.5 3t-40.5 9l-118 -251h-70l133 280 q-77 49 -116.5 128.5t-39.5 184.5zM133 141q0 -27 5.5 -49t17.5 -41l383 821q-14 7 -28.5 10t-29.5 3q-53 0 -107 -64.5t-110 -193.5q-60 -143 -95.5 -277t-35.5 -209zM203 19q11 -3 23.5 -5t23.5 -2q57 0 109.5 61.5t109.5 194.5q61 144 97 280.5t36 213.5q0 23 -5 42 t-15 36z" />
<glyph unicode="&#xf9;" horiz-adv-x="1186" d="M12 608q88 159 176 240.5t172 81.5q66 0 96.5 -32t30.5 -101q0 -18 -8 -49t-26 -80l-144 -373q-24 -63 -31.5 -91.5t-7.5 -49.5q0 -24 12.5 -34.5t41.5 -10.5q75 0 223 234.5t260 569.5h203l-209 -694q-8 -24 -12.5 -47t-4.5 -37t10.5 -25.5t22.5 -11.5q26 0 84.5 71 t118.5 181l49 -16q-84 -166 -175 -258t-169 -92q-53 0 -86 38t-33 101q0 39 17 114t51 185l-19 4q-123 -220 -235 -331t-209 -111q-66 0 -105.5 43.5t-39.5 115.5q0 35 13 84t60 170l123 309q7 19 10.5 31.5t3.5 20.5q0 15 -11.5 28t-24.5 13q-26 0 -66.5 -46.5 t-116.5 -166.5zM451 1331q0 28 20 48t47 20q21 0 45 -15.5t43 -42.5l213 -301h-67l-244 205q-34 28 -45.5 46.5t-11.5 39.5z" />
<glyph unicode="&#xfa;" horiz-adv-x="1186" d="M12 608q88 159 176 240.5t172 81.5q66 0 96.5 -32t30.5 -101q0 -18 -8 -49t-26 -80l-144 -373q-24 -63 -31.5 -91.5t-7.5 -49.5q0 -24 12.5 -34.5t41.5 -10.5q75 0 223 234.5t260 569.5h203l-209 -694q-8 -24 -12.5 -47t-4.5 -37t10.5 -25.5t22.5 -11.5q26 0 84.5 71 t118.5 181l49 -16q-84 -166 -175 -258t-169 -92q-53 0 -86 38t-33 101q0 39 17 114t51 185l-19 4q-123 -220 -235 -331t-209 -111q-66 0 -105.5 43.5t-39.5 115.5q0 35 13 84t60 170l123 309q7 19 10.5 31.5t3.5 20.5q0 15 -11.5 28t-24.5 13q-26 0 -66.5 -46.5 t-116.5 -166.5zM504 1040l299 314q18 19 40.5 31t41.5 12q27 0 47 -21t20 -49q0 -21 -15 -39.5t-54 -44.5l-307 -203h-72z" />
<glyph unicode="&#xfb;" horiz-adv-x="1186" d="M12 608q88 159 176 240.5t172 81.5q66 0 96.5 -32t30.5 -101q0 -18 -8 -49t-26 -80l-144 -373q-24 -63 -31.5 -91.5t-7.5 -49.5q0 -24 12.5 -34.5t41.5 -10.5q75 0 223 234.5t260 569.5h203l-209 -694q-8 -24 -12.5 -47t-4.5 -37t10.5 -25.5t22.5 -11.5q26 0 84.5 71 t118.5 181l49 -16q-84 -166 -175 -258t-169 -92q-53 0 -86 38t-33 101q0 39 17 114t51 185l-19 4q-123 -220 -235 -331t-209 -111q-66 0 -105.5 43.5t-39.5 115.5q0 35 13 84t60 170l123 309q7 19 10.5 31.5t3.5 20.5q0 15 -11.5 28t-24.5 13q-26 0 -66.5 -46.5 t-116.5 -166.5zM361 1040l309 349h104l162 -349h-55l-178 207l-275 -207h-67z" />
<glyph unicode="&#xfc;" horiz-adv-x="1186" d="M12 608q88 159 176 240.5t172 81.5q66 0 96.5 -32t30.5 -101q0 -18 -8 -49t-26 -80l-144 -373q-24 -63 -31.5 -91.5t-7.5 -49.5q0 -24 12.5 -34.5t41.5 -10.5q75 0 223 234.5t260 569.5h203l-209 -694q-8 -24 -12.5 -47t-4.5 -37t10.5 -25.5t22.5 -11.5q26 0 84.5 71 t118.5 181l49 -16q-84 -166 -175 -258t-169 -92q-53 0 -86 38t-33 101q0 39 17 114t51 185l-19 4q-123 -220 -235 -331t-209 -111q-66 0 -105.5 43.5t-39.5 115.5q0 35 13 84t60 170l123 309q7 19 10.5 31.5t3.5 20.5q0 15 -11.5 28t-24.5 13q-26 0 -66.5 -46.5 t-116.5 -166.5zM404 1190q0 38 29.5 68t68.5 30q40 0 69 -29t29 -69q0 -44 -28 -72t-70 -28q-40 0 -69 29.5t-29 70.5zM778 1190q0 38 30 68t69 30q40 0 69 -29t29 -69q0 -44 -28 -72t-70 -28q-41 0 -70 29.5t-29 70.5z" />
<glyph unicode="&#xfd;" horiz-adv-x="858" d="M-332 -305q0 45 33 76.5t80 31.5q37 0 97.5 -45t101.5 -45q82 0 157.5 83.5t75.5 189.5q0 64 -14.5 223.5t-38.5 347.5l-1 5q-27 194 -89 194q-33 0 -58.5 -35t-62.5 -139l-41 12q39 172 95 254t134 82q111 0 165 -163t87 -671h21q102 127 154 231.5t52 184.5 q0 61 -52 158t-52 143q0 55 26.5 86t73.5 31q66 0 99.5 -48.5t33.5 -142.5q0 -145 -79.5 -327.5t-225.5 -368.5q-182 -235 -335.5 -346t-294.5 -111q-66 0 -104 29t-38 80zM340 1040l299 314q18 19 40.5 31t41.5 12q27 0 47 -21t20 -49q0 -21 -15 -39.5t-54 -44.5l-307 -203 h-72z" />
<glyph unicode="&#xfe;" d="M-209 -389l10 46q77 6 117 45.5t84 197.5l252 882q-60 -34 -116 -89.5t-120 -143.5l-36 26q49 94 124 173t181 149l94 346q14 49 18 72t4 41q0 44 -24 67t-72 23h-6l8 47l340 14l-161 -579q183 -4 282.5 -100t99.5 -269q0 -104 -35 -205t-104 -192q-69 -93 -147.5 -142 t-159.5 -49q-47 0 -92.5 19.5t-93.5 60.5l-62 -215l-5 -20q-15 -55 -15 -78q0 -31 26 -50t84 -31l-10 -46h-465zM260 129q26 -42 57.5 -62t69.5 -20q59 0 110 58t91 169q29 84 44 164.5t15 155.5q0 122 -45.5 179t-142.5 58z" />
<glyph unicode="&#xff;" horiz-adv-x="858" d="M-332 -305q0 45 33 76.5t80 31.5q37 0 97.5 -45t101.5 -45q82 0 157.5 83.5t75.5 189.5q0 64 -14.5 223.5t-38.5 347.5l-1 5q-27 194 -89 194q-33 0 -58.5 -35t-62.5 -139l-41 12q39 172 95 254t134 82q111 0 165 -163t87 -671h21q102 127 154 231.5t52 184.5 q0 61 -52 158t-52 143q0 55 26.5 86t73.5 31q66 0 99.5 -48.5t33.5 -142.5q0 -145 -79.5 -327.5t-225.5 -368.5q-182 -235 -335.5 -346t-294.5 -111q-66 0 -104 29t-38 80zM240 1190q0 38 29.5 68t68.5 30q40 0 69 -29t29 -69q0 -44 -28 -72t-70 -28q-40 0 -69 29.5 t-29 70.5zM614 1190q0 38 30 68t69 30q40 0 69 -29t29 -69q0 -44 -28 -72t-70 -28q-41 0 -70 29.5t-29 70.5z" />
<glyph unicode="&#x152;" horiz-adv-x="2157" d="M94 565q0 174 60.5 334t175.5 289q143 161 315.5 231t441.5 70h1022l66 -383h-49q-113 207 -187 271.5t-180 64.5h-209l-186 -649h117q154 0 223 54t129 208l49 -8l-182 -635l-47 12q15 73 19.5 102.5t4.5 51.5q0 83 -48 117t-167 34h-114l-146 -508q-7 -23 -10.5 -42 t-3.5 -36q0 -56 37 -76t172 -20q117 0 188.5 16.5t122.5 53.5q64 47 124 118.5t116 167.5l47 -10l-129 -393h-1071q-202 0 -321.5 32.5t-203.5 106.5q-89 80 -132.5 185t-43.5 241zM362 379q0 -158 71 -238t212 -80q137 0 215.5 95.5t163.5 402.5l139 502q24 86 33.5 134.5 t9.5 80.5q0 74 -50.5 116t-141.5 42q-135 0 -248.5 -76t-204.5 -228q-95 -157 -147 -352.5t-52 -398.5z" />
<glyph unicode="&#x153;" horiz-adv-x="1395" d="M-14 322q0 99 29 201.5t81 185.5q69 109 161 167t198 58q79 0 145 -37t119 -111q84 74 168.5 111t167.5 37q92 0 150.5 -48t58.5 -124q0 -112 -135.5 -213.5t-405.5 -190.5q-14 -68 -19.5 -105t-5.5 -63q0 -60 27.5 -92t79.5 -32q69 0 147.5 66.5t165.5 199.5l37 -33 q-84 -160 -190 -244t-222 -84q-59 0 -110 22.5t-98 69.5q-69 -51 -129.5 -75.5t-116.5 -24.5q-134 0 -218.5 99.5t-84.5 259.5zM162 131q0 -52 24.5 -83.5t65.5 -31.5q52 0 99 59t104 199q56 138 89.5 278t33.5 218q0 53 -25 84t-66 31q-53 0 -99.5 -58.5t-102.5 -197.5 t-89.5 -280t-33.5 -218zM735 422q154 49 248 146.5t94 203.5q0 48 -20.5 76.5t-55.5 28.5q-70 0 -143 -123t-123 -332z" />
<glyph unicode="&#x178;" horiz-adv-x="1432" d="M119 0l8 47h41q115 0 168.5 40.5t85.5 156.5l147 506l-190 507q-40 105 -84 145t-115 40h-10l10 47h602l-10 -47h-29q-63 0 -92.5 -13.5t-29.5 -42.5q0 -20 7 -47.5t31 -89.5l166 -432l359 397q36 40 56 77.5t20 66.5q0 35 -31 58t-82 26l10 47h391l-8 -47 q-102 -24 -308 -256q-26 -30 -40 -45l-350 -393l-150 -527q-9 -34 -12.5 -50.5t-3.5 -27.5q0 -55 34.5 -76.5t129.5 -21.5q8 0 28.5 1t32.5 1l-10 -47h-772zM705 1768q0 38 29.5 68t68.5 30q40 0 69 -29t29 -69q0 -44 -28 -72t-70 -28q-40 0 -69 29.5t-29 70.5zM1079 1768 q0 38 30 68t69 30q40 0 69 -29t29 -69q0 -44 -28 -72t-70 -28q-41 0 -70 29.5t-29 70.5z" />
<glyph unicode="&#x2c6;" horiz-adv-x="1024" d="M279 1040l309 349h104l162 -349h-55l-178 207l-275 -207h-67z" />
<glyph unicode="&#x2dc;" horiz-adv-x="1024" d="M317 1098q16 93 59.5 139.5t115.5 46.5q17 0 34.5 -3t38.5 -9l131 -37q14 -3 27.5 -4.5t28.5 -1.5q41 0 66 20t36 62h49q-18 -99 -63 -147t-119 -48q-17 0 -32.5 2t-29.5 6l-130 37q-5 1 -16 4q-35 8 -52 9q-38 0 -62.5 -19.5t-31.5 -56.5h-50z" />
<glyph unicode="&#x2000;" horiz-adv-x="988" />
<glyph unicode="&#x2001;" horiz-adv-x="1977" />
<glyph unicode="&#x2002;" horiz-adv-x="988" />
<glyph unicode="&#x2003;" horiz-adv-x="1977" />
<glyph unicode="&#x2004;" horiz-adv-x="659" />
<glyph unicode="&#x2005;" horiz-adv-x="494" />
<glyph unicode="&#x2006;" horiz-adv-x="329" />
<glyph unicode="&#x2007;" horiz-adv-x="329" />
<glyph unicode="&#x2008;" horiz-adv-x="247" />
<glyph unicode="&#x2009;" horiz-adv-x="395" />
<glyph unicode="&#x200a;" horiz-adv-x="109" />
<glyph unicode="&#x2010;" horiz-adv-x="682" d="M14 346l52 209h458l-51 -209h-459z" />
<glyph unicode="&#x2011;" horiz-adv-x="682" d="M14 346l52 209h458l-51 -209h-459z" />
<glyph unicode="&#x2012;" horiz-adv-x="682" d="M14 346l52 209h458l-51 -209h-459z" />
<glyph unicode="&#x2013;" horiz-adv-x="1024" d="M-98 375l39 151h1022l-39 -151h-1022z" />
<glyph unicode="&#x2014;" horiz-adv-x="2048" d="M-78 375l37 151h2048l-37 -151h-2048z" />
<glyph unicode="&#x2018;" horiz-adv-x="508" d="M197 1182q0 130 102.5 217t282.5 108v-55q-92 -20 -146.5 -51t-54.5 -62q0 -27 38 -47q13 -6 19 -10q37 -22 54.5 -52t17.5 -73q0 -74 -41 -118t-111 -44q-72 0 -116.5 51.5t-44.5 135.5z" />
<glyph unicode="&#x2019;" horiz-adv-x="508" d="M131 995v56q92 19 146.5 50.5t54.5 61.5q0 27 -37 44q-13 7 -21 12q-36 21 -53.5 52t-17.5 75q0 73 42 117t111 44q73 0 117.5 -51t44.5 -135q0 -130 -103 -217.5t-284 -108.5z" />
<glyph unicode="&#x201a;" horiz-adv-x="508" d="M-74 -180q93 20 147 50t54 60q0 28 -38 47q-13 7 -20 11q-37 21 -55 52.5t-18 74.5q0 73 42 116t112 43q72 0 116.5 -50t44.5 -134q0 -131 -102.5 -219t-282.5 -109v58z" />
<glyph unicode="&#x201c;" horiz-adv-x="1006" d="M197 1182q0 130 102.5 217t282.5 108v-55q-92 -20 -146.5 -51t-54.5 -62q0 -27 38 -47q13 -6 19 -10q37 -22 54.5 -52t17.5 -73q0 -74 -41 -118t-111 -44q-72 0 -116.5 51.5t-44.5 135.5zM694 1182q0 130 102.5 217t282.5 108v-55q-91 -20 -145.5 -51t-54.5 -62 q0 -27 38 -47q12 -6 19 -10q37 -22 54.5 -52t17.5 -73q0 -74 -41.5 -118t-110.5 -44q-72 0 -117 51.5t-45 135.5z" />
<glyph unicode="&#x201d;" horiz-adv-x="1006" d="M131 995v56q92 19 146.5 50.5t54.5 61.5q0 28 -38 47q-12 6 -20 11q-37 21 -54 51.5t-17 73.5q0 73 42 117t111 44q73 0 117.5 -51t44.5 -135q0 -130 -103 -217.5t-284 -108.5zM629 995v56q91 19 145.5 50.5t54.5 61.5q0 28 -38 47q-13 7 -18 10q-38 22 -55.5 52.5 t-17.5 73.5q0 73 42.5 117t111.5 44q72 0 117 -51t45 -135q0 -130 -103.5 -217.5t-283.5 -108.5z" />
<glyph unicode="&#x201e;" horiz-adv-x="1006" d="M-74 -180q93 20 147 50t54 60q0 28 -38 47q-13 7 -20 11q-37 21 -55 52.5t-18 74.5q0 73 42 116t112 43q72 0 116.5 -50t44.5 -134q0 -131 -102.5 -219t-282.5 -109v58zM424 -180q92 20 146.5 50t54.5 60q0 28 -39 47q-12 7 -19 11q-37 21 -55 52.5t-18 74.5 q0 73 41.5 116t111.5 43q73 0 117.5 -50t44.5 -134q0 -131 -102.5 -219t-282.5 -109v58z" />
<glyph unicode="&#x2022;" horiz-adv-x="1208" d="M307 762q0 123 87 209t210 86q122 0 208.5 -86.5t86.5 -208.5t-87.5 -209.5t-209.5 -87.5q-123 0 -209 87t-86 210z" />
<glyph unicode="&#x2026;" horiz-adv-x="2048" d="M88 123q0 64 43.5 107.5t108.5 43.5q63 0 107 -43.5t44 -107.5q0 -63 -44 -107.5t-107 -44.5q-65 0 -108.5 43.5t-43.5 108.5zM770 123q0 64 43.5 107.5t108.5 43.5q63 0 107 -43.5t44 -107.5q0 -63 -44 -107.5t-107 -44.5q-65 0 -108.5 43.5t-43.5 108.5zM1454 123 q0 64 43.5 107.5t108.5 43.5q63 0 107 -43.5t44 -107.5q0 -63 -44 -107.5t-107 -44.5q-65 0 -108.5 43.5t-43.5 108.5z" />
<glyph unicode="&#x202f;" horiz-adv-x="395" />
<glyph unicode="&#x2039;" horiz-adv-x="494" d="M-2 451q90 67 179 141t181 158h29l2 -29q-43 -60 -98 -127.5t-131 -153.5q31 -62 53.5 -127.5t36.5 -132.5v-28h-29q-53 85 -108.5 159.5t-114.5 139.5z" />
<glyph unicode="&#x203a;" horiz-adv-x="494" d="M-57 180q46 65 102 134t125 147q-29 59 -51.5 124t-36.5 136v29h29q55 -89 110.5 -164t112.5 -137q-96 -73 -186 -146.5t-175 -150.5h-28z" />
<glyph unicode="&#x205f;" horiz-adv-x="494" />
<glyph unicode="&#x20ac;" d="M-49 565l37 66h116q10 61 24.5 121t33.5 118h-144l37 66h131q26 65 55 121t62 106q105 160 244 253t268 93q69 0 121.5 -19t104.5 -63q3 -3 12 -11q29 -27 41 -27q16 0 26.5 7t18.5 27h32l-106 -387l-49 13v6q4 72 4 102q0 153 -41 227t-125 74q-93 0 -163 -58t-132 -183 q-12 -25 -47.5 -118.5t-58.5 -162.5h510l-35 -66h-496q-19 -64 -35.5 -125t-27.5 -114h424l-35 -66h-403q-10 -45 -15 -75.5t-6 -50.5q-3 -34 -4.5 -65t-1.5 -61q0 -143 38 -216.5t113 -73.5q90 0 181.5 102t183.5 305l41 -18l-140 -445h-24q-2 10 -4 24q-3 18 -11 25.5 t-26 8.5q-3 0 -74.5 -29t-138.5 -29q-163 0 -271 138.5t-108 349.5q0 11 1 27t3 40q1 7 2 21.5t2 21.5h-145z" />
<glyph unicode="&#x2122;" horiz-adv-x="1683" d="M233 1260l11 188h448l10 -188h-30q-8 80 -40 116.5t-93 36.5h-11v-422q0 -23 10.5 -37t28.5 -16l31 -4v-29h-260v29l32 4q19 2 28.5 15.5t9.5 37.5v422h-15q-59 0 -91 -37.5t-40 -115.5h-29zM770 905v29l33 4q20 2 30.5 15t10.5 36v373q0 23 -11 37t-30 16l-33 2v31h199 l135 -381l137 381h189v-27l-28 -2q-19 -3 -29.5 -16.5t-10.5 -36.5v-375q0 -23 10.5 -36.5t30.5 -16.5l27 -4v-29h-246v29l30 4q20 2 29.5 15.5t9.5 37.5v375l-163 -463h-27l-170 469v-381q0 -24 10 -38t29 -15l35 -4v-29h-197z" />
<glyph unicode="&#x25fc;" horiz-adv-x="930" d="M0 0v930h930v-930h-930z" />
</font>
</defs>
</svg>
