<?xml version="1.0" standalone="no"?>
<!DOCTYPE svg PUBLIC "-//W3C//DTD SVG 1.1//EN" "http://www.w3.org/Graphics/SVG/1.1/DTD/svg11.dtd" >
<svg xmlns="http://www.w3.org/2000/svg">
<metadata>
Created by FontPrep 20130207 at Mon Feb 10 08:34:55 2014
 By Dave Bergschneider
(c) 1990, 1992, 1996, 2000, 2001 Adobe Systems Incorporated. All rights reserved.
</metadata>
<defs>
<font id="ba026786152b115ad8f6c022950fbe5c" horiz-adv-x='1024' >
  <font-face 
    font-family="ACaslonPro-Semibold"
    font-weight="600"
    font-stretch="normal"
    units-per-em="2048"
    panose-1="2 5 6 2 5 5 10 2 4 3"
    ascent="1505"
    descent="-543"
    x-height="862"
    cap-height="1456"
    bbox="-403 -1434 3074 2052"
    underline-thickness="102"
    underline-position="-102"
    unicode-range="U+0020-FB04"
  />
<missing-glyph 
d="M102 1239v-1044l349 522zM164 102h696l-348 523zM573 717l349 -522v1044zM512 809l348 522h-696zM0 0v1434h1024v-1434h-1024z" />
    <glyph glyph-name="f_f" unicode="ff" horiz-adv-x="1210" 
d="M410 856h350v53q0 203 80 334l-2 4q-96 -12 -154 62q-37 43 -92 43q-96 0 -149 -92q-22 -43 -25 -92q-4 -48 -6 -63t-2 -46v-203zM653 57q0 12 21 13h37q51 0 51 69l-2 615h-350v-181q0 -428 2 -446q6 -57 57 -57h37q25 0 24 -19v-37q0 -20 -16 -20l-209 6l-246 -6
q-16 0 -16 16v47q0 12 20 13h82q51 0 52 69l-2 615h-129q-20 0 -17 20l6 70q4 12 25 12h115v53q0 242 155 398q154 147 340 147q63 4 130 -28t95 -85h5q12 17 66 55t112 62t152 23q94 0 150 -33t56 -84t-34 -80t-70 -29t-64 17q-32 10 -62 58t-77 48q-76 0 -127 -65
q-45 -63 -45 -258v-199h246q12 0 12 -20l-8 -74q-4 -8 -29 -8h-221v-627q0 -57 57 -57h94q20 0 21 -19v-37q0 -20 -12 -20l-238 6l-229 -6q-16 0 -17 16v47z" />
    <glyph glyph-name="f_f_i" unicode="ffi" horiz-adv-x="1691" 
d="M592 1352q-182 0 -182 -294v-202h350v53q0 193 78 328l-2 4q-96 -4 -154 66q-35 45 -90 45zM653 57q0 12 21 13h37q51 0 51 69l-2 615h-350v-181q0 -428 2 -446q6 -57 57 -57h41q20 0 20 -15v-37q0 -25 -12 -24l-213 6l-246 -6q-16 0 -16 20v43q0 12 20 13h82q51 0 52 69
l-2 615h-132q-18 0 -14 22l8 68q2 12 23 12h115v53q0 236 155 398q154 147 340 147q70 0 134 -30t91 -76l5 -2q156 135 368 135q106 0 174 -43q68 -42 68 -98t-37 -89t-86 -32q-72 0 -143 90q-43 65 -110 65t-120 -69q-29 -37 -42 -110t-14 -117t-1 -156v-66h274
q95 0 279 23q18 0 15 -29t-3 -328v-399q0 -53 37 -53h74q20 0 20 -17v-39q0 -20 -16 -20l-209 6l-205 -6q-16 0 -16 20v39q0 16 20 17h41q37 0 37 45q4 33 4 180v334q0 73 -34 99t-121 26h-197v-627q0 -57 45 -57h53q25 0 25 -19v-33q0 -25 -17 -24l-188 6l-225 -6
q-16 0 -17 20v43z" />
    <glyph glyph-name="f_f_l" unicode="ffl" horiz-adv-x="1681" 
d="M975 856h354q0 233 -2 305q-2 168 -55 203q-45 33 -90 33q-98 0 -149 -64t-56 -223q-2 -55 -2 -127v-127zM410 856h350v53q0 207 78 332l-2 4q-94 -6 -154 62q-35 45 -90 45q-96 0 -149 -92q-22 -43 -25 -92q-4 -48 -6 -63t-2 -46v-203zM653 57q0 12 21 13h37q51 0 51 69
l-2 615h-350v-181l-2 -350q0 -72 2 -96q10 -57 59 -57h41q20 0 20 -19v-37q0 -20 -12 -20l-213 6l-246 -6q-16 0 -16 16v47q0 12 20 13h82q51 0 52 69l-2 615h-132q-18 0 -14 20l8 70q2 12 23 12h115v53q0 242 155 398q154 147 340 147q70 0 133 -28t95 -78h6
q147 133 340 133q137 0 241 -35q43 -14 41 -51q-8 -119 -8 -600v-295q0 -303 4 -365q0 -66 49 -65h78q25 0 25 -19v-37q0 -20 -17 -20l-229 6q-134 0 -178 -3t-47 -3q-16 0 -17 20v39q0 16 25 17h45q49 0 51 69q2 29 2 549v66h-352v-627q0 -57 53 -57h49q25 0 25 -19v-37
q0 -20 -17 -20l-184 6l-233 -6q-16 0 -17 16v47z" />
    <glyph glyph-name="T_h" unicode="Th" horiz-adv-x="2283" 
d="M1784 8v49q0 12 14 13h35q51 0 57 41q4 28 4 200v138q0 221 -51 272t-123 51t-145 -74q-37 -47 -37 -100v-442q0 -50 8 -68t29 -18h49q20 0 21 -19v-37q0 -20 -17 -20l-213 6l-221 -6q-16 0 -16 16v45q0 14 18 15h51q59 0 68 32q10 51 10 254l-4 766q0 88 -36 146t-89 71
q-90 25 -283 25h-57v-1092q0 -112 15 -154t55 -42h118q12 0 13 -19v-43q0 -20 -21 -20l-307 6q-201 0 -259 -3t-64 -3q-16 0 -17 18v47q0 16 14 17h117q62 0 68 54t6 722v512h-57q-213 0 -299 -29q-68 -31 -183 -233q-12 -18 -22 -15l-41 15q-10 6 -8 20l98 377q6 37 24 37
q12 0 33 -20q49 -49 140 -54q332 -12 397 -12h110q225 0 508 12q70 4 168 57q33 17 35 17h29q24 0 18 -43t-6 -612v-127h12q41 57 115 91t150 34q111 0 204 -82q45 -39 65 -95t23 -90q2 -35 2 -116v-394q0 -33 70 -32h37q20 0 20 -15v-45q0 -16 -16 -16l-203 6l-217 -6
q-16 0 -16 14z" />
    <glyph glyph-name="uni021A_h" unicode="&#x21a;h" horiz-adv-x="2283" 
d="M842 -280q0 -72 -42 -144t-78 -104t-65 -50q-25 -12 -37 -12t-12 12t13 25q115 102 114 201q0 31 -28 49q-68 27 -83 65q-22 57 9 86q31 30 75 30t88 -43q46 -42 46 -115zM1784 8v49q0 12 14 13h35q51 0 57 41q4 28 4 200v138q0 221 -51 272t-123 51t-145 -74
q-37 -47 -37 -100v-442q0 -50 8 -68t29 -18h49q20 0 21 -19v-37q0 -20 -17 -20l-213 6l-221 -6q-16 0 -16 16v45q0 14 18 15h51q59 0 68 32q10 51 10 254l-4 766q0 88 -36 146t-89 71q-90 25 -283 25h-57v-1092q0 -112 15 -154t55 -42h118q12 0 13 -19v-43q0 -20 -21 -20
l-307 6q-201 0 -259 -3t-64 -3q-16 0 -17 18v47q0 16 14 17h117q62 0 68 54t6 722v512h-57q-213 0 -299 -29q-68 -31 -183 -233q-12 -18 -22 -15l-41 15q-10 6 -8 20l98 377q6 37 24 37q12 0 33 -20q49 -49 140 -54q332 -12 397 -12h110q225 0 508 12q70 4 168 57
q33 17 35 17h29q24 0 18 -43t-6 -612v-127h12q41 57 115 91t150 34q111 0 204 -82q45 -39 65 -95t23 -90q2 -35 2 -116v-394q0 -33 70 -32h37q20 0 20 -15v-45q0 -16 -16 -16l-203 6l-217 -6q-16 0 -16 14z" />
    <glyph glyph-name="Tcaron_h" unicode="&#x164;h" horiz-adv-x="2283" 
d="M755 1569q-7 0 -38 24l-260 256q-8 8 -2 15l12 20q6 6 20 0l279 -106l250 104q16 8 20 2l17 -20q6 -6 -4 -17l-269 -260q-18 -18 -25 -18zM1784 8v49q0 12 14 13h35q51 0 57 41q4 28 4 200v138q0 221 -51 272t-123 51t-145 -74q-37 -47 -37 -100v-442q0 -50 8 -68t29 -18
h49q20 0 21 -19v-37q0 -20 -17 -20l-213 6l-221 -6q-16 0 -16 16v45q0 14 18 15h51q59 0 68 32q10 51 10 254l-4 766q0 88 -36 146t-89 71q-90 25 -283 25h-57v-1092q0 -112 15 -154t55 -42h118q12 0 13 -19v-43q0 -20 -21 -20l-307 6q-201 0 -259 -3t-64 -3q-16 0 -17 18
v47q0 16 14 17h117q62 0 68 54t6 722v512h-57q-213 0 -299 -29q-68 -31 -183 -233q-12 -18 -22 -15l-41 15q-10 6 -8 20l98 377q6 37 24 37q12 0 33 -20q49 -49 140 -54q332 -12 397 -12h110q225 0 508 12q70 4 168 57q33 17 35 17h29q24 0 18 -43t-6 -612v-127h12
q41 57 115 91t150 34q111 0 204 -82q45 -39 65 -95t23 -90q2 -35 2 -116v-394q0 -33 70 -32h37q20 0 20 -15v-45q0 -16 -16 -16l-203 6l-217 -6q-16 0 -16 14z" />
    <glyph glyph-name="f_i" unicode="fi" horiz-adv-x="1130" 
d="M662 10v43q0 16 20 17h39q33 0 37 39t4 186v330q0 69 -20 99t-91 30h-241v-181q0 -418 2 -446q4 -57 47 -57h49q25 0 24 -19v-37q0 -20 -16 -20l-217 6l-242 -6q-16 0 -16 16v47q0 12 20 13h91q45 0 45 69l-2 615h-134q-12 0 -12 16l10 72q2 14 27 14h109v35
q0 285 170 446q156 143 364 144q102 0 168 -42q66 -41 66 -97t-36 -90t-83 -33q-80 0 -144 94q-51 66 -98 65q-94 0 -145 -86q-9 -16 -17 -40l-13 -40q-5 -16 -8 -47t-5 -46q-4 -30 -4 -105v-158h280q109 -4 160 6q52 10 70 12t30 4t19 3q23 0 15 -30t-7 -329v-399
q6 -53 41 -53h74q20 0 20 -19v-37q0 -20 -20 -20l-209 6l-205 -6q-16 0 -16 16z" />
    <glyph glyph-name="f_j" unicode="fj" horiz-adv-x="1130" 
d="M651 754h-241v-181q0 -418 2 -446q4 -57 47 -57h49q25 0 24 -19v-37q0 -20 -16 -20l-217 6l-242 -6q-16 0 -16 16v47q0 12 20 13h91q45 0 45 69l-2 615h-134q-12 0 -12 16l10 72q2 14 27 14h109v35q0 285 170 446q156 143 364 144q102 0 168 -42q66 -41 66 -97t-36 -90
t-82 -34t-77 24q-31 22 -68 71q-45 66 -119 65t-124 -86q-9 -16 -17 -40l-13 -40q-5 -16 -8 -47t-5 -46q-4 -30 -4 -105v-158h280q110 0 184 12t96 12t14 -29q-8 -31 -7 -185q0 -154 1 -272q4 -435 -30 -596q-32 -161 -146 -258t-245 -97q-63 0 -107 30t-44 73q0 42 26 76
t76 34q49 0 92 -58t72 -57q70 0 80 148q12 200 12 462l-2 474q0 69 -20 99t-91 30z" />
    <glyph glyph-name="f_l" unicode="fl" horiz-adv-x="1116" 
d="M408 856h352v281q0 104 -11 149q-23 94 -129 93t-155 -67t-55 -239q-2 -59 -2 -176v-41zM657 -6q-16 0 -16 20v39q0 16 25 17h45q51 0 51 69l-2 615h-352v-181q0 -418 2 -446q4 -57 39 -57h65q20 0 21 -19v-37q0 -20 -13 -20l-233 6l-234 -6q-16 0 -16 16v47q0 12 20 13
h86q49 0 50 65l-2 619h-134q-12 0 -12 16l12 70q4 16 25 16h109v35q0 291 143 441t362 149q141 0 242 -37q47 -18 45 -49q-10 -123 -10 -600v-295q0 -303 3 -367t52 -63h74q25 0 24 -19v-37q0 -20 -12 -20l-233 6q-135 0 -179 -3t-47 -3z" />
    <glyph glyph-name="f_f_j" unicode="ffj" horiz-adv-x="1708" 
d="M602 1352q-182 0 -182 -294v-202h350v53q0 193 78 328l-2 4q-96 -4 -154 66q-35 45 -90 45zM51 57q0 12 21 13h82q51 0 51 69l-2 615h-131q-18 0 -15 22l9 68q2 12 22 12h115v53q0 241 151 393t344 152q70 0 135 -30t91 -76l4 -2q156 135 368 135q106 0 174 -43
q68 -42 68 -98t-37 -89t-86 -32q-78 0 -143 90q-49 65 -113 65t-117 -69q-29 -37 -42 -110t-14 -117t-1 -156v-66h275q129 0 196 14q74 8 82 9q18 0 16 -25h2q-16 -137 -13 -347q8 -559 -23 -715q-31 -155 -145 -252t-245 -97q-63 0 -107 30t-44 73q0 42 27 76t63 34
q61 0 105 -58t71 -57q74 0 80 148q12 233 12 940q1 73 -33 99t-122 26h-197v-627q0 -57 45 -57h53q25 0 25 -19v-33q0 -25 -16 -24l-189 6l-225 -6q-16 0 -16 20v43q0 12 20 13h37q51 0 51 69l-2 615h-350v-181q0 -428 2 -446q6 -57 57 -57h41q20 0 21 -15v-37
q0 -25 -13 -24l-213 6l-245 -6q-16 0 -17 20v43z" />
    <glyph glyph-name="longs_h" unicode="&#x17f;h" horiz-adv-x="1695" 
d="M39 10v47q0 12 20 13h82q53 0 54 69v615h-136q-16 0 -12 22l6 70q0 10 27 10h115v39q0 281 151 438q154 147 344 148q135 0 244 -45q41 -16 41 -60l-4 -225v-397h12q41 57 115 91t149 34q111 0 205 -82q46 -39 66 -95t22 -90q2 -35 2 -116v-394q0 -33 70 -32h37
q20 0 20 -15v-45q0 -16 -16 -16l-203 6l-217 -6q-16 0 -16 14v49q0 12 14 13h35q53 0 57 41q4 29 4 200v138q0 221 -51 272t-123 51t-145 -74q-37 -47 -37 -100v-442q0 -50 8 -68t29 -18h49q20 0 20 -19v-37q0 -20 -16 -20l-70 2q-68 4 -112 4l-222 -6q-16 0 -16 16v45
q0 14 18 15h31q49 0 58 32q10 51 10 254l-4 731q0 211 -29 240q-45 51 -140 51t-144 -92q-19 -39 -23 -92q-4 -54 -6 -70t-2 -50v-501q0 -418 2 -446q6 -57 49 -57h41q20 0 20 -19v-37q0 -20 -12 -20l-209 6l-246 -6q-16 0 -16 16z" />
    <glyph glyph-name="longs_i" unicode="&#x17f;i" horiz-adv-x="1132" 
d="M39 10v47q0 12 20 13h82q53 0 54 69v615h-136q-16 0 -12 24l6 68q0 10 27 10h115v39q0 279 172 438q86 80 167 114t190 34t175 -42q66 -41 66 -97t-36 -90t-83 -33q-80 0 -144 94q-51 66 -98 65q-80 0 -139 -73q-47 -54 -53 -225q-2 -54 -2 -158v-349q0 -418 2 -446
q6 -57 57 -57h43q20 0 20 -19v-37q0 -20 -12 -20l-219 6l-246 -6q-16 0 -16 16zM664 14v39q0 16 20 17h39q33 0 35 51t2 174v289q0 51 -20 81t-87 46q-20 4 -20 18v23q0 10 14 16t132 49q117 43 141 52t43 10q20 0 16 -29t-4 -330v-221q0 -152 4 -176q6 -53 33 -53h82
q20 0 20 -15v-41q0 -20 -16 -20l-224 6l-194 -6q-16 0 -16 20z" />
    <glyph glyph-name="longs_l" unicode="&#x17f;l" horiz-adv-x="1112" 
d="M39 10v47q0 12 20 13h82q53 0 54 69v615h-136q-16 0 -12 24l6 68q0 10 27 10h115v39q0 281 151 438q154 147 334 148q115 0 223 -43q41 -14 55 -30t13 -36q-6 -117 -6 -577v-295q0 -366 6 -388q11 -42 51 -42h78q25 0 24 -19v-37q0 -20 -12 -20l-229 6l-234 -6
q-16 0 -16 20v39q0 16 29 17h36q18 0 35 17q16 17 17 56l-2 1014q0 135 -25 168q-39 51 -129 51t-137 -63q-23 -33 -35 -98q-14 -75 -14 -223v-419q0 -408 4 -446q6 -57 55 -57h45q20 0 20 -19v-37q0 -20 -12 -20l-219 6l-246 -6q-16 0 -16 16z" />
    <glyph glyph-name="longs_longs" unicode="&#x17f;&#x17f;" horiz-adv-x="1146" 
d="M643 10v47q0 12 21 13h41q53 0 53 69v615h-135q-16 0 -13 24l6 68q0 10 27 10h115v39q0 186 86 342v4q-29 -14 -74 -14t-94 55t-92 55q-174 0 -174 -291v-473q0 -418 2 -446q6 -57 51 -57h39q20 0 20 -19v-37q0 -20 -12 -20l-209 6l-246 -6q-16 0 -16 16v47q0 12 20 13
h82q53 0 54 69v615h-136q-16 0 -12 24l6 68q0 10 27 10h115v39q0 240 151 397q154 147 342 148q150 0 209 -113l6 -2q158 156 350 156q89 0 145 -33t56 -84t-34 -80t-72 -29t-62 17q-33 10 -57 53q-35 53 -82 53q-153 0 -168 -210q-2 -28 -4 -44t-2 -50v-501q0 -418 2 -446
q6 -57 57 -57h94q20 0 21 -19v-37q0 -20 -12 -20l-31 2l-219 4l-226 -6q-16 0 -16 16z" />
    <glyph glyph-name="longs_t" unicode="&#x17f;t" horiz-adv-x="1271" 
d="M39 10v47q0 12 20 13h82q53 0 54 69v615h-136q-16 0 -12 24l6 68q0 10 27 10h115v39q0 281 151 438q154 147 328 147t284 -63q55 -31 52 -94l-17 -467h273q18 0 14 -16l-20 -86q-2 -12 -21 -13h-250q-4 -172 -4 -274v-184q0 -105 34 -149t75 -44q70 0 118 25q20 8 25 -4
l12 -25q4 -16 -8 -29q-115 -82 -258 -82q-87 1 -151 59t-64 126l6 315v266h-119q-29 0 -28 29q1 20 25 34t139 105v185q-1 110 -5 152t-22 69q-46 61 -144 61t-150 -58t-58 -214q-2 -49 -2 -110v-421q0 -418 2 -446q6 -57 57 -57h74q20 0 20 -19v-37q0 -20 -12 -20l-250 6
l-246 -6q-16 0 -16 16z" />
    <glyph glyph-name="uni0162_h" unicode="&#x162;h" horiz-adv-x="2283" 
d="M1784 8v49q0 12 14 13h35q51 0 57 41q4 28 4 200v138q0 221 -51 272t-123 51t-145 -74q-37 -47 -37 -100v-442q0 -50 8 -68t29 -18h49q20 0 21 -19v-37q0 -20 -17 -20l-213 6l-221 -6q-16 0 -16 16v45q0 14 18 15h51q59 0 68 32q10 51 10 254l-4 766q0 88 -36 146t-89 71
q-90 25 -283 25h-57v-1092q0 -112 15 -154t55 -42h118q12 0 13 -19v-43q0 -20 -21 -20l-194 6l-121 -147q78 -13 123 -55t45 -93q0 -90 -114 -145t-267 -56q-45 0 -45 41q-1 33 65 33t115 30t49 81q0 78 -127 102l166 209h-2q-201 0 -259 -3t-64 -3q-16 0 -17 18v47
q0 16 14 17h117q62 0 68 54t6 722v512h-57q-213 0 -299 -29q-68 -31 -183 -233q-12 -18 -22 -15l-41 15q-10 6 -8 20l98 377q6 37 24 37q12 0 33 -20q49 -49 140 -54q332 -12 397 -12h110q225 0 508 12q70 4 168 57q33 17 35 17h29q24 0 18 -43t-6 -612v-127h12
q41 57 115 91t150 34q111 0 204 -82q45 -39 65 -95t23 -90q2 -35 2 -116v-394q0 -33 70 -32h37q20 0 20 -15v-45q0 -16 -16 -16l-203 6l-217 -6q-16 0 -16 14z" />
    <glyph glyph-name=".notdef" 
d="M102 1239v-1044l349 522zM164 102h696l-348 523zM573 717l349 -522v1044zM512 809l348 522h-696zM0 0v1434h1024v-1434h-1024z" />
    <glyph glyph-name=".null" horiz-adv-x="0" 
 />
    <glyph glyph-name="nonmarkingreturn" horiz-adv-x="681" 
 />
    <glyph glyph-name="space" unicode=" " horiz-adv-x="430" 
 />
    <glyph glyph-name="exclam" unicode="!" horiz-adv-x="528" 
d="M274 420h-36q-12 0 -13 20q-6 102 -48 432t-42 384t33 99q33 44 95 44t97 -35t34 -88t-50 -394t-53 -446q-1 -16 -17 -16zM261 233q62 -1 100 -39t38 -94t-36 -91q-36 -34 -94 -34t-99 33t-41 87t35 96t97 42z" />
    <glyph glyph-name="quotedbl" unicode="&#x22;" horiz-adv-x="761" 
d="M442 1384q0 35 30 66t81 31t79 -30t28 -67q0 -38 -34 -226t-40 -251h-70q-4 68 -39 255t-35 222zM102 1384q0 35 30 66t81 31t79 -30t28 -67q0 -38 -34 -226t-40 -251h-70q-4 68 -39 255t-35 222z" />
    <glyph glyph-name="numbersign" unicode="#" 
d="M381 545h201l63 295h-201zM244 -31h-111q-14 0 -8 29l90 399h-223q-12 0 -12 17l24 118q4 12 25 13h215l63 295h-205q-29 0 -28 12l20 123q6 12 29 12h209l88 391q4 20 16 21h111q12 0 8 -25l-86 -387h205l82 387q4 25 20 25h111q13 4 8 -25l-82 -387h215q20 0 21 -12
l-25 -123q-4 -12 -29 -12h-209l-63 -295h215q25 0 25 -17l-25 -122q-4 -8 -29 -9h-215l-86 -403q-6 -25 -20 -25h-111q-14 0 -8 25l86 403h-205l-86 -399q-6 -29 -20 -29z" />
    <glyph glyph-name="dollar" unicode="$" 
d="M627 557l-13 -434q132 47 132 213t-119 221zM451 610l-17 -491q33 -16 111 -8l12 471q-67 14 -106 28zM287 1036q0 -90 41 -143q16 -21 57 -41l8 385q-106 -53 -106 -201zM467 1253l-12 -430q25 -10 106 -24l12 442q-59 26 -106 12zM631 782q287 -78 287 -357
q0 -145 -83 -249t-225 -131v-111q0 -20 -16 -20h-37q-16 0 -16 20l4 103q-57 -10 -111 8l-4 -111q0 -20 -16 -20h-41q-12 0 -13 20l5 123q-55 14 -132 66q-41 20 -45 20q-14 0 -32 -37q-8 -12 -32 -12t-19 28t18 170q12 142 14 162t15 21l41 -4q12 0 12 -12q0 -115 45 -201
q53 -80 115 -111l16 480q-98 27 -168 90q-98 92 -98 256t131 272q70 55 151 70l4 115q0 20 13 20h41q16 0 16 -20l-4 -107q41 4 111 -4v111q0 20 16 20h41q12 0 12 -25l-4 -118q55 -10 102 -29q23 -6 37 4l21 25q12 8 28 8t17 -25l4 -307q0 -16 -8 -16l-37 -4q-12 0 -12 4
q-29 129 -78 184q-39 48 -70 66z" />
    <glyph glyph-name="percent" unicode="%" horiz-adv-x="1585" 
d="M1227 51q72 0 102 78q20 66 21 305q0 336 -123 336q-61 0 -90 -70q-33 -84 -33 -278t24 -281q14 -41 44 -65t55 -25zM1223 -18q-243 0 -296 296q-11 60 -12 115q0 187 80 317t247 130t238 -148q58 -123 62 -276q-4 -206 -86 -320t-233 -114zM350 541q-242 0 -296 296
q-11 60 -11 115q0 188 80 318t239 129q88 0 150 -40q146 -93 158 -384q-4 -207 -86 -321t-234 -113zM402 -31q-10 0 -17 6l-43 31q-14 10 -14 18t14 25l823 1335q11 26 33 11l51 -29q12 -8 13 -14l-838 -1360q-12 -23 -22 -23zM354 610q72 0 103 78q20 66 20 305
q0 336 -123 336q-61 0 -90 -69q-33 -84 -33 -279t25 -281q14 -42 44 -66t54 -24z" />
    <glyph glyph-name="ampersand" unicode="&#x26;" horiz-adv-x="1798" 
d="M618 1368q-68 0 -112 -66q-43 -66 -43 -155q0 -55 56 -115t132 -102q2 2 15 13t25 25q13 13 26 28t18 30q5 16 13 32t13 44t5 84t-40 118q-40 64 -108 64zM590 121q156 1 250 75q63 50 131 119q-88 133 -209 265t-238 198q-84 -46 -150 -152t-63 -225t99 -199t180 -81z
M1634 936v-43q0 -16 -16 -16h-33q-63 -1 -91 -11t-48 -43q-2 -2 -77 -119t-185 -270q8 -8 71 -81t93 -99q122 -135 246 -135t212 147q11 10 17 4l37 -24q8 0 -4 -25t-41 -63t-77 -83q-48 -46 -124 -76t-159 -30q-83 -1 -132 17t-85 43t-52 35t-50 46q-34 38 -41 45t-43 50
t-36 45q-6 -6 -36 -40t-61 -68q-38 -41 -118 -92q-129 -81 -293 -81q-164 1 -299 107t-135 252q0 197 172 344q82 82 221 155q-209 135 -209 275q0 120 122 234t253 114t226 -88t91 -195q-2 -79 -78 -159t-159 -119q109 -49 221 -155t196 -230q51 66 101 162q49 96 51 149
q4 25 -13 43t-48 19h-33q-12 0 -12 16v45q0 14 12 14l221 -6l209 6q16 0 16 -16z" />
    <glyph glyph-name="quotesingle" unicode="'" horiz-adv-x="413" 
d="M98 1384q0 35 30 66t81 31t79 -30t28 -67q0 -38 -34 -226t-40 -251h-70q-4 68 -39 255t-35 222z" />
    <glyph glyph-name="parenleft" unicode="(" horiz-adv-x="671" 
d="M307 586q0 -551 287 -871q16 -25 16 -36t-14 -22t-30 -11t-38 16q-194 168 -314 392t-120 521q0 298 148 574q104 201 286 364q39 27 61 11q21 -16 21 -28t-20 -32q-283 -327 -283 -878z" />
    <glyph glyph-name="parenright" unicode=")" horiz-adv-x="671" 
d="M365 588q0 270 -75 495t-212 377q-16 25 -16 36q0 10 14 22t29 12t38 -17q193 -168 313 -391t122 -521q0 -298 -148 -574q-104 -201 -287 -365q-23 -16 -38 -16t-29 11t-14 22t20 32q283 336 283 877z" />
    <glyph glyph-name="asterisk" unicode="*" horiz-adv-x="671" 
d="M414 886q0 -22 -20 -46t-56 -23q-36 0 -58 23q-22 24 -22 64t68 220l-9 4q-80 -106 -157 -172q-31 -24 -61 -18t-48 34t-12 60t37 51q35 20 229 62v8q-23 7 -118 27t-101 22q-35 8 -47 42t5 65t48 40t54 -5t97 -90q73 -76 76 -80l9 4q-70 209 -70 229q0 74 78 74t78 -70
q0 -25 -31 -123t-39 -110l8 -9q8 12 78 87t86 85q66 33 102 -28q33 -73 -28 -107q-16 -8 -118 -28t-116 -21v-8q20 -1 125 -27q104 -26 124 -36q52 -27 18 -105q-17 -27 -51 -32t-56 11t-91 90q-69 75 -73 83l-8 -9l8 -22q8 -26 18 -52t20 -58q8 -32 16 -58t8 -48z" />
    <glyph glyph-name="plus" unicode="+" 
d="M586 426v-348h-148v348h-327v135h327v344h148v-344h327v-135h-327z" />
    <glyph glyph-name="comma" unicode="," horiz-adv-x="548" 
d="M258 266q68 0 126 -66t58 -154q0 -212 -208 -361q-38 -29 -66 -45q-37 -12 -41 -13q-25 0 -25 21q0 12 17 28q152 127 151 258q0 50 -44 64q-76 25 -94 62q-17 37 -17 82q0 46 37 85q38 39 106 39z" />
    <glyph glyph-name="hyphen" unicode="-" horiz-adv-x="823" 
d="M717 596v-96q0 -18 -25 -19h-573q-16 0 -17 13v106q0 16 17 16h573q25 0 25 -20z" />
    <glyph glyph-name="period" unicode="." horiz-adv-x="548" 
d="M418 113q0 -61 -39 -99t-98 -39q-59 0 -105 37q-45 38 -45 96t37 102q36 44 102 44t107 -40t41 -101z" />
    <glyph glyph-name="slash" unicode="/" horiz-adv-x="745" 
d="M102 -29l-90 41q-12 6 0 33l606 1430q6 18 25 12l86 -37q18 -6 4 -33l-608 -1435q-9 -17 -23 -11z" />
    <glyph glyph-name="zero" unicode="0" 
d="M518 1317q-100 0 -149 -131q-66 -190 -66 -518t49 -453q59 -164 172 -164t156 139q45 135 45 549q0 254 -53 416q-54 162 -154 162zM520 1399q125 0 216 -65q157 -112 209 -395q22 -116 22 -241q0 -350 -115 -539t-328 -190q-125 0 -220 66q-160 111 -222 377
q-25 106 -25 209q0 350 125 564t338 214z" />
    <glyph glyph-name="one" unicode="1" 
d="M180 61q0 14 23 15h80q93 0 117 16t27 84t3 438v404q0 106 -49 106q-37 0 -86 -16l-123 -37q-14 -8 -20 4l-17 41q-6 12 12 25l471 245q25 12 37 13q16 0 17 -33l-8 -600v-86l4 -485q0 -79 18 -99t105 -20h73q20 0 21 -15v-51q0 -16 -21 -16l-327 6l-340 -6q-16 0 -17 14
v53z" />
    <glyph glyph-name="two" unicode="2" 
d="M34 -6q-22 0 -32 10q-6 23 12 41q295 281 418 422q223 268 217 502q-7 121 -73 193t-173 69q-156 -4 -253 -172q-10 -20 -25 -12l-33 16q-8 8 0 29q129 307 426 307q154 0 266 -108t111 -252q0 -144 -66 -273t-217 -283q-78 -78 -196 -181t-127 -114h377q63 0 111 27
t71 53t42 60q19 32 24 34t28 -8t14 -30l-139 -353q-8 -18 -13 -19q-6 -1 -18 -1t-16 3t-10 17q-14 29 -123 29h-447l-81 -2q-53 -4 -75 -4z" />
    <glyph glyph-name="three" unicode="3" 
d="M330 724q0 18 6 24t22 10q115 22 187 96q71 74 71 173t-51 161t-137 63q-174 0 -250 -204q-10 -25 -24 -25l-37 12q-14 6 -8 33q27 127 129 229t267 102t249 -85q84 -86 88 -191q0 -201 -246 -348q123 -27 219 -125t96 -225q0 -188 -158 -322q-159 -133 -391 -133
q-164 -1 -240 53t-75 111q0 90 78 98q74 0 115 -98q32 -78 152 -78t193 83t72 194q0 291 -286 356q-29 10 -35 14t-6 22z" />
    <glyph glyph-name="four" unicode="4" 
d="M606 512v485q0 23 -11 27t-26 -14l-344 -453q-16 -17 -12 -31t29 -14h364zM606 348h-540q-50 0 -50 29t29 65l705 924q25 33 49 33q29 0 28 -68v-815h144q25 0 24 -20v-127q0 -20 -32 -21h-136v-319q0 -29 -28 -29h-168q-16 0 -21 4q-4 4 -4 21v323z" />
    <glyph glyph-name="five" unicode="5" 
d="M49 84q-1 31 15 48t38 18q37 -4 107 -42t166 -38t190 78t94 217q0 203 -165 276q-117 51 -252 51h-37q-25 0 -21 33l74 610q4 21 9 27t24 6h457q50 0 72 20t54 82q10 20 34 8t20 -28l-74 -250q-10 -25 -26 -33t-60 -8h-440l-37 -260q37 4 128 -7t146 -28
q139 -43 218 -143t79 -248q2 -211 -159 -357t-396 -147q-104 0 -181 35t-77 80z" />
    <glyph glyph-name="six" unicode="6" 
d="M498 717q-104 0 -146 -66q-41 -49 -41 -248q1 -110 27 -196q51 -164 182 -164q58 0 117 49q75 62 75 302q0 126 -54 224q-56 98 -160 99zM602 827q164 -1 256 -115t92 -251q0 -238 -131 -361q-131 -131 -323 -131t-295 127q-131 156 -131 370q0 414 290 691
q158 147 357 221q76 20 86 20t19 -7q9 -8 9 -17q0 -31 -32 -41q-139 -55 -281 -220t-180 -363l6 -9q94 86 258 86z" />
    <glyph glyph-name="seven" unicode="7" 
d="M389 1368h598q21 0 21 -20t-29 -58q-166 -301 -250 -508q-162 -397 -237 -678q-37 -135 -148 -135q-45 0 -74 30q-28 31 -28 89t77 203q17 29 233 403t271 473h-479q-109 0 -151 -52q-16 -19 -54 -71q-13 -18 -31 -9t-20 11l-5 5q-3 2 -1 8t4 14l127 357q6 16 35 16
q30 0 24 -30t18 -39t99 -9z" />
    <glyph glyph-name="eight" unicode="8" 
d="M535 1309q-95 0 -153 -74t-58 -171q0 -98 53 -154t196 -140q166 111 172 293q4 104 -55 175t-155 71zM283 288q-1 -108 73 -174t167 -67t149 61t57 168q0 106 -64 174q-64 66 -214 148q-168 -103 -168 -310zM561 1399q150 0 255 -83q106 -83 106 -201t-58 -203t-213 -183
q141 -74 214 -164t73 -226t-120 -253t-314 -117t-292 87q-97 87 -97 208t66 210q67 89 200 169q-143 92 -211 170t-68 207t123 254t336 125z" />
    <glyph glyph-name="nine" unicode="9" 
d="M512 1325q-94 0 -152 -85t-57 -234q-1 -149 61 -248t162 -99t146 78q33 47 33 232q0 356 -193 356zM504 1399q120 0 196 -35t142 -115q112 -139 112 -339t-84 -406q-84 -205 -252 -346q-154 -125 -315 -176l-61 -13q-33 0 -33 33q0 18 20 33q147 55 283 219
q135 164 164 377l-8 4q-86 -78 -250 -78t-254 117t-90 266q0 86 46 190t105 158q123 111 279 111z" />
    <glyph glyph-name="colon" unicode=":" horiz-adv-x="548" 
d="M281 600q-59 0 -105 37q-45 37 -45 95t37 102q36 44 102 45q66 0 107 -40q41 -39 41 -101t-39 -100t-98 -38zM418 113q0 -61 -39 -99t-98 -39q-59 0 -105 37q-45 38 -45 96t37 102q36 44 102 44t107 -40t41 -101z" />
    <glyph glyph-name="semicolon" unicode=";" horiz-adv-x="548" 
d="M406 737q0 -61 -40 -99t-100 -38t-104 37q-43 37 -43 95t37 102t102 45q65 0 107 -40q41 -41 41 -102zM270 -78q0 50 -50 66q-69 23 -87 59q-18 37 -18 83t37 87q38 41 106 41t126 -67t58 -157q0 -207 -208 -362q-38 -29 -66 -45q-37 -12 -41 -12q-25 0 -25 20
q0 12 17 29q151 139 151 258z" />
    <glyph glyph-name="less" unicode="&#x3c;" 
d="M803 233v-155l-631 377v77l631 373v-151l-438 -250v-8z" />
    <glyph glyph-name="equal" unicode="=" 
d="M111 287v135h802v-135h-802zM111 596v135h802v-135h-802z" />
    <glyph glyph-name="greater" unicode="&#x3e;" 
d="M852 528v-77l-631 -373v151l438 250v13l-438 258v155z" />
    <glyph glyph-name="question" unicode="?" horiz-adv-x="770" 
d="M276 -25q-64 0 -98 32q-35 32 -35 84t36 89q37 37 95 37t97 -36t39 -87t-35 -85t-99 -34zM221 383v401q0 27 35 22t117 -5t145 35t64 116q0 45 -32 88t-79 68q-106 70 -225 70q-63 0 -106 31q-42 32 -42 78t28 79t83 33q143 0 319 -179t177 -362q0 -136 -74 -192
q-37 -29 -70 -46q-62 -32 -250 -32q-16 0 -16 -17v-188q0 -12 -12 -12h-45q-17 0 -17 12z" />
    <glyph glyph-name="at" unicode="@" horiz-adv-x="1630" 
d="M668 475q57 0 174 139t145 209q49 103 49 153t-19 78t-54 27q-74 0 -158 -103t-135 -230t-51 -200t49 -73zM537 360q-47 0 -81 33t-34 94q0 129 91 287t225 268t236 109q102 0 128 -74l28 41q8 12 21 12h115q23 0 12 -28q-16 -29 -68 -159t-67 -185q-74 -197 -74 -271
q0 -41 53 -41q90 0 194 138t105 365q0 226 -115 338q-116 112 -322 112t-381 -124t-272 -313t-98 -387q1 -243 145 -381t374 -136t366 71q18 10 25 0l16 -37q8 -10 -12 -20q-67 -43 -187 -73t-243 -30q-313 0 -491 159q-177 159 -177 405q0 247 135 465q136 218 356 350
t459 133q283 1 433 -145t149 -402q0 -215 -170 -394t-436 -180q-37 0 -62 20t-25 64q0 43 62 211l-8 4q-215 -299 -405 -299z" />
    <glyph glyph-name="A" unicode="A" horiz-adv-x="1523" 
d="M692 1249q-18 0 -24 -18q-6 -19 -104 -289t-105 -297h426q-14 41 -172 567q-12 37 -21 37zM897 59q0 16 16 17h54q43 0 57 17t-2 90t-117 380h-475q-115 -331 -123 -371t-8 -64t22 -38t52 -14h86q20 0 20 -10v-52q0 -20 -16 -20l-86 2q-86 4 -162 4t-126 -1t-76 -3
q-25 -2 -35 -2t-11 26v39q0 16 13 17h61q78 0 131 92q16 29 100 241t129 336l201 537q12 62 2 72t-10 24t34 22t101 44q68 35 88 55t31 21q12 0 26 -48t114 -342t128 -394q29 -99 104 -313t95 -253q49 -94 131 -94h65q16 0 17 -15v-43q0 -25 -21 -24l-303 6l-286 -6
q-20 0 -21 24v41z" />
    <glyph glyph-name="B" unicode="B" horiz-adv-x="1388" 
d="M516 963v-156q33 -2 94 -2q145 0 217 59q107 84 107 234t-94 219q-94 70 -230 69q-45 0 -61 -4q-23 -8 -27 -32q-6 -117 -6 -387zM999 385q0 359 -430 356h-53v-409q0 -144 40 -208t136 -65q135 0 221 76t86 250zM74 10v51q0 14 14 15h88q45 0 62 19q16 19 22 93t6 463
v242q0 254 -5 347q-5 94 -29 114t-89 20h-65q-16 0 -17 17v47q0 18 17 18l299 -6l299 6q260 0 360 -55q156 -84 156 -279q0 -124 -67 -202t-212 -132v-10q369 -96 369 -401q0 -88 -45 -180t-115 -131q-125 -72 -446 -72l-299 6l-289 -6q-14 0 -14 16z" />
    <glyph glyph-name="C" unicode="C" horiz-adv-x="1536" 
d="M864 -31q-184 0 -308 49q-124 48 -229 144t-163 251q-57 155 -58 302q0 322 206 544t536 222q238 0 414 -99q37 -20 41 0l16 54q3 12 27 12t29 -6t5 -45t50 -408q2 -18 -9 -20l-39 -13q-12 -6 -22 21q-51 152 -160 266q-160 152 -356 152q-156 0 -264 -88
q-198 -161 -199 -502q0 -125 43 -273t145 -260q152 -160 353 -159q160 1 290 69t199 168q17 23 25 15l34 -31q10 -10 5 -21q-240 -344 -611 -344z" />
    <glyph glyph-name="D" unicode="D" horiz-adv-x="1712" 
d="M738 72q134 0 248 54t190 153q147 190 147 466q0 121 -46 243t-118 204q-82 88 -207 140q-126 52 -238 52t-147 -20t-37 -98t-2 -377v-148l4 -499q0 -62 36 -116t170 -54zM64 -6q-10 0 -11 18v51q0 12 17 13h118q59 0 68 51q14 96 14 659v156q0 283 -12 375q-4 57 -74 57
h-110q-16 0 -17 15v55q0 12 19 12l309 -6l307 6q233 0 393 -38t291 -148q229 -188 230 -520q0 -172 -48 -298t-153 -239q-203 -219 -660 -219l-389 6q-176 0 -229 -3t-63 -3z" />
    <glyph glyph-name="E" unicode="E" horiz-adv-x="1404" 
d="M893 987q0 16 16 17l54 -5q14 -1 11 -25t-3 -163t12 -274q0 -12 -16 -15l-45 -8q-10 -2 -17 14q-14 59 -33 103q-31 68 -102 74q-111 12 -238 12l3 -123q6 -332 6 -348q0 -137 82 -160q65 -16 157 -16t182 9t156 66t195 220q10 14 22 8l33 -21q10 -6 4 -20l-98 -307
q-10 -31 -45 -31l-182 4l-682 2l-175 -2q-82 -4 -88 -4q-16 0 -16 16v49q0 16 20 17h70q70 0 86 15t17 73v688q1 392 -7 442t-27 65t-65 15h-78q-12 0 -12 15v53q0 14 12 14l95 -4q92 -4 192 -2h57l652 4l82 2q12 0 15 -10q33 -109 62 -214q31 -106 35 -118t-8 -18l-37 -17
q-10 -3 -20 13q-9 16 -101 112t-122 115q-88 51 -156 53l-311 8l-5 -592q193 0 234 11q63 12 94 73q33 72 33 115z" />
    <glyph glyph-name="F" unicode="F" horiz-adv-x="1286" 
d="M528 1378v-655q178 0 220 10q57 6 108 80q20 35 37 105q4 16 16 16l41 -4q12 0 13 -12q-5 -36 -5 -180t13 -267q2 -16 -13 -20l-45 -9q-14 0 -16 17q-8 55 -31 96q-40 72 -110 84t-228 12v-510q0 -41 14 -53t52 -12h111q16 0 16 -15v-51q0 -16 -16 -16l-304 6
q-179 0 -231 -3t-61 -3q-10 0 -11 14v55q0 12 13 13h82q37 0 51 8t16 35q6 123 6 651v143l-4 404q0 57 -82 57h-102q-16 0 -17 10v60q0 12 17 12l332 -6l700 4q23 0 49 4l29 4q12 -6 13 -29t39 -176t42 -164t-6 -16l-39 -16q-8 -4 -25 16q-35 63 -147 189q-53 74 -139 94
q-97 18 -398 18z" />
    <glyph glyph-name="G" unicode="G" horiz-adv-x="1710" 
d="M1618 631q20 0 20 -15v-51q0 -16 -16 -16h-70q-61 0 -61 -76v-270l8 -66q0 -20 -33 -33q-264 -135 -581 -135q-166 -1 -329 59t-261 179q-188 207 -189 557q0 144 62 282t172 234q225 201 582 201q136 0 248 -34t169 -77q29 -23 50 4l24 33q14 20 29 20q25 0 24 -28
l21 -410q0 -27 -8 -28l-49 -9q-14 -2 -21 17q-61 174 -164 282q-135 143 -342 143t-346 -159q-76 -86 -122 -209t-46 -254q0 -385 184 -569q145 -139 325 -139t282 53q31 16 40 57t9 131v150q-1 53 -17 73t-57 21h-86q-16 0 -16 18v47q0 16 12 17l291 -6q166 0 212 3t50 3z
" />
    <glyph glyph-name="H" unicode="H" horiz-adv-x="1757" 
d="M1061 12v47q0 16 16 17h111q23 0 35 13t19 67t7 475v57q0 25 -45 25h-667q-29 0 -29 -27v-88q0 -170 8 -453q2 -70 70 -69h73q20 0 21 -15v-47q0 -20 -21 -20l-274 6q-121 0 -213 -4l-90 -2q-20 0 -21 18v47q0 16 21 17h106q57 0 58 96l4 463v262l-4 346q0 78 -14 105
t-64 26h-90q-20 0 -21 19v43q0 20 21 20l303 -6q111 0 203 4l92 2q20 0 20 -18v-43q0 -20 -20 -21h-74q-51 0 -66 -24q-28 -44 -28 -441v-82q0 -29 24 -28h676q25 0 33 6t8 22v62q0 409 -23 461q-11 25 -42 24h-94q-16 0 -17 19v47q0 16 17 16l290 -6q94 0 183 4l88 2
q25 0 24 -18v-43q0 -20 -24 -21h-74q-43 0 -54 -22t-12 -82l-4 -373v-221l4 -498q1 -55 19 -79t63 -23h82q16 0 17 -15v-47q0 -20 -21 -20l-278 6l-316 -6q-16 0 -16 18z" />
    <glyph glyph-name="I" unicode="I" horiz-adv-x="794" 
d="M614 76h86q16 0 17 -15v-51q0 -16 -21 -16l-299 6q-203 0 -257 -3t-58 -3q-16 0 -16 14v55q0 12 16 13h82q86 0 94 58t8 583v143q0 366 -5 424t-23 74t-62 16h-106q-16 0 -17 15v53q0 14 13 14l331 -6l291 6q16 0 17 -18v-47q0 -16 -17 -17h-78q-78 0 -78 -55l-4 -496
v-159l4 -514q0 -46 20 -60t62 -14z" />
    <glyph glyph-name="J" unicode="J" horiz-adv-x="716" 
d="M238 823q0 397 -6 458t-24 77q-17 16 -69 16h-82q-12 0 -12 10v56q0 16 12 16q4 0 40 -1l108 -3q72 -2 168 -2l295 6q16 0 16 -14v-51q0 -16 -16 -17h-86q-42 0 -58 -12t-18 -43q-6 -98 -6 -545v-94l-8 -508q0 -190 -82 -328q-80 -127 -196 -211t-255 -84q-45 0 -96 35
q-51 34 -51 92t33 93q34 35 85 34q119 0 172 -139q35 4 66 38t51 107t23 419l-4 452v143z" />
    <glyph glyph-name="K" unicode="K" horiz-adv-x="1474" 
d="M940 -6q-10 0 -10 16v51q0 12 12 13h29q25 0 33 20t-4 43t-185 269q-172 246 -199 272t-67 27h-37v-152q0 -340 6 -432q4 -45 47 -45h78q16 0 16 -10v-56q0 -16 -12 -16l-262 6q-168 0 -213 -3t-53 -3t-8 14v55q0 12 12 13h74q51 0 56 44t5 638v119l-4 448q0 49 -61 49
h-62q-16 0 -16 15v55q0 12 16 12l262 -6l254 6q16 0 17 -14v-51q0 -16 -17 -17h-65q-33 0 -47 -12t-15 -47l-8 -451v-90h37q35 0 65 24t211 250q182 224 211 263q18 31 8 48t-40 17h-31q-10 0 -10 15v49q0 16 12 16l242 -6l176 6q16 0 16 -14v-51q0 -16 -16 -17h-41
q-61 0 -121 -39q-61 -39 -221 -218t-236 -277q25 -31 276 -353q250 -323 288 -367t120 -44h45q16 0 17 -15v-51q0 -16 -17 -16l-282 6q-167 0 -219 -3t-62 -3z" />
    <glyph glyph-name="L" unicode="L" horiz-adv-x="1372" 
d="M1229 -6q-160 6 -596 6q-437 0 -485 -3t-57 -3t-11 3t-2 15v47q0 16 12 17h82q86 0 86 55l8 672v115q0 313 -6 369q-6 55 -17 71t-50 16h-87q-16 0 -16 19v47q0 16 16 16l283 -6l324 6q20 0 20 -18v-47q0 -16 -20 -17h-111q-43 0 -56 -15t-14 -61l-4 -196
q-4 -197 -4 -283v-176q0 -479 8 -567h115q262 0 341 10t162 131t116 209q12 12 24 8l37 -12q4 -4 4 -21q-12 -17 -102 -407z" />
    <glyph glyph-name="M" unicode="M" horiz-adv-x="2039" 
d="M1339 -6q-16 0 -16 18v47q0 16 16 17h127q29 0 42 14q12 14 18 66t6 471v114q0 569 -4 578h-8q-28 -56 -160 -358q-131 -303 -143 -331t-127 -290t-119 -270q-23 -45 -44 -45t-34 36q-6 8 -141 332q-135 323 -163 395t-122 295t-111 240q-10 -37 -10 -501t10 -574
q14 -172 99 -172h90q16 0 16 -15v-51q0 -16 -20 -16l-234 6q-169 0 -215 -3t-55 -3q-8 0 -10 3t-2 15v51q0 12 12 13h94q82 0 102 145q12 92 22 353q9 261 9 331v350q0 63 -18 91t-82 28h-90q-16 0 -17 15v55q0 12 17 12l291 -6l180 6q35 0 49 -35q33 -86 211 -518t211 -522
q23 45 232 535q210 490 217 512t109 22t193 1q90 1 129 3t41 2q12 0 13 -18v-43q0 -20 -17 -21h-90q-37 0 -47 -19t-12 -63t-2 -506v-143l4 -457q2 -111 57 -110h111q12 0 12 -15v-47q0 -20 -16 -20l-303 6q-192 0 -246 -3t-62 -3z" />
    <glyph glyph-name="N" unicode="N" horiz-adv-x="1654" 
d="M1585 1442v-47q0 -20 -12 -21h-57q-59 0 -68 -108q-31 -418 -31 -693v-540q0 -57 -24 -58q-37 1 -57 21t-55 61q-36 41 -96 113t-116 137q-55 70 -173 211t-155 191q-16 16 -196 239t-185 228h-12v-250q0 -381 21 -699q5 -79 27 -115t75 -36h53q16 0 17 -19v-47
q0 -16 -17 -16l-221 6l-213 -6q-12 0 -12 18v51q0 12 12 13h70q40 0 62 39t30 131q14 258 14 651v260q0 93 -46 155t-114 62h-65q-12 2 -12 15v55q0 12 12 12l63 -4q36 -2 130 -2t143 4l57 2q31 0 48 -17q18 -17 226 -279t238 -304q47 -55 381 -471h8v213q0 282 -9 478
t-18 226t-40 52q-31 20 -68 20h-65q-12 0 -13 19v47q0 16 17 16l229 -6q74 0 135 4l62 2q20 0 20 -14z" />
    <glyph glyph-name="O" unicode="O" horiz-adv-x="1740" 
d="M864 1391q-2 0 -20 1q-117 6 -214 -64q-134 -97 -197 -276q-48 -138 -48 -299t53 -309t133 -226q161 -159 314 -159q117 1 208 51t140 122t90 189q41 118 41 273q0 156 -50 293q-88 242 -289 355q-85 49 -161 49zM872 1481q281 0 484 -164q279 -227 278 -606
q0 -260 -151 -451q-111 -137 -255 -214t-371 -77t-451 135q-121 74 -210 237t-90 370q0 274 189 508q212 262 577 262z" />
    <glyph glyph-name="P" unicode="P" horiz-adv-x="1259" 
d="M958 1024q0 216 -125 297q-100 65 -194 65t-123 -14v-663q50 -17 132 -17t152 42t114 106q44 66 44 184zM1245 1040q0 -194 -143 -304t-402 -109q-131 0 -184 8v-90q0 -377 2 -404q8 -66 64 -65h114q16 0 17 -15v-47q0 -20 -17 -20q-6 0 -41 1l-105 3q-71 2 -160 2
q-88 0 -154 -1t-100 -3t-38 -2q-16 0 -16 14v51q0 16 12 17h66q53 0 70 11q16 11 22 63t6 567v237q0 352 -2 375q-6 45 -72 45h-106q-12 0 -12 15v51q0 16 12 16l303 -6l225 6q186 0 290 -22t194 -82q72 -53 114 -135t41 -177z" />
    <glyph glyph-name="Q" unicode="Q" horiz-adv-x="1740" 
d="M877 49q137 0 238 73q101 74 151 182q94 207 94 379q0 173 -50 315t-126 229q-145 164 -336 164q-162 0 -291 -123q-172 -162 -172 -490q0 -190 61 -345q105 -266 294 -349q82 -35 137 -35zM2056 -467q-180 -1 -524 101t-787 325q-6 4 -59 19q-53 16 -107 36
q-55 20 -133 70t-143 121q-197 197 -197 525t234 550q113 100 259 152t261 49q365 6 572 -214t206 -522q0 -158 -60 -301t-157 -235q-168 -164 -360 -221v-8q248 -100 588 -176t530 -74q76 0 139 53q12 12 21 4l24 -25q8 -8 -4 -20q-39 -57 -131 -133t-172 -76z" />
    <glyph glyph-name="R" unicode="R" horiz-adv-x="1464" 
d="M628 713q56 -1 128 27q121 46 179 161q44 86 44 164q0 147 -94 232t-267 85q-54 0 -76 -13t-22 -58l-4 -590q56 -8 112 -8zM512 537q0 -321 10 -391t51 -70h103q16 0 16 -15v-49q0 -18 -22 -18l-281 6q-185 0 -225 -3t-45 -3q-16 0 -17 18v47q0 16 13 17h69q78 0 78 67
q4 205 4 590v539q0 102 -65 102h-80q-14 0 -15 12v56q0 14 15 14l31 -2l249 -4l365 6q229 0 373 -129q111 -98 110 -229q0 -340 -381 -402v-8q70 -25 123 -94q12 -16 96 -144t155 -225q71 -96 91 -114q43 -39 146 -39q16 0 16 -15v-43q0 -20 -16 -20l-201 6q-45 0 -180 -6
q-34 25 -68 80t-154 268t-199 278q-40 32 -99 31q-21 0 -66 -4v-110z" />
    <glyph glyph-name="S" unicode="S" horiz-adv-x="1130" 
d="M574 59q88 -1 174 61q84 62 84 188t-66 192t-246 134t-286 166t-107 284q0 186 143 298q114 98 270 98t279 -48q27 -10 43 6l27 26q12 12 29 13q16 1 16 -25t16 -183t16 -166t-12 -13l-32 -11q-14 -4 -21 13q-47 133 -127 218t-202 85t-181 -68t-59 -139q0 -123 57 -184
q73 -74 263 -132t287 -161t97 -291t-118 -320q-118 -131 -326 -131q-207 0 -338 99q-37 24 -48 24q-12 0 -30 -31t-41 -30q-25 0 -24 32q2 13 18 191q17 178 19 192t12 15l45 -4q12 0 12 -17q8 -123 78 -233q92 -148 279 -148z" />
    <glyph glyph-name="T" unicode="T" horiz-adv-x="1478" 
d="M406 -6q-16 0 -17 18v47q0 16 14 17h117q62 0 68 54t6 722v512h-57q-213 0 -299 -29q-68 -31 -183 -233q-12 -18 -22 -15l-41 15q-10 6 -8 20l98 377q6 37 24 37q12 0 33 -20q49 -49 140 -54q332 -12 397 -12h110q123 0 406 12q29 2 77 20q49 18 73 36t36 18t19 -33
q6 -61 61 -389q2 -14 -8 -18l-41 -15q-8 -2 -18 17q-88 176 -162 229q-63 37 -316 37h-57v-1092q0 -112 15 -154t55 -42h118q12 0 13 -19v-43q0 -20 -21 -20l-307 6q-201 0 -259 -3t-64 -3z" />
    <glyph glyph-name="U" unicode="U" horiz-adv-x="1525" 
d="M1509 1440v-47q0 -18 -12 -19h-74q-72 0 -86 -80q-4 -26 -4 -354t-12 -451q-17 -256 -165 -388t-380 -132q-178 0 -295 49q-178 74 -241 275q-37 116 -37 493v486q1 53 -15 78t-55 24h-94q-16 0 -16 19v47q0 16 20 16l315 -6l295 6q16 0 17 -14v-51q0 -16 -17 -17h-86
q-94 0 -102 -100q-4 -54 -4 -246v-254q0 -215 6 -313q12 -174 72 -254q94 -127 278 -127q74 0 151 26q243 84 242 418v369q0 219 -22 391q-4 41 -28 66t-56 24h-74q-16 0 -16 15v51q0 16 16 16l250 -6l209 6q20 0 20 -16z" />
    <glyph glyph-name="V" unicode="V" horiz-adv-x="1474" 
d="M672 1395q0 -20 -17 -21h-98q-86 0 -86 -51q0 -41 6 -70q20 -111 133 -434q104 -283 172 -512h4v4q129 301 201 516q160 427 160 490q1 23 -19 40t-59 17h-55q-15 1 -15 19v47q0 16 17 16l241 -6l242 6q16 0 17 -14v-51q0 -16 -17 -17h-49q-90 0 -144 -85t-149 -319
t-111 -267t-153 -365t-149 -356t-38 -23q-26 0 -47 47q-76 190 -207 548t-194 541t-76 214q-27 66 -88 65h-49q-12 0 -12 19v47q0 16 12 16l303 -6l303 6q20 0 21 -16v-45z" />
    <glyph glyph-name="W" unicode="W" horiz-adv-x="2162" 
d="M2193 1446v-55q0 -16 -14 -17h-43q-61 0 -90 -67q-10 -23 -234 -634t-245 -663q-19 -52 -55 -51q-36 0 -50 45l-370 1077h-9q-37 -115 -389 -1083q-16 -39 -50 -39t-44 33l-459 1308q-27 74 -86 74h-57q-12 0 -12 15v53q0 14 16 14l262 -6l254 6q16 0 17 -14v-51
q0 -16 -19 -17h-39q-31 0 -45 -19t-4 -52l301 -947l4 -2q43 113 167 469q124 355 125 411t-36 103q-25 37 -69 37h-43q-14 0 -15 15v51q0 16 17 16l266 -6l268 6q14 0 14 -18v-47q0 -16 -14 -17h-72q-29 0 -41 -26t-4 -54l295 -946h8q295 864 295 969q0 25 -17 41t-52 16
h-56q-14 0 -14 17v49q0 16 17 16l217 -6l192 6q12 0 12 -10z" />
    <glyph glyph-name="X" unicode="X" horiz-adv-x="1437" 
d="M825 59q0 16 13 17h53q35 0 49 8t9 33t-292 510q-297 -430 -309 -482q-8 -31 5 -50t42 -19h70q16 -1 16 -17v-47q0 -18 -16 -18l-266 6l-219 -6q-14 0 -15 16v49q0 16 17 17h57q68 0 129 53t129 140t167 225t152 206q-31 45 -209 329t-209 315q-32 31 -98 30h-77
q-12 0 -13 15v51q0 16 13 16l311 -6l311 6q16 0 17 -16v-47q0 -18 -21 -19h-57q-80 0 -60 -67q8 -25 110 -205t130 -221q279 401 285 432q12 61 -52 61h-47q-14 0 -14 17v49q0 16 12 16l246 -6l209 6q16 0 16 -14v-53q0 -14 -16 -15h-66q-65 0 -105 -29t-176 -205t-247 -329
q69 -117 233 -376t204 -309t120 -50h66q16 0 16 -15v-49q0 -18 -18 -18l-297 6l-291 -6q-16 0 -17 18v47z" />
    <glyph glyph-name="Y" unicode="Y" horiz-adv-x="1433" 
d="M1481 1395q0 -20 -17 -21h-45q-66 0 -110 -47q-25 -29 -209 -313t-242 -383v-250q0 -169 5 -225t25 -68t56 -12h68q14 0 14 -15v-47q0 -20 -14 -20l-289 6q-191 0 -237 -3t-48 -3q-14 0 -14 18v47q0 16 14 17h84q68 0 72 51q6 86 6 381v98q-47 88 -216 382t-206 341
q-39 45 -102 45h-37q-16 0 -16 15v55q0 12 16 12l270 -6l303 6q16 0 17 -14v-47q0 -20 -17 -21h-53q-63 0 -57 -59q4 -34 145 -300q140 -266 160 -306q334 551 338 591q8 74 -70 74h-53q-16 0 -16 17v51q0 14 12 14l250 -6l196 6q16 0 17 -14v-47z" />
    <glyph glyph-name="Z" unicode="Z" horiz-adv-x="1441" 
d="M1322 1462q30 0 37 -16t-5 -33q-207 -285 -963 -1335h545q102 0 139 15t135 121t144 163q10 10 24 4l33 -16q8 -8 4 -21q-41 -63 -151 -352q-8 -23 -24 -23t-54 6q-172 25 -627 25h-469q-31 0 -31 19t13 38q684 950 946 1319h-475q-49 0 -91 -28t-138 -137
q-95 -110 -128 -158q-10 -16 -24 -9l-29 17q-8 0 -8 16l131 365q4 23 25 22q11 0 69 -7t533 -7l270 4q139 8 169 8z" />
    <glyph glyph-name="bracketleft" unicode="[" horiz-adv-x="720" 
d="M618 1452h-229q-20 0 -20 -22v-1678q0 -29 16 -28h254q16 0 16 -17v-45q0 -16 -16 -16h-442q-25 0 -25 22v1837q0 25 21 25h430q12 0 12 -12v-50q-1 -16 -17 -16z" />
    <glyph glyph-name="backslash" unicode="\" horiz-adv-x="745" 
d="M131 1483l602 -1446q6 -20 -4 -25l-94 -41q-10 -4 -19 13l-604 1446q-6 18 4 24l95 41q12 4 20 -12z" />
    <glyph glyph-name="bracketright" unicode="]" horiz-adv-x="720" 
d="M82 -276h258q12 0 12 22v1681q0 25 -20 25h-230q-16 0 -16 16v50q0 12 12 12h430q20 0 21 -21v-1839q0 -25 -25 -24h-438q-20 0 -20 16v45q0 17 16 17z" />
    <glyph glyph-name="asciicircum" unicode="^" 
d="M37 512l434 856h82l434 -856h-156l-319 643h-8l-316 -643h-151z" />
    <glyph glyph-name="underscore" unicode="_" 
d="M0 -256v102h1024v-102h-1024z" />
    <glyph glyph-name="grave" unicode="`" horiz-adv-x="565" 
d="M142 1343q60 0 104 -65l164 -246q6 -6 0 -12l-29 -25q-6 -6 -12 0l-265 185q-59 43 -41 103q19 60 79 60z" />
    <glyph glyph-name="a" unicode="a" horiz-adv-x="907" 
d="M528 186v269q-14 -10 -69 -40t-80 -48q-25 -17 -51 -59t-25 -98q0 -56 28 -89q59 -70 153 3q44 33 44 62zM90 152q0 168 189 251q225 109 249 127v107q-8 90 -34 118q-26 27 -99 27q-72 0 -121 -37q-19 -16 -13 -50q5 -34 5 -50q0 -119 -123 -119q-29 0 -49 18t-20 52
q0 98 94 168q152 115 332 115q123 0 188 -58q49 -45 49 -153l4 -324v-98q1 -80 13 -112t51 -32t55 33q8 14 21 8l24 -16q14 -8 4 -33q-67 -119 -193 -119t-167 125h-8q-68 -74 -179 -110q-46 -14 -118 -14t-113 46q-41 48 -41 130z" />
    <glyph glyph-name="b" unicode="b" horiz-adv-x="1062" 
d="M358 442q0 -227 29 -299q47 -92 162 -92q115 1 172 99t57 254t-68 254q-68 97 -176 97t-176 -61v-252zM2 1305v20q0 10 21 16q123 43 216 91t111 49q27 0 21 -33q0 -7 -5 -178q-5 -172 -6 -250l-2 -246q109 104 281 105q92 1 171 -47t133 -132t54 -255q0 -170 -134 -320
q-134 -149 -303 -149t-275 53l-80 -47q-10 -6 -27 -7l-28 9q-8 4 -9 16q6 43 6 348l-4 748q0 100 -18 134t-70 50l-24 8q-29 4 -29 17z" />
    <glyph glyph-name="c" unicode="c" horiz-adv-x="856" 
d="M66 393q0 103 38 201t113 166q131 119 294 119q163 1 229 -59t67 -126q0 -38 -25 -64t-65 -26q-84 0 -123 103q-35 84 -127 84q-68 0 -126 -68q-58 -67 -58 -173t14 -174t65 -155q68 -111 200 -111t233 78q8 8 18 -2l25 -28q10 -10 0 -25q-46 -57 -144 -107t-202 -51
q-222 1 -324 131t-102 287z" />
    <glyph glyph-name="d" unicode="d" horiz-adv-x="1083" 
d="M705 246v358q0 63 -22 101t-70 66q-49 28 -125 28t-126 -62q-82 -99 -82 -257t78 -274q76 -116 180 -116t150 74q17 33 17 82zM918 782v-446q0 -154 22 -182t84 -35q35 0 41 -13l4 -24q6 -18 -12 -25l-275 -77q-23 -8 -28 20l-29 94q-49 -51 -132 -85t-155 -34
q-145 0 -245 101q-127 125 -127 301q0 217 143 371q125 131 303 131q106 0 193 -29l-7 397q-2 55 -25 80q-24 25 -104 39q-16 6 -16 16v37q0 10 16 17q272 33 306 39t38 6q18 0 13 -37q-8 -103 -8 -662z" />
    <glyph glyph-name="e" unicode="e" horiz-adv-x="888" 
d="M532 592q68 0 68 29q0 65 -29 123t-98 59q-147 0 -188 -211h247zM279 518v-63q0 -147 85 -239t181 -93q170 0 248 119q10 18 24 10l31 -19q16 -10 0 -40q-121 -217 -373 -218q-199 0 -295 111q-66 76 -90 155t-24 177t19 164t83 148t142 115q78 34 186 34q193 0 270 -134
q65 -108 65 -194q0 -21 -13 -27t-44 -6h-495z" />
    <glyph glyph-name="f" unicode="f" horiz-adv-x="645" 
d="M39 10v47q0 12 20 13h82q53 0 54 69v615h-140q-12 0 -10 22l8 70q0 10 27 10h115v39q0 281 151 438q154 147 344 148q88 0 144 -33t57 -84q0 -51 -34 -80t-73 -29t-61 17q-31 10 -61 58t-78 48q-159 0 -170 -232q-4 -88 -4 -146v-144h243q16 0 17 -18l-11 -74
q-2 -10 -26 -10h-223v-181q0 -418 2 -446q6 -57 57 -57h94q20 0 21 -19v-37q0 -20 -13 -20l-30 2l-240 4l-246 -6q-16 0 -16 16z" />
    <glyph glyph-name="g" unicode="g" horiz-adv-x="1011" 
d="M203 -280q-1 -50 21 -91t52 -57q84 -49 240 -49q96 0 189 50q92 50 90 132q0 196 -283 184l-184 -12q-47 -14 -86 -60q-39 -47 -39 -97zM468 313q72 0 106 82q34 83 34 195q0 214 -141 213q-68 0 -111 -51q-57 -74 -57 -212t51 -182q45 -45 118 -45zM94 61q0 127 176 209
v4q-176 102 -176 306q0 114 98 206t276 92q177 0 284 -116q96 76 162 76t95 -28q27 -28 25 -65t-26 -63t-59 -25q-34 0 -62 29q-33 25 -57 25t-42 -13q25 -49 25 -135q0 -135 -87 -228t-259 -93q-74 0 -117 8q-88 -39 -88 -99t62 -74q32 -7 80 -7t144 5t177 -10
q80 -15 143 -69q102 -78 102 -209t-126 -229q-59 -47 -165 -82t-237 -33q-207 0 -314 61t-108 164q0 76 62 134t151 96v12q-67 14 -103 57t-36 94z" />
    <glyph glyph-name="h" unicode="h" horiz-adv-x="1116" 
d="M637 8v49q0 12 14 13h35q51 0 57 41q5 28 5 200v138q0 219 -52 271t-122 52q-72 0 -146 -74q-37 -47 -37 -100v-442q0 -50 8 -68t29 -18h49q20 0 21 -19v-37q0 -20 -17 -20l-213 6l-221 -6q-16 0 -16 16v45q0 14 18 15h51q59 0 68 32q10 51 10 254l-4 731q0 84 -20 123
t-74 62l-37 12q-16 6 -16 16v21q0 10 28 25q61 16 267 118q49 16 57 17q23 0 17 -43t-5 -557v-127h12q41 57 115 91t150 34q111 0 204 -82q46 -39 66 -95t22 -90q2 -35 3 -116v-394q0 -33 69 -32h37q20 0 21 -15v-45q0 -16 -17 -16l-203 6l-217 -6q-16 0 -16 14z" />
    <glyph glyph-name="i" unicode="i" horiz-adv-x="555" 
d="M263 1335q60 1 94 -37t34 -85t-36 -87t-95 -41q-59 0 -99 36t-40 86t41 89t101 39zM35 14v39q0 16 20 17h90q31 0 33 41q4 123 4 184v289q0 51 -20 81t-86 46q-20 4 -21 18v23q1 10 15 16t132 49t142 52t41 10q20 0 16 -29t-4 -330v-221q0 -152 4 -176q6 -53 33 -53h82
q20 0 21 -15v-41q0 -20 -17 -20l-248 6q-72 0 -145 -4l-76 -2q-16 0 -16 20z" />
    <glyph glyph-name="j" unicode="j" horiz-adv-x="528" 
d="M263 1335q60 1 94 -37t34 -85t-36 -87t-95 -41q-59 0 -99 36t-40 86t41 89t101 39zM391 496v-254q0 -313 -30 -459q-29 -146 -143 -243t-245 -97q-63 0 -107 30t-44 73q0 42 26 76t64 34q61 0 115 -70q35 -45 61 -45q72 0 83 169t7 442l-4 403q0 63 -19 89t-83 50l-21 8
q-12 6 -12 17v20q0 10 16 17q240 86 275 110q25 12 53 13q23 0 15 -37t-7 -346z" />
    <glyph glyph-name="k" unicode="k" horiz-adv-x="1044" 
d="M641 14v35q0 16 16 17h17q28 0 22 26t-243 305q-25 25 -66 25v-303q0 -49 41 -49h45q20 0 21 -19v-41q0 -16 -17 -16l-196 6q-131 0 -185 -4l-26 -2q-14 0 -15 20v39q0 16 21 17h53q41 0 41 49q6 61 6 303l-4 739q0 67 -18 97t-91 51q-29 12 -28 16v29q-1 14 31 21
t142 46t136 49t39 11q18 0 16 -33q-12 -147 -12 -645v-311q51 0 82 24q37 35 119 125t84 119q0 27 -39 26h-19q-14 0 -14 17v43q0 16 16 16l205 -6l178 6q14 0 15 -22v-37q0 -16 -17 -17h-20q-63 0 -121 -32t-272 -230q340 -385 393 -420t115 -34q16 0 16 -19v-41
q0 -16 -21 -16l-208 6l-222 -6q-16 0 -16 20z" />
    <glyph glyph-name="l" unicode="l" horiz-adv-x="532" 
d="M29 -6q-16 0 -17 20v39q0 16 29 17h78q18 0 35 17q16 17 16 56v641q0 266 -7 366t-106 130l-41 12q-12 4 -12 17v24q0 10 16 17q225 68 308 118q37 12 45 13q20 0 20 -37q-8 -221 -8 -649v-295q0 -366 6 -388q11 -42 51 -42h78q25 0 25 -19v-37q0 -20 -13 -20l-249 6
q-153 0 -203 -3t-51 -3z" />
    <glyph glyph-name="m" unicode="m" horiz-adv-x="1671" 
d="M63 55q0 14 25 15h62q31 0 36 53v424q0 96 -61 131l-43 22q-14 8 -14 19v20q0 11 14 17l227 110q25 12 41 13q23 0 25 -29l12 -119h8q49 63 128 105t167 43q160 0 242 -152h12q51 68 127 110q75 42 179 42q104 -1 165 -65t80 -111t18 -158v-234l-4 -180q0 -61 54 -61h53
q16 0 16 -15v-43q0 -18 -16 -18l-197 6l-200 -6q-16 0 -17 16v43q0 16 17 17h32q41 0 41 41q8 90 8 180v239q0 142 -45 186t-104 44q-104 0 -164 -84q-31 -43 -31 -160v-381q0 -66 37 -65h54q20 0 20 -15v-45q0 -16 -12 -16l-201 6q-127 0 -166 -3t-41 -3q-14 0 -14 16v39
q0 20 16 21h45q49 0 49 94v350q0 172 -53 217q-34 29 -120 29t-138 -86q-33 -47 -33 -146v-364q0 -94 41 -94h45q20 0 21 -13v-47q0 -16 -17 -16l-204 6l-205 -6q-16 0 -17 18v43z" />
    <glyph glyph-name="n" unicode="n" horiz-adv-x="1124" 
d="M84 -6q-12 0 -12 20v39q0 16 20 17h41q53 0 53 41v460q0 76 -86 119l-16 8q-16 6 -16 21v16q0 15 20 21l225 106q33 16 41 17q18 0 25 -25l16 -106h13q47 53 102 81q84 49 184 49t160 -49q63 -47 88 -95t25 -116v-294l-2 -197q0 -57 49 -57h57q25 0 25 -15v-47
q0 -14 -17 -14l-221 6q-121 0 -160 -3t-41 -3q-16 0 -16 24v35q0 16 25 17h41q31 0 37 60t8 181v236q0 71 -10 109t-47 71q-38 33 -116 33t-135 -53q-43 -43 -43 -146v-422q0 -70 39 -69h37q20 0 21 -19v-37q0 -20 -17 -20l-192 6q-127 0 -165 -3t-40 -3z" />
    <glyph glyph-name="o" unicode="o" horiz-adv-x="1044" 
d="M299 446q-1 -196 59 -290t162 -95q102 0 156 108q53 109 53 269t-67 259q-68 99 -147 99t-128 -55q-88 -99 -88 -295zM535 879q177 0 303 -121q141 -142 141 -318t-129 -320t-340 -144t-334 147q-66 77 -88 147t-22 161t43 186t129 163q120 99 297 99z" />
    <glyph glyph-name="p" unicode="p" horiz-adv-x="1071" 
d="M379 217q0 -82 53 -115q58 -47 150 -47t151 74q59 73 61 199q3 248 -101 367q-56 65 -138 65q-113 0 -176 -90v-453zM31 -547v45q0 14 12 15h74q39 0 44 49t5 286v707q0 49 -13 75t-57 48l-45 24q-16 10 -16 21v20q0 10 16 17l234 102q39 16 57 17q14 0 18 -27l15 -100h4
q43 53 119 90t159 37q135 0 238 -103q61 -63 86 -130t25 -163q0 -219 -129 -363t-318 -145q-100 0 -180 37l4 -372q2 -84 13 -106t44 -21h74q16 0 16 -17v-43q0 -16 -20 -16l-238 6l-225 -6q-16 0 -16 16z" />
    <glyph glyph-name="q" unicode="q" horiz-adv-x="1036" 
d="M522 86q106 0 172 66v473q-12 86 -65 134t-121 47t-122 -56q-99 -101 -97 -242q-2 -127 18 -201t78 -145q25 -32 65 -54t72 -22zM547 -535v31q0 16 24 17h66q47 0 53 36q6 43 6 369v143h-8q-104 -86 -252 -86q-148 1 -259 101q-112 100 -111 315q0 99 45 203t145 194
t264 91q102 0 221 -45l156 45q10 6 16 0l21 -17q6 -6 -1 -41t-15 -201t-9 -227v-463q0 -246 9 -360q6 -57 45 -57h53q20 0 20 -11v-49q0 -16 -16 -16l-227 6l-230 -6q-16 0 -16 28z" />
    <glyph glyph-name="r" unicode="r" horiz-adv-x="733" 
d="M57 -6q-14 0 -14 14v45q0 16 18 17h72q53 0 53 55v401q0 70 -15 103t-62 57l-37 21q-16 6 -17 16v12q0 10 17 19l247 116q25 8 36 8t16 -24l18 -152h8q113 184 246 185q49 0 78 -30t29 -73q0 -42 -35 -76t-74 -34t-72 16q-23 16 -65 16t-73 -50q-30 -52 -30 -109v-391
q-1 -50 13 -68t45 -18h90q16 0 16 -15v-47q0 -14 -14 -14l-254 6q-143 0 -189 -3t-51 -3z" />
    <glyph glyph-name="s" unicode="s" horiz-adv-x="757" 
d="M384 55q64 0 106 35t42 92t-43 92t-153 66q-250 74 -250 256q0 141 101 212t217 71t198 -45q37 -18 39 -37l27 -140q4 -16 -2 -22l-39 -19q-10 -4 -17 9l-98 110q-60 63 -124 63t-105 -32q-41 -33 -41 -88t41 -83q41 -27 161 -59t184 -98t64 -181q0 -116 -95 -199
t-247 -83q-74 1 -137 19t-84 35q-14 14 -16 22l-33 207q-4 12 6 16l39 13q14 4 18 -6l68 -115q33 -55 71 -83t102 -28z" />
    <glyph glyph-name="t" unicode="t" horiz-adv-x="677" 
d="M180 741h-119q-29 0 -28 29q0 25 43 40t143 105t133 152q10 20 34 20t24 -28l-9 -203h271q18 0 14 -16l-20 -86q-2 -12 -21 -13h-248q-6 -129 -6 -274v-184q0 -105 34 -149t75 -44q70 0 118 25q20 8 25 -4l12 -25q4 -16 -8 -29q-115 -82 -258 -82q-88 1 -151 59t-64 126
l6 315v266z" />
    <glyph glyph-name="u" unicode="u" horiz-adv-x="1077" 
d="M915 418q-1 -196 7 -252t43 -55q41 0 65 3t25 -8l6 -32q2 -14 -10 -19l-254 -71q-25 -8 -41 -9q-27 0 -29 25l-12 115h-13q-36 -57 -114 -99t-142 -41q-64 0 -89 3q-27 4 -65 24t-80 75t-54 113t-13 162l2 213q0 123 -4 148q-8 68 -71 73q-45 6 -45 17v37q0 16 24 16h246
l53 8q20 0 21 -24l-9 -256v-129q0 -10 -2 -98t12 -136q15 -49 32 -76t43 -40t39 -14q14 -1 50 -1t76 23t66 55q23 35 22 65v484q0 61 -88 69q-41 4 -41 17v37q0 16 25 16h254l61 8q16 0 17 -20q0 -4 -6 -56t-7 -221v-149z" />
    <glyph glyph-name="v" unicode="v" horiz-adv-x="929" 
d="M989 848v-45q0 -16 -14 -17h-35q-53 0 -78 -22q-49 -49 -272 -550q-86 -194 -90 -202q-22 -43 -51 -43t-54 47q-8 14 -85 192t-95 226q-80 230 -108 276t-45 61t-44 15h-38q-14 0 -15 17v43q0 16 21 16l225 -6l205 6q20 0 20 -16v-39q0 -20 -16 -21h-33q-45 0 -45 -32
t70 -242l102 -266h12q137 322 176 450q12 39 -2 65t-43 25h-32q-12 0 -13 17v45q0 14 17 14l180 -6l160 6q20 0 20 -14z" />
    <glyph glyph-name="w" unicode="w" horiz-adv-x="1388" 
d="M1436 803q0 -16 -15 -17h-30q-59 0 -78 -34q-26 -53 -164 -391t-150 -365t-40 -27t-44 43l-204 555h-13l-237 -563q-16 -35 -44 -35t-44 43l-281 721q-20 53 -78 53h-34q-14 0 -15 15v45q0 16 17 16l213 -6l176 6q16 0 16 -16v-45q0 -14 -16 -15h-21q-37 0 -20 -47
l147 -481h12l160 404q18 45 -16 92q-14 20 -53 20h-23q-14 0 -14 14v46q0 16 18 16l211 -6l156 6q20 0 20 -16v-43q0 -16 -16 -17h-33q-15 0 -25 -14t-4 -33l152 -444h8l135 372q45 133 -41 131h-28q-12 0 -13 15v45q0 16 17 16l172 -6l147 6q16 0 17 -14v-45z" />
    <glyph glyph-name="x" unicode="x" horiz-adv-x="884" 
d="M862 862q16 0 17 -14v-45q0 -16 -17 -17h-24q-51 0 -81 -24t-110 -116t-127 -159q190 -295 260 -372q39 -45 82 -45h31q10 -1 10 -15v-47q0 -14 -14 -14l-199 6q-72 0 -137 -4l-68 -2q-16 0 -16 16v43q0 16 16 17h17q18 0 24 20t-8 41l-127 207q-39 -45 -92 -122t-61 -97
q-23 -49 26 -49h31q10 0 10 -19v-41q0 -16 -16 -16l-164 6l-164 -6q-16 0 -16 18v41q0 16 16 17h41q51 0 84 26t258 314q-137 225 -246 350q-27 27 -71 26h-41q-16 0 -17 15v45q0 16 17 16l209 -6l188 6q12 0 12 -16v-41q0 -14 -10 -14h-14q-21 -1 -21 -21t17 -47l106 -176
l123 164q18 25 13 53t-29 27h-25q-12 0 -12 10v47q0 14 14 14l174 -6q37 0 67 2l45 3q15 1 19 1z" />
    <glyph glyph-name="y" unicode="y" horiz-adv-x="897" 
d="M948 846v-43q0 -16 -12 -17h-25q-47 0 -83 -46t-318 -683q-222 -476 -252 -521q-30 -46 -47 -56q-40 -25 -62 -31q-23 -6 -63 -6q-41 0 -75 31t-34 77q0 45 29 75t70 30t82 -20t60 -2q18 18 78 144t79 185q-8 39 -126 364t-137 371q-20 46 -38 68q-18 20 -47 20h-41
q-16 0 -17 17v45q0 14 17 14l217 -6q72 0 137 4l68 2q16 0 16 -16v-45q0 -14 -14 -15h-31q-39 0 -33 -38t72 -258t80 -252h8q29 61 105 250q77 189 85 221q18 78 -43 77h-32q-16 0 -17 15v45q0 16 17 16l176 -6l137 6q14 0 14 -16z" />
    <glyph glyph-name="z" unicode="z" horiz-adv-x="909" 
d="M354 0h-262q-37 0 -8 45l496 746h-181q-92 0 -146 -37t-173 -189q-10 -12 -21 -6l-28 16q-10 6 -4 23l123 289q142 -31 389 -31h299q16 0 22 -10t-2 -23l-512 -753h234q121 0 299 219q10 12 22 6l27 -21q10 -8 4 -20l-148 -279q-81 25 -430 25z" />
    <glyph glyph-name="braceleft" unicode="{" horiz-adv-x="720" 
d="M668 1501q0 -37 -25 -37q-142 0 -206 -67t-64 -165q1 -98 23 -192t22 -160t-28 -121q-28 -56 -66 -79q-12 -10 -45 -33t-33 -39q0 -17 33 -38t49 -38q90 -72 90 -200q0 -64 -23 -164t-23 -203t60 -166q59 -63 150 -80q25 -8 65 -8q21 0 21 -33t-29 -32l-70 4
q-181 10 -289 89t-108 236q0 98 37 209q41 139 41 197q0 125 -66 168q-20 16 -73 24q-33 6 -33 40t39 34q132 0 133 164q0 45 -37 193q-41 131 -41 202q0 139 94 221t262 99l103 4q37 0 37 -29z" />
    <glyph glyph-name="bar" unicode="|" horiz-adv-x="716" 
d="M414 -532h-107q-12 0 -12 20v2052q0 16 12 16h105q14 0 14 -20v-2048q0 -20 -12 -20z" />
    <glyph glyph-name="braceright" unicode="}" horiz-adv-x="720" 
d="M53 -322q0 32 25 33q143 0 206 73q64 73 64 161t-20 231q-25 115 -25 156q0 141 94 205q57 38 68 52q10 13 10 22t-11 19t-33 23q-22 14 -38 31q-90 72 -90 201q0 45 25 159q20 143 20 175q0 98 -60 161t-149 80l-61 4q-25 0 -25 33t37 33l66 -4q176 -10 284 -91
t109 -227q0 -78 -41 -200q-37 -129 -37 -172q0 -125 66 -168q20 -16 69 -25q37 0 37 -37t-37 -37t-74 -12q-61 -29 -61 -151q0 -33 37 -189q41 -139 41 -231q0 -144 -96 -232t-265 -104l-98 -4q-37 0 -37 32z" />
    <glyph glyph-name="asciitilde" unicode="~" 
d="M913 655q0 -155 -59 -237t-142 -82t-180 61l-77 54q-76 45 -121 45t-72 -41t-24 -127h-127q0 152 62 236q63 84 145 83q82 0 161 -45l90 -57q5 -3 25 -17q55 -39 102 -41q96 0 90 168h127z" />
    <glyph glyph-name="uni00A0" unicode="&#xa0;" horiz-adv-x="430" 
 />
    <glyph glyph-name="exclamdown" unicode="&#xa1;" horiz-adv-x="528" 
d="M250 422h37q16 0 16 -21q4 -109 47 -439t43 -380q0 -51 -33 -95t-94 -44q-137 0 -131 156q0 25 49 361t54 446q0 16 12 16zM269 616q-56 0 -98 34t-42 88t34 98t98 43q64 0 101 -39q37 -38 37 -96t-37 -93t-93 -35z" />
    <glyph glyph-name="cent" unicode="&#xa2;" 
d="M496 369l28 680q-86 -4 -149 -86t-63 -244t98 -289q31 -43 86 -61zM549 1339h57q12 0 12 -20l-8 -193q158 -2 229 -60t70 -116q-6 -86 -92 -86t-121 82q-33 82 -90 94l-33 -696q49 -4 58 -4q139 0 241 90q14 6 21 0l25 -24q12 -12 0 -29q-52 -59 -144 -107t-205 -49
l-12 -229q0 -20 -12 -21h-58q-14 1 -8 21l8 233q-184 12 -290 136q-107 124 -107 291t117 307t321 163l9 201q0 16 12 16z" />
    <glyph glyph-name="sterling" unicode="&#xa3;" 
d="M700 553q20 0 21 -12v-54q0 -12 -21 -12h-335q-70 -115 -170 -207l6 -6q124 13 175 2q50 -10 89 -24t80 -52t99 -90t114 -53q25 0 45 18t28 39q14 41 -28 41q-47 0 -77 22q-30 23 -30 57t30 68t83 34t97 -42t44 -111t-68 -139t-196 -69q-129 0 -201 32q-71 32 -155 122
t-166 84q-12 -45 -66 -125t-127 -80q-49 0 -49 41q0 55 62 125t118 88q41 41 107 225h-148q-16 0 -16 12v54q0 12 12 12h176q11 27 75 231t87 263q55 151 179 251t256 100t193 -50q62 -52 62 -100q1 -48 -25 -72t-65 -23q-92 0 -127 74q-2 2 -11 37t-24 48t-47 13
q-49 0 -85 -69q-37 -69 -73 -216q-36 -148 -106 -286t-112 -201h290z" />
    <glyph glyph-name="currency" unicode="&#xa4;" 
d="M521 453q93 0 149 64q55 65 55 173t-57 173q-58 65 -152 65t-149 -65t-55 -173t58 -172q58 -65 151 -65zM508 326q-137 0 -215 71l-176 -180q-10 -14 -25 0l-57 66q-12 12 0 24l180 172q-27 25 -49 84q-23 59 -23 113q0 152 86 235l-190 170q-14 14 0 29l55 57
q10 12 23 0l190 -176q90 68 220 68t202 -62l182 170q12 8 21 0l55 -51q14 -14 2 -26l-176 -170q35 -36 57 -98t23 -115q0 -152 -76 -240l176 -168q2 -4 2 -10t-2 -10l-57 -62q-13 -12 -25 0l-182 168q-84 -59 -221 -59z" />
    <glyph glyph-name="yen" unicode="&#xa5;" 
d="M1098 1313q0 -20 -17 -21h-41q-43 0 -78 -37t-348 -596h279q16 0 16 -12v-53q0 -12 -16 -12h-291v-136h291q16 0 16 -12v-53q0 -12 -16 -12h-291l2 -228q0 -66 72 -65h74q16 0 16 -13v-53q0 -16 -16 -16l-238 6q-168 0 -212 -3t-53 -3t-9 20v49q0 12 16 13h86q57 0 57 51
v242h-295q-12 0 -12 12v53q0 12 12 12h295v136h-295q-12 0 -12 16v49q0 12 16 12h275q-240 477 -307 584q-33 49 -86 49h-37q-16 0 -17 15v51q0 16 17 16l221 -6l262 6q12 0 12 -14v-47q0 -20 -14 -21h-35q-43 0 -59 -17t-8 -46t103 -242t128 -274h4q12 31 125 254t120 255
t-11 51t-58 19h-49q-16 0 -16 19v47q0 16 16 16l205 -6l184 6q16 0 17 -14v-47z" />
    <glyph glyph-name="brokenbar" unicode="&#xa6;" horiz-adv-x="716" 
d="M414 666h-103q-16 0 -16 20v676q0 20 12 20h103q16 0 16 -20v-676q0 -20 -12 -20zM412 -358h-105q-12 0 -12 20v676q0 20 14 20h105q12 0 12 -20v-676q0 -20 -14 -20z" />
    <glyph glyph-name="section" unicode="&#xa7;" horiz-adv-x="1105" 
d="M684 680q-96 68 -161 109q-140 90 -175 141q-70 -44 -70 -148t119 -200q70 -54 151 -114t124 -92t57 -52q37 12 66 54t28 85q0 117 -139 217zM852 47q0 -131 -96 -227t-281 -96q-113 0 -185 34t-73 84q0 51 25 75t65 24q74 0 119 -68t105 -68t109 41q48 41 48 116
t-35 132t-73 89q-39 32 -121 88t-127 94q-188 152 -189 344q-1 98 51 171t121 107q-53 63 -53 178t82 205q100 111 307 111q100 0 167 -40t67 -95q0 -86 -99 -86q-44 0 -66 18t-58 74t-94 55q-58 0 -108 -49t-50 -113t21 -105t45 -62q44 -39 85 -67q40 -28 164 -102
q123 -80 181 -163t57 -189q4 -203 -189 -291q78 -88 78 -219z" />
    <glyph glyph-name="dieresis" unicode="&#xa8;" horiz-adv-x="712" 
d="M545 1090q-45 0 -83 26t-38 74q0 49 29 86t83 37t86 -32t32 -84t-32 -80q-32 -27 -77 -27zM289 1197q0 -51 -31 -79t-77 -28t-84 26t-38 74q0 49 29 86t83 37t86 -32t32 -84z" />
    <glyph glyph-name="copyright" unicode="&#xa9;" horiz-adv-x="1671" 
d="M860 274q-222 0 -336 115q-139 139 -139 337t135 327q127 127 328 127q72 0 134 -20t84 -40q22 -18 32 -2l6 29q2 12 24 12t27 -10l33 -260q0 -14 -8 -17l-29 -6q-14 -4 -16 6q-41 100 -99 152q-76 82 -192 82t-190 -104q-73 -104 -68 -240q10 -190 94 -275
q102 -102 213 -102q172 0 299 135q10 10 18 2l23 -18q4 -4 -4 -21q-147 -209 -369 -209zM836 1391q-268 1 -450 -185t-181 -479q0 -174 60 -309q103 -232 361 -322q104 -37 240 -37q136 1 262 63q223 111 300 375q34 112 34 254t-61 277t-157 210q-196 153 -408 153z
M842 1481q322 0 532 -210t211 -539q0 -329 -208 -546q-209 -217 -543 -217t-541 216t-207 538t217 540t539 218z" />
    <glyph glyph-name="ordfeminine" unicode="&#xaa;" horiz-adv-x="716" 
d="M242 700q0 -74 65 -73q27 0 61 19t50 42l-4 168q-172 -61 -172 -156zM578 762q0 -143 40 -144q23 0 42 31q5 8 8 10q0 14 12 9l29 -13q10 0 4 -16q-43 -98 -145 -98t-146 82v4q-78 -70 -148 -82q-25 -4 -78 -4t-90 40t-36 87q0 106 159 176q129 55 185 74l4 75
q0 45 -33 78q-33 25 -85 25t-79 -33q-14 -14 -9 -37q5 -24 5 -42q-1 -18 -25 -37t-69 -19q-66 0 -66 66q1 66 101 119q100 52 200 52t166 -41q57 -41 58 -143l-4 -170v-49z" />
    <glyph glyph-name="guillemotleft" unicode="&#xab;" horiz-adv-x="868" 
d="M786 140q0 -8 -4 -9l-41 -33l-8 -4q-4 0 -12 8l-303 312q-12 12 -12 22t12 23l303 307q8 8 12 8t8 -4l41 -33q4 -4 4 -8l-4 -12l-155 -283l155 -282q4 -4 4 -12zM438 140q0 -8 -4 -9l-41 -33l-8 -4l-16 8l-299 312q-22 22 0 45l303 307q8 8 12 8t8 -4l41 -33q4 -4 4 -8
l-4 -12l-155 -283l155 -282q4 -4 4 -12z" />
    <glyph glyph-name="logicalnot" unicode="&#xac;" 
d="M766 596h-655v135h802v-479h-147v344z" />
    <glyph glyph-name="uni00AD" unicode="&#xad;" horiz-adv-x="823" 
d="M717 596v-96q0 -18 -25 -19h-573q-16 0 -17 13v106q0 16 17 16h573q25 0 25 -20z" />
    <glyph glyph-name="registered" unicode="&#xae;" horiz-adv-x="1155" 
d="M514 1024h33q71 -2 99 40t28 85t-38 76t-85 32q-12 0 -37 -4v-229zM784 750q-31 0 -61 -5q-16 13 -50 63q-33 50 -53 90t-38 65t-43 24h-25v-41q0 -123 2 -135q4 -29 23 -29h32q8 0 9 -8v-20q0 -8 -13 -9l-45 3q-44 2 -68 2t-65 -2l-41 -3q-10 0 -10 9v20q0 8 6 8h14
q29 0 35 12t6 29v398q0 37 -41 36h-12q-8 0 -8 5v24q0 8 8 8l47 -2q45 -2 56 -2l139 4q127 0 166 -44t39 -102t-43 -94q-43 -38 -97 -50v-5q31 -17 45 -35t58 -82t60 -82q18 -18 38 -18t20 -10v-18q0 -8 -8 -9l-26 3q-25 2 -56 2zM599 610q87 0 167 37t123 98q82 116 84 265
q-2 199 -124 300q-121 101 -281 101q-160 1 -271 -109t-111 -290q0 -109 37 -190t98 -125q119 -87 278 -87zM578 541q-221 0 -354 134q-132 134 -132 335t139 336t351 135t347 -131q134 -131 134 -336t-132 -339t-353 -134z" />
    <glyph glyph-name="macron" unicode="&#xaf;" horiz-adv-x="610" 
d="M524 1085h-446q-16 0 -17 13v104q0 12 17 12h450q20 0 21 -12v-104q0 -13 -25 -13z" />
    <glyph glyph-name="degree" unicode="&#xb0;" horiz-adv-x="638" 
d="M188 1263q0 -59 40 -101t92 -42t92 41q39 41 39 101t-40 98q-39 39 -91 39t-92 -39t-40 -97zM315 1042q-109 0 -171 60t-62 156t65 159q67 63 175 63t172 -58q64 -60 63 -155t-67 -160t-175 -65z" />
    <glyph glyph-name="plusminus" unicode="&#xb1;" 
d="M913 16h-802v136h802v-136zM586 596v-289h-148v289h-327v135h327v273h148v-273h327v-135h-327z" />
    <glyph glyph-name="twosuperior" unicode="&#xb2;" horiz-adv-x="712" 
d="M422 1397q0 67 -37 107t-94 40q-92 0 -168 -86q-12 -18 -25 -12l-24 16q-10 4 -4 17q25 59 100 122q76 62 190 62t186 -58q73 -58 72 -167q0 -147 -172 -303q-76 -70 -217 -181v-4h209q72 0 106 18t62 56q8 14 33 8q25 -10 16 -28l-82 -197q-4 -12 -26 -12q-21 0 -31 14
t-110 14h-271l-115 -4q-10 0 -13 11t9 24q178 158 271 264q135 156 135 279z" />
    <glyph glyph-name="threesuperior" unicode="&#xb3;" horiz-adv-x="712" 
d="M266 805q-117 0 -167 37t-50 77q-1 39 19 61t42 22q50 -1 70 -52l8 -18q16 -62 89 -62t119 48t46 110q0 168 -155 201q-33 6 -33 28q0 29 25 29q59 6 97 51t38 99t-32 89q-32 36 -79 36q-100 0 -151 -103q-14 -20 -25 -16l-29 8q-8 4 -8 20q20 72 89 132t185 61
q116 0 171 -52t55 -119t-46 -121t-118 -81v-8q86 -12 147 -70t62 -137q-1 -121 -101 -195t-268 -75z" />
    <glyph glyph-name="acute" unicode="&#xb4;" horiz-adv-x="565" 
d="M180 995l-24 21q-8 8 0 16l166 246q47 68 100 65q40 3 64 -27t19 -71t-46 -69l-262 -181q-9 -8 -17 0z" />
    <glyph glyph-name="mu" unicode="&#xb5;" horiz-adv-x="1089" 
d="M963 90q31 0 53 16t33 -4l12 -24q8 -14 -17 -33q-70 -70 -180 -70q-55 0 -97 44t-54 104h-8q-37 -63 -105 -105t-144 -43q-76 0 -116 58l-4 -4q0 -203 10 -351t10 -157q1 -27 -24 -37l-131 -33q-25 -8 -39 -8t-15 20q6 449 7 899v119q0 102 -8 220q-7 118 -7 120
q0 33 33 33h164q37 0 37 -37l-4 -244v-252q0 -235 155 -235q39 0 83 25q93 53 93 127l-4 411l-8 172q0 33 33 33h151q45 0 46 -33l-5 -256v-389q6 -86 50 -86z" />
    <glyph glyph-name="paragraph" unicode="&#xb6;" horiz-adv-x="1175" 
d="M647 -244v723q-545 37 -545 479q0 290 215 398q109 54 245 74t331 20h184q33 0 33 -12v-41q0 -12 -20 -17h-119v-1640q0 -16 -17 -16h-61q-8 0 -10 5t-2 27v1620q-78 0 -144 -8v-1616q0 -29 -12 -28h-61q-17 -1 -17 32z" />
    <glyph glyph-name="periodcentered" unicode="&#xb7;" horiz-adv-x="548" 
d="M282 586q-58 0 -105 38q-46 38 -46 95t37 103q36 46 102 46t107 -41t41 -103t-39 -100t-97 -38z" />
    <glyph glyph-name="cedilla" unicode="&#xb8;" horiz-adv-x="602" 
d="M455 -283q-1 -90 -107 -145t-246 -55q-41 0 -41 41q1 28 63 28t113 30q50 30 50 81q0 78 -131 102l168 213h106l-127 -147q68 -14 110 -56t42 -92z" />
    <glyph glyph-name="onesuperior" unicode="&#xb9;" horiz-adv-x="712" 
d="M467 963q0 -49 13 -61t65 -13h45q12 0 12 -10v-48q0 -12 -12 -12l-230 4l-225 -4q-16 0 -16 12v48q0 10 20 10h58q57 0 69 10t13 55l4 258v54q0 128 -4 166t-33 38q-20 0 -58 -12l-69 -24q-18 -6 -21 0l-20 45q-4 10 8 16l332 154q29 14 41 14t12 -21l-4 -360v-319z" />
    <glyph glyph-name="ordmasculine" unicode="&#xba;" horiz-adv-x="786" 
d="M244 879q0 -127 32 -202t108 -76q75 -1 115 63t40 178t-41 188q-40 74 -98 74t-95 -37q-61 -61 -61 -188zM384 541q-148 0 -251 102q-78 78 -78 216q-1 138 103 222t245 84q61 -1 128 -23q200 -67 200 -278q0 -143 -99 -233q-100 -90 -248 -90z" />
    <glyph glyph-name="guillemotright" unicode="&#xbb;" horiz-adv-x="868" 
d="M485 774q6 0 15 -8l303 -311q12 -13 12 -21t-16 -24l-299 -308q-8 -8 -12 -8t-13 8l-37 29l-8 8q0 4 8 13l156 282l-160 283l-4 12q0 8 8 8l41 33q0 4 6 4zM137 774q6 0 15 -8l303 -311q12 -13 12 -21t-16 -24l-299 -308q-8 -8 -12 -8t-13 8l-37 29l-8 8q0 4 8 13
l156 282l-160 283l-4 12q0 8 8 8l41 33q0 4 6 4z" />
    <glyph glyph-name="onequarter" unicode="&#xbc;" horiz-adv-x="1585" 
d="M438 698q0 -49 14 -61t64 -12h45q12 0 12 -11v-49q0 -12 -12 -12l-229 6l-226 -6q-16 0 -16 12v49q0 10 21 11h57q57 0 70 10q12 10 12 55l4 258v53q0 115 -4 160q-8 45 -33 45q-20 0 -57 -12l-70 -25q-18 -6 -20 0l-21 45q-4 10 8 17l332 153q29 14 39 15q14 0 14 -21
l-4 -360v-320zM1294 1350q0 -6 -8 -21l-831 -1339q-6 -20 -17 -21q-12 0 -28 8q-29 29 -41 29q-8 8 -9 12q0 4 6 14t7 15l827 1335q8 16 17 17q23 -8 50 -25q27 -18 27 -24zM1208 311v254q0 10 -8 19t-29 -15l-178 -225q-8 -10 -5 -21t20 -12h200zM1208 184h-362
q-29 0 -29 29q0 18 25 47l456 555q20 25 41 25q33 0 33 -45v-484h111q12 0 12 -16v-90q0 -20 -20 -21h-103v-159q0 -25 -20 -25h-127q-16 0 -17 20v164z" />
    <glyph glyph-name="onehalf" unicode="&#xbd;" horiz-adv-x="1585" 
d="M1290 573q0 66 -37 107t-94 41q-94 0 -166 -86q-14 -18 -26 -12l-25 16q-8 8 -4 16q25 59 100 122q76 63 190 63t186 -58q73 -58 73 -168q0 -147 -172 -303q-76 -70 -217 -180v-4h209q71 0 105 17t63 57q8 14 32 8q27 -10 17 -29l-82 -196q-4 -12 -26 -12t-32 14t-110 14
h-270l-115 -4q-16 0 -17 12q0 16 17 25q28 28 110 99t156 163q135 150 135 278zM418 698q0 -49 13 -61t65 -12h45q12 0 12 -11v-49q0 -12 -12 -12l-230 6l-225 -6q-16 0 -16 12v49q0 10 20 11h57q57 0 70 10q12 10 12 55l4 258v53q0 115 -4 160q-8 45 -30 45t-60 -12
l-69 -25q-18 -6 -21 0l-20 45q-4 10 8 17l332 153q29 14 39 15q14 0 14 -21l-4 -360v-320zM1241 1349q0 -12 -8 -20l-827 -1339q-14 -20 -24 -20t-22 7l-41 29q-8 4 -8 10t8 31l828 1335q8 16 16 17l13 -4q2 0 34 -17t31 -29z" />
    <glyph glyph-name="threequarters" unicode="&#xbe;" horiz-adv-x="1585" 
d="M1208 311v254q0 10 -8 19t-29 -15l-178 -225q-8 -10 -5 -21t20 -12h200zM1208 184h-362q-29 0 -29 29q0 18 25 47l456 555q20 25 41 25q33 0 33 -45v-484h111q12 0 12 -16v-90q0 -20 -20 -21h-103v-159q0 -25 -20 -25h-127q-16 0 -17 20v164zM266 541q-117 0 -167 37
t-50 77q-1 39 19 61t42 22q49 -1 70 -50l8 -20q16 -62 89 -62t119 48t46 110q0 168 -155 201q-33 6 -33 28q0 29 25 29q59 6 97 51t38 99t-32 89q-32 36 -79 35q-100 0 -153 -106q-10 -23 -23 -16l-31 12q-10 4 -6 20q20 72 89 132t185 60t171 -51q55 -52 55 -119t-46 -121
t-118 -81v-8q86 -12 147 -70t62 -137q0 -121 -100 -196q-101 -74 -269 -74zM1294 1354q0 -5 -8 -21l-827 -1339q-12 -25 -21 -25l-12 4q-37 25 -51 34q-15 9 -15 15t6 14q5 9 7 15l827 1331q14 27 41 9q53 -26 53 -37z" />
    <glyph glyph-name="questiondown" unicode="&#xbf;" horiz-adv-x="753" 
d="M631 756q-1 -51 -35 -85t-98 -34t-99 32t-35 84t36 89t94 37t98 -36q39 -36 39 -87zM459 254q16 0 16 16v185q0 16 17 16h45q12 0 12 -16v-398q0 -31 -33 -23t-115 7q-81 0 -147 -35t-66 -108q0 -102 115 -168q100 -66 221 -66q66 0 109 -33t43 -78t-30 -77t-85 -33
q-143 0 -317 178t-174 363q0 74 26 127q27 53 64 79q88 64 299 64z" />
    <glyph glyph-name="Agrave" unicode="&#xc0;" horiz-adv-x="1523" 
d="M365 1836q-1 30 27 60t72 31q44 0 81 -37l274 -266q10 -10 4 -16l-22 -31q-6 -8 -19 -2l-348 160q-29 14 -49 43q-20 28 -20 58zM692 1249q-18 0 -24 -18q-6 -19 -104 -289t-105 -297h426q-14 41 -172 567q-12 37 -21 37zM897 59q0 16 16 17h54q43 0 57 17t-2 90
t-117 380h-475q-115 -331 -123 -371t-8 -64t22 -38t52 -14h86q20 0 20 -10v-52q0 -20 -16 -20l-86 2q-86 4 -162 4t-126 -1t-76 -3q-25 -2 -35 -2t-11 26v39q0 16 13 17h61q78 0 131 92q16 29 100 241t129 336l201 537q12 62 2 72t-10 24t34 22t101 44q68 35 88 55t31 21
q12 0 26 -48t114 -342t128 -394q29 -99 104 -313t95 -253q49 -94 131 -94h65q16 0 17 -15v-43q0 -25 -21 -24l-303 6l-286 -6q-20 0 -21 24v41z" />
    <glyph glyph-name="Aacute" unicode="&#xc1;" horiz-adv-x="1523" 
d="M1023 1927q44 0 70 -29t25 -65q0 -63 -76 -98l-344 -160q-8 -6 -14 0l-25 33q-8 8 5 16l280 268q35 35 79 35zM692 1249q-18 0 -24 -18q-6 -19 -104 -289t-105 -297h426q-14 41 -172 567q-12 37 -21 37zM897 59q0 16 16 17h54q43 0 57 17t-2 90t-117 380h-475
q-115 -331 -123 -371t-8 -64t22 -38t52 -14h86q20 0 20 -10v-52q0 -20 -16 -20l-86 2q-86 4 -162 4t-126 -1t-76 -3q-25 -2 -35 -2t-11 26v39q0 16 13 17h61q78 0 131 92q16 29 100 241t129 336l201 537q12 62 2 72t-10 24t34 22t101 44q68 35 88 55t31 21q12 0 26 -48
t114 -342t128 -394q29 -99 104 -313t95 -253q49 -94 131 -94h65q16 0 17 -15v-43q0 -25 -21 -24l-303 6l-286 -6q-20 0 -21 24v41z" />
    <glyph glyph-name="Acircumflex" unicode="&#xc2;" horiz-adv-x="1523" 
d="M784 1894q6 0 31 -24l268 -252q8 -8 0 -16l-14 -19q-4 -10 -16 -4l-275 111l-254 -111q-14 -6 -20 0l-15 20q-8 10 3 21l262 258q24 16 30 16zM692 1249q-18 0 -24 -18q-6 -19 -104 -289t-105 -297h426q-14 41 -172 567q-12 37 -21 37zM897 59q0 16 16 17h54q43 0 57 17
t-2 90t-117 380h-475q-115 -331 -123 -371t-8 -64t22 -38t52 -14h86q20 0 20 -10v-52q0 -20 -16 -20l-86 2q-86 4 -162 4t-126 -1t-76 -3q-25 -2 -35 -2t-11 26v39q0 16 13 17h61q78 0 131 92q16 29 100 241t129 336l201 537q12 62 2 72t-10 24t34 22t101 44q68 35 88 55
t31 21q12 0 26 -48t114 -342t128 -394q29 -99 104 -313t95 -253q49 -94 131 -94h65q16 0 17 -15v-43q0 -25 -21 -24l-303 6l-286 -6q-20 0 -21 24v41z" />
    <glyph glyph-name="Atilde" unicode="&#xc3;" horiz-adv-x="1523" 
d="M1038 1851h37q10 0 2 -57q-8 -58 -50 -116t-107 -58q-37 0 -193 37q-98 29 -143 29q-63 0 -82 -84q-6 -12 -17 -13h-36q-14 0 -9 37q12 90 62 150t119 59q33 0 176 -35t155 -35q57 0 74 74q0 12 12 12zM692 1249q-18 0 -24 -18q-6 -19 -104 -289t-105 -297h426
q-14 41 -172 567q-12 37 -21 37zM897 59q0 16 16 17h54q43 0 57 17t-2 90t-117 380h-475q-115 -331 -123 -371t-8 -64t22 -38t52 -14h86q20 0 20 -10v-52q0 -20 -16 -20l-86 2q-86 4 -162 4t-126 -1t-76 -3q-25 -2 -35 -2t-11 26v39q0 16 13 17h61q78 0 131 92
q16 29 100 241t129 336l201 537q12 62 2 72t-10 24t34 22t101 44q68 35 88 55t31 21q12 0 26 -48t114 -342t128 -394q29 -99 104 -313t95 -253q49 -94 131 -94h65q16 0 17 -15v-43q0 -25 -21 -24l-303 6l-286 -6q-20 0 -21 24v41z" />
    <glyph glyph-name="Adieresis" unicode="&#xc4;" horiz-adv-x="1523" 
d="M1108 1726q0 -52 -34 -84t-79 -32t-85 28t-40 80q0 50 31 86t85 35q54 0 88 -31t34 -82zM670 1726q0 -52 -32 -84t-77 -32t-85 28t-40 80q0 50 31 86t85 35q54 0 86 -31t32 -82zM692 1249q-18 0 -24 -18q-6 -19 -104 -289t-105 -297h426q-14 41 -172 567q-12 37 -21 37z
M897 59q0 16 16 17h54q43 0 57 17t-2 90t-117 380h-475q-115 -331 -123 -371t-8 -64t22 -38t52 -14h86q20 0 20 -10v-52q0 -20 -16 -20l-86 2q-86 4 -162 4t-126 -1t-76 -3q-25 -2 -35 -2t-11 26v39q0 16 13 17h61q78 0 131 92q16 29 100 241t129 336l201 537q12 62 2 72
t-10 24t34 22t101 44q68 35 88 55t31 21q12 0 26 -48t114 -342t128 -394q29 -99 104 -313t95 -253q49 -94 131 -94h65q16 0 17 -15v-43q0 -25 -21 -24l-303 6l-286 -6q-20 0 -21 24v41z" />
    <glyph glyph-name="Aring" unicode="&#xc5;" horiz-adv-x="1523" 
d="M858 1724q0 51 -26 80t-69 28q-42 -1 -68 -33t-25 -75q0 -111 94 -110q94 0 94 110zM772 1901q106 1 166 -47t59 -132q0 -84 -75 -130q-76 -46 -171 -46t-163 46t-68 125t73 131t179 53zM692 1249q-18 0 -24 -18q-6 -19 -104 -289t-105 -297h426q-14 41 -172 567
q-12 37 -21 37zM897 59q0 16 16 17h54q43 0 57 17t-2 90t-117 380h-475q-115 -331 -123 -371t-8 -64t22 -38t52 -14h86q20 0 20 -10v-52q0 -20 -16 -20l-86 2q-86 4 -162 4t-126 -1t-76 -3q-25 -2 -35 -2t-11 26v39q0 16 13 17h61q78 0 131 92q16 29 100 241t129 336
l201 537q12 62 2 72t-10 24t20 17q150 18 170 24q20 7 44 19t34 12q18 0 37 -53q150 -428 198 -594t123 -380t95 -253q49 -94 131 -94h65q16 0 17 -15v-43q0 -25 -21 -24l-303 6l-286 -6q-20 0 -21 24v41z" />
    <glyph glyph-name="AE" unicode="&#xc6;" horiz-adv-x="1918" 
d="M819 731v551q0 29 -17 29t-30 -21l-301 -559h348zM639 12v49q0 14 20 15h107q33 0 43 16t10 72v485h-393q-57 -103 -128 -251t-88 -193t-17 -84q0 -45 57 -45h78q20 0 20 -17v-51q0 -14 -20 -14q-6 0 -32 1l-78 3q-52 2 -120 2l-221 -6q-16 0 -16 14v53q0 14 16 15h62
q47 0 110 92q19 26 187 326t298 531t145 266q15 36 8 61t-36 24h-37q-16 0 -16 15v47q0 18 25 18l43 -2h77q119 -4 179 -4h688q25 0 53 4l29 2q12 0 16 -10q82 -288 88 -316t-2 -32l-35 -21q-10 -7 -18 7t-106 119q-97 105 -115 116q-59 53 -148 53l-307 4l-4 -645
q197 0 237 10q72 16 100 80t27 105q0 16 17 16l53 -4q20 0 16 -16q-8 -36 -8 -180t13 -267q0 -14 -17 -16l-45 -10q-10 -2 -16 14l-33 106q-16 61 -102 72q-59 8 -242 8v-55l8 -348q0 -80 18 -115t70 -48t140 -13t168 7t169 70q20 13 96 101t93 117q10 12 24 4l29 -17
q12 -6 12 -16l-104 -313q-8 -29 -39 -29l-112 2l-699 4l-275 -6q-20 0 -20 18z" />
    <glyph glyph-name="Ccedilla" unicode="&#xc7;" horiz-adv-x="1536" 
d="M963 -295q0 -90 -114 -145t-267 -56q-45 0 -45 41q0 33 65 33t115 30q49 30 49 81q0 78 -127 102l143 180q-264 18 -454 191q-106 96 -164 251q-57 155 -58 302q0 322 206 544t536 222q238 0 414 -99q37 -20 41 0l16 54q3 12 27 12t29 -6t5 -45t50 -408q2 -18 -9 -20
l-39 -13q-12 -6 -22 21q-51 152 -160 266q-160 152 -356 152q-156 0 -264 -88q-198 -161 -199 -502q0 -125 43 -273t145 -260q152 -160 353 -159q160 1 290 69t199 168q17 23 25 15l34 -31q10 -10 5 -21q-229 -332 -584 -344l-96 -116q78 -13 123 -55t45 -93z" />
    <glyph glyph-name="Egrave" unicode="&#xc8;" horiz-adv-x="1404" 
d="M408 1836q0 30 28 60t71 31q44 0 81 -37l274 -266q10 -10 4 -16l-22 -31q-6 -8 -19 -2l-348 160q-29 14 -49 43q-20 28 -20 58zM893 987q0 16 16 17l54 -5q14 -1 11 -25t-3 -163t12 -274q0 -12 -16 -15l-45 -8q-10 -2 -17 14q-14 59 -33 103q-31 68 -102 74
q-111 12 -238 12l3 -123q6 -332 6 -348q0 -137 82 -160q65 -16 157 -16t182 9t156 66t195 220q10 14 22 8l33 -21q10 -6 4 -20l-98 -307q-10 -31 -45 -31l-182 4l-682 2l-175 -2q-82 -4 -88 -4q-16 0 -16 16v49q0 16 20 17h70q70 0 86 15t17 73v688q1 392 -7 442t-27 65
t-65 15h-78q-12 0 -12 15v53q0 14 12 14l95 -4q92 -4 192 -2h57l652 4l82 2q12 0 15 -10q33 -109 62 -214q31 -106 35 -118t-8 -18l-37 -17q-10 -3 -20 13q-9 16 -101 112t-122 115q-88 51 -156 53l-311 8l-5 -592q193 0 234 11q63 12 94 73q33 72 33 115z" />
    <glyph glyph-name="Eacute" unicode="&#xc9;" horiz-adv-x="1404" 
d="M1005 1927q43 0 69 -29t26 -65q0 -63 -76 -98l-344 -160q-8 -6 -14 0l-25 33q-8 8 4 16l281 268q35 35 79 35zM893 987q0 16 16 17l54 -5q14 -1 11 -25t-3 -163t12 -274q0 -12 -16 -15l-45 -8q-10 -2 -17 14q-14 59 -33 103q-31 68 -102 74q-111 12 -238 12l3 -123
q6 -332 6 -348q0 -137 82 -160q65 -16 157 -16t182 9t156 66t195 220q10 14 22 8l33 -21q10 -6 4 -20l-98 -307q-10 -31 -45 -31l-182 4l-682 2l-175 -2q-82 -4 -88 -4q-16 0 -16 16v49q0 16 20 17h70q70 0 86 15t17 73v688q1 392 -7 442t-27 65t-65 15h-78q-12 0 -12 15v53
q0 14 12 14l95 -4q92 -4 192 -2h57l652 4l82 2q12 0 15 -10q33 -109 62 -214q31 -106 35 -118t-8 -18l-37 -17q-10 -3 -20 13q-9 16 -101 112t-122 115q-88 51 -156 53l-311 8l-5 -592q193 0 234 11q63 12 94 73q33 72 33 115z" />
    <glyph glyph-name="Ecircumflex" unicode="&#xca;" horiz-adv-x="1404" 
d="M736 1894q6 0 30 -24l268 -252q8 -8 0 -16l-14 -19q-4 -10 -16 -4l-275 111l-254 -111q-14 -6 -20 0l-15 20q-8 10 2 21l263 258q25 16 31 16zM893 987q0 16 16 17l54 -5q14 -1 11 -25t-3 -163t12 -274q0 -12 -16 -15l-45 -8q-10 -2 -17 14q-14 59 -33 103
q-31 68 -102 74q-111 12 -238 12l3 -123q6 -332 6 -348q0 -137 82 -160q65 -16 157 -16t182 9t156 66t195 220q10 14 22 8l33 -21q10 -6 4 -20l-98 -307q-10 -31 -45 -31l-182 4l-682 2l-175 -2q-82 -4 -88 -4q-16 0 -16 16v49q0 16 20 17h70q70 0 86 15t17 73v688
q1 392 -7 442t-27 65t-65 15h-78q-12 0 -12 15v53q0 14 12 14l95 -4q92 -4 192 -2h57l652 4l82 2q12 0 15 -10q33 -109 62 -214q31 -106 35 -118t-8 -18l-37 -17q-10 -3 -20 13q-9 16 -101 112t-122 115q-88 51 -156 53l-311 8l-5 -592q193 0 234 11q63 12 94 73
q33 72 33 115z" />
    <glyph glyph-name="Edieresis" unicode="&#xcb;" horiz-adv-x="1404" 
d="M1059 1726q0 -52 -34 -84t-79 -32t-85 28t-40 80q0 50 31 86t85 35q54 0 88 -31t34 -82zM621 1726q0 -52 -32 -84t-77 -32t-85 28t-40 80q0 50 31 86t85 35q54 0 86 -31t32 -82zM893 987q0 16 16 17l54 -5q14 -1 11 -25t-3 -163t12 -274q0 -12 -16 -15l-45 -8
q-10 -2 -17 14q-14 59 -33 103q-31 68 -102 74q-111 12 -238 12l3 -123q6 -332 6 -348q0 -137 82 -160q65 -16 157 -16t182 9t156 66t195 220q10 14 22 8l33 -21q10 -6 4 -20l-98 -307q-10 -31 -45 -31l-182 4l-682 2l-175 -2q-82 -4 -88 -4q-16 0 -16 16v49q0 16 20 17h70
q70 0 86 15t17 73v688q1 392 -7 442t-27 65t-65 15h-78q-12 0 -12 15v53q0 14 12 14l95 -4q92 -4 192 -2h57l652 4l82 2q12 0 15 -10q33 -109 62 -214q31 -106 35 -118t-8 -18l-37 -17q-10 -3 -20 13q-9 16 -101 112t-122 115q-88 51 -156 53l-311 8l-5 -592q193 0 234 11
q63 12 94 73q33 72 33 115z" />
    <glyph glyph-name="Igrave" unicode="&#xcc;" horiz-adv-x="794" 
d="M41 1836q0 30 28 60q27 30 71 31q44 0 81 -37l275 -266q10 -10 4 -16l-23 -31q-6 -8 -18 -2l-348 160q-29 14 -50 43q-20 28 -20 58zM614 76h86q16 0 17 -15v-51q0 -16 -21 -16l-299 6q-203 0 -257 -3t-58 -3q-16 0 -16 14v55q0 12 16 13h82q86 0 94 58t8 583v143
q0 366 -5 424t-23 74t-62 16h-106q-16 0 -17 15v53q0 14 13 14l331 -6l291 6q16 0 17 -18v-47q0 -16 -17 -17h-78q-78 0 -78 -55l-4 -496v-159l4 -514q0 -46 20 -60t62 -14z" />
    <glyph glyph-name="Iacute" unicode="&#xcd;" horiz-adv-x="794" 
d="M659 1927q43 0 69 -29t26 -65q0 -63 -76 -98l-344 -160q-9 -6 -15 0l-24 33q-8 8 4 16l281 268q35 35 79 35zM614 76h86q16 0 17 -15v-51q0 -16 -21 -16l-299 6q-203 0 -257 -3t-58 -3q-16 0 -16 14v55q0 12 16 13h82q86 0 94 58t8 583v143q0 366 -5 424t-23 74t-62 16
h-106q-16 0 -17 15v53q0 14 13 14l331 -6l291 6q16 0 17 -18v-47q0 -16 -17 -17h-78q-78 0 -78 -55l-4 -496v-159l4 -514q0 -46 20 -60t62 -14z" />
    <glyph glyph-name="Icircumflex" unicode="&#xce;" horiz-adv-x="794" 
d="M400 1894q6 0 30 -24l268 -252q8 -8 0 -16l-14 -19q-4 -10 -16 -4l-275 111l-254 -111q-14 -6 -20 0l-15 20q-8 10 2 21l263 258q25 16 31 16zM614 76h86q16 0 17 -15v-51q0 -16 -21 -16l-299 6q-203 0 -257 -3t-58 -3q-16 0 -16 14v55q0 12 16 13h82q86 0 94 58t8 583
v143q0 366 -5 424t-23 74t-62 16h-106q-16 0 -17 15v53q0 14 13 14l331 -6l291 6q16 0 17 -18v-47q0 -16 -17 -17h-78q-78 0 -78 -55l-4 -496v-159l4 -514q0 -46 20 -60t62 -14z" />
    <glyph glyph-name="Idieresis" unicode="&#xcf;" horiz-adv-x="794" 
d="M622 1610q-46 0 -86 28t-40 80q0 50 30 86t86 35q54 0 88 -31t33 -82q-1 -52 -33 -84t-78 -32zM295 1726q0 -52 -32 -84t-77 -32t-85 28t-40 80q0 50 31 86t85 35q54 0 86 -31t32 -82zM614 76h86q16 0 17 -15v-51q0 -16 -21 -16l-299 6q-203 0 -257 -3t-58 -3
q-16 0 -16 14v55q0 12 16 13h82q86 0 94 58t8 583v143q0 366 -5 424t-23 74t-62 16h-106q-16 0 -17 15v53q0 14 13 14l331 -6l291 6q16 0 17 -18v-47q0 -16 -17 -17h-78q-78 0 -78 -55l-4 -496v-159l4 -514q0 -46 20 -60t62 -14z" />
    <glyph glyph-name="Eth" unicode="&#xd0;" horiz-adv-x="1712" 
d="M750 72q264 0 418 198t155 475q0 121 -46 243t-118 204q-178 190 -459 190q-98 0 -133 -17t-37 -97t-2 -379v-115h316q16 0 16 -12v-62q0 -12 -16 -12h-316v-37l4 -409q0 -62 36 -116t182 -54zM70 -6q-16 0 -17 16v49q0 16 17 17h118q59 0 68 51q14 68 14 504v57h-184
q-12 0 -12 17v53q0 16 16 16h180v168q0 283 -12 375q-4 57 -74 57h-110q-16 0 -17 15v51q0 16 17 16l311 -6l307 6q233 0 394 -39t290 -147q229 -188 230 -520q0 -172 -48 -298t-153 -239q-55 -63 -132 -107q-136 -79 -266 -96q-130 -16 -262 -16l-389 6q-176 0 -229 -3
t-57 -3z" />
    <glyph glyph-name="Ntilde" unicode="&#xd1;" horiz-adv-x="1654" 
d="M1145 1851h37q10 0 2 -57q-8 -58 -50 -116t-108 -58q-37 0 -192 37q-98 29 -144 29q-63 0 -82 -84q-6 -12 -16 -13h-37q-14 0 -8 37q12 90 61 150t119 59q33 0 176 -35t156 -35q57 0 74 74q0 12 12 12zM1585 1442v-47q0 -20 -12 -21h-57q-59 0 -68 -108
q-31 -418 -31 -693v-540q0 -57 -24 -58q-37 1 -57 21t-55 61q-36 41 -96 113t-116 137q-55 70 -173 211t-155 191q-16 16 -196 239t-185 228h-12v-250q0 -381 21 -699q5 -79 27 -115t75 -36h53q16 0 17 -19v-47q0 -16 -17 -16l-221 6l-213 -6q-12 0 -12 18v51q0 12 12 13h70
q40 0 62 39t30 131q14 258 14 651v260q0 93 -46 155t-114 62h-65q-12 2 -12 15v55q0 12 12 12l63 -4q36 -2 130 -2t143 4l57 2q31 0 48 -17q18 -17 226 -279t238 -304q47 -55 381 -471h8v213q0 282 -9 478t-18 226t-40 52q-31 20 -68 20h-65q-12 0 -13 19v47q0 16 17 16
l229 -6q74 0 135 4l62 2q20 0 20 -14z" />
    <glyph glyph-name="Ograve" unicode="&#xd2;" horiz-adv-x="1740" 
d="M535 1836q-1 30 27 60t72 31q44 0 81 -37l274 -266q10 -10 4 -16l-22 -31q-6 -8 -19 -2l-348 160q-29 14 -49 43q-20 28 -20 58zM864 1391q-2 0 -20 1q-117 6 -214 -64q-134 -97 -197 -276q-48 -138 -48 -299t53 -309t133 -226q161 -159 314 -159q117 1 208 51t140 122
t90 189q41 118 41 273q0 156 -50 293q-88 242 -289 355q-85 49 -161 49zM872 1481q281 0 484 -164q279 -227 278 -606q0 -260 -151 -451q-111 -137 -255 -214t-371 -77t-451 135q-121 74 -210 237t-90 370q0 274 189 508q212 262 577 262z" />
    <glyph glyph-name="Oacute" unicode="&#xd3;" horiz-adv-x="1740" 
d="M1091 1927q43 0 69 -29t26 -65q0 -63 -76 -98l-344 -160q-8 -6 -14 0l-25 33q-8 8 4 16l281 268q35 35 79 35zM864 1391q-2 0 -20 1q-117 6 -214 -64q-134 -97 -197 -276q-48 -138 -48 -299t53 -309t133 -226q161 -159 314 -159q117 1 208 51t140 122t90 189
q41 118 41 273q0 156 -50 293q-88 242 -289 355q-85 49 -161 49zM872 1481q281 0 484 -164q279 -227 278 -606q0 -260 -151 -451q-111 -137 -255 -214t-371 -77t-451 135q-121 74 -210 237t-90 370q0 274 189 508q212 262 577 262z" />
    <glyph glyph-name="Ocircumflex" unicode="&#xd4;" horiz-adv-x="1740" 
d="M872 1894q6 0 31 -24l268 -252q8 -8 0 -16l-14 -19q-4 -10 -16 -4l-275 111l-254 -111q-14 -6 -20 0l-14 20q-8 10 2 21l262 258q24 16 30 16zM864 1391q-2 0 -20 1q-117 6 -214 -64q-134 -97 -197 -276q-48 -138 -48 -299t53 -309t133 -226q161 -159 314 -159
q117 1 208 51t140 122t90 189q41 118 41 273q0 156 -50 293q-88 242 -289 355q-85 49 -161 49zM872 1481q281 0 484 -164q279 -227 278 -606q0 -260 -151 -451q-111 -137 -255 -214t-371 -77t-451 135q-121 74 -210 237t-90 370q0 274 189 508q212 262 577 262z" />
    <glyph glyph-name="Otilde" unicode="&#xd5;" horiz-adv-x="1740" 
d="M1147 1851h37q10 0 2 -57q-8 -58 -50 -116t-108 -58q-37 0 -192 37q-98 29 -144 29q-63 0 -82 -84q-6 -12 -16 -13h-37q-14 0 -8 37q12 90 61 150t119 59q33 0 176 -35t156 -35q57 0 74 74q0 12 12 12zM864 1391q-2 0 -20 1q-117 6 -214 -64q-134 -97 -197 -276
q-48 -138 -48 -299t53 -309t133 -226q161 -159 314 -159q117 1 208 51t140 122t90 189q41 118 41 273q0 156 -50 293q-88 242 -289 355q-85 49 -161 49zM872 1481q281 0 484 -164q279 -227 278 -606q0 -260 -151 -451q-111 -137 -255 -214t-371 -77t-451 135
q-121 74 -210 237t-90 370q0 274 189 508q212 262 577 262z" />
    <glyph glyph-name="Odieresis" unicode="&#xd6;" horiz-adv-x="1740" 
d="M1094 1610q-45 0 -85 28t-40 80q1 50 31 86t84 35q54 0 88 -31t34 -82q0 -52 -34 -84t-78 -32zM650 1839q54 0 86 -31t32 -82q0 -52 -32 -84t-76 -32q-45 0 -86 28q-40 30 -40 80t32 86q30 36 84 35zM864 1391q-2 0 -20 1q-117 6 -214 -64q-134 -97 -197 -276
q-48 -138 -48 -299t53 -309t133 -226q161 -159 314 -159q117 1 208 51t140 122t90 189q41 118 41 273q0 156 -50 293q-88 242 -289 355q-85 49 -161 49zM872 1481q281 0 484 -164q279 -227 278 -606q0 -260 -151 -451q-111 -137 -255 -214t-371 -77t-451 135
q-121 74 -210 237t-90 370q0 274 189 508q212 262 577 262z" />
    <glyph glyph-name="multiply" unicode="&#xd7;" 
d="M508 401l-303 -303l-82 107l291 287l-291 286l98 103l295 -299l295 299l90 -99l-295 -286l295 -291l-94 -107z" />
    <glyph glyph-name="Oslash" unicode="&#xd8;" horiz-adv-x="1740" 
d="M385 774q0 -231 78 -393l766 778q-76 113 -176 172t-189 60q-2 0 -19 1q-118 7 -210 -59q-137 -100 -201 -284q-49 -141 -49 -275zM1364 716q0 179 -82 357l-770 -782q80 -115 184 -173q206 -115 396 -9q90 49 139 119t91 190q42 119 42 298zM868 -31q-100 0 -251 40
t-257 126l-155 -155q-13 -12 -17 -10t-12 10l-41 40q-8 8 -9 12t5 17l156 156q-181 211 -181 498t189 520q215 258 577 258q285 0 500 -174l168 168q2 6 8 7t8 -3l58 -45l4 -9q8 -8 0 -16l-176 -176q193 -213 192 -526q0 -242 -151 -447q-213 -291 -615 -291z" />
    <glyph glyph-name="Ugrave" unicode="&#xd9;" horiz-adv-x="1525" 
d="M589 1927q44 0 81 -37l274 -266q10 -10 4 -16l-22 -31q-6 -8 -19 -2l-348 160q-29 14 -49 43q-20 28 -20 58t27 60q28 30 72 31zM1509 1440v-47q0 -18 -12 -19h-74q-72 0 -86 -80q-4 -26 -4 -354t-12 -451q-17 -256 -165 -388t-380 -132q-178 0 -295 49q-178 74 -241 275
q-37 116 -37 493v486q1 53 -15 78t-55 24h-94q-16 0 -16 19v47q0 16 20 16l315 -6l295 6q16 0 17 -14v-51q0 -16 -17 -17h-86q-94 0 -102 -100q-4 -54 -4 -246v-254q0 -215 6 -313q12 -174 72 -254q94 -127 278 -127q74 0 151 26q243 84 242 418v369q0 219 -22 391
q-4 41 -28 66t-56 24h-74q-16 0 -16 15v51q0 16 16 16l250 -6l209 6q20 0 20 -16z" />
    <glyph glyph-name="Uacute" unicode="&#xda;" horiz-adv-x="1525" 
d="M1148 1927q44 0 70 -29t25 -65q0 -63 -76 -98l-344 -160q-8 -6 -14 0l-25 33q-8 8 4 16l281 268q35 35 79 35zM1509 1440v-47q0 -18 -12 -19h-74q-72 0 -86 -80q-4 -26 -4 -354t-12 -451q-17 -256 -165 -388t-380 -132q-178 0 -295 49q-178 74 -241 275q-37 116 -37 493
v486q1 53 -15 78t-55 24h-94q-16 0 -16 19v47q0 16 20 16l315 -6l295 6q16 0 17 -14v-51q0 -16 -17 -17h-86q-94 0 -102 -100q-4 -54 -4 -246v-254q0 -215 6 -313q12 -174 72 -254q94 -127 278 -127q74 0 151 26q243 84 242 418v369q0 219 -22 391q-4 41 -28 66t-56 24h-74
q-16 0 -16 15v51q0 16 16 16l250 -6l209 6q20 0 20 -16z" />
    <glyph glyph-name="Ucircumflex" unicode="&#xdb;" horiz-adv-x="1525" 
d="M848 1894q6 0 31 -24l268 -252q8 -8 0 -16l-14 -19q-4 -10 -17 -4l-274 111l-254 -111q-14 -6 -21 0l-14 20q-8 10 2 21l262 258q25 16 31 16zM1509 1440v-47q0 -18 -12 -19h-74q-72 0 -86 -80q-4 -26 -4 -354t-12 -451q-17 -256 -165 -388t-380 -132q-178 0 -295 49
q-178 74 -241 275q-37 116 -37 493v486q1 53 -15 78t-55 24h-94q-16 0 -16 19v47q0 16 20 16l315 -6l295 6q16 0 17 -14v-51q0 -16 -17 -17h-86q-94 0 -102 -100q-4 -54 -4 -246v-254q0 -215 6 -313q12 -174 72 -254q94 -127 278 -127q74 0 151 26q243 84 242 418v369
q0 219 -22 391q-4 41 -28 66t-56 24h-74q-16 0 -16 15v51q0 16 16 16l250 -6l209 6q20 0 20 -16z" />
    <glyph glyph-name="Udieresis" unicode="&#xdc;" horiz-adv-x="1525" 
d="M1182 1726q0 -52 -34 -84t-79 -32t-85 28t-40 80q0 50 31 86t85 35q54 0 88 -31t34 -82zM635 1610q-45 0 -85 28t-40 80q0 50 31 86t85 35q54 0 86 -31t32 -82t-32 -84q-32 -32 -77 -32zM1509 1440v-47q0 -18 -12 -19h-74q-72 0 -86 -80q-4 -26 -4 -354t-12 -451
q-17 -256 -165 -388t-380 -132q-178 0 -295 49q-178 74 -241 275q-37 116 -37 493v486q1 53 -15 78t-55 24h-94q-16 0 -16 19v47q0 16 20 16l315 -6l295 6q16 0 17 -14v-51q0 -16 -17 -17h-86q-94 0 -102 -100q-4 -54 -4 -246v-254q0 -215 6 -313q12 -174 72 -254
q94 -127 278 -127q74 0 151 26q243 84 242 418v369q0 219 -22 391q-4 41 -28 66t-56 24h-74q-16 0 -16 15v51q0 16 16 16l250 -6l209 6q20 0 20 -16z" />
    <glyph glyph-name="Yacute" unicode="&#xdd;" horiz-adv-x="1433" 
d="M1152 1927q44 0 70 -29t25 -65q0 -63 -76 -98l-344 -160q-8 -6 -14 0l-25 33q-8 8 5 16l280 268q35 35 79 35zM1481 1395q0 -20 -17 -21h-45q-66 0 -110 -47q-25 -29 -209 -313t-242 -383v-250q0 -169 5 -225t25 -68t56 -12h68q14 0 14 -15v-47q0 -20 -14 -20l-289 6
q-191 0 -237 -3t-48 -3q-14 0 -14 18v47q0 16 14 17h84q68 0 72 51q6 86 6 381v98q-47 88 -216 382t-206 341q-39 45 -102 45h-37q-16 0 -16 15v55q0 12 16 12l270 -6l303 6q16 0 17 -14v-47q0 -20 -17 -21h-53q-63 0 -57 -59q4 -34 145 -300q140 -266 160 -306
q334 551 338 591q8 74 -70 74h-53q-16 0 -16 17v51q0 14 12 14l250 -6l196 6q16 0 17 -14v-47z" />
    <glyph glyph-name="Thorn" unicode="&#xde;" horiz-adv-x="1290" 
d="M954 762q0 198 -169 290q-72 39 -138 42q-98 -1 -135 -13v-626q45 -21 162 -21q116 0 198 94t82 234zM1237 772q0 -186 -138 -297t-374 -110q-133 0 -213 12v-66q0 -143 2 -170q8 -66 72 -65h106q16 0 17 -15v-47q0 -20 -17 -20q-6 0 -40 1l-102 3q-69 2 -213 2
q-143 0 -189 -3t-50 -3q-16 0 -16 14v51q0 16 12 17h82q41 0 56 11q14 11 20 63t6 567v237q0 352 -2 375q-2 45 -80 45h-94q-16 0 -16 15v51q0 16 12 16l311 -6l299 6q16 0 17 -14v-49q0 -18 -21 -19h-106q-55 0 -62 -31q-4 -33 -4 -184l135 4q164 1 261 -21t182 -81
q147 -103 147 -289z" />
    <glyph glyph-name="germandbls" unicode="&#xdf;" horiz-adv-x="1153" 
d="M39 14v43q0 12 20 13h82q31 0 42 16t12 53l-2 578l-121 8q-12 0 -13 16v54q0 12 17 14l117 10v72q-2 274 145 422q168 168 340 168q104 -1 179 -63t75 -180t-131 -255q-94 -94 -94 -180q1 -49 37 -81q63 -55 143 -91q123 -70 174 -148q51 -77 49 -201t-94 -215t-236 -92
q-47 1 -96 17q-48 16 -66 32t-18 25l-16 148q-4 18 8 20l37 12q12 2 20 -12l41 -78q41 -80 123 -80q53 0 94 37t41 101q0 135 -131 217q-42 21 -102 65t-70 55t-32 37q-46 56 -46 146t92 228q39 56 48 75q41 82 41 166t-48 136t-120 52q-70 0 -119 -69q-46 -57 -50 -171
q-5 -114 -4 -169q1 -56 1 -72v-315l8 -459q0 -49 33 -49h40q25 0 25 -15v-37q0 -25 -16 -24l-197 6l-246 -6q-16 0 -16 20z" />
    <glyph glyph-name="agrave" unicode="&#xe0;" horiz-adv-x="907" 
d="M590 1022l-29 -25q-6 -6 -12 0l-264 185q-59 43 -41 103q18 61 78 61t104 -66l164 -246q6 -6 0 -12zM528 186v269q-14 -10 -69 -40t-80 -48q-25 -17 -51 -59t-25 -98q0 -56 28 -89q59 -70 153 3q44 33 44 62zM90 152q0 168 189 251q225 109 249 127v107q-8 90 -34 118
q-26 27 -99 27q-72 0 -121 -37q-19 -16 -13 -50q5 -34 5 -50q0 -119 -123 -119q-29 0 -49 18t-20 52q0 98 94 168q152 115 332 115q123 0 188 -58q49 -45 49 -153l4 -324v-98q1 -80 13 -112t51 -32t55 33q8 14 21 8l24 -16q14 -8 4 -33q-67 -119 -193 -119t-167 125h-8
q-68 -74 -179 -110q-46 -14 -118 -14t-113 46q-41 48 -41 130z" />
    <glyph glyph-name="aacute" unicode="&#xe1;" horiz-adv-x="907" 
d="M436 997l-24 21q-8 8 0 16l166 246q47 68 100 66q40 2 64 -28t19 -71t-46 -69l-262 -181q-9 -8 -17 0zM528 186v269q-14 -10 -69 -40t-80 -48q-25 -17 -51 -59t-25 -98q0 -56 28 -89q59 -70 153 3q44 33 44 62zM90 152q0 168 189 251q225 109 249 127v107q-8 90 -34 118
q-26 27 -99 27q-72 0 -121 -37q-19 -16 -13 -50q5 -34 5 -50q0 -119 -123 -119q-29 0 -49 18t-20 52q0 98 94 168q152 115 332 115q123 0 188 -58q49 -45 49 -153l4 -324v-98q1 -80 13 -112t51 -32t55 33q8 14 21 8l24 -16q14 -8 4 -33q-67 -119 -193 -119t-167 125h-8
q-68 -74 -179 -110q-46 -14 -118 -14t-113 46q-41 48 -41 130z" />
    <glyph glyph-name="acircumflex" unicode="&#xe2;" horiz-adv-x="907" 
d="M486 1337q9 0 24 -20l227 -277q10 -10 2 -18l-16 -16q-4 -10 -16 -5l-226 136l-205 -131q-14 -6 -20 -5l-16 21q-8 8 2 20l219 279q16 16 25 16zM528 186v269q-14 -10 -69 -40t-80 -48q-25 -17 -51 -59t-25 -98q0 -56 28 -89q59 -70 153 3q44 33 44 62zM90 152
q0 168 189 251q225 109 249 127v107q-8 90 -34 118q-26 27 -99 27q-72 0 -121 -37q-19 -16 -13 -50q5 -34 5 -50q0 -119 -123 -119q-29 0 -49 18t-20 52q0 98 94 168q152 115 332 115q123 0 188 -58q49 -45 49 -153l4 -324v-98q1 -80 13 -112t51 -32t55 33q8 14 21 8l24 -16
q14 -8 4 -33q-67 -119 -193 -119t-167 125h-8q-68 -74 -179 -110q-46 -14 -118 -14t-113 46q-41 48 -41 130z" />
    <glyph glyph-name="atilde" unicode="&#xe3;" horiz-adv-x="907" 
d="M688 1249h37q14 1 4 -51t-54 -104q-45 -52 -99 -52t-145 29t-127 29q-75 0 -87 -80q0 -8 -12 -8h-39q-12 0 -6 32q12 84 57 138t103 55q58 0 152 -31q95 -30 141 -30t63 61q4 12 12 12zM528 186v269q-14 -10 -69 -40t-80 -48q-25 -17 -51 -59t-25 -98q0 -56 28 -89
q59 -70 153 3q44 33 44 62zM90 152q0 168 189 251q225 109 249 127v107q-8 90 -34 118q-26 27 -99 27q-72 0 -121 -37q-19 -16 -13 -50q5 -34 5 -50q0 -119 -123 -119q-29 0 -49 18t-20 52q0 98 94 168q152 115 332 115q123 0 188 -58q49 -45 49 -153l4 -324v-98
q1 -80 13 -112t51 -32t55 33q8 14 21 8l24 -16q14 -8 4 -33q-67 -119 -193 -119t-167 125h-8q-68 -74 -179 -110q-46 -14 -118 -14t-113 46q-41 48 -41 130z" />
    <glyph glyph-name="adieresis" unicode="&#xe4;" horiz-adv-x="907" 
d="M643 1090q-45 0 -83 26t-38 74q0 49 29 86t83 37t86 -32t32 -84q0 -51 -32 -79t-77 -28zM280 1090q-46 0 -84 26t-38 74q0 49 28 86t84 37q54 0 86 -32t31 -84q-1 -51 -31 -79t-76 -28zM528 186v269q-14 -10 -69 -40t-80 -48q-25 -17 -51 -59t-25 -98q0 -56 28 -89
q59 -70 153 3q44 33 44 62zM90 152q0 168 189 251q225 109 249 127v107q-8 90 -34 118q-26 27 -99 27q-72 0 -121 -37q-19 -16 -13 -50q5 -34 5 -50q0 -119 -123 -119q-29 0 -49 18t-20 52q0 98 94 168q152 115 332 115q123 0 188 -58q49 -45 49 -153l4 -324v-98
q1 -80 13 -112t51 -32t55 33q8 14 21 8l24 -16q14 -8 4 -33q-67 -119 -193 -119t-167 125h-8q-68 -74 -179 -110q-46 -14 -118 -14t-113 46q-41 48 -41 130z" />
    <glyph glyph-name="aring" unicode="&#xe5;" horiz-adv-x="907" 
d="M458 1073q42 0 68 28t27 76q1 49 -25 73t-67 24t-67 -28t-26 -72t24 -73q24 -28 66 -28zM466 1339q96 0 156 -43t60 -108q6 -80 -62 -128t-166 -48q-97 0 -158 44q-60 44 -60 116t67 119q68 48 163 48zM528 186v269q-14 -10 -69 -40t-80 -48q-25 -17 -51 -59t-25 -98
q0 -56 28 -89q59 -70 153 3q44 33 44 62zM90 152q0 168 189 251q225 109 249 127v107q-8 90 -34 118q-26 27 -99 27q-72 0 -121 -37q-19 -16 -13 -50q5 -34 5 -50q0 -119 -123 -119q-29 0 -49 18t-20 52q0 98 94 168q152 115 332 115q123 0 188 -58q49 -45 49 -153l4 -324
v-98q1 -80 13 -112t51 -32t55 33q8 14 21 8l24 -16q14 -8 4 -33q-67 -119 -193 -119t-167 125h-8q-68 -74 -179 -110q-46 -14 -118 -14t-113 46q-41 48 -41 130z" />
    <glyph glyph-name="ae" unicode="&#xe6;" horiz-adv-x="1341" 
d="M932 803q-147 0 -184 -250l256 18q57 4 57 54q-1 74 -31 126t-98 52zM299 221q0 -129 98 -129q39 0 86 29t80 82q-31 92 -31 248q-14 -7 -58 -27q-134 -59 -158 -120q-17 -42 -17 -83zM532 637q0 72 -28 108q-37 37 -109 37t-121 -37q-22 -16 -15 -55t7 -53
q0 -111 -119 -111q-31 0 -53 18t-20 48q0 102 98 172q145 115 315 115q90 0 148 -50q31 -31 43 -65q100 115 276 115q94 0 165 -36q115 -58 156 -199q15 -50 15 -93t-45 -47l-502 -27v-47q0 -129 76 -218t195 -89q150 0 221 106q16 27 29 21l30 -19q14 -8 2 -30
q-43 -90 -136 -158t-222 -68q-231 0 -336 156h-12q-88 -104 -201 -137q-61 -18 -139 -18t-121 46q-43 48 -43 130q0 166 204 262t242 121v102z" />
    <glyph glyph-name="ccedilla" unicode="&#xe7;" horiz-adv-x="856" 
d="M602 -283q0 -90 -106 -145t-246 -55q-41 0 -41 41q0 28 62 28t113 30q50 30 50 81q0 78 -131 102l139 178q-186 12 -278 134q-98 125 -98 282q0 103 38 201t113 166q131 119 294 119q163 1 229 -59t67 -126q0 -38 -25 -64t-65 -26q-84 0 -123 103q-35 84 -127 84
q-68 0 -126 -68q-58 -67 -58 -173t14 -174t65 -155q68 -111 200 -111t233 78q8 8 18 -2l25 -28q10 -10 0 -25q-39 -47 -119 -93t-170 -60l-98 -115q67 -14 109 -56t42 -92z" />
    <glyph glyph-name="egrave" unicode="&#xe8;" horiz-adv-x="888" 
d="M580 1022l-29 -25q-6 -6 -12 0l-265 185q-59 43 -41 103q19 61 79 61t104 -66l164 -246q6 -6 0 -12zM532 592q68 0 68 29q0 65 -29 123t-98 59q-147 0 -188 -211h247zM279 518v-63q0 -147 85 -239t181 -93q170 0 248 119q10 18 24 10l31 -19q16 -10 0 -40
q-121 -217 -373 -218q-199 0 -295 111q-66 76 -90 155t-24 177t19 164t83 148t142 115q78 34 186 34q193 0 270 -134q65 -108 65 -194q0 -21 -13 -27t-44 -6h-495z" />
    <glyph glyph-name="eacute" unicode="&#xe9;" horiz-adv-x="888" 
d="M426 997l-25 21q-8 8 0 16l166 246q47 68 101 66q40 2 64 -28t19 -71t-46 -69l-263 -181q-8 -8 -16 0zM532 592q68 0 68 29q0 65 -29 123t-98 59q-147 0 -188 -211h247zM279 518v-63q0 -147 85 -239t181 -93q170 0 248 119q10 18 24 10l31 -19q16 -10 0 -40
q-121 -217 -373 -218q-199 0 -295 111q-66 76 -90 155t-24 177t19 164t83 148t142 115q78 34 186 34q193 0 270 -134q65 -108 65 -194q0 -21 -13 -27t-44 -6h-495z" />
    <glyph glyph-name="ecircumflex" unicode="&#xea;" horiz-adv-x="888" 
d="M484 1337q9 0 24 -20l227 -277q10 -10 2 -18l-16 -16q-4 -10 -16 -5l-226 136l-205 -131q-14 -6 -20 -5l-16 21q-8 8 2 20l219 279q16 16 25 16zM532 592q68 0 68 29q0 65 -29 123t-98 59q-147 0 -188 -211h247zM279 518v-63q0 -147 85 -239t181 -93q170 0 248 119
q10 18 24 10l31 -19q16 -10 0 -40q-121 -217 -373 -218q-199 0 -295 111q-66 76 -90 155t-24 177t19 164t83 148t142 115q78 34 186 34q193 0 270 -134q65 -108 65 -194q0 -21 -13 -27t-44 -6h-495z" />
    <glyph glyph-name="edieresis" unicode="&#xeb;" horiz-adv-x="888" 
d="M674 1090q-45 0 -83 26t-38 74q0 49 29 86t83 37t86 -32q31 -32 31 -84t-31 -80q-32 -27 -77 -27zM418 1197q0 -51 -31 -79t-77 -28t-84 26t-38 74q0 49 29 86t83 37t86 -32t32 -84zM532 592q68 0 68 29q0 65 -29 123t-98 59q-147 0 -188 -211h247zM279 518v-63
q0 -147 85 -239t181 -93q170 0 248 119q10 18 24 10l31 -19q16 -10 0 -40q-121 -217 -373 -218q-199 0 -295 111q-66 76 -90 155t-24 177t19 164t83 148t142 115q78 34 186 34q193 0 270 -134q65 -108 65 -194q0 -21 -13 -27t-44 -6h-495z" />
    <glyph glyph-name="igrave" unicode="&#xec;" horiz-adv-x="555" 
d="M367 1022l-29 -25q-6 -6 -12 0l-265 185q-59 43 -41 103q18 61 78 61t105 -66l164 -246q6 -6 0 -12zM35 14v39q0 16 20 17h90q33 0 35 51t2 174v289q0 51 -20 81t-86 46q-20 4 -21 18v23q1 10 15 16t132 49t142 52t41 10q20 0 16 -29t-4 -330v-221q0 -152 4 -176
q6 -53 33 -53h82q20 0 21 -15v-41q0 -20 -17 -20l-248 6q-72 0 -145 -4l-76 -2q-16 0 -16 20z" />
    <glyph glyph-name="iacute" unicode="&#xed;" horiz-adv-x="555" 
d="M201 997l-25 21q-8 8 0 16l166 246q47 68 100 66q39 2 64 -28q26 -30 20 -71t-47 -69l-262 -181q-8 -8 -16 0zM35 14v39q0 16 20 17h90q33 0 35 51t2 174v289q0 51 -20 81t-86 46q-20 4 -21 18v23q1 10 15 16t132 49t142 52t41 10q20 0 16 -29t-4 -330v-221
q0 -152 4 -176q6 -53 33 -53h82q20 0 21 -15v-41q0 -20 -17 -20l-248 6q-72 0 -145 -4l-76 -2q-16 0 -16 20z" />
    <glyph glyph-name="icircumflex" unicode="&#xee;" horiz-adv-x="555" 
d="M269 1337q9 0 24 -20l227 -277q10 -10 2 -18l-16 -16q-4 -10 -17 -5l-225 136l-205 -131q-14 -6 -20 -5l-16 21q-8 8 2 20l219 279q16 16 25 16zM35 14v39q0 16 20 17h90q33 0 35 51t2 174v289q0 51 -20 81t-86 46q-20 4 -21 18v23q1 10 15 16t132 49t142 52t41 10
q20 0 16 -29t-4 -330v-221q0 -152 4 -176q6 -53 33 -53h82q20 0 21 -15v-41q0 -20 -17 -20l-248 6q-72 0 -145 -4l-76 -2q-16 0 -16 20z" />
    <glyph glyph-name="idieresis" unicode="&#xef;" horiz-adv-x="555" 
d="M469 1090q-45 0 -83 26t-38 74q0 49 29 86t83 37t86 -32t32 -84q0 -51 -32 -79t-77 -28zM213 1197q0 -51 -31 -79t-77 -28q-45 0 -83 26t-38 74q0 49 28 86q29 37 83 37t86 -32t32 -84zM35 14v39q0 16 20 17h90q33 0 35 51t2 174v289q0 51 -20 81t-86 46q-20 4 -21 18v23
q1 10 15 16t132 49t142 52t41 10q20 0 16 -29t-4 -330v-221q0 -152 4 -176q6 -53 33 -53h82q20 0 21 -15v-41q0 -20 -17 -20l-248 6q-72 0 -145 -4l-76 -2q-16 0 -16 20z" />
    <glyph glyph-name="eth" unicode="&#xf0;" horiz-adv-x="1019" 
d="M709 381q0 252 -52 334q-51 82 -139 82q-156 0 -209 -176q-44 -150 -1 -329q59 -233 204 -235q100 -1 148 97t49 227zM262 1503q4 0 17 -6q131 -45 299 -162l198 121q14 8 23 -4l32 -47q10 -16 -4 -25l-184 -106q55 -51 115 -135q164 -233 176 -553q8 -227 -93 -409
q-53 -91 -149 -146t-238 -55t-237 73q-152 121 -151 359q0 92 43 194t131 176q123 100 288 101q88 0 150 -48l12 9q-51 174 -125 284q-29 45 -59 72l-250 -154q-12 -8 -23 7l-30 49q-10 12 6 20l240 148q-90 92 -216 155q-10 5 -10 11t4 14l27 49q4 8 8 8z" />
    <glyph glyph-name="ntilde" unicode="&#xf1;" horiz-adv-x="1124" 
d="M827 1249h37q14 1 4 -51t-54 -104t-98 -52t-146 29t-127 29q-75 0 -87 -80q0 -8 -12 -8h-39q-12 0 -6 32q12 84 57 138q44 54 102 55q58 0 153 -31q95 -30 141 -30t63 61q4 12 12 12zM84 -6q-12 0 -12 20v39q0 16 20 17h41q53 0 53 41v460q0 76 -86 119l-16 8
q-16 6 -16 21v16q0 15 20 21l225 106q33 16 41 17q18 0 25 -25l16 -106h13q47 53 102 81q84 49 184 49t160 -49q63 -47 88 -95t25 -116v-294l-2 -197q0 -57 49 -57h57q25 0 25 -15v-47q0 -14 -17 -14l-221 6q-121 0 -160 -3t-41 -3q-16 0 -16 24v35q0 16 25 17h41
q31 0 37 60t8 181v236q0 71 -10 109t-47 71q-38 33 -116 33t-135 -53q-43 -43 -43 -146v-422q0 -70 39 -69h37q20 0 21 -19v-37q0 -20 -17 -20l-192 6q-127 0 -165 -3t-40 -3z" />
    <glyph glyph-name="ograve" unicode="&#xf2;" horiz-adv-x="1044" 
d="M637 1022l-29 -25q-6 -6 -12 0l-264 185q-59 43 -41 103q19 61 79 61t103 -66l164 -246q6 -6 0 -12zM299 446q-1 -196 59 -290t162 -95q102 0 156 108q53 109 53 269t-67 259q-68 99 -147 99t-128 -55q-88 -99 -88 -295zM535 879q177 0 303 -121q141 -142 141 -318
t-129 -320t-340 -144t-334 147q-66 77 -88 147t-22 161t43 186t129 163q120 99 297 99z" />
    <glyph glyph-name="oacute" unicode="&#xf3;" horiz-adv-x="1044" 
d="M463 997l-25 21q-8 8 0 16l166 246q47 68 101 66q39 2 63 -28t20 -71q-6 -41 -47 -69l-262 -181q-8 -8 -16 0zM299 446q-1 -196 59 -290t162 -95q102 0 156 108q53 109 53 269t-67 259q-68 99 -147 99t-128 -55q-88 -99 -88 -295zM535 879q177 0 303 -121
q141 -142 141 -318t-129 -320t-340 -144t-334 147q-66 77 -88 147t-22 161t43 186t129 163q120 99 297 99z" />
    <glyph glyph-name="ocircumflex" unicode="&#xf4;" horiz-adv-x="1044" 
d="M521 1337q9 0 24 -20l227 -277q10 -10 2 -18l-16 -16q-4 -10 -17 -5l-225 136l-205 -131q-14 -6 -20 -5l-17 21q-8 8 2 20l220 279q16 16 25 16zM299 446q-1 -196 59 -290t162 -95q102 0 156 108q53 109 53 269t-67 259q-68 99 -147 99t-128 -55q-88 -99 -88 -295z
M535 879q177 0 303 -121q141 -142 141 -318t-129 -320t-340 -144t-334 147q-66 77 -88 147t-22 161t43 186t129 163q120 99 297 99z" />
    <glyph glyph-name="otilde" unicode="&#xf5;" horiz-adv-x="1044" 
d="M766 1249h37q14 1 4 -51t-54 -104q-45 -52 -99 -52t-145 29t-127 29q-75 0 -87 -80q0 -8 -12 -8h-39q-12 0 -6 32q12 84 57 138t102 55q57 0 153 -31t134 -30q53 0 70 61q4 12 12 12zM299 446q-1 -196 59 -290t162 -95q102 0 156 108q53 109 53 269t-67 259
q-68 99 -147 99t-128 -55q-88 -99 -88 -295zM535 879q177 0 303 -121q141 -142 141 -318t-129 -320t-340 -144t-334 147q-66 77 -88 147t-22 161t43 186t129 163q120 99 297 99z" />
    <glyph glyph-name="odieresis" unicode="&#xf6;" horiz-adv-x="1044" 
d="M711 1090q-45 0 -83 26t-38 74q0 49 28 86q30 37 84 37t86 -32t31 -84q1 -51 -31 -79t-77 -28zM455 1197q0 -51 -31 -79t-77 -28t-84 26t-38 74q0 49 29 86t83 37t86 -32t32 -84zM299 446q-1 -196 59 -290t162 -95q102 0 156 108q53 109 53 269t-67 259q-68 99 -147 99
t-128 -55q-88 -99 -88 -295zM535 879q177 0 303 -121q141 -142 141 -318t-129 -320t-340 -144t-334 147q-66 77 -88 147t-22 161t43 186t129 163q120 99 297 99z" />
    <glyph glyph-name="divide" unicode="&#xf7;" 
d="M635 180q0 -50 -35 -80t-86 -30t-86 30t-35 80q0 49 35 82t86 33t86 -33t35 -82zM635 819q0 -49 -35 -81t-87 -33q-52 1 -86 33t-34 81t35 80t86 31t86 -31t35 -80zM111 432v135h802v-135h-802z" />
    <glyph glyph-name="oslash" unicode="&#xf8;" horiz-adv-x="1044" 
d="M500 797q-64 0 -109 -52q-96 -109 -96 -311q0 -111 16 -170l373 410q-20 51 -70 87t-114 36zM524 61q94 0 152 111q57 111 57 274q0 87 -12 146l-379 -412q55 -119 182 -119zM979 431q0 -171 -127 -313t-344 -143q-170 0 -281 91l-86 -86q-10 -8 -20 2l-35 34
q-10 10 0 21l84 88q-57 71 -81 141q-23 70 -23 164t43 186t129 160q125 102 290 102t267 -94l86 99q10 8 18 0l43 -39q10 -10 2 -21l-86 -90q121 -131 121 -302z" />
    <glyph glyph-name="ugrave" unicode="&#xf9;" horiz-adv-x="1077" 
d="M614 1022l-28 -25q-6 -6 -13 0l-264 185q-59 43 -41 103q18 61 78 61t105 -66l163 -246q6 -6 0 -12zM915 418q-1 -196 7 -252t43 -55q41 0 65 3t25 -8l6 -32q2 -14 -10 -19l-254 -71q-25 -8 -41 -9q-27 0 -29 25l-12 115h-13q-36 -57 -114 -99t-142 -41q-64 0 -89 3
q-27 4 -65 24t-80 75t-54 113t-13 162l2 213q0 123 -4 148q-8 68 -71 73q-45 6 -45 17v37q0 16 24 16h246l53 8q20 0 21 -24l-9 -256v-129q0 -10 -2 -98t12 -136q15 -49 32 -76t43 -40t39 -14q14 -1 50 -1t76 23t66 55q23 35 22 65v484q0 61 -88 69q-41 4 -41 17v37
q0 16 25 16h254l61 8q16 0 17 -20q0 -4 -6 -56t-7 -221v-149z" />
    <glyph glyph-name="uacute" unicode="&#xfa;" horiz-adv-x="1077" 
d="M479 997l-24 21q-8 8 0 16l166 246q47 68 100 66q39 2 63 -28t20 -71q-5 -41 -46 -69l-262 -181q-9 -8 -17 0zM915 418q-1 -196 7 -252t43 -55q41 0 65 3t25 -8l6 -32q2 -14 -10 -19l-254 -71q-25 -8 -41 -9q-27 0 -29 25l-12 115h-13q-36 -57 -114 -99t-142 -41
q-64 0 -89 3q-27 4 -65 24t-80 75t-54 113t-13 162l2 213q0 123 -4 148q-8 68 -71 73q-45 6 -45 17v37q0 16 24 16h246l53 8q20 0 21 -24l-9 -256v-129q0 -10 -2 -98t12 -136q15 -49 32 -76t43 -40t39 -14q14 -1 50 -1t76 23t66 55q23 35 22 65v484q0 61 -88 69
q-41 4 -41 17v37q0 16 25 16h254l61 8q16 0 17 -20q0 -4 -6 -56t-7 -221v-149z" />
    <glyph glyph-name="ucircumflex" unicode="&#xfb;" horiz-adv-x="1077" 
d="M538 1337q10 0 23 -20l227 -277q10 -10 3 -18l-17 -16q-4 -10 -16 -5l-226 136l-204 -131q-14 -6 -21 -5l-16 21q-8 8 2 20l219 279q16 16 26 16zM915 418q-1 -196 7 -252t43 -55q41 0 65 3t25 -8l6 -32q2 -14 -10 -19l-254 -71q-25 -8 -41 -9q-27 0 -29 25l-12 115h-13
q-36 -57 -114 -99t-142 -41q-64 0 -89 3q-27 4 -65 24t-80 75t-54 113t-13 162l2 213q0 123 -4 148q-8 68 -71 73q-45 6 -45 17v37q0 16 24 16h246l53 8q20 0 21 -24l-9 -256v-129q0 -10 -2 -98t12 -136q15 -49 32 -76t43 -40t39 -14q14 -1 50 -1t76 23t66 55q23 35 22 65
v484q0 61 -88 69q-41 4 -41 17v37q0 16 25 16h254l61 8q16 0 17 -20q0 -4 -6 -56t-7 -221v-149z" />
    <glyph glyph-name="udieresis" unicode="&#xfc;" horiz-adv-x="1077" 
d="M727 1090q-45 0 -83 26t-38 74q0 49 29 86t83 37t86 -32t32 -84q0 -51 -32 -79t-77 -28zM471 1197q0 -51 -31 -79t-77 -28q-45 0 -83 26t-38 74q0 49 28 86q29 37 83 37t86 -32t32 -84zM915 418q-1 -196 7 -252t43 -55q41 0 65 3t25 -8l6 -32q2 -14 -10 -19l-254 -71
q-25 -8 -41 -9q-27 0 -29 25l-12 115h-13q-36 -57 -114 -99t-142 -41q-64 0 -89 3q-27 4 -65 24t-80 75t-54 113t-13 162l2 213q0 123 -4 148q-8 68 -71 73q-45 6 -45 17v37q0 16 24 16h246l53 8q20 0 21 -24l-9 -256v-129q0 -10 -2 -98t12 -136q15 -49 32 -76t43 -40
t39 -14q14 -1 50 -1t76 23t66 55q23 35 22 65v484q0 61 -88 69q-41 4 -41 17v37q0 16 25 16h254l61 8q16 0 17 -20q0 -4 -6 -56t-7 -221v-149z" />
    <glyph glyph-name="yacute" unicode="&#xfd;" horiz-adv-x="897" 
d="M512 997l-25 21q-8 8 0 16l166 246q47 68 101 66q40 2 64 -28t19 -71t-46 -69l-263 -181q-8 -8 -16 0zM948 846v-43q0 -16 -12 -17h-25q-47 0 -83 -46t-318 -683q-222 -476 -252 -521q-30 -46 -47 -56q-40 -25 -62 -31q-23 -6 -63 -6q-41 0 -75 31t-34 77q0 45 29 75
t70 30t82 -20t60 -2q18 18 78 144t79 185q-8 39 -126 364t-137 371q-20 46 -38 68q-18 20 -47 20h-41q-16 0 -17 17v45q0 14 17 14l217 -6q72 0 137 4l68 2q16 0 16 -16v-45q0 -14 -14 -15h-31q-39 0 -33 -38t72 -258t80 -252h8q29 61 105 250q77 189 85 221q18 78 -43 77
h-32q-16 0 -17 15v45q0 16 17 16l176 -6l137 6q14 0 14 -16z" />
    <glyph glyph-name="thorn" unicode="&#xfe;" horiz-adv-x="1069" 
d="M379 217q0 -86 53 -119q70 -43 157 -43t144 74t58 221q0 219 -78 324q-61 86 -163 86t-171 -94v-449zM31 -539v35q0 16 16 17h66q47 0 51 49q6 90 6 245l-4 1227q0 154 -78 185l-37 12q-16 6 -16 16v21q-1 10 27 18t118 41t123 52t51 20q20 0 21 -41l-2 -602l8 -4
q45 53 119 90t149 37q162 0 252 -107q53 -62 78 -126t25 -171q0 -215 -126 -357t-323 -143q-96 0 -176 37l4 -377q0 -79 13 -101t48 -21h66q20 0 20 -17v-39q0 -20 -16 -20l-242 6l-225 -6q-16 0 -16 24z" />
    <glyph glyph-name="ydieresis" unicode="&#xff;" horiz-adv-x="897" 
d="M719 1090q-45 0 -83 26t-38 74q0 49 29 86t83 37t86 -32t32 -84t-32 -80q-32 -27 -77 -27zM463 1197q0 -51 -31 -79t-77 -28t-84 26t-38 74q0 49 29 86t83 37t86 -32t32 -84zM948 846v-43q0 -16 -12 -17h-25q-47 0 -83 -46t-318 -683q-222 -476 -252 -521
q-30 -46 -47 -56q-40 -25 -62 -31q-23 -6 -63 -6q-41 0 -75 31t-34 77q0 45 29 75t70 30t82 -20t60 -2q18 18 78 144t79 185q-8 39 -126 364t-137 371q-20 46 -38 68q-18 20 -47 20h-41q-16 0 -17 17v45q0 14 17 14l217 -6q72 0 137 4l68 2q16 0 16 -16v-45q0 -14 -14 -15
h-31q-39 0 -33 -38t72 -258t80 -252h8q29 61 105 250q77 189 85 221q18 78 -43 77h-32q-16 0 -17 15v45q0 16 17 16l176 -6l137 6q14 0 14 -16z" />
    <glyph glyph-name="Amacron" unicode="&#x100;" horiz-adv-x="1523" 
d="M1022 1651h-524q-16 0 -17 16v105q0 16 17 16h528q16 0 16 -16v-105q0 -16 -20 -16zM692 1249q-18 0 -24 -18q-6 -19 -104 -289t-105 -297h426q-14 41 -172 567q-12 37 -21 37zM897 59q0 16 16 17h54q43 0 57 17t-2 90t-117 380h-475q-115 -331 -123 -371t-8 -64t22 -38
t52 -14h86q20 0 20 -10v-52q0 -20 -16 -20l-86 2q-86 4 -162 4t-126 -1t-76 -3q-25 -2 -35 -2t-11 26v39q0 16 13 17h61q78 0 131 92q16 29 100 241t129 336l201 537q12 62 2 72t-10 24t34 22t101 44q68 35 88 55t31 21q12 0 26 -48t114 -342t128 -394q29 -99 104 -313
t95 -253q49 -94 131 -94h65q16 0 17 -15v-43q0 -25 -21 -24l-303 6l-286 -6q-20 0 -21 24v41z" />
    <glyph glyph-name="amacron" unicode="&#x101;" horiz-adv-x="907" 
d="M674 1085h-447q-16 0 -16 13v104q0 12 16 12h451q20 0 20 -12v-104q1 -13 -24 -13zM528 186v269q-14 -10 -69 -40t-80 -48q-25 -17 -51 -59t-25 -98q0 -56 28 -89q59 -70 153 3q44 33 44 62zM90 152q0 168 189 251q225 109 249 127v107q-8 90 -34 118q-26 27 -99 27
q-72 0 -121 -37q-19 -16 -13 -50q5 -34 5 -50q0 -119 -123 -119q-29 0 -49 18t-20 52q0 98 94 168q152 115 332 115q123 0 188 -58q49 -45 49 -153l4 -324v-98q1 -80 13 -112t51 -32t55 33q8 14 21 8l24 -16q14 -8 4 -33q-67 -119 -193 -119t-167 125h-8q-68 -74 -179 -110
q-46 -14 -118 -14t-113 46q-41 48 -41 130z" />
    <glyph glyph-name="Abreve" unicode="&#x102;" horiz-adv-x="1523" 
d="M754 1573q-110 0 -193 75q-82 75 -94 179q-4 20 6 24l27 11q6 4 16 -11q70 -117 246 -116q86 1 157 35t93 81q6 14 16 9l25 -13q6 -4 4 -16q-23 -90 -108 -174t-195 -84zM692 1249q-18 0 -24 -18q-6 -19 -104 -289t-105 -297h426q-14 41 -172 567q-12 37 -21 37zM897 59
q0 16 16 17h54q43 0 57 17t-2 90t-117 380h-475q-115 -331 -123 -371t-8 -64t22 -38t52 -14h86q20 0 20 -10v-52q0 -20 -16 -20l-86 2q-86 4 -162 4t-126 -1t-76 -3q-25 -2 -35 -2t-11 26v39q0 16 13 17h61q78 0 131 92q16 29 100 241t129 336l201 537q12 62 2 72t-10 24
t34 22t101 44q68 35 88 55t31 21q12 0 26 -48t114 -342t128 -394q29 -99 104 -313t95 -253q49 -94 131 -94h65q16 0 17 -15v-43q0 -25 -21 -24l-303 6l-286 -6q-20 0 -21 24v41z" />
    <glyph glyph-name="abreve" unicode="&#x103;" horiz-adv-x="907" 
d="M492 995q-102 0 -178 71q-75 71 -93 171q-4 20 4 25l23 12q10 4 20 -12q68 -109 226 -109q72 0 138 34t91 75q12 14 18 10l23 -12q8 -4 6 -23q-28 -90 -102 -166t-176 -76zM528 186v269q-14 -10 -69 -40t-80 -48q-25 -17 -51 -59t-25 -98q0 -56 28 -89q59 -70 153 3
q44 33 44 62zM90 152q0 168 189 251q225 109 249 127v107q-8 90 -34 118q-26 27 -99 27q-72 0 -121 -37q-19 -16 -13 -50q5 -34 5 -50q0 -119 -123 -119q-29 0 -49 18t-20 52q0 98 94 168q152 115 332 115q123 0 188 -58q49 -45 49 -153l4 -324v-98q1 -80 13 -112t51 -32
t55 33q8 14 21 8l24 -16q14 -8 4 -33q-67 -119 -193 -119t-167 125h-8q-68 -74 -179 -110q-46 -14 -118 -14t-113 46q-41 48 -41 130z" />
    <glyph glyph-name="Aogonek" unicode="&#x104;" horiz-adv-x="1523" 
d="M692 1249q-18 0 -24 -18q-6 -19 -104 -289t-105 -297h426q-14 41 -172 567q-12 37 -21 37zM985 -309q0 -121 90 -121q43 0 111 63q26 31 46 31t20 -39t-85 -102q-84 -63 -168 -63t-147 47q-64 49 -64 131t41 142t101 118t89 88q28 29 29 57t-9 63q-9 35 -14 68t-120 389
h-475q-115 -331 -123 -371t-8 -64t22 -38t52 -14h86q20 0 20 -10v-52q0 -20 -16 -20l-86 2q-86 4 -162 4t-126 -1t-76 -3q-25 -2 -35 -2t-11 26v39q0 16 13 17h61q78 0 131 92q16 29 100 241t129 336l201 537q12 62 2 72t-10 24t34 22t101 44q68 35 88 55t31 21q12 0 27 -52
t113 -345q98 -294 126 -386q27 -92 104 -309t97 -258q49 -94 131 -94h65q16 0 17 -15v-43q0 -25 -21 -24l-80 4l-186 2q-100 0 -178 -94t-78 -215z" />
    <glyph glyph-name="aogonek" unicode="&#x105;" horiz-adv-x="907" 
d="M528 186v269q-14 -10 -69 -40t-80 -48q-25 -17 -51 -59t-25 -98q0 -56 28 -90q57 -70 153 4q44 33 44 62zM635 -289q0 -94 76 -94q45 0 102 57q27 27 41 27q20 0 20 -35t-76 -92t-151 -57q-74 0 -131 45t-57 131q0 121 142 229q22 16 77 58q-94 20 -129 120h-8
q-68 -74 -179 -110q-46 -14 -118 -14t-113 46q-41 48 -41 130q0 166 197 256t241 122v107q-8 90 -34 118q-26 27 -99 27q-72 0 -121 -37q-19 -16 -13 -50q5 -34 5 -50q0 -119 -123 -119q-29 0 -49 18t-20 52q0 98 94 168q152 115 332 115q123 0 188 -58q49 -45 49 -153
l4 -324v-98q1 -80 13 -112t51 -32t55 33q8 14 21 8l24 -16q14 -9 6 -27t-28 -35q-19 -17 -55 -45t-54 -45q-139 -125 -139 -264z" />
    <glyph glyph-name="Cacute" unicode="&#x106;" horiz-adv-x="1536" 
d="M1070 1927q44 0 70 -29t25 -65q0 -63 -75 -98l-345 -160q-8 -6 -14 0l-24 33q-8 8 4 16l280 268q35 35 79 35zM864 -31q-184 0 -308 49q-124 48 -229 144t-163 251q-57 155 -58 302q0 322 206 544t536 222q238 0 414 -99q37 -20 41 0l16 54q3 12 27 12t29 -6t5 -45
t50 -408q2 -18 -9 -20l-39 -13q-12 -6 -22 21q-51 152 -160 266q-160 152 -356 152q-156 0 -264 -88q-198 -161 -199 -502q0 -125 43 -273t145 -260q152 -160 353 -159q160 1 290 69t199 168q17 23 25 15l34 -31q10 -10 5 -21q-240 -344 -611 -344z" />
    <glyph glyph-name="cacute" unicode="&#x107;" horiz-adv-x="856" 
d="M389 997l-24 21q-8 8 0 16l165 246q47 68 101 66q39 2 63 -28t20 -71q-5 -41 -46 -69l-262 -181q-9 -8 -17 0zM66 393q0 103 38 201t113 166q131 119 294 119q163 1 229 -59t67 -126q0 -38 -25 -64t-65 -26q-84 0 -123 103q-35 84 -127 84q-68 0 -126 -68
q-58 -67 -58 -173t14 -174t65 -155q68 -111 200 -111t233 78q8 8 18 -2l25 -28q10 -10 0 -25q-46 -57 -144 -107t-202 -51q-222 1 -324 131t-102 287z" />
    <glyph glyph-name="Ccaron" unicode="&#x10c;" horiz-adv-x="1536" 
d="M854 1569q-8 0 -39 24l-260 256q-8 8 -2 15l12 20q6 6 21 0l278 -106l250 104q16 8 21 2l16 -20q6 -6 -4 -17l-268 -260q-17 -18 -25 -18zM864 -31q-184 0 -308 49q-124 48 -229 144t-163 251q-57 155 -58 302q0 322 206 544t536 222q238 0 414 -99q37 -20 41 0l16 54
q3 12 27 12t29 -6t5 -45t50 -408q2 -18 -9 -20l-39 -13q-12 -6 -22 21q-51 152 -160 266q-160 152 -356 152q-156 0 -264 -88q-198 -161 -199 -502q0 -125 43 -273t145 -260q152 -160 353 -159q160 1 290 69t199 168q17 23 25 15l34 -31q10 -10 5 -21q-240 -344 -611 -344z
" />
    <glyph glyph-name="ccaron" unicode="&#x10d;" horiz-adv-x="856" 
d="M500 1204l205 127q14 8 20 4l16 -20q8 -8 -2 -21l-219 -278q-16 -16 -25 -16t-24 20l-227 276q-10 10 -2 19l16 16q4 10 16 4zM66 393q0 103 38 201t113 166q131 119 294 119q163 1 229 -59t67 -126q0 -38 -25 -64t-65 -26q-84 0 -123 103q-35 84 -127 84q-68 0 -126 -68
q-58 -67 -58 -173t14 -174t65 -155q68 -111 200 -111t233 78q8 8 18 -2l25 -28q10 -10 0 -25q-46 -57 -144 -107t-202 -51q-222 1 -324 131t-102 287z" />
    <glyph glyph-name="Dcaron" unicode="&#x10e;" horiz-adv-x="1712" 
d="M818 1569q-8 0 -38 24l-260 256q-8 8 -2 15l12 20q6 6 21 0l278 -106l250 104q16 8 21 2l16 -20q6 -6 -4 -17l-268 -260q-18 -18 -26 -18zM738 72q134 0 248 54t190 153q147 190 147 466q0 121 -46 243t-118 204q-82 88 -207 140q-126 52 -238 52t-147 -20t-37 -98
t-2 -377v-148l4 -499q0 -62 36 -116t170 -54zM64 -6q-10 0 -11 18v51q0 12 17 13h118q59 0 68 51q14 96 14 659v156q0 283 -12 375q-4 57 -74 57h-110q-16 0 -17 15v55q0 12 19 12l309 -6l307 6q233 0 393 -38t291 -148q229 -188 230 -520q0 -172 -48 -298t-153 -239
q-203 -219 -660 -219l-389 6q-176 0 -229 -3t-63 -3z" />
    <glyph glyph-name="dcaron" unicode="&#x10f;" horiz-adv-x="1083" 
d="M1239 1339q0 -172 -174 -295q-18 -12 -37 -12t-18 12q0 8 14 25q98 104 98 197q0 29 -20 49q-72 36 -72 106q0 29 28 52t66 23t76 -43q39 -42 39 -114zM705 246v358q0 63 -22 101t-70 66q-49 28 -125 28t-126 -62q-82 -99 -82 -257t78 -274q76 -116 180 -116t150 74
q17 33 17 82zM918 782v-446q0 -154 22 -182t84 -35q35 0 41 -13l4 -24q6 -18 -12 -25l-275 -77q-23 -8 -28 20l-29 94q-49 -51 -132 -85t-155 -34q-145 0 -245 101q-127 125 -127 301q0 217 143 371q125 131 303 131q106 0 193 -29l-7 397q-2 55 -25 80q-24 25 -104 39
q-16 6 -16 16v37q0 10 16 17q272 33 306 39t38 6q18 0 13 -37q-8 -103 -8 -662z" />
    <glyph glyph-name="Dcroat" unicode="&#x110;" horiz-adv-x="1712" 
d="M750 72q264 0 418 198t155 475q0 121 -46 243t-118 204q-178 190 -459 190q-98 0 -133 -17t-37 -97t-2 -379v-115h316q16 0 16 -12v-62q0 -12 -16 -12h-316v-37l4 -409q0 -62 36 -116t182 -54zM70 -6q-16 0 -17 16v49q0 16 17 17h118q59 0 68 51q14 68 14 504v57h-184
q-12 0 -12 17v53q0 16 16 16h180v168q0 283 -12 375q-4 57 -74 57h-110q-16 0 -17 15v51q0 16 17 16l311 -6l307 6q233 0 394 -39t290 -147q229 -188 230 -520q0 -172 -48 -298t-153 -239q-55 -63 -132 -107q-136 -79 -266 -96q-130 -16 -262 -16l-389 6q-176 0 -229 -3
t-57 -3z" />
    <glyph glyph-name="dcroat" unicode="&#x111;" horiz-adv-x="1083" 
d="M705 246v358q0 63 -22 101t-70 66q-49 28 -125 28t-126 -62q-82 -99 -82 -257t78 -274q76 -116 180 -116t150 74q17 33 17 82zM1075 1186v-53q0 -12 -20 -13h-137v-784q0 -154 22 -182t84 -35q35 0 41 -13l4 -24q6 -18 -12 -25l-275 -77q-23 -8 -28 20l-29 94
q-49 -51 -132 -85t-155 -34q-145 0 -245 101q-127 125 -127 301q0 217 143 371q125 131 303 131q106 0 193 -29l-3 272q-98 0 -286 -2q-16 0 -17 13v53q0 12 13 12h286v49q0 55 -24 80q-25 25 -105 39q-16 6 -16 16v37q0 10 16 17q264 31 294 38t48 7q19 0 15 -44t-8 -239
h137q20 0 20 -12z" />
    <glyph glyph-name="Emacron" unicode="&#x112;" horiz-adv-x="1404" 
d="M963 1651h-525q-16 0 -16 16v105q0 16 16 16h529q16 0 16 -16v-105q0 -16 -20 -16zM893 987q0 16 16 17l54 -5q14 -1 11 -25t-3 -163t12 -274q0 -12 -16 -15l-45 -8q-10 -2 -17 14q-14 59 -33 103q-31 68 -102 74q-111 12 -238 12l3 -123q6 -332 6 -348q0 -137 82 -160
q65 -16 157 -16t182 9t156 66t195 220q10 14 22 8l33 -21q10 -6 4 -20l-98 -307q-10 -31 -45 -31l-182 4l-682 2l-175 -2q-82 -4 -88 -4q-16 0 -16 16v49q0 16 20 17h70q70 0 86 15t17 73v688q1 392 -7 442t-27 65t-65 15h-78q-12 0 -12 15v53q0 14 12 14l95 -4
q92 -4 192 -2h57l652 4l82 2q12 0 15 -10q33 -109 62 -214q31 -106 35 -118t-8 -18l-37 -17q-10 -3 -20 13q-9 16 -101 112t-122 115q-88 51 -156 53l-311 8l-5 -592q193 0 234 11q63 12 94 73q33 72 33 115z" />
    <glyph glyph-name="emacron" unicode="&#x113;" horiz-adv-x="888" 
d="M705 1085h-447q-16 0 -16 13v104q0 12 16 12h451q20 0 20 -12v-104q1 -13 -24 -13zM532 592q68 0 68 29q0 65 -29 123t-98 59q-147 0 -188 -211h247zM279 518v-63q0 -147 85 -239t181 -93q170 0 248 119q10 18 24 10l31 -19q16 -10 0 -40q-121 -217 -373 -218
q-199 0 -295 111q-66 76 -90 155t-24 177t19 164t83 148t142 115q78 34 186 34q193 0 270 -134q65 -108 65 -194q0 -21 -13 -27t-44 -6h-495z" />
    <glyph glyph-name="Edotaccent" unicode="&#x116;" horiz-adv-x="1404" 
d="M712 1614q-52 0 -96 30q-43 30 -43 85t36 95q37 40 95 40t93 -36t35 -92t-34 -89t-86 -33zM893 987q0 16 16 17l54 -5q14 -1 11 -25t-3 -163t12 -274q0 -12 -16 -15l-45 -8q-10 -2 -17 14q-14 59 -33 103q-31 68 -102 74q-111 12 -238 12l3 -123q6 -332 6 -348
q0 -137 82 -160q65 -16 157 -16t182 9t156 66t195 220q10 14 22 8l33 -21q10 -6 4 -20l-98 -307q-10 -31 -45 -31l-182 4l-682 2l-175 -2q-82 -4 -88 -4q-16 0 -16 16v49q0 16 20 17h70q70 0 86 15t17 73v688q1 392 -7 442t-27 65t-65 15h-78q-12 0 -12 15v53q0 14 12 14
l95 -4q92 -4 192 -2h57l652 4l82 2q12 0 15 -10q33 -109 62 -214q31 -106 35 -118t-8 -18l-37 -17q-10 -3 -20 13q-9 16 -101 112t-122 115q-88 51 -156 53l-311 8l-5 -592q193 0 234 11q63 12 94 73q33 72 33 115z" />
    <glyph glyph-name="edotaccent" unicode="&#x117;" horiz-adv-x="888" 
d="M494 1319q58 0 90 -33t32 -78t-34 -82q-34 -36 -90 -36q-58 0 -96 32t-38 80q0 49 39 83t97 34zM532 592q68 0 68 29q0 65 -29 123t-98 59q-147 0 -188 -211h247zM279 518v-63q0 -147 85 -239t181 -93q170 0 248 119q10 18 24 10l31 -19q16 -10 0 -40
q-121 -217 -373 -218q-199 0 -295 111q-66 76 -90 155t-24 177t19 164t83 148t142 115q78 34 186 34q193 0 270 -134q65 -108 65 -194q0 -21 -13 -27t-44 -6h-495z" />
    <glyph glyph-name="Eogonek" unicode="&#x118;" horiz-adv-x="1404" 
d="M893 987q0 16 16 17l54 -5q14 -1 11 -25t-3 -163t12 -274q0 -12 -16 -15l-45 -8q-10 -2 -19 14q-18 72 -31 103q-31 68 -102 74q-111 12 -238 12l3 -123q6 -332 6 -348q0 -137 82 -160q65 -16 157 -16t182 9t156 66t195 220q10 14 22 8l33 -21q10 -6 4 -20l-98 -307
q-5 -14 -18 -18q-13 -5 -26 -12t-26 -13q-78 -45 -123 -128t-45 -171q0 -113 90 -113q43 0 111 63q25 31 45 31t21 -39q0 -39 -84 -102t-168 -63t-148 48q-63 49 -63 148q0 184 276 344l-69 -2l-682 2q-131 0 -175 -2l-88 -4q-16 0 -16 16v49q0 16 20 17h70q70 0 86 15
t17 73v688q1 392 -7 442t-27 65t-65 15h-78q-12 0 -12 15v53q0 14 12 14l287 -6h57l652 4l82 2q12 0 15 -10q33 -109 62 -214q31 -106 35 -118t-8 -18l-37 -17q-10 -3 -20 13q-9 16 -101 112t-122 115q-88 51 -156 53l-311 8l-5 -592q172 0 236 12t94 78t31 109z" />
    <glyph glyph-name="eogonek" unicode="&#x119;" horiz-adv-x="888" 
d="M600 621q0 65 -29 123t-98 59q-147 0 -188 -211h247q68 0 68 29zM473 -289q0 -94 76 -94q45 0 102 57q27 27 41 27q20 0 20 -35t-76 -92q-77 -57 -151 -57t-131 45t-57 131q0 121 133 226q25 19 74 56h-29q-199 0 -295 111q-66 76 -90 155t-24 177t19 164t83 148t142 115
q78 34 186 34q193 0 270 -134q65 -108 65 -194q0 -21 -13 -27t-44 -6h-495v-63q0 -147 85 -239t181 -93q168 0 248 115q12 20 24 14l31 -19q16 -10 0 -40q-41 -76 -208 -193t-167 -289z" />
    <glyph glyph-name="Ecaron" unicode="&#x11a;" horiz-adv-x="1404" 
d="M746 1569q-8 0 -37 24l-260 256q-8 8 -3 15l13 20q6 6 20 0l279 -106l250 104q16 8 20 2l16 -20q6 -6 -4 -17l-268 -260q-18 -18 -26 -18zM893 987q0 16 16 17l54 -5q14 -1 11 -25t-3 -163t12 -274q0 -12 -16 -15l-45 -8q-10 -2 -17 14q-14 59 -33 103q-31 68 -102 74
q-111 12 -238 12l3 -123q6 -332 6 -348q0 -137 82 -160q65 -16 157 -16t182 9t156 66t195 220q10 14 22 8l33 -21q10 -6 4 -20l-98 -307q-10 -31 -45 -31l-182 4l-682 2l-175 -2q-82 -4 -88 -4q-16 0 -16 16v49q0 16 20 17h70q70 0 86 15t17 73v688q1 392 -7 442t-27 65
t-65 15h-78q-12 0 -12 15v53q0 14 12 14l95 -4q92 -4 192 -2h57l652 4l82 2q12 0 15 -10q33 -109 62 -214q31 -106 35 -118t-8 -18l-37 -17q-10 -3 -20 13q-9 16 -101 112t-122 115q-88 51 -156 53l-311 8l-5 -592q193 0 234 11q63 12 94 73q33 72 33 115z" />
    <glyph glyph-name="ecaron" unicode="&#x11b;" horiz-adv-x="888" 
d="M496 1204l204 127q14 8 21 4l16 -20q8 -8 -2 -21l-219 -278q-16 -16 -25 -16t-24 20l-227 276q-10 10 -2 19l16 16q4 10 16 4zM532 592q68 0 68 29q0 65 -29 123t-98 59q-147 0 -188 -211h247zM279 518v-63q0 -147 85 -239t181 -93q170 0 248 119q10 18 24 10l31 -19
q16 -10 0 -40q-121 -217 -373 -218q-199 0 -295 111q-66 76 -90 155t-24 177t19 164t83 148t142 115q78 34 186 34q193 0 270 -134q65 -108 65 -194q0 -21 -13 -27t-44 -6h-495z" />
    <glyph glyph-name="Gbreve" unicode="&#x11e;" horiz-adv-x="1710" 
d="M930 1573q-110 0 -193 75q-82 75 -94 179q-4 20 6 24l27 11q6 4 16 -11q70 -117 246 -116q86 1 157 35t93 81q8 14 16 9l25 -13q6 -4 4 -16q-23 -90 -108 -174t-195 -84zM1618 631q20 0 20 -15v-51q0 -16 -16 -16h-70q-61 0 -61 -76v-270l8 -66q0 -20 -33 -33
q-264 -135 -581 -135q-166 -1 -329 59t-261 179q-188 207 -189 557q0 144 62 282t172 234q225 201 582 201q136 0 248 -34t169 -77q29 -23 50 4l24 33q14 20 29 20q25 0 24 -28l21 -410q0 -27 -8 -28l-49 -9q-14 -2 -21 17q-61 174 -164 282q-135 143 -342 143t-346 -159
q-76 -86 -122 -209t-46 -254q0 -385 184 -569q145 -139 325 -139t282 53q31 16 40 57t9 131v150q-1 53 -17 73t-57 21h-86q-16 0 -16 18v47q0 16 12 17l291 -6q166 0 212 3t50 3z" />
    <glyph glyph-name="gbreve" unicode="&#x11f;" horiz-adv-x="1011" 
d="M502 995q-102 0 -177 71t-94 171q-4 20 5 25l22 12q8 4 21 -12q68 -109 225 -109q72 0 138 34t91 75q13 14 19 10l22 -12q8 -4 6 -23q-28 -90 -102 -166t-176 -76zM203 -280q-1 -50 21 -91t52 -57q84 -49 240 -49q96 0 189 50q92 50 90 132q0 196 -283 184l-184 -12
q-47 -14 -86 -60q-39 -47 -39 -97zM468 313q72 0 106 82q34 83 34 195q0 214 -141 213q-68 0 -111 -51q-57 -74 -57 -212t51 -182q45 -45 118 -45zM94 61q0 127 176 209v4q-176 102 -176 306q0 114 98 206t276 92q177 0 284 -116q96 76 162 76t95 -28q27 -28 25 -65t-26 -63
t-59 -25q-34 0 -62 29q-33 25 -57 25t-42 -13q25 -49 25 -135q0 -135 -87 -228t-259 -93q-74 0 -117 8q-88 -39 -88 -99t62 -74q32 -7 80 -7t144 5t177 -10q80 -15 143 -69q102 -78 102 -209t-126 -229q-59 -47 -165 -82t-237 -33q-207 0 -314 61t-108 164q0 76 62 134
t151 96v12q-67 14 -103 57t-36 94z" />
    <glyph glyph-name="Gcommaaccent" unicode="&#x122;" horiz-adv-x="1710" 
d="M1024 -280q0 -72 -42 -144t-78 -104t-64 -50q-25 -12 -33 -12q-16 0 -16 12t12 25q115 102 115 201q0 31 -29 49q-90 32 -90 106q0 29 23 52q24 23 68 23t89 -43q45 -42 45 -115zM1618 631q20 0 20 -15v-51q0 -16 -16 -16h-70q-61 0 -61 -76v-270l8 -66q0 -20 -33 -33
q-264 -135 -581 -135q-166 -1 -329 59t-261 179q-188 207 -189 557q0 144 62 282t172 234q225 201 582 201q136 0 248 -34t169 -77q29 -23 50 4l24 33q14 20 29 20q25 0 24 -28l21 -410q0 -27 -8 -28l-49 -9q-14 -2 -21 17q-61 174 -164 282q-135 143 -342 143t-346 -159
q-76 -86 -122 -209t-46 -254q0 -385 184 -569q145 -139 325 -139t282 53q31 16 40 57t9 131v150q-1 53 -17 73t-57 21h-86q-16 0 -16 18v47q0 16 12 17l291 -6q166 0 212 3t50 3z" />
    <glyph glyph-name="gcommaaccent" unicode="&#x123;" horiz-adv-x="1011" 
d="M338 1194q0 72 42 144t78 103q36 32 64 50q25 12 36 12t15 -12q0 -12 -14 -25q-115 -102 -115 -200q0 -34 43 -56q78 -33 78 -100q1 -30 -23 -52t-68 -22t-90 43t-46 115zM203 -280q-1 -50 21 -91t52 -57q84 -49 240 -49q96 0 189 50q92 50 90 132q0 196 -283 184
l-184 -12q-47 -14 -86 -60q-39 -47 -39 -97zM468 313q72 0 106 82q34 83 34 195q0 214 -141 213q-68 0 -111 -51q-57 -74 -57 -212t51 -182q45 -45 118 -45zM94 61q0 127 176 209v4q-176 102 -176 306q0 114 98 206t276 92q177 0 284 -116q96 76 162 76t95 -28
q27 -28 25 -65t-26 -63t-59 -25q-34 0 -62 29q-33 25 -57 25t-42 -13q25 -49 25 -135q0 -135 -87 -228t-259 -93q-74 0 -117 8q-88 -39 -88 -99t62 -74q32 -7 80 -7t144 5t177 -10q80 -15 143 -69q102 -78 102 -209t-126 -229q-59 -47 -165 -82t-237 -33q-207 0 -314 61
t-108 164q0 76 62 134t151 96v12q-67 14 -103 57t-36 94z" />
    <glyph glyph-name="Imacron" unicode="&#x12a;" horiz-adv-x="794" 
d="M657 1651h-524q-16 0 -16 16v105q0 16 16 16h529q16 0 16 -16v-105q-1 -16 -21 -16zM614 76h86q16 0 17 -15v-51q0 -16 -21 -16l-299 6q-203 0 -257 -3t-58 -3q-16 0 -16 14v55q0 12 16 13h82q86 0 94 58t8 583v143q0 366 -5 424t-23 74t-62 16h-106q-16 0 -17 15v53
q0 14 13 14l331 -6l291 6q16 0 17 -18v-47q0 -16 -17 -17h-78q-78 0 -78 -55l-4 -496v-159l4 -514q0 -46 20 -60t62 -14z" />
    <glyph glyph-name="imacron" unicode="&#x12b;" horiz-adv-x="555" 
d="M500 1085h-447q-16 0 -16 13v104q0 12 16 12h451q20 0 20 -12v-104q1 -13 -24 -13zM35 14v39q0 16 20 17h90q33 0 35 51t2 174v289q0 51 -20 81t-86 46q-20 4 -21 18v23q1 10 15 16t132 49t142 52t41 10q20 0 16 -29t-4 -330v-221q0 -152 4 -176q6 -53 33 -53h82
q20 0 21 -15v-41q0 -20 -17 -20l-248 6q-72 0 -145 -4l-76 -2q-16 0 -16 20z" />
    <glyph glyph-name="Iogonek" unicode="&#x12e;" horiz-adv-x="794" 
d="M705 1391q0 -16 -17 -17h-78q-78 0 -78 -55l-4 -496v-159l4 -514q0 -46 20 -60t62 -14h86q16 0 17 -15v-51q0 -16 -21 -16q-6 0 -48 4q-188 18 -254 -123q-40 -84 -40 -166q0 -139 101 -139q43 0 110 63q25 31 45 31t21 -39q0 -39 -85 -102t-173 -63q-87 0 -151 52
t-64 160q0 178 237 328q-232 0 -284 -4l-29 -2q-16 0 -16 14v55q0 12 16 13h82q86 0 94 58t8 583v143q0 366 -5 424t-23 74t-62 16h-106q-16 0 -17 15v53q0 14 13 14l331 -6l291 6q16 0 17 -18v-47z" />
    <glyph glyph-name="iogonek" unicode="&#x12f;" horiz-adv-x="555" 
d="M35 14v39q0 16 20 17h90q31 0 33 41q4 123 4 184v289q0 51 -20 81t-86 46q-20 4 -21 18v23q1 10 15 16t132 49t142 52t41 10q20 0 16 -29t-4 -330v-221q0 -152 4 -176q6 -53 33 -53h82q20 0 21 -15v-41q0 -20 -17 -20l-28 4q-29 4 -52 4q-59 0 -108 -41q-98 -80 -99 -250
q0 -94 76 -94q45 0 87 42t57 42q20 0 20 -35t-77 -92q-76 -57 -150 -57t-131 45t-58 131q0 164 217 307l-153 -2l-70 -4q-16 0 -16 20zM383 1277q0 -50 -38 -90t-101 -40t-106 36q-42 36 -42 89t43 91t107 38t101 -37q36 -37 36 -87z" />
    <glyph glyph-name="Idotaccent" unicode="&#x130;" horiz-adv-x="794" 
d="M407 1614q-52 0 -96 30q-43 30 -43 85t36 95t94 40t94 -36q34 -36 34 -92t-34 -89t-85 -33zM614 76h86q16 0 17 -15v-51q0 -16 -21 -16l-299 6q-203 0 -257 -3t-58 -3q-16 0 -16 14v55q0 12 16 13h82q86 0 94 58t8 583v143q0 366 -5 424t-23 74t-62 16h-106q-16 0 -17 15
v53q0 14 13 14l331 -6l291 6q16 0 17 -18v-47q0 -16 -17 -17h-78q-78 0 -78 -55l-4 -496v-159l4 -514q0 -46 20 -60t62 -14z" />
    <glyph glyph-name="dotlessi" unicode="&#x131;" horiz-adv-x="555" 
d="M35 14v39q0 16 20 17h90q33 0 35 51t2 174v289q0 51 -20 81t-86 46q-20 4 -21 18v23q1 10 15 16t132 49t142 52t41 10q20 0 16 -29t-4 -330v-221q0 -152 4 -176q6 -53 33 -53h82q20 0 21 -15v-41q0 -20 -17 -20l-248 6q-72 0 -145 -4l-76 -2q-16 0 -16 20z" />
    <glyph glyph-name="Kcommaaccent" unicode="&#x136;" horiz-adv-x="1474" 
d="M905 -239q0 -73 -42 -145t-78 -102q-36 -32 -64 -51q-25 -12 -33 -12q-16 0 -16 12t12 25q115 102 115 201q0 31 -29 49q-90 34 -90 106q0 29 23 52q24 22 68 22t89 -42t45 -115zM940 -6q-10 0 -10 16v51q0 12 12 13h29q25 0 33 20t-4 43t-185 269q-172 246 -199 272
t-67 27h-37v-152q0 -340 6 -432q4 -45 47 -45h78q16 0 16 -10v-56q0 -16 -12 -16l-262 6q-168 0 -213 -3t-53 -3t-8 14v55q0 12 12 13h74q51 0 56 44t5 638v119l-4 448q0 49 -61 49h-62q-16 0 -16 15v55q0 12 16 12l262 -6l254 6q16 0 17 -14v-51q0 -16 -17 -17h-65
q-33 0 -47 -12t-15 -47l-8 -451v-90h37q35 0 65 24t211 250q182 224 211 263q18 31 8 48t-40 17h-31q-10 0 -10 15v49q0 16 12 16l242 -6l176 6q16 0 16 -14v-51q0 -16 -16 -17h-41q-61 0 -121 -39q-61 -39 -221 -218t-236 -277q25 -31 276 -353q250 -323 288 -367t120 -44
h45q16 0 17 -15v-51q0 -16 -17 -16l-282 6q-167 0 -219 -3t-62 -3z" />
    <glyph glyph-name="kcommaaccent" unicode="&#x137;" horiz-adv-x="1044" 
d="M649 -280q0 -72 -42 -144t-78 -104t-64 -50q-25 -12 -33 -12q-16 0 -16 12t12 25q115 102 115 201q0 37 -43 55q-76 29 -76 100q0 29 23 52q24 23 68 23t89 -43q45 -42 45 -115zM641 14v35q0 16 16 17h17q28 0 22 26t-243 305q-25 25 -66 25v-303q0 -49 41 -49h45
q20 0 21 -19v-41q0 -16 -17 -16l-196 6q-131 0 -185 -4l-26 -2q-14 0 -15 20v39q0 16 21 17h53q41 0 41 49q6 61 6 303l-4 739q0 67 -18 97t-91 51q-29 12 -28 16v29q-1 14 31 21t142 46t136 49t39 11q18 0 16 -33q-12 -147 -12 -645v-311q51 0 82 24q37 35 119 125t84 119
q0 27 -39 26h-19q-14 0 -14 17v43q0 16 16 16l205 -6l178 6q14 0 15 -22v-37q0 -16 -17 -17h-20q-63 0 -121 -32t-272 -230q340 -385 393 -420t115 -34q16 0 16 -19v-41q0 -16 -21 -16l-208 6l-222 -6q-16 0 -16 20z" />
    <glyph glyph-name="Lacute" unicode="&#x139;" horiz-adv-x="1372" 
d="M620 1927q44 0 70 -29t25 -65q0 -63 -76 -98l-344 -160q-8 -6 -14 0l-25 33q-8 8 4 16l281 268q35 35 79 35zM1229 -6q-160 6 -596 6q-437 0 -485 -3t-57 -3t-11 3t-2 15v47q0 16 12 17h82q86 0 86 55l8 672v115q0 313 -6 369q-6 55 -17 71t-50 16h-87q-16 0 -16 19v47
q0 16 16 16l283 -6l324 6q20 0 20 -18v-47q0 -16 -20 -17h-111q-43 0 -56 -15t-14 -61l-4 -196q-4 -197 -4 -283v-176q0 -479 8 -567h115q262 0 341 10t162 131t116 209q12 12 24 8l37 -12q4 -4 4 -21q-12 -17 -102 -407z" />
    <glyph glyph-name="lacute" unicode="&#x13a;" horiz-adv-x="532" 
d="M528 1927q44 0 70 -29t25 -65q0 -63 -76 -98l-344 -160q-9 -6 -15 0l-24 33q-8 8 4 16l281 268q35 35 79 35zM29 -6q-16 0 -17 20v39q0 16 29 17h78q18 0 35 17q16 17 16 56v641q0 266 -7 366t-106 130l-41 12q-12 4 -12 17v24q0 10 16 17q225 68 308 118q37 12 45 13
q20 0 20 -37q-8 -221 -8 -649v-295q0 -366 6 -388q11 -42 51 -42h78q25 0 25 -19v-37q0 -20 -13 -20l-249 6q-153 0 -203 -3t-51 -3z" />
    <glyph glyph-name="Lcommaaccent" unicode="&#x13b;" horiz-adv-x="1372" 
d="M772 -280q0 -72 -42 -144t-78 -104t-64 -50q-25 -12 -33 -12q-16 0 -16 12t12 25q115 102 115 201q0 37 -43 55q-76 29 -76 100q0 29 23 52q24 23 68 23t89 -43q45 -42 45 -115zM1229 -6q-160 6 -596 6q-437 0 -485 -3t-57 -3t-11 3t-2 15v47q0 16 12 17h82q86 0 86 55
l8 672v115q0 313 -6 369q-6 55 -17 71t-50 16h-87q-16 0 -16 19v47q0 16 16 16l283 -6l324 6q20 0 20 -18v-47q0 -16 -20 -17h-111q-43 0 -56 -15t-14 -61l-4 -196q-4 -197 -4 -283v-176q0 -479 8 -567h115q262 0 341 10t162 131t116 209q12 12 24 8l37 -12q4 -4 4 -21
q-12 -17 -102 -407z" />
    <glyph glyph-name="lcommaaccent" unicode="&#x13c;" horiz-adv-x="532" 
d="M414 -280q0 -72 -42 -144t-78 -104t-65 -50q-25 -12 -37 -12t-12 12t13 25q115 102 114 201q0 31 -28 49q-67 24 -86 73t12 78q31 30 75 30t88 -43q46 -42 46 -115zM29 -6q-16 0 -17 20v39q0 16 29 17h78q18 0 35 17q16 17 16 56v641q0 266 -7 366t-106 130l-41 12
q-12 4 -12 17v24q0 10 16 17q225 68 308 118q37 12 45 13q20 0 20 -37q-8 -221 -8 -649v-295q0 -366 6 -388q11 -42 51 -42h78q25 0 25 -19v-37q0 -20 -13 -20l-249 6q-153 0 -203 -3t-51 -3z" />
    <glyph glyph-name="Lcaron" unicode="&#x13d;" horiz-adv-x="1372" 
d="M1018 1400q0 26 24 48t67 22q44 0 89 -42t45 -114q0 -73 -42 -145q-42 -71 -78 -103t-64 -50q-25 -12 -33 -12q-16 0 -16 12t12 24q115 102 115 201q0 37 -43 55q-76 28 -76 104zM1229 -6q-160 6 -596 6q-437 0 -485 -3t-57 -3t-11 3t-2 15v47q0 16 12 17h82q86 0 86 55
l8 672v115q0 313 -6 369q-6 55 -17 71t-50 16h-87q-16 0 -16 19v47q0 16 16 16l283 -6l324 6q20 0 20 -18v-47q0 -16 -20 -17h-111q-43 0 -56 -15t-14 -61l-4 -196q-4 -197 -4 -283v-176q0 -479 8 -567h115q262 0 341 10t162 131t116 209q12 12 24 8l37 -12q4 -4 4 -21
q-12 -17 -102 -407z" />
    <glyph glyph-name="lcaron" unicode="&#x13e;" horiz-adv-x="532" 
d="M715 1358q0 -172 -174 -295q-18 -12 -37 -12t-19 10t15 26q98 104 98 197q0 29 -20 49q-72 33 -72 107q0 30 28 52t66 22t76 -42q39 -42 39 -114zM29 -6q-16 0 -17 20v39q0 16 29 17h78q18 0 35 17q16 17 16 56v641q0 266 -7 366t-106 130l-41 12q-12 4 -12 17v24
q0 10 16 17q225 68 308 118q37 12 45 13q20 0 20 -37q-8 -221 -8 -649v-295q0 -366 6 -388q11 -42 51 -42h78q25 0 25 -19v-37q0 -20 -13 -20l-249 6q-153 0 -203 -3t-51 -3z" />
    <glyph glyph-name="Lslash" unicode="&#x141;" horiz-adv-x="1372" 
d="M524 643q0 -479 8 -567h115q262 0 340 9t160 128t119 213q6 14 24 8l37 -12q12 -6 4 -21q-53 -186 -102 -407q-160 6 -596 6q-437 0 -485 -3t-57 -3t-11 3t-2 15v47q0 16 12 17h98q70 0 70 55l8 430v66l-164 -64q-14 -4 -20 8l-21 58q-4 12 13 20l192 72v197
q0 313 -6 369q-6 55 -17 71t-50 16h-87q-16 0 -16 19v47q0 16 16 16l283 -6l289 4l35 2q20 0 20 -18v-47q0 -16 -20 -17h-119q-39 0 -50 -16t-12 -60l-8 -462v-33l416 164q16 6 21 -9l20 -57q4 -10 -14 -16l-443 -172v-70z" />
    <glyph glyph-name="lslash" unicode="&#x142;" horiz-adv-x="616" 
d="M51 14v39q0 16 25 17h74q55 0 55 73v592l-123 -71q-8 -6 -19 6l-28 53q-4 12 4 14l166 97v53q0 164 -7 263t-106 130l-41 12q-12 4 -12 17v24q0 10 16 17q201 57 312 118q31 12 45 13q16 0 16 -37q-8 -221 -8 -461v-33l115 74q10 6 22 -6l31 -55q6 -10 -4 -17l-164 -98
v-344q0 -250 4 -365q2 -70 45 -69h82q20 0 20 -19v-37q0 -20 -12 -20l-254 6l-242 -6q-12 0 -12 20z" />
    <glyph glyph-name="Nacute" unicode="&#x143;" horiz-adv-x="1654" 
d="M1068 1927q44 0 70 -29t25 -65q0 -63 -76 -98l-344 -160q-8 -6 -14 0l-24 33q-8 8 4 16l280 268q35 35 79 35zM1585 1442v-47q0 -20 -12 -21h-57q-59 0 -68 -108q-31 -418 -31 -693v-540q0 -57 -24 -58q-37 1 -57 21t-55 61q-36 41 -96 113t-116 137q-55 70 -173 211
t-155 191q-16 16 -196 239t-185 228h-12v-250q0 -381 21 -699q5 -79 27 -115t75 -36h53q16 0 17 -19v-47q0 -16 -17 -16l-221 6l-213 -6q-12 0 -12 18v51q0 12 12 13h70q40 0 62 39t30 131q14 258 14 651v260q0 93 -46 155t-114 62h-65q-12 2 -12 15v55q0 12 12 12l63 -4
q36 -2 130 -2t143 4l57 2q31 0 48 -17q18 -17 226 -279t238 -304q47 -55 381 -471h8v213q0 282 -9 478t-18 226t-40 52q-31 20 -68 20h-65q-12 0 -13 19v47q0 16 17 16l229 -6q74 0 135 4l62 2q20 0 20 -14z" />
    <glyph glyph-name="nacute" unicode="&#x144;" horiz-adv-x="1124" 
d="M504 997l-25 21q-8 8 0 16l166 246q47 68 100 66q39 2 64 -28t19 -71t-46 -69l-262 -181q-8 -8 -16 0zM84 -6q-12 0 -12 20v39q0 16 20 17h41q53 0 53 41v460q0 76 -86 119l-16 8q-16 6 -16 21v16q0 15 20 21l225 106q33 16 41 17q18 0 25 -25l16 -106h13q47 53 102 81
q84 49 184 49t160 -49q63 -47 88 -95t25 -116v-294l-2 -197q0 -57 49 -57h57q25 0 25 -15v-47q0 -14 -17 -14l-221 6q-121 0 -160 -3t-41 -3q-16 0 -16 24v35q0 16 25 17h41q31 0 37 60t8 181v236q0 71 -10 109t-47 71q-38 33 -116 33t-135 -53q-43 -43 -43 -146v-422
q0 -70 39 -69h37q20 0 21 -19v-37q0 -20 -17 -20l-192 6q-127 0 -165 -3t-40 -3z" />
    <glyph glyph-name="Ncommaaccent" unicode="&#x145;" horiz-adv-x="1654" 
d="M954 -198q0 -72 -42 -144t-78 -104t-64 -50q-25 -12 -33 -12q-16 0 -16 12t12 25q115 102 115 201q0 31 -29 49q-90 34 -90 106q0 29 24 52q23 23 67 23t89 -43q45 -42 45 -115zM1585 1442v-47q0 -20 -12 -21h-57q-59 0 -68 -108q-31 -418 -31 -693v-540q0 -57 -24 -58
q-37 1 -57 21t-55 61q-36 41 -96 113t-116 137q-55 70 -173 211t-155 191q-16 16 -196 239t-185 228h-12v-250q0 -381 21 -699q5 -79 27 -115t75 -36h53q16 0 17 -19v-47q0 -16 -17 -16l-221 6l-213 -6q-12 0 -12 18v51q0 12 12 13h70q40 0 62 39t30 131q14 258 14 651v260
q0 93 -46 155t-114 62h-65q-12 2 -12 15v55q0 12 12 12l63 -4q36 -2 130 -2t143 4l57 2q31 0 48 -17q18 -17 226 -279t238 -304q47 -55 381 -471h8v213q0 282 -9 478t-18 226t-40 52q-31 20 -68 20h-65q-12 0 -13 19v47q0 16 17 16l229 -6q74 0 135 4l62 2q20 0 20 -14z" />
    <glyph glyph-name="ncommaaccent" unicode="&#x146;" horiz-adv-x="1124" 
d="M690 -280q0 -72 -42 -144t-78 -104t-64 -50q-25 -12 -33 -12q-16 0 -16 12t12 25q115 102 115 201q0 37 -43 55q-76 28 -76 100q0 29 23 52q24 23 68 23t89 -43q45 -42 45 -115zM84 -6q-12 0 -12 20v39q0 16 20 17h41q53 0 53 41v460q0 76 -86 119l-16 8q-16 6 -16 21v16
q0 15 20 21l225 106q33 16 41 17q18 0 25 -25l16 -106h13q47 53 102 81q84 49 184 49t160 -49q63 -47 88 -95t25 -116v-294l-2 -197q0 -57 49 -57h57q25 0 25 -15v-47q0 -14 -17 -14l-221 6q-121 0 -160 -3t-41 -3q-16 0 -16 24v35q0 16 25 17h41q31 0 37 60t8 181v236
q0 71 -10 109t-47 71q-38 33 -116 33t-135 -53q-43 -43 -43 -146v-422q0 -70 39 -69h37q20 0 21 -19v-37q0 -20 -17 -20l-192 6q-127 0 -165 -3t-40 -3z" />
    <glyph glyph-name="Ncaron" unicode="&#x147;" horiz-adv-x="1654" 
d="M830 1569q-8 0 -37 24l-261 256q-8 8 -2 15l13 20q6 6 20 0l279 -106l250 104q16 8 20 2l16 -20q6 -6 -4 -17l-268 -260q-18 -18 -26 -18zM1585 1442v-47q0 -20 -12 -21h-57q-59 0 -68 -108q-31 -418 -31 -693v-540q0 -57 -24 -58q-37 1 -57 21t-55 61q-36 41 -96 113
t-116 137q-55 70 -173 211t-155 191q-16 16 -196 239t-185 228h-12v-250q0 -381 21 -699q5 -79 27 -115t75 -36h53q16 0 17 -19v-47q0 -16 -17 -16l-221 6l-213 -6q-12 0 -12 18v51q0 12 12 13h70q40 0 62 39t30 131q14 258 14 651v260q0 93 -46 155t-114 62h-65
q-12 2 -12 15v55q0 12 12 12l63 -4q36 -2 130 -2t143 4l57 2q31 0 48 -17q18 -17 226 -279t238 -304q47 -55 381 -471h8v213q0 282 -9 478t-18 226t-40 52q-31 20 -68 20h-65q-12 0 -13 19v47q0 16 17 16l229 -6q74 0 135 4l62 2q20 0 20 -14z" />
    <glyph glyph-name="ncaron" unicode="&#x148;" horiz-adv-x="1124" 
d="M573 1204l205 127q14 8 21 4l16 -20q8 -8 -2 -21l-219 -278q-16 -16 -26 -16t-23 20l-228 276q-10 10 -2 19l17 16q4 10 16 4zM84 -6q-12 0 -12 20v39q0 16 20 17h41q53 0 53 41v460q0 76 -86 119l-16 8q-16 6 -16 21v16q0 15 20 21l225 106q33 16 41 17q18 0 25 -25
l16 -106h13q47 53 102 81q84 49 184 49t160 -49q63 -47 88 -95t25 -116v-294l-2 -197q0 -57 49 -57h57q25 0 25 -15v-47q0 -14 -17 -14l-221 6q-121 0 -160 -3t-41 -3q-16 0 -16 24v35q0 16 25 17h41q31 0 37 60t8 181v236q0 71 -10 109t-47 71q-38 33 -116 33t-135 -53
q-43 -43 -43 -146v-422q0 -70 39 -69h37q20 0 21 -19v-37q0 -20 -17 -20l-192 6q-127 0 -165 -3t-40 -3z" />
    <glyph glyph-name="Omacron" unicode="&#x14c;" horiz-adv-x="1740" 
d="M1130 1651h-524q-16 0 -16 16v105q0 16 16 16h529q16 0 16 -16v-105q-1 -16 -21 -16zM864 1391q-2 0 -20 1q-117 6 -214 -64q-134 -97 -197 -276q-48 -138 -48 -299t53 -309t133 -226q161 -159 314 -159q117 1 208 51t140 122t90 189q41 118 41 273q0 156 -50 293
q-88 242 -289 355q-85 49 -161 49zM872 1481q281 0 484 -164q279 -227 278 -606q0 -260 -151 -451q-111 -137 -255 -214t-371 -77t-451 135q-121 74 -210 237t-90 370q0 274 189 508q212 262 577 262z" />
    <glyph glyph-name="omacron" unicode="&#x14d;" horiz-adv-x="1044" 
d="M741 1085h-446q-16 0 -16 13v104q0 12 16 12h450q20 0 21 -12v-104q0 -13 -25 -13zM299 446q-1 -196 59 -290t162 -95q102 0 156 108q53 109 53 269t-67 259q-68 99 -147 99t-128 -55q-88 -99 -88 -295zM535 879q177 0 303 -121q141 -142 141 -318t-129 -320t-340 -144
t-334 147q-66 77 -88 147t-22 161t43 186t129 163q120 99 297 99z" />
    <glyph glyph-name="Ohungarumlaut" unicode="&#x150;" horiz-adv-x="1740" 
d="M1246 1929q40 1 68 -29t27 -63q0 -63 -71 -98l-344 -160q-13 -6 -13 0l-28 33q-4 4 4 12l266 254q51 51 91 51zM892 1929q42 1 68 -29t25 -63q0 -63 -72 -98l-344 -160q-8 -4 -12 0l-29 33q-4 4 4 12l267 254q51 51 93 51zM864 1391q-2 0 -20 1q-117 6 -214 -64
q-134 -97 -197 -276q-48 -138 -48 -299t53 -309t133 -226q161 -159 314 -159q117 1 208 51t140 122t90 189q41 118 41 273q0 156 -50 293q-88 242 -289 355q-85 49 -161 49zM872 1481q281 0 484 -164q279 -227 278 -606q0 -260 -151 -451q-111 -137 -255 -214t-371 -77
t-451 135q-121 74 -210 237t-90 370q0 274 189 508q212 262 577 262z" />
    <glyph glyph-name="ohungarumlaut" unicode="&#x151;" horiz-adv-x="1044" 
d="M832 1346q60 0 73 -60q12 -60 -41 -98l-262 -193q-8 -8 -14 0l-23 21q-8 8 0 16l164 246q43 68 103 68zM540 1346q60 0 75 -58t-40 -100l-260 -193q-8 -8 -16 0l-25 21q-8 8 0 16l164 246q42 68 102 68zM299 446q-1 -196 59 -290t162 -95q102 0 156 108q53 109 53 269
t-67 259q-68 99 -147 99t-128 -55q-88 -99 -88 -295zM535 879q177 0 303 -121q141 -142 141 -318t-129 -320t-340 -144t-334 147q-66 77 -88 147t-22 161t43 186t129 163q120 99 297 99z" />
    <glyph glyph-name="OE" unicode="&#x152;" horiz-adv-x="2332" 
d="M1005 1376q-58 16 -131 15t-91 -5q-19 -4 -43 -9q-69 -14 -126 -56q-121 -88 -175 -243q-54 -156 -54 -325t51 -315t131 -226q159 -157 334 -157q131 -1 213 55t94 136v958q-29 68 -87 112t-116 60zM1696 70q102 0 192 8q78 0 156 65q29 27 95 104q67 77 97 118
q12 12 25 4l29 -17q12 -6 12 -16l-102 -311q-16 -31 -41 -31l-861 6q-70 0 -188 -15t-221 -16q-281 0 -483 133q-127 88 -213 248t-87 375q0 272 177 487q113 139 273 204t304 65q144 1 274 -15t185 -16h688l98 8q12 0 17 -12q82 -288 88 -316t-2 -32l-29 -17q-15 -7 -25 9
t-101 113t-120 116q-76 53 -147 53l-324 8l-4 -592q197 0 238 11q66 15 96 77t31 111q0 16 16 17l49 -5q18 0 17 -16q-4 -33 -4 -172t12 -274q0 -14 -17 -19l-45 -8q-6 -2 -10 2t-7 18t-32 101q-33 68 -102 74q-111 12 -242 12v-123l8 -348q0 -82 16 -116t65 -47
q47 -13 149 -13z" />
    <glyph glyph-name="oe" unicode="&#x153;" horiz-adv-x="1540" 
d="M1198 594q59 0 59 37q0 172 -143 172q-129 0 -170 -209h254zM520 57q94 -1 150 101t55 277q0 175 -60 268q-61 93 -145 93t-137 -61q-84 -96 -84 -293q0 -109 13 -172t55 -123q59 -90 153 -90zM1434 518h-494q-4 -20 -4 -67q0 -152 80 -242t217 -90t211 123q10 20 24 10
l33 -23q14 -8 0 -28q-119 -225 -350 -225t-328 143h-8q-102 -143 -312 -143t-329 145q-109 131 -108 313q0 80 39 172q40 92 124 166q123 106 308 106t303 -147q115 147 315 148q92 0 161 -37q109 -59 152 -197q16 -51 17 -94q0 -33 -51 -33z" />
    <glyph glyph-name="Racute" unicode="&#x154;" horiz-adv-x="1464" 
d="M954 1927q44 0 70 -29t25 -65q0 -63 -76 -98l-344 -160q-9 -6 -15 0l-24 33q-8 8 4 16l280 268q36 35 80 35zM628 713q56 -1 128 27q121 46 179 161q44 86 44 164q0 147 -94 232t-267 85q-54 0 -76 -13t-22 -58l-4 -590q56 -8 112 -8zM512 537q0 -321 10 -391t51 -70h103
q16 0 16 -15v-49q0 -18 -22 -18l-281 6q-185 0 -225 -3t-45 -3q-16 0 -17 18v47q0 16 13 17h69q78 0 78 67q4 205 4 590v539q0 102 -65 102h-80q-14 0 -15 12v56q0 14 15 14l31 -2l249 -4l365 6q229 0 373 -129q111 -98 110 -229q0 -340 -381 -402v-8q70 -25 123 -94
q12 -16 96 -144t155 -225q71 -96 91 -114q43 -39 146 -39q16 0 16 -15v-43q0 -20 -16 -20l-201 6q-45 0 -180 -6q-34 25 -68 80t-154 268t-199 278q-40 32 -99 31q-21 0 -66 -4v-110z" />
    <glyph glyph-name="racute" unicode="&#x155;" horiz-adv-x="733" 
d="M328 997l-25 21q-8 8 0 16l166 246q47 68 100 66q39 2 64 -28t19 -71t-46 -69l-262 -181q-8 -8 -16 0zM57 -6q-14 0 -14 14v45q0 16 18 17h72q53 0 53 55v401q0 70 -15 103t-62 57l-37 21q-16 6 -17 16v12q0 10 17 19l247 116q25 8 36 8t16 -24l18 -152h8
q113 184 246 185q49 0 78 -30t29 -73q0 -42 -35 -76t-74 -34t-72 16q-23 16 -65 16t-73 -50q-30 -52 -30 -109v-391q-1 -50 13 -68t45 -18h90q16 0 16 -15v-47q0 -14 -14 -14l-254 6q-143 0 -189 -3t-51 -3z" />
    <glyph glyph-name="Rcommaaccent" unicode="&#x156;" horiz-adv-x="1464" 
d="M901 -280q0 -72 -42 -144t-78 -104t-64 -50q-25 -12 -33 -12q-16 0 -16 12t12 25q115 102 115 201q0 31 -29 49q-68 25 -83 65q-7 18 -7 44t23 49q24 23 68 23t89 -43q45 -42 45 -115zM628 713q56 -1 128 27q121 46 179 161q44 86 44 164q0 147 -94 232t-267 85
q-54 0 -76 -13t-22 -58l-4 -590q56 -8 112 -8zM512 537q0 -321 10 -391t51 -70h103q16 0 16 -15v-49q0 -18 -22 -18l-281 6q-185 0 -225 -3t-45 -3q-16 0 -17 18v47q0 16 13 17h69q78 0 78 67q4 205 4 590v539q0 102 -65 102h-80q-14 0 -15 12v56q0 14 15 14l31 -2l249 -4
l365 6q229 0 373 -129q111 -98 110 -229q0 -340 -381 -402v-8q70 -25 123 -94q12 -16 96 -144t155 -225q71 -96 91 -114q43 -39 146 -39q16 0 16 -15v-43q0 -20 -16 -20l-201 6q-45 0 -180 -6q-34 25 -68 80t-154 268t-199 278q-40 32 -99 31q-21 0 -66 -4v-110z" />
    <glyph glyph-name="rcommaaccent" unicode="&#x157;" horiz-adv-x="733" 
d="M432 -280q0 -72 -42 -144t-78 -104t-64 -50q-25 -12 -33 -12q-16 0 -16 12t12 25q115 102 115 201q0 37 -43 55q-76 29 -76 100q0 29 23 52q24 23 68 23t89 -43q45 -42 45 -115zM57 -6q-14 0 -14 14v45q0 16 18 17h72q53 0 53 55v401q0 70 -15 103t-62 57l-37 21
q-16 6 -17 16v12q0 10 17 19l247 116q25 8 36 8t16 -24l18 -152h8q113 184 246 185q49 0 78 -30t29 -73q0 -42 -35 -76t-74 -34t-72 16q-23 16 -65 16t-73 -50q-30 -52 -30 -109v-391q-1 -50 13 -68t45 -18h90q16 0 16 -15v-47q0 -14 -14 -14l-254 6q-143 0 -189 -3t-51 -3z
" />
    <glyph glyph-name="Rcaron" unicode="&#x158;" horiz-adv-x="1464" 
d="M696 1569q-8 0 -39 24l-260 256q-8 8 -2 15l13 20q6 6 20 0l279 -106l249 104q16 8 21 2l16 -20q6 -6 -4 -17l-268 -260q-17 -18 -25 -18zM628 713q56 -1 128 27q121 46 179 161q44 86 44 164q0 147 -94 232t-267 85q-54 0 -76 -13t-22 -58l-4 -590q56 -8 112 -8z
M512 537q0 -321 10 -391t51 -70h103q16 0 16 -15v-49q0 -18 -22 -18l-281 6q-185 0 -225 -3t-45 -3q-16 0 -17 18v47q0 16 13 17h69q78 0 78 67q4 205 4 590v539q0 102 -65 102h-80q-14 0 -15 12v56q0 14 15 14l31 -2l249 -4l365 6q229 0 373 -129q111 -98 110 -229
q0 -340 -381 -402v-8q70 -25 123 -94q12 -16 96 -144t155 -225q71 -96 91 -114q43 -39 146 -39q16 0 16 -15v-43q0 -20 -16 -20l-201 6q-45 0 -180 -6q-34 25 -68 80t-154 268t-199 278q-40 32 -99 31q-21 0 -66 -4v-110z" />
    <glyph glyph-name="rcaron" unicode="&#x159;" horiz-adv-x="733" 
d="M377 1204l205 127q14 8 20 4l16 -20q8 -8 -2 -21l-219 -278q-16 -16 -25 -16t-24 20l-227 276q-10 10 -2 19l16 16q4 10 17 4zM57 -6q-14 0 -14 14v45q0 16 18 17h72q53 0 53 55v401q0 70 -15 103t-62 57l-37 21q-16 6 -17 16v12q0 10 17 19l247 116q25 8 36 8t16 -24
l18 -152h8q113 184 246 185q49 0 78 -30t29 -73q0 -42 -35 -76t-74 -34t-72 16q-23 16 -65 16t-73 -50q-30 -52 -30 -109v-391q-1 -50 13 -68t45 -18h90q16 0 16 -15v-47q0 -14 -14 -14l-254 6q-143 0 -189 -3t-51 -3z" />
    <glyph glyph-name="Sacute" unicode="&#x15a;" horiz-adv-x="1130" 
d="M786 1927q44 0 70 -29t25 -65q0 -63 -76 -98l-344 -160q-9 -6 -15 0l-24 33q-8 8 4 16l281 268q35 35 79 35zM574 59q88 -1 174 61q84 62 84 188t-66 192t-246 134t-286 166t-107 284q0 186 143 298q114 98 270 98t279 -48q27 -10 43 6l27 26q12 12 29 13q16 1 16 -25
t16 -183t16 -166t-12 -13l-32 -11q-14 -4 -21 13q-47 133 -127 218t-202 85t-181 -68t-59 -139q0 -123 57 -184q73 -74 263 -132t287 -161t97 -291t-118 -320q-118 -131 -326 -131q-207 0 -338 99q-37 24 -48 24q-12 0 -30 -31t-41 -30q-25 0 -24 32q2 13 18 191
q17 178 19 192t12 15l45 -4q12 0 12 -17q8 -123 78 -233q92 -148 279 -148z" />
    <glyph glyph-name="sacute" unicode="&#x15b;" horiz-adv-x="757" 
d="M330 997l-25 21q-8 8 0 16l166 246q47 68 100 66q39 2 64 -28t19 -71t-46 -69l-262 -181q-8 -8 -16 0zM384 55q64 0 106 35t42 92t-43 92t-153 66q-250 74 -250 256q0 141 101 212t217 71t198 -45q37 -18 39 -37l27 -140q4 -16 -2 -22l-39 -19q-10 -4 -17 9l-98 110
q-60 63 -124 63t-105 -32q-41 -33 -41 -88t41 -83q41 -27 161 -59t184 -98t64 -181q0 -116 -95 -199t-247 -83q-74 1 -137 19t-84 35q-14 14 -16 22l-33 207q-4 12 6 16l39 13q14 4 18 -6l68 -115q33 -55 71 -83t102 -28z" />
    <glyph glyph-name="Scedilla" unicode="&#x15e;" horiz-adv-x="1130" 
d="M574 59q88 -1 174 61q84 62 84 188t-66 192t-246 134t-286 166t-107 284q0 186 143 298q114 98 270 98t279 -48q27 -10 43 6l27 26q12 12 29 13q16 1 16 -25t16 -183t16 -166t-12 -13l-32 -11q-14 -4 -21 13q-47 133 -127 218t-202 85t-181 -68t-59 -139q0 -123 57 -184
q73 -74 263 -132t287 -161t97 -289t-110 -316q-111 -129 -299 -137l-97 -116q78 -13 123 -55t45 -93q0 -90 -114 -145t-267 -56q-45 0 -45 41q0 33 66 33t115 30t49 81q0 78 -127 102l143 182q-158 14 -264 95q-37 24 -48 24q-12 0 -30 -31t-41 -30q-25 0 -24 32
q2 13 18 191q17 178 19 192t12 15l45 -4q12 0 12 -17q8 -123 78 -233q92 -148 279 -148z" />
    <glyph glyph-name="scedilla" unicode="&#x15f;" horiz-adv-x="757" 
d="M384 55q64 0 106 35t42 92t-43 92t-153 66q-250 74 -250 256q0 141 101 212t217 71t198 -45q37 -18 39 -37l27 -140q4 -16 -2 -22l-39 -19q-10 -4 -17 9l-98 110q-60 63 -124 63t-105 -32q-41 -33 -41 -88t41 -83q41 -27 161 -59t184 -98t64 -166t-58 -175t-157 -103
l-110 -129q67 -14 109 -56t42 -92q0 -90 -106 -145t-246 -55q-41 0 -41 41q0 28 62 28t113 30q50 30 50 81q0 78 -131 102l139 176h-8q-74 1 -137 19t-84 35q-14 14 -16 22l-33 207q-4 12 6 16l39 13q14 4 18 -6l68 -115q33 -55 71 -83t102 -28z" />
    <glyph glyph-name="Scaron" unicode="&#x160;" horiz-adv-x="1130" 
d="M610 1569q-8 0 -39 24l-260 256q-8 8 -2 15l13 20q6 6 20 0l279 -106l249 104q16 8 21 2l16 -20q6 -6 -4 -17l-268 -260q-17 -18 -25 -18zM574 59q88 -1 174 61q84 62 84 188t-66 192t-246 134t-286 166t-107 284q0 186 143 298q114 98 270 98t279 -48q27 -10 43 6l27 26
q12 12 29 13q16 1 16 -25t16 -183t16 -166t-12 -13l-32 -11q-14 -4 -21 13q-47 133 -127 218t-202 85t-181 -68t-59 -139q0 -123 57 -184q73 -74 263 -132t287 -161t97 -291t-118 -320q-118 -131 -326 -131q-207 0 -338 99q-37 24 -48 24q-12 0 -30 -31t-41 -30
q-25 0 -24 32q2 13 18 191q17 178 19 192t12 15l45 -4q12 0 12 -17q8 -123 78 -233q92 -148 279 -148z" />
    <glyph glyph-name="scaron" unicode="&#x161;" horiz-adv-x="757" 
d="M414 1204l204 127q14 8 21 4l16 -20q8 -8 -2 -21l-219 -278q-16 -16 -25 -16t-24 20l-227 276q-10 10 -2 19l16 16q4 10 16 4zM384 55q64 0 106 35t42 92t-43 92t-153 66q-250 74 -250 256q0 141 101 212t217 71t198 -45q37 -18 39 -37l27 -140q4 -16 -2 -22l-39 -19
q-10 -4 -17 9l-98 110q-60 63 -124 63t-105 -32q-41 -33 -41 -88t41 -83q41 -27 161 -59t184 -98t64 -181q0 -116 -95 -199t-247 -83q-74 1 -137 19t-84 35q-14 14 -16 22l-33 207q-4 12 6 16l39 13q14 4 18 -6l68 -115q33 -55 71 -83t102 -28z" />
    <glyph glyph-name="uni0162" unicode="&#x162;" horiz-adv-x="1478" 
d="M885 -295q0 -90 -114 -145t-267 -56q-45 0 -45 41q0 33 65 33t115 30q49 30 49 81q0 78 -127 102l166 209q-199 0 -257 -3t-64 -3q-16 0 -17 18v47q0 16 14 17h117q62 0 68 54t6 722v512h-57q-213 0 -299 -29q-68 -31 -183 -233q-12 -18 -22 -15l-41 15q-10 6 -8 20
l98 377q6 37 24 37q12 0 33 -20q49 -49 140 -54q332 -12 397 -12h110q123 0 406 12q29 2 77 20q49 18 73 36t36 18t19 -33q6 -61 61 -389q2 -14 -8 -18l-41 -15q-8 -2 -18 17q-88 176 -162 229q-63 37 -316 37h-57v-1092q0 -112 15 -154t55 -42h118q12 0 13 -19v-43
q0 -20 -21 -20l-198 6l-121 -147q78 -13 123 -55t45 -93z" />
    <glyph glyph-name="uni0163" unicode="&#x163;" horiz-adv-x="677" 
d="M180 741h-119q-29 0 -28 29q0 25 43 40t143 105t133 152q10 20 34 20t24 -28l-9 -203h271q18 0 14 -16l-20 -86q-2 -12 -21 -13h-248q-6 -129 -6 -274v-184q0 -105 34 -149t75 -44q70 0 118 25q20 8 25 -4l12 -25q4 -16 -8 -29q-68 -45 -115 -59l-114 -133
q68 -14 110 -56t41 -92q0 -90 -106 -145t-246 -55q-41 0 -41 41q0 28 62 28t113 30q50 30 50 81q0 78 -131 102l140 176h-21q-88 1 -151 59t-64 126l6 315v266z" />
    <glyph glyph-name="Tcaron" unicode="&#x164;" horiz-adv-x="1478" 
d="M742 1569q-8 0 -37 24l-261 256q-8 8 -2 15l13 20q6 6 20 0l279 -106l250 104q16 8 20 2l16 -20q6 -6 -4 -17l-268 -260q-18 -18 -26 -18zM406 -6q-16 0 -17 18v47q0 16 14 17h117q62 0 68 54t6 722v512h-57q-213 0 -299 -29q-68 -31 -183 -233q-12 -18 -22 -15l-41 15
q-10 6 -8 20l98 377q6 37 24 37q12 0 33 -20q49 -49 140 -54q332 -12 397 -12h110q123 0 406 12q29 2 77 20q49 18 73 36t36 18t19 -33q6 -61 61 -389q2 -14 -8 -18l-41 -15q-8 -2 -18 17q-88 176 -162 229q-63 37 -316 37h-57v-1092q0 -112 15 -154t55 -42h118q12 0 13 -19
v-43q0 -20 -21 -20l-307 6q-201 0 -259 -3t-64 -3z" />
    <glyph glyph-name="tcaron" unicode="&#x165;" horiz-adv-x="677" 
d="M778 1309q0 -172 -174 -295q-18 -12 -37 -12t-18 12q0 8 14 24q98 104 99 197q0 29 -21 49q-36 21 -54 41t-18 58q0 37 28 59q27 22 65 22t77 -42t39 -113zM180 741h-119q-29 0 -28 29q0 25 43 40t143 105t133 152q10 20 34 20t24 -28l-9 -203h271q18 0 14 -16l-20 -86
q-2 -12 -21 -13h-248q-6 -129 -6 -274v-184q0 -105 34 -149t75 -44q70 0 118 25q20 8 25 -4l12 -25q4 -16 -8 -29q-115 -82 -258 -82q-88 1 -151 59t-64 126l6 315v266z" />
    <glyph glyph-name="Umacron" unicode="&#x16a;" horiz-adv-x="1525" 
d="M1085 1651h-524q-16 0 -16 16v105q0 16 16 16h529q16 0 16 -16v-105q-1 -16 -21 -16zM1509 1440v-47q0 -18 -12 -19h-74q-72 0 -86 -80q-4 -26 -4 -354t-12 -451q-17 -256 -165 -388t-380 -132q-178 0 -295 49q-178 74 -241 275q-37 116 -37 493v486q1 53 -15 78t-55 24
h-94q-16 0 -16 19v47q0 16 20 16l315 -6l295 6q16 0 17 -14v-51q0 -16 -17 -17h-86q-94 0 -102 -100q-4 -54 -4 -246v-254q0 -215 6 -313q12 -174 72 -254q94 -127 278 -127q74 0 151 26q243 84 242 418v369q0 219 -22 391q-4 41 -28 66t-56 24h-74q-16 0 -16 15v51
q0 16 16 16l250 -6l209 6q20 0 20 -16z" />
    <glyph glyph-name="umacron" unicode="&#x16b;" horiz-adv-x="1077" 
d="M758 1085h-447q-16 0 -16 13v104q0 12 16 12h451q20 0 20 -12v-104q1 -13 -24 -13zM915 418q-1 -196 7 -252t43 -55q41 0 65 3t25 -8l6 -32q2 -14 -10 -19l-254 -71q-25 -8 -41 -9q-27 0 -29 25l-12 115h-13q-36 -57 -114 -99t-142 -41q-64 0 -89 3q-27 4 -65 24t-80 75
t-54 113t-13 162l2 213q0 123 -4 148q-8 68 -71 73q-45 6 -45 17v37q0 16 24 16h246l53 8q20 0 21 -24l-9 -256v-129q0 -10 -2 -98t12 -136q15 -49 32 -76t43 -40t39 -14q14 -1 50 -1t76 23t66 55q23 35 22 65v484q0 61 -88 69q-41 4 -41 17v37q0 16 25 16h254l61 8
q16 0 17 -20q0 -4 -6 -56t-7 -221v-149z" />
    <glyph glyph-name="Uring" unicode="&#x16e;" horiz-adv-x="1525" 
d="M829 1667q94 0 95 111q0 51 -27 80q-27 30 -69 28t-67 -34q-26 -32 -26 -74q0 -111 94 -111zM838 1954q106 0 166 -47t59 -131q0 -84 -76 -130t-171 -47q-95 1 -163 47q-67 46 -67 124t72 132q74 52 180 52zM1509 1440v-47q0 -18 -12 -19h-74q-72 0 -86 -80
q-4 -26 -4 -354t-12 -451q-17 -256 -165 -388t-380 -132q-178 0 -295 49q-178 74 -241 275q-37 116 -37 493v486q1 53 -15 78t-55 24h-94q-16 0 -16 19v47q0 16 20 16l315 -6l295 6q16 0 17 -14v-51q0 -16 -17 -17h-86q-94 0 -102 -100q-4 -54 -4 -246v-254q0 -215 6 -313
q12 -174 72 -254q94 -127 278 -127q74 0 151 26q243 84 242 418v369q0 219 -22 391q-4 41 -28 66t-56 24h-74q-16 0 -16 15v51q0 16 16 16l250 -6l209 6q20 0 20 -16z" />
    <glyph glyph-name="uring" unicode="&#x16f;" horiz-adv-x="1077" 
d="M538 1073q42 0 68 28t27 76q1 49 -25 73t-67 24t-67 -28t-26 -72t24 -73q24 -28 66 -28zM546 1339q95 0 155 -43t61 -108q6 -80 -63 -128t-166 -48t-157 44t-60 116t67 119q68 48 163 48zM915 418q-1 -196 7 -252t43 -55q41 0 65 3t25 -8l6 -32q2 -14 -10 -19l-254 -71
q-25 -8 -41 -9q-27 0 -29 25l-12 115h-13q-36 -57 -114 -99t-142 -41q-64 0 -89 3q-27 4 -65 24t-80 75t-54 113t-13 162l2 213q0 123 -4 148q-8 68 -71 73q-45 6 -45 17v37q0 16 24 16h246l53 8q20 0 21 -24l-9 -256v-129q0 -10 -2 -98t12 -136q15 -49 32 -76t43 -40
t39 -14q14 -1 50 -1t76 23t66 55q23 35 22 65v484q0 61 -88 69q-41 4 -41 17v37q0 16 25 16h254l61 8q16 0 17 -20q0 -4 -6 -56t-7 -221v-149z" />
    <glyph glyph-name="Uhungarumlaut" unicode="&#x170;" horiz-adv-x="1525" 
d="M1119 1929q40 1 68 -29t27 -63q0 -63 -71 -98l-344 -160q-13 -6 -13 0l-28 33q-4 4 4 12l266 254q51 51 91 51zM765 1929q42 1 68 -29t25 -63q0 -63 -72 -98l-344 -160q-8 -4 -12 0l-29 33q-4 4 5 12l266 254q51 51 93 51zM1509 1440v-47q0 -18 -12 -19h-74
q-72 0 -86 -80q-4 -26 -4 -354t-12 -451q-17 -256 -165 -388t-380 -132q-178 0 -295 49q-178 74 -241 275q-37 116 -37 493v486q1 53 -15 78t-55 24h-94q-16 0 -16 19v47q0 16 20 16l315 -6l295 6q16 0 17 -14v-51q0 -16 -17 -17h-86q-94 0 -102 -100q-4 -54 -4 -246v-254
q0 -215 6 -313q12 -174 72 -254q94 -127 278 -127q74 0 151 26q243 84 242 418v369q0 219 -22 391q-4 41 -28 66t-56 24h-74q-16 0 -16 15v51q0 16 16 16l250 -6l209 6q20 0 20 -16z" />
    <glyph glyph-name="uhungarumlaut" unicode="&#x171;" horiz-adv-x="1077" 
d="M808 1346q60 0 72 -60t-40 -98l-262 -193q-9 -8 -15 0l-22 21q-8 8 0 16l164 246q43 68 103 68zM516 1346q58 0 74 -58t-39 -100l-260 -193q-9 -8 -17 0l-24 21q-8 8 0 16l164 246q43 68 102 68zM915 418q-1 -196 7 -252t43 -55q41 0 65 3t25 -8l6 -32q2 -14 -10 -19
l-254 -71q-25 -8 -41 -9q-27 0 -29 25l-12 115h-13q-36 -57 -114 -99t-142 -41q-64 0 -89 3q-27 4 -65 24t-80 75t-54 113t-13 162l2 213q0 123 -4 148q-8 68 -71 73q-45 6 -45 17v37q0 16 24 16h246l53 8q20 0 21 -24l-9 -256v-129q0 -10 -2 -98t12 -136q15 -49 32 -76
t43 -40t39 -14q14 -1 50 -1t76 23t66 55q23 35 22 65v484q0 61 -88 69q-41 4 -41 17v37q0 16 25 16h254l61 8q16 0 17 -20q0 -4 -6 -56t-7 -221v-149z" />
    <glyph glyph-name="Uogonek" unicode="&#x172;" horiz-adv-x="1525" 
d="M1509 1440v-47q0 -18 -12 -19h-74q-72 0 -86 -80q-4 -25 -4 -333t-12 -472q-23 -258 -174 -393q-33 -30 -110 -74t-97 -63q-133 -104 -133 -276q0 -113 90 -113q43 0 111 63q26 31 46 31t20 -39t-85 -102q-84 -63 -168 -63t-147 48q-63 49 -64 148q0 164 224 317
q-23 -4 -66 -4q-170 0 -287 49q-178 74 -241 275q-37 117 -37 493v486q1 53 -15 78t-55 24h-94q-16 0 -16 19v47q0 16 20 16l315 -6l295 6q16 0 17 -14v-51q0 -16 -17 -17h-86q-94 0 -102 -100q-4 -54 -4 -246v-254q0 -215 6 -313q12 -174 72 -254q94 -127 278 -127
q74 0 152 26q242 82 241 418v369q0 219 -22 391q-4 41 -28 66t-56 24h-74q-16 0 -16 15v51q0 16 16 16l250 -6l209 6q20 0 20 -16z" />
    <glyph glyph-name="uogonek" unicode="&#x173;" horiz-adv-x="1077" 
d="M915 418q-1 -196 7 -252t43 -55q41 1 65 3t25 -8l6 -32q2 -14 -10 -19q-94 -31 -148 -59q-82 -43 -124 -122t-42 -168t76 -89q45 0 102 57q27 27 41 27q20 0 20 -35t-76 -92t-150 -57t-132 45q-57 45 -57 131q0 141 191 280q-35 90 -39 146l-11 -4q-36 -57 -114 -99
t-142 -41q-64 0 -89 3q-27 4 -65 24t-80 75t-54 113t-13 162l2 213q0 123 -4 148q-8 68 -71 73q-45 6 -45 17v37q0 16 24 16h246l53 8q20 0 21 -24l-9 -256v-129q0 -10 -2 -98t12 -136q15 -49 32 -76t43 -40t39 -14q14 -1 50 -1t76 23t66 55q23 35 22 65v484q0 61 -88 69
q-41 4 -41 17v37q0 16 25 16h254l61 8q16 0 17 -20q0 -4 -6 -56t-7 -221v-149z" />
    <glyph glyph-name="Ydieresis" unicode="&#x178;" horiz-adv-x="1433" 
d="M1155 1726q0 -52 -33 -84t-79 -32t-86 28t-39 95q0 35 30 71t85 35q54 0 88 -31t34 -82zM717 1726q0 -52 -32 -84t-77 -32t-85 28t-40 80q0 50 31 86t85 35q54 0 86 -31t32 -82zM1481 1395q0 -20 -17 -21h-45q-66 0 -110 -47q-25 -29 -209 -313t-242 -383v-250
q0 -169 5 -225t25 -68t56 -12h68q14 0 14 -15v-47q0 -20 -14 -20l-289 6q-191 0 -237 -3t-48 -3q-14 0 -14 18v47q0 16 14 17h84q68 0 72 51q6 86 6 381v98q-47 88 -216 382t-206 341q-39 45 -102 45h-37q-16 0 -16 15v55q0 12 16 12l270 -6l303 6q16 0 17 -14v-47
q0 -20 -17 -21h-53q-63 0 -57 -59q4 -34 145 -300q140 -266 160 -306q334 551 338 591q8 74 -70 74h-53q-16 0 -16 17v51q0 14 12 14l250 -6l196 6q16 0 17 -14v-47z" />
    <glyph glyph-name="Zacute" unicode="&#x179;" horiz-adv-x="1441" 
d="M982 1927q44 0 70 -29t25 -65q0 -63 -76 -98l-344 -160q-8 -6 -14 0l-25 33q-8 8 5 16l280 268q35 35 79 35zM1322 1462q30 0 37 -16t-5 -33q-207 -285 -963 -1335h545q102 0 139 15t135 121t144 163q10 10 24 4l33 -16q8 -8 4 -21q-41 -63 -151 -352q-8 -23 -24 -23
t-54 6q-172 25 -627 25h-469q-31 0 -31 19t13 38q684 950 946 1319h-475q-49 0 -91 -28t-138 -137q-95 -110 -128 -158q-10 -16 -24 -9l-29 17q-8 0 -8 16l131 365q4 23 25 22q11 0 69 -7t533 -7l270 4q139 8 169 8z" />
    <glyph glyph-name="zacute" unicode="&#x17a;" horiz-adv-x="909" 
d="M416 997l-25 21q-8 8 0 16l166 246q47 68 100 66q39 2 64 -28t19 -71t-46 -69l-262 -181q-8 -8 -16 0zM354 0h-262q-37 0 -8 45l496 746h-181q-92 0 -146 -37t-173 -189q-10 -12 -21 -6l-28 16q-10 6 -4 23l123 289q142 -31 389 -31h299q16 0 22 -10t-2 -23l-512 -753
h234q121 0 299 219q10 12 22 6l27 -21q10 -8 4 -20l-148 -279q-81 25 -430 25z" />
    <glyph glyph-name="Zdotaccent" unicode="&#x17b;" horiz-adv-x="1441" 
d="M771 1614q-52 0 -95 30t-43 85t36 95t94 40t93 -36t35 -92t-34 -89t-86 -33zM1322 1462q30 0 37 -16t-5 -33q-207 -285 -963 -1335h545q102 0 139 15t135 121t144 163q10 10 24 4l33 -16q8 -8 4 -21q-41 -63 -151 -352q-8 -23 -24 -23t-54 6q-172 25 -627 25h-469
q-31 0 -31 19t13 38q684 950 946 1319h-475q-49 0 -91 -28t-138 -137q-95 -110 -128 -158q-10 -16 -24 -9l-29 17q-8 0 -8 16l131 365q4 23 25 22q11 0 69 -7t533 -7l270 4q139 8 169 8z" />
    <glyph glyph-name="zdotaccent" unicode="&#x17c;" horiz-adv-x="909" 
d="M627 1208q0 -45 -34 -82q-34 -36 -91 -36t-95 32t-38 80q0 49 39 83t97 34t90 -33t32 -78zM354 0h-262q-37 0 -8 45l496 746h-181q-92 0 -146 -37t-173 -189q-10 -12 -21 -6l-28 16q-10 6 -4 23l123 289q142 -31 389 -31h299q16 0 22 -10t-2 -23l-512 -753h234
q121 0 299 219q10 12 22 6l27 -21q10 -8 4 -20l-148 -279q-81 25 -430 25z" />
    <glyph glyph-name="Zcaron" unicode="&#x17d;" horiz-adv-x="1441" 
d="M816 1569q-8 0 -38 24l-260 256q-8 8 -2 15l12 20q6 6 21 0l278 -106l250 104q16 8 21 2l16 -20q6 -6 -4 -17l-268 -260q-18 -18 -26 -18zM1322 1462q30 0 37 -16t-5 -33q-207 -285 -963 -1335h545q102 0 139 15t135 121t144 163q10 10 24 4l33 -16q8 -8 4 -21
q-41 -63 -151 -352q-8 -23 -24 -23t-54 6q-172 25 -627 25h-469q-31 0 -31 19t13 38q684 950 946 1319h-475q-49 0 -91 -28t-138 -137q-95 -110 -128 -158q-10 -16 -24 -9l-29 17q-8 0 -8 16l131 365q4 23 25 22q11 0 69 -7t533 -7l270 4q139 8 169 8z" />
    <glyph glyph-name="zcaron" unicode="&#x17e;" horiz-adv-x="909" 
d="M496 1204l204 127q14 8 21 4l16 -20q8 -8 -2 -21l-219 -278q-16 -16 -25 -16t-24 20l-227 276q-10 10 -2 19l16 16q4 10 16 4zM354 0h-262q-37 0 -8 45l496 746h-181q-92 0 -146 -37t-173 -189q-10 -12 -21 -6l-28 16q-10 6 -4 23l123 289q142 -31 389 -31h299
q16 0 22 -10t-2 -23l-512 -753h234q121 0 299 219q10 12 22 6l27 -21q10 -8 4 -20l-148 -279q-81 25 -430 25z" />
    <glyph glyph-name="longs" unicode="&#x17f;" horiz-adv-x="583" 
d="M39 10v47q0 12 20 13h82q53 0 54 69v615h-136q-16 0 -12 24l6 68q0 10 27 10h115v39q0 281 151 438q154 147 344 148q88 0 144 -33t57 -84q0 -51 -34 -80t-73 -29t-61 17q-31 10 -61 58t-78 48q-94 0 -143 -92q-19 -39 -23 -92q-4 -54 -6 -70t-2 -50v-501q0 -418 2 -446
q6 -57 57 -57h94q20 0 21 -19v-37q0 -20 -13 -20l-30 2l-240 4l-246 -6q-16 0 -16 16z" />
    <glyph glyph-name="florin" unicode="&#x192;" 
d="M-102 -131q0 47 20 73t57 25q80 0 107 -90q18 -61 82 -61t97 100q34 100 58 354l46 463h-152q-18 0 -12 17l16 49q4 12 16 12h144q35 285 170 437t313 151q102 0 162 -46q60 -45 59 -95q0 -96 -106 -97q-66 0 -90 94q-20 61 -82 62q-162 0 -197 -408l-8 -98h217
q20 0 16 -12l-12 -54q-2 -12 -24 -12h-209l-41 -373q-35 -311 -157 -469t-290 -157q-88 0 -144 44t-56 91z" />
    <glyph glyph-name="Scommaaccent" unicode="&#x218;" horiz-adv-x="1130" 
d="M692 -280q0 -72 -42 -144t-78 -104t-64 -50q-25 -12 -33 -12q-16 0 -16 12t12 25q115 102 115 201q0 31 -29 49q-90 34 -90 106q0 29 23 52q24 23 68 23t89 -43q45 -42 45 -115zM574 59q88 -1 174 61q84 62 84 188t-66 192t-246 134t-286 166t-107 284q0 186 143 298
q114 98 270 98t279 -48q27 -10 43 6l27 26q12 12 29 13q16 1 16 -25t16 -183t16 -166t-12 -13l-32 -11q-14 -4 -21 13q-47 133 -127 218t-202 85t-181 -68t-59 -139q0 -123 57 -184q73 -74 263 -132t287 -161t97 -291t-118 -320q-118 -131 -326 -131q-207 0 -338 99
q-37 24 -48 24q-12 0 -30 -31t-41 -30q-25 0 -24 32q2 13 18 191q17 178 19 192t12 15l45 -4q12 0 12 -17q8 -123 78 -233q92 -148 279 -148z" />
    <glyph glyph-name="scommaaccent" unicode="&#x219;" horiz-adv-x="757" 
d="M489 -280q0 -72 -42 -144q-41 -72 -77 -104t-65 -50q-25 -12 -33 -12q-16 0 -16 12t12 25q115 102 115 201q0 37 -43 55q-76 28 -76 100q0 29 24 52t68 23t88 -43q45 -42 45 -115zM384 55q64 0 106 35t42 92t-43 92t-153 66q-250 74 -250 256q0 141 101 212t217 71
t198 -45q37 -18 39 -37l27 -140q4 -16 -2 -22l-39 -19q-10 -4 -17 9l-98 110q-60 63 -124 63t-105 -32q-41 -33 -41 -88t41 -83q41 -27 161 -59t184 -98t64 -181q0 -116 -95 -199t-247 -83q-74 1 -137 19t-84 35q-14 14 -16 22l-33 207q-4 12 6 16l39 13q14 4 18 -6l68 -115
q33 -55 71 -83t102 -28z" />
    <glyph glyph-name="uni021A" unicode="&#x21a;" horiz-adv-x="1478" 
d="M825 -280q0 -72 -42 -144q-41 -72 -77 -104t-65 -50q-25 -12 -33 -12q-16 0 -16 12t12 25q115 102 115 201q0 37 -43 55q-76 29 -76 100q0 29 24 52t68 23t88 -43q45 -42 45 -115zM406 -6q-16 0 -17 18v47q0 16 14 17h117q62 0 68 54t6 722v512h-57q-213 0 -299 -29
q-68 -31 -183 -233q-12 -18 -22 -15l-41 15q-10 6 -8 20l98 377q6 37 24 37q12 0 33 -20q49 -49 140 -54q332 -12 397 -12h110q123 0 406 12q29 2 77 20q49 18 73 36t36 18t19 -33q6 -61 61 -389q2 -14 -8 -18l-41 -15q-8 -2 -18 17q-88 176 -162 229q-63 37 -316 37h-57
v-1092q0 -112 15 -154t55 -42h118q12 0 13 -19v-43q0 -20 -21 -20l-307 6q-201 0 -259 -3t-64 -3z" />
    <glyph glyph-name="uni021B" unicode="&#x21b;" horiz-adv-x="677" 
d="M508 -280q0 -72 -42 -144t-78 -104t-64 -50q-25 -12 -37 -12t-13 12q0 12 13 25q115 102 114 201q0 31 -28 49q-90 32 -90 106q0 29 23 52q24 23 68 23t89 -43q45 -42 45 -115zM180 741h-119q-29 0 -28 29q0 25 43 40t143 105t133 152q10 20 34 20t24 -28l-9 -203h271
q18 0 14 -16l-20 -86q-2 -12 -21 -13h-248q-6 -129 -6 -274v-184q0 -105 34 -149t75 -44q70 0 118 25q20 8 25 -4l12 -25q4 -16 -8 -29q-115 -82 -258 -82q-88 1 -151 59t-64 126l6 315v266z" />
    <glyph glyph-name="circumflex" unicode="&#x2c6;" horiz-adv-x="630" 
d="M312 1335q9 0 24 -20l227 -277q10 -10 2 -18l-16 -16q-4 -10 -17 -5l-225 136l-205 -131q-14 -8 -20 -5l-16 21q-8 8 2 20l219 279q16 16 25 16z" />
    <glyph glyph-name="caron" unicode="&#x2c7;" horiz-adv-x="630" 
d="M324 1204l204 127q14 8 21 4l16 -20q8 -8 -2 -21l-219 -278q-16 -16 -26 -16t-23 20l-227 276q-10 10 -2 19l16 16q4 10 16 4z" />
    <glyph glyph-name="uni02C9" unicode="&#x2c9;" horiz-adv-x="610" 
d="M524 1085h-446q-16 0 -17 13v104q0 12 17 12h450q20 0 21 -12v-104q0 -13 -25 -13z" />
    <glyph glyph-name="breve" unicode="&#x2d8;" horiz-adv-x="667" 
d="M330 995q-102 0 -177 71t-94 171q-4 20 4 25l23 12q8 4 20 -12q68 -109 226 -109q72 0 138 34t91 75q13 14 19 10l22 -12q8 -4 6 -23q-28 -90 -102 -166t-176 -76z" />
    <glyph glyph-name="dotaccent" unicode="&#x2d9;" horiz-adv-x="372" 
d="M196 1319q58 0 90 -33t31 -78q1 -45 -33 -82q-34 -36 -92 -36t-95 32q-38 32 -38 80q0 49 39 83q40 34 98 34z" />
    <glyph glyph-name="ring" unicode="&#x2da;" horiz-adv-x="557" 
d="M278 1073q42 0 68 28t27 76q1 49 -25 73t-67 24t-67 -28t-26 -72t24 -73q24 -28 66 -28zM286 1339q95 0 155 -43t61 -108q6 -80 -63 -128t-166 -48t-157 44t-60 116t67 119q68 48 163 48z" />
    <glyph glyph-name="ogonek" unicode="&#x2db;" horiz-adv-x="512" 
d="M221 -483q-74 0 -131 45t-57 131q0 152 239 307h95q-72 -55 -115 -133t-43 -164t76 -86q45 0 102 57q27 27 41 27q20 0 20 -35t-76 -92q-77 -57 -151 -57z" />
    <glyph glyph-name="tilde" unicode="&#x2dc;" horiz-adv-x="700" 
d="M594 1249h37q14 1 4 -51t-54 -104q-45 -52 -99 -52t-146 29t-126 29q-75 0 -87 -80q0 -8 -12 -8h-39q-12 0 -6 32q12 84 57 138t102 55q57 0 153 -31t134 -30q53 0 70 61q4 12 12 12z" />
    <glyph glyph-name="hungarumlaut" unicode="&#x2dd;" horiz-adv-x="749" 
d="M642 1346q60 0 72 -60t-40 -98l-262 -193q-7 -8 -15 0l-22 21q-8 8 0 16l164 246q43 68 103 68zM350 1346q58 0 74 -58t-39 -100l-260 -193q-8 -8 -16 0l-25 21q-8 8 0 16l164 246q43 68 102 68z" />
    <glyph glyph-name="pi" unicode="&#x3c0;" horiz-adv-x="1150" 
d="M924 903q64 0 86 10q20 10 41 50l57 -11q-14 -150 -53 -209q-29 -10 -154 -10q-8 -104 -8 -432q2 -168 80 -168q37 0 86 21l26 -50q-39 -53 -99 -91t-118 -38q-168 0 -168 265q0 195 17 497q-123 4 -268 4v-24q0 -209 -34 -430t-83 -275q-78 -33 -144 -37l-20 41
q84 127 127 342t43 385q-162 3 -268 -67l-31 53q103 133 229 165q68 17 152 15l256 -2q184 -4 248 -4z" />
    <glyph glyph-name="uni2010" unicode="&#x2010;" horiz-adv-x="823" 
d="M717 596v-96q0 -18 -25 -19h-573q-16 0 -17 13v106q0 16 17 16h573q25 0 25 -20z" />
    <glyph glyph-name="figuredash" unicode="&#x2012;" 
d="M942 481h-860v135h860v-135z" />
    <glyph glyph-name="endash" unicode="&#x2013;" 
d="M0 481v135h1024v-135h-1024z" />
    <glyph glyph-name="emdash" unicode="&#x2014;" horiz-adv-x="2048" 
d="M0 481v135h2048v-135h-2048z" />
    <glyph glyph-name="quoteleft" unicode="&#x2018;" horiz-adv-x="401" 
d="M197 1216q0 -56 28 -71q12 -1 33 -13l35 -21t27 -37t12 -65q0 -36 -32 -67t-92 -31q-60 -1 -113 53q-54 54 -54 133q0 192 171 326q28 23 50 37q41 20 49 21q20 0 21 -17q0 -18 -21 -32q-37 -32 -75 -96t-39 -120z" />
    <glyph glyph-name="quoteright" unicode="&#x2019;" horiz-adv-x="401" 
d="M205 1178q0 58 -29 65l-24 10q-23 13 -37 23q-45 34 -45 88q0 55 31 86t91 31q60 1 114 -53t54 -145t-51 -176q-78 -131 -170 -175q-27 -20 -48 -20t-21 16q0 18 20 28q35 32 75 98t40 124z" />
    <glyph glyph-name="quotesinglbase" unicode="&#x201a;" horiz-adv-x="401" 
d="M205 -54q0 58 -29 66l-24 13q-23 10 -37 20t-30 37q-15 26 -15 64t31 69t91 31t114 -51t54 -143t-51 -176q-78 -131 -170 -175q-27 -20 -48 -20t-21 17t26 37t68 87q41 66 41 124z" />
    <glyph glyph-name="quotedblleft" unicode="&#x201c;" horiz-adv-x="782" 
d="M573 1215q0 -54 33 -70q19 -1 47 -21q27 -20 43 -40t17 -65q0 -44 -33 -76q-34 -32 -92 -32q-58 -1 -114 53t-56 133t35 160t139 166q28 23 60 40t46 17t14 -14t-29 -40q-30 -26 -70 -92q-40 -65 -40 -119zM209 1215q0 -54 33 -70q16 -1 44 -21q26 -20 42 -40t16 -66
q0 -45 -30 -76t-90 -31q-60 -1 -112 53q-54 54 -54 133q-1 186 170 326q28 23 60 40t40 18q20 -1 20 -15t-20 -34q-39 -33 -79 -98t-40 -119z" />
    <glyph glyph-name="quotedblright" unicode="&#x201d;" horiz-adv-x="782" 
d="M729 1284q1 -204 -229 -357q-22 -15 -44 -15t-22 14q0 16 29 38t69 88q40 68 41 126q0 58 -32 65q-3 2 -23 11q-20 8 -36 20t-29 39q-15 27 -15 65t31 71q31 32 89 32q58 1 115 -53q56 -54 56 -144zM70 928q0 18 26 38t68 86q41 68 41 126t-29 65l-24 10q-23 13 -37 23
q-45 34 -45 88q0 55 31 86t91 31q60 1 114 -53t54 -145t-51 -176q-78 -131 -170 -175q-27 -20 -48 -20q-21 -2 -21 16z" />
    <glyph glyph-name="quotedblbase" unicode="&#x201e;" horiz-adv-x="782" 
d="M573 -54q0 58 -32 66q-3 2 -23 12t-36 20q-44 30 -44 102q0 38 32 69t90 31t113 -52q56 -52 56 -132q0 -194 -175 -326q-32 -25 -54 -40t-44 -15t-22 15t29 37t69 89q41 66 41 124zM205 -54q0 58 -29 66l-24 13q-23 10 -37 20t-30 37q-15 26 -15 64t31 69t91 31t114 -51
t54 -143t-51 -176q-78 -131 -170 -175q-27 -20 -48 -20t-21 17t26 37t68 87q41 66 41 124z" />
    <glyph glyph-name="dagger" unicode="&#x2020;" 
d="M537 -279h-45q-12 0 -13 25q-4 164 -42 486t-64 386l16 21q59 75 70 137q12 62 12 109q-53 0 -169 -43t-158 -43q-42 -1 -70 31q-29 32 -29 76t33 75t72 31q38 0 152 -35t169 -35q0 80 -39 230t-39 188q0 39 35 80t92 41t88 -39t31 -80t-41 -191t-41 -229q53 0 168 35
t155 35t70 -32q29 -32 29 -75t-29 -75t-70 -32q-42 0 -156 44q-114 43 -167 43q0 -78 18 -134t35 -76q16 -21 30 -37t15 -20q-29 -66 -65 -380t-41 -496q0 -21 -12 -21z" />
    <glyph glyph-name="daggerdbl" unicode="&#x2021;" 
d="M471 885q-67 0 -183 -43t-148 -43q-32 1 -64 31q-31 30 -31 74t34 76q33 32 65 32t146 -35t181 -35q0 74 -39 226t-39 191q0 40 36 81t91 41t87 -39t32 -81t-41 -194t-41 -225q61 0 177 35t152 35t65 -32q28 -32 28 -75t-26 -75t-76 -31q-19 0 -137 43t-183 43
q0 -110 37 -187q10 -23 41 -80q-29 -44 -53 -126t-25 -168q63 0 176 41t151 41t66 -33q29 -33 29 -74t-33 -72q-34 -31 -68 -31t-145 36q-111 34 -176 34q0 -102 39 -243t39 -180t-37 -81t-92 -41q-55 0 -86 40q-31 41 -31 81t41 181t41 243q-67 0 -183 -35t-132 -34
q-49 1 -80 31t-31 70t33 74q32 34 62 34t147 -41t184 -41q0 151 -78 294l21 42q14 30 21 48t21 60q14 40 15 117z" />
    <glyph glyph-name="bullet" unicode="&#x2022;" horiz-adv-x="696" 
d="M352 487q-108 0 -189 71q-81 70 -81 184t78 188t190 74t188 -73t76 -190t-78 -185q-76 -68 -184 -69z" />
    <glyph glyph-name="onedotenleader" unicode="&#x2024;" 
d="M655 114q0 -62 -39 -100t-97 -39q-58 0 -104 38q-46 37 -46 95t37 104t102 46t106 -41t41 -103z" />
    <glyph glyph-name="twodotenleader" unicode="&#x2025;" 
d="M774 -25q-59 0 -105 38q-46 37 -46 95t39 102t104 44t104 -39t39 -102t-38 -101t-97 -37zM262 -25q-59 0 -105 38q-46 37 -46 95t39 102t104 44t104 -39t39 -102t-38 -101t-97 -37z" />
    <glyph glyph-name="ellipsis" unicode="&#x2026;" horiz-adv-x="2048" 
d="M1167 113q0 -63 -39 -101t-98 -37q-59 0 -104 39q-45 40 -45 96t37 100t103 44t106 -39t40 -102zM1849 114q0 -62 -39 -100t-97 -39q-58 0 -104 38q-46 37 -46 95t36 102q37 44 103 44t106 -39q41 -39 41 -101zM348 -25q-59 0 -104 38q-45 37 -45 95t37 102t102 44
t106 -39t41 -101t-39 -100t-98 -39z" />
    <glyph glyph-name="perthousand" unicode="&#x2030;" horiz-adv-x="2310" 
d="M1952 51q72 0 102 78q20 66 21 305q0 336 -123 336q-61 0 -90 -70q-33 -84 -33 -278t24 -281q14 -41 44 -65t55 -25zM1948 -18q-243 0 -296 296q-11 60 -12 115q0 187 80 317t247 130t238 -148q58 -123 62 -276q-3 -206 -85 -320t-234 -114zM1227 51q72 0 102 78
q20 66 21 305q0 336 -123 336q-61 0 -90 -70q-33 -84 -33 -278t24 -281q14 -41 44 -65t55 -25zM1223 -18q-243 0 -296 296q-11 60 -12 115q0 187 80 317t247 130t238 -148q58 -123 62 -276q-4 -206 -86 -320t-233 -114zM350 541q-242 0 -296 296q-11 60 -11 115
q0 188 80 318t239 129q88 0 150 -40q146 -93 158 -384q-4 -207 -86 -321t-234 -113zM402 -31q-10 0 -17 6l-43 31q-14 10 -14 18t14 25l823 1335q11 26 33 11l51 -29q12 -8 13 -14l-838 -1360q-12 -23 -22 -23zM354 610q72 0 103 78q20 66 20 305q0 336 -123 336
q-61 0 -90 -69q-33 -84 -33 -279t25 -281q14 -42 44 -66t54 -24z" />
    <glyph glyph-name="guilsinglleft" unicode="&#x2039;" horiz-adv-x="536" 
d="M455 140q0 -8 -4 -9l-41 -33l-9 -4l-16 8l-315 316q-25 12 0 37l319 311q8 8 12 8t9 -4l41 -33q4 -4 4 -8l-4 -12l-168 -283l168 -282q4 -4 4 -12z" />
    <glyph glyph-name="guilsinglright" unicode="&#x203a;" horiz-adv-x="536" 
d="M82 729q0 8 4 8l45 33q0 4 6 4t15 -8l319 -315q12 -5 12 -13t-16 -24l-315 -312q-8 -8 -12 -8t-13 8l-41 29l-4 8q0 4 8 13l164 282l-168 283q-4 4 -4 12z" />
    <glyph glyph-name="fraction" unicode="&#x2044;" horiz-adv-x="124" 
d="M-328 -31q-8 0 -18 6l-43 31q-14 10 -14 18t14 25l823 1335q14 24 33 11l51 -29q12 -8 12 -14l-10 -21l-827 -1339q-13 -23 -21 -23z" />
    <glyph glyph-name="zero.superior" unicode="&#x2070;" horiz-adv-x="712" 
d="M354 874q76 0 103 78q20 59 20 305q0 336 -123 336q-61 0 -90 -69q-33 -84 -33 -284q1 -200 19 -257t48 -83t56 -26zM350 805q-242 0 -296 296q-11 60 -11 116q0 188 80 317t239 129q235 0 293 -284q14 -69 15 -140q0 -207 -83 -321t-237 -113z" />
    <glyph glyph-name="four.superior" unicode="&#x2074;" horiz-adv-x="712" 
d="M403 1135v254q0 10 -8 18t-28 -14l-179 -226q-8 -10 -5 -21t20 -11h200zM403 1008h-362q-29 0 -29 28q0 18 25 47l457 555q20 25 41 25q33 0 32 -45v-483h111q12 0 12 -17v-90q0 -20 -20 -20h-103v-160q0 -25 -20 -25h-127q-16 0 -17 21v164z" />
    <glyph glyph-name="five.superior" unicode="&#x2075;" horiz-adv-x="712" 
d="M604 1114q0 -131 -114 -220t-277 -89q-76 -1 -128 23t-52 59t15 55t43 20t66 -37q39 -38 109 -38t119 42q49 43 49 109t-35 107q-69 81 -243 65q-16 0 -22 4t-7 27l53 377q0 20 25 20h315q33 0 49 12t37 50q8 14 29 4q20 -6 16 -16l-53 -160q-8 -29 -53 -29h-303
l-25 -143q63 8 163 -12t162 -82q62 -61 62 -148z" />
    <glyph glyph-name="six.superior" unicode="&#x2076;" horiz-adv-x="712" 
d="M492 1042q0 86 -35 142t-101 55q-66 0 -92 -33q-26 -32 -26 -138t40 -156t91 -50q123 0 123 180zM353 805q-136 0 -218 82t-82 223q0 236 197 406q102 86 250 135q43 12 55 12q24 0 26 -26q1 -26 -28 -31q-86 -27 -179 -124t-120 -210l8 -4q53 53 169 53q117 0 181 -70
t64 -155q0 -139 -103 -222q-84 -69 -220 -69z" />
    <glyph glyph-name="seven.superior" unicode="&#x2077;" horiz-adv-x="712" 
d="M287 1638h401q18 0 24 -12t-3 -20q-96 -139 -193 -342t-151 -377q-27 -82 -115 -82q-31 0 -50 17q-20 17 -20 48t53 127l150 228q149 227 178 282h-303q-53 0 -78 -15t-61 -58q-6 -10 -33 -4q-18 8 -12 20l90 225q0 12 24 13q21 0 17 -25q0 -25 82 -25z" />
    <glyph glyph-name="eight.superior" unicode="&#x2078;" horiz-adv-x="712" 
d="M512 1463q0 55 -38 95t-102 40t-101 -42q-38 -41 -33 -92q-2 -49 32 -79t136 -85q42 16 74 62t32 101zM358 862q60 0 97 38t37 90t-44 91t-145 84q-47 -14 -75 -59q-28 -44 -28 -106t49 -100t109 -38zM651 1026q0 -82 -83 -152t-223 -69q-140 0 -206 51t-65 121
q0 145 172 221q-88 56 -132 106t-44 133t85 155t216 71q131 0 201 -50t71 -123q0 -73 -42 -125t-138 -97q188 -86 188 -242z" />
    <glyph glyph-name="nine.superior" unicode="&#x2079;" horiz-adv-x="712" 
d="M356 1227q62 0 95 41q20 25 20 137q0 201 -123 201q-59 0 -95 -50t-36 -134q0 -85 38 -140q39 -55 101 -55zM362 1663q136 0 220 -90q78 -88 78 -207t-59 -241q-58 -121 -173 -203t-227 -109q-33 -8 -45 -8q-29 -1 -29 25t29 32q94 25 185 118t114 218h-9
q-63 -45 -151 -45q-129 0 -192 70q-62 70 -62 161q0 55 30 118q77 161 291 161z" />
    <glyph glyph-name="parenleft.superior" unicode="&#x207d;" horiz-adv-x="503" 
d="M520 766q0 -26 -28 -27q-12 0 -46 9q-170 66 -271 198t-101 307t103 313t269 193q16 8 46 8t28 -20q0 -20 -33 -37q-241 -141 -241 -452t241 -461q33 -19 33 -31z" />
    <glyph glyph-name="parenright.superior" unicode="&#x207e;" horiz-adv-x="503" 
d="M430 1259q0 -175 -98 -309t-275 -202q-53 -13 -63 -4q-10 10 -10 22t28 31q246 143 246 451t-246 462q-29 23 -28 33q0 25 28 25t45 -9q165 -55 269 -190t104 -310z" />
    <glyph glyph-name="n.superior" unicode="&#x207f;" horiz-adv-x="790" 
d="M20 600q0 12 17 12h29q41 0 40 33v311q0 53 -65 82q-25 18 -25 21v12q0 4 17 12l172 74q24 12 33 12q16 0 16 -16l16 -74h9q23 29 73 58q66 29 134 29t120 -29q82 -55 82 -152v-156q0 -147 -4 -176q0 -41 37 -41h41q16 0 16 -12v-29q0 -16 -12 -16l-168 4l-147 -4
q-12 0 -13 20v25q0 12 17 12h28q23 0 29 33q8 74 8 131v160q0 86 -37 123q-29 25 -79 25t-90 -35q-40 -34 -40 -105v-282q0 -49 25 -50h33q12 0 12 -12v-33q0 -12 -8 -12l-152 4l-155 -4q-8 0 -9 16v29z" />
    <glyph glyph-name="zero.inferior" unicode="&#x2080;" horiz-adv-x="712" 
d="M354 -166q76 0 103 78q20 59 20 305q0 336 -123 336q-61 0 -90 -70q-33 -83 -33 -283q1 -200 19 -258t48 -82q30 -26 56 -26zM350 -236q-94 0 -160 46t-96 118q-52 125 -51 248q0 188 80 318t239 129q235 0 293 -284q14 -69 15 -140q0 -207 -83 -321t-237 -114z" />
    <glyph glyph-name="one.inferior" unicode="&#x2081;" horiz-adv-x="712" 
d="M467 -78q0 -49 13 -61t65 -13h45q12 0 12 -10v-47q0 -12 -12 -12l-230 4l-225 -4q-16 0 -16 12v47q0 10 20 10h58q57 0 69 10t13 56l4 258v53q0 129 -4 167t-33 38q-20 0 -58 -12l-69 -25q-18 -6 -21 0l-20 45q-4 10 8 17l332 153q29 14 39 15q14 0 14 -21l-4 -360v-320z
" />
    <glyph glyph-name="two.inferior" unicode="&#x2082;" horiz-adv-x="712" 
d="M422 356q0 66 -37 107t-94 41q-92 0 -168 -86q-12 -18 -25 -12l-24 16q-10 4 -4 16q25 59 100 122q76 62 190 62t186 -58q73 -58 72 -167q0 -147 -172 -303q-76 -70 -217 -180v-4h209q72 0 106 17t62 57q8 14 33 8q25 -10 16 -29l-82 -196q-4 -13 -26 -13q-21 0 -31 14
t-110 15h-271l-115 -4q-10 0 -13 11t9 24q178 158 271 264q135 156 135 278z" />
    <glyph glyph-name="three.inferior" unicode="&#x2083;" horiz-adv-x="712" 
d="M266 -236q-117 0 -167 37t-50 77q-1 40 19 62t42 22q50 -1 70 -52l8 -19q16 -61 89 -61t119 48t46 110q0 168 -155 200q-33 6 -33 29q0 29 25 29q59 6 97 51t38 98t-32 89t-79 36q-100 0 -151 -102q-14 -20 -25 -17l-29 9q-8 4 -8 20q20 72 89 132t185 60t171 -52
t55 -118t-46 -121q-46 -54 -118 -81v-8q86 -12 147 -70t62 -137q-1 -121 -101 -196t-268 -75z" />
    <glyph glyph-name="four.inferior" unicode="&#x2084;" horiz-adv-x="712" 
d="M403 94v254q-1 10 -9 19t-27 -15l-179 -225q-8 -9 -5 -21t20 -12h200zM403 -33h-362q-29 0 -29 29q0 18 25 47l457 555q20 25 41 25q33 0 32 -45v-484h111q12 0 12 -16v-90q0 -20 -20 -21h-103v-160q0 -25 -20 -24h-127q-16 0 -17 20v164z" />
    <glyph glyph-name="five.inferior" unicode="&#x2085;" horiz-adv-x="712" 
d="M33 -153q0 75 58 75q28 0 66 -38q39 -38 109 -38t119 42t49 108t-35 108q-70 82 -243 66q-16 0 -22 4t-7 27l53 377q0 20 25 20h315q33 0 49 12t37 49q8 14 29 5q20 -6 16 -17l-53 -160q-8 -29 -53 -28h-303l-25 -144q63 8 163 -12q100 -19 162 -81t62 -148
q0 -131 -114 -220t-277 -90q-76 0 -128 24t-52 59z" />
    <glyph glyph-name="six.inferior" unicode="&#x2086;" horiz-adv-x="712" 
d="M492 2q0 86 -35 141t-101 55t-92 -32t-26 -138t40 -156t91 -50q123 0 123 180zM353 -236q-136 0 -218 82t-82 224q0 236 197 405q102 86 250 135q43 12 55 12t19 -8t8 -16q0 -27 -29 -33q-86 -27 -179 -124t-120 -210l8 -4q53 53 169 53q117 0 181 -69q64 -70 64 -156
q0 -139 -103 -221q-84 -70 -220 -70z" />
    <glyph glyph-name="seven.inferior" unicode="&#x2087;" horiz-adv-x="712" 
d="M258 467q-53 0 -79 -15t-60 -59q-6 -10 -33 -4q-18 8 -12 21l90 225q0 12 18 12t22 -5t1 -19q0 -25 82 -25h401q18 0 24 -12t-3 -21q-96 -139 -193 -341t-151 -378q-27 -82 -115 -82q-31 0 -50 18q-20 18 -20 48q0 31 53 127l150 227q149 228 178 283h-303z" />
    <glyph glyph-name="eight.inferior" unicode="&#x2088;" horiz-adv-x="712" 
d="M512 423q0 56 -38 95t-102 39t-101 -41q-38 -41 -33 -92q-2 -49 32 -79t136 -85q42 16 74 62t32 101zM358 -178q60 0 97 38t37 90t-44 91t-145 84q-45 -14 -74 -59q-29 -44 -29 -106t49 -100t109 -38zM345 -236q-140 0 -206 52t-65 121q0 145 172 221q-88 55 -132 105
t-44 133t85 155t216 72q131 -1 201 -51t71 -122q0 -72 -42 -125q-42 -52 -138 -98q188 -86 188 -241q0 -82 -83 -152t-223 -70z" />
    <glyph glyph-name="nine.inferior" unicode="&#x2089;" horiz-adv-x="712" 
d="M217 382q0 -84 38 -140q39 -56 101 -56t95 41q20 25 20 138q0 201 -123 200q-59 0 -95 -49t-36 -134zM362 623q136 1 217 -89t81 -208t-59 -241q-58 -122 -173 -204t-227 -108q-33 -8 -45 -9q-29 0 -29 26t29 32q94 25 185 118t114 218h-9q-63 -45 -151 -45
q-129 0 -192 69q-62 70 -62 162q0 55 30 118q77 161 291 161z" />
    <glyph glyph-name="parenleft.inferior" unicode="&#x208d;" horiz-adv-x="503" 
d="M74 213q0 176 102 309q104 141 270 197q16 8 46 8t28 -20q0 -20 -33 -37q-241 -140 -241 -452t241 -462q33 -20 33 -31t-8 -19t-20 -7q-12 0 -46 8q-170 66 -271 198t-101 308z" />
    <glyph glyph-name="parenright.inferior" unicode="&#x208e;" horiz-adv-x="503" 
d="M430 218q0 -175 -98 -309t-275 -202q-33 -8 -45 -8q-28 0 -28 25q0 14 28 32q246 144 246 452t-246 462q-29 23 -28 32q0 25 28 25t45 -8q165 -55 269 -191t104 -310z" />
    <glyph glyph-name="colonmonetary" unicode="&#x20a1;" 
d="M262 741q0 -270 86 -405q4 0 4 -4h4l156 889q-122 -13 -186 -157t-64 -323zM500 209l184 995q-49 18 -98 25l-176 -959q41 -47 90 -61zM45 680q0 266 139 442q56 74 152 127t188 54h4l25 131q6 16 16 16l37 -8q18 -6 12 -25l-20 -114q74 -8 102 -17l29 148q6 12 16 8
l41 -8q6 0 10 -8t-1 -13l-29 -151q57 -20 78 -37q33 -20 33 4l12 45q4 8 22 8q19 0 25 -5t6 -31t7 -165t14 -172q0 -16 -9 -20l-36 -4q-8 -4 -17 12q-8 59 -59 145t-97 125l-180 -974q20 -5 90 -5t158 54t150 139q4 12 16 12l25 -20q10 -4 4 -21q-152 -281 -418 -291h-49
l-25 -118q0 -20 -16 -13l-37 4q-12 6 -12 21l20 115q-49 0 -98 24l-33 -147q0 -18 -21 -13l-32 5q-13 4 -13 24l37 164q-129 76 -197 220q-69 144 -69 333z" />
    <glyph glyph-name="Euro" unicode="&#x20ac;" 
d="M772 598q23 0 19 -12l-17 -54q-8 -12 -16 -12h-346q10 -236 71 -352t158 -117q125 0 185 74t94 217q6 23 20 18l23 -6q14 -4 14 -28q-21 -266 -21 -286q-1 -32 -7 -36t-24 -4t-22 12l-8 49q-6 25 -35 2q-119 -94 -221 -94q-223 0 -350 215q-86 143 -115 336h-133
q-16 0 -12 12l16 54q6 12 12 12h109l-2 86q0 39 4 96h-115q-16 0 -12 13l16 53q4 12 13 12h106q23 172 113 326q127 215 354 215q51 1 97 -17t66 -32t51 -44q32 -30 36 1l10 47q4 12 29 12t24 -33q0 -90 19 -274l2 -26q0 -13 -12 -17l-23 -6q-10 -4 -15 2t-14 30
q-51 150 -104 212t-160 63q-207 0 -239 -459h442q8 0 13 -4t3 -8l-16 -53q-4 -12 -16 -13h-430v-96l2 -86h364z" />
    <glyph glyph-name="uni20B9" unicode="&#x20b9;" 
d="M961 -6l-141 6q-36 0 -177 -6q-20 20 -94 131q-90 165 -135 254q-115 229 -230 229l-84 -2q-6 -2 -8 2t-2 10v46q0 14 10 14l19 -2l80 -4q78 0 140 26t98 65q93 99 98 241q0 23 -3 34h-440q-10 0 -14 3t-2 12l18 53q4 12 21 12h401q-47 147 -197 170h-219q-10 0 -14 3
t-2 12l16 53q2 12 21 12h844q8 0 13 -4t3 -8l-18 -56q-4 -12 -27 -12h-303q47 -25 90 -77t53 -93h189q8 0 13 -4t3 -8l-18 -55q-4 -12 -27 -13h-145q-1 -168 -95 -261t-247 -118v-12q49 -13 95 -71t152 -234t154 -223q49 -47 111 -47q14 0 14 -17v-43q0 -18 -14 -18z" />
    <glyph glyph-name="uni20BA" unicode="&#x20ba;" 
d="M127 16v35q0 18 27 19h49q49 0 49 82l2 411l-170 -98q-20 -10 -23 4l-10 55q-2 14 10 21l193 110v156l-164 -94q-18 -10 -20 4l-13 53q-2 12 11 23l186 108q2 37 2 127t-23 142q-23 51 -92 69l-39 12q-14 4 -14 21v20q0 12 18 15q199 59 302 119q27 16 45 16t17 -39
q-5 -195 -5 -383l303 176q20 12 20 -2l13 -57q0 -14 -19 -25l-319 -184v-156l305 176q16 10 20 -2l11 -57q2 -14 -17 -25l-319 -184v-272q0 -213 3 -251t13 -52t41 -15q119 0 241 100t122 216q0 44 -31 60q-10 5 -30 11q-104 32 -103 140q1 37 25 63t71 25q47 1 96 -63
t50 -175q0 -457 -549 -471q-158 -6 -271 -6q-14 -1 -14 22z" />
    <glyph glyph-name="uni2113" unicode="&#x2113;" horiz-adv-x="921" 
d="M188 674q0 198 30 308t93 187q104 131 254 131q109 0 168 -72t60 -186q0 -256 -379 -507v-127q0 -272 172 -273q127 0 219 127l45 -45q-143 -242 -371 -242q-141 0 -216 87t-75 290v51l-108 -71l-27 57l135 103v182zM414 817v-190q219 184 219 415q0 80 -29 129t-80 50
q-62 -1 -86 -93t-24 -311z" />
    <glyph glyph-name="trademark" unicode="&#x2122;" horiz-adv-x="1863" 
d="M694 1483q10 -1 10 -11t6 -47q5 -37 10 -83t7 -64t-6 -21l-25 -8q-8 -2 -16 13q-43 86 -86 110q-37 17 -139 17v-574q6 -41 37 -41h45q12 0 12 -12v-37q0 -12 -14 -12l-64 2q-67 2 -101 2t-102 -2l-67 -2q-12 0 -13 8v41q0 12 11 12h51q37 0 37 62v553q-90 0 -127 -13
q-49 -16 -99 -114q-10 -14 -16 -13l-29 8q-10 4 -6 17l39 192q2 16 14 17q8 0 17 -8q25 -25 76 -25l213 -4l233 4q49 0 74 25q8 8 18 8zM1425 762q0 12 11 12h39q37 0 45 37v549h-9l-254 -602q-10 -25 -28 -25t-29 17l-242 606h-12v-254q0 -201 4 -246q6 -82 66 -82h22
q10 0 11 -14v-35q0 -12 -11 -12l-129 2l-133 -2q-14 0 -14 12v37q0 12 10 12h23q27 0 46 20t23 50q12 117 13 332v163q0 57 -58 58h-24q-12 0 -13 10v35q0 12 13 12l123 -4l151 4q29 0 37 -20l176 -451l184 451q10 16 33 16h240q14 0 14 -8v-33q0 -12 -12 -12h-17
q-41 0 -41 -45l-4 -271l4 -250q0 -57 37 -57h39q10 0 10 -12v-37q0 -12 -10 -12l-162 4q-33 0 -96 -2l-63 -2q-12 0 -13 12v37z" />
    <glyph glyph-name="Omega" unicode="&#x2126;" horiz-adv-x="1591" 
d="M804 1364q286 0 468 -170t182 -444q0 -100 -24 -154q-24 -55 -36 -86q-13 -31 -43 -70t-44 -59q-13 -20 -51 -57l-48 -48t-49 -46t-41 -37h172q70 -1 98 21t62 112l57 -2l-43 -324h-512l-16 27q142 239 198 403t56 318q0 250 -101 395t-287 145t-286 -146t-100 -411
q0 -109 18 -177t30 -108t34 -92q22 -51 34 -80q12 -28 39 -76t35 -64t35 -60l27 -45l-15 -29h-520l-35 324l56 2q32 -88 62 -111t101 -22h166q-110 88 -207 201q-128 153 -126 347q0 275 184 449t470 174z" />
    <glyph glyph-name="estimated" unicode="&#x212e;" horiz-adv-x="1712" 
d="M1362 715v391q0 29 -21 49q-199 203 -483 203t-487 -209q-20 -20 -21 -49v-385q0 -12 10 -13h994q8 1 8 13zM1655 664h-1295q-10 0 -10 -11v-389q0 -29 19 -47q201 -211 501 -211t502 236h117q-111 -129 -277 -204t-356 -75q-330 0 -564 211t-235 508q1 297 235 508
t564 211t564 -211t235 -508v-18z" />
    <glyph glyph-name="onethird" unicode="&#x2153;" horiz-adv-x="1585" 
d="M1139 -18q-117 0 -167 36t-50 77q0 40 19 62q34 39 79 12q14 -9 19 -15t22 -45q17 -61 89 -61t119 47q46 48 46 110q0 168 -156 201q-33 6 -33 28q0 29 25 29q59 6 97 51t38 98t-32 89t-78 36q-100 0 -152 -102q-14 -20 -25 -17l-28 9q-8 4 -8 20q20 72 89 132
q68 61 184 61t171 -52t55 -120q0 -66 -46 -120t-118 -81v-8q86 -13 148 -71t61 -136q0 -122 -100 -196t-268 -74zM418 698q0 -49 13 -61t65 -12h45q12 0 12 -11v-49q0 -12 -12 -12l-230 6l-225 -6q-16 0 -16 12v49q0 10 20 11h57q57 0 70 10q12 10 12 55l4 258v53
q0 115 -4 160q-8 45 -30 45t-60 -12l-69 -25q-18 -6 -21 0l-20 45q-4 10 8 17l332 153q29 14 39 15q14 0 14 -21l-4 -360v-320zM389 -31q-6 0 -24 13l-41 28q-15 15 4 41l823 1331q8 16 16 17h13l49 -25q20 -16 20 -20t-8 -21l-831 -1339q-6 -25 -21 -25z" />
    <glyph glyph-name="twothirds" unicode="&#x2154;" horiz-adv-x="1585" 
d="M1188 -18q-117 0 -167 36t-50 77q0 40 19 62q34 39 79 12q14 -9 18 -14t23 -46q16 -61 88 -61t120 47q46 48 46 110q0 168 -156 201q-33 6 -32 28q0 29 24 29q59 6 97 51t38 98t-31 89q-32 36 -79 36q-100 0 -152 -102q-14 -20 -24 -17l-29 9q-8 4 -8 20q20 72 89 132
q69 61 185 61t170 -52q55 -52 55 -120q0 -66 -46 -120t-117 -81v-8q86 -13 147 -71t61 -136q0 -122 -100 -196t-268 -74zM-8 569q0 14 16 23q28 28 113 102t153 160q135 150 136 279q0 67 -37 107t-94 40q-92 0 -168 -86q-12 -18 -25 -12l-25 16q-10 4 -4 16q25 60 101 122
t189 62t187 -58t72 -166q0 -147 -172 -304q-76 -70 -217 -180v-4h209q72 0 106 17t62 57q8 14 28 8t24 -11q3 -5 -3 -18l-82 -196q-5 -13 -27 -13t-32 14t-109 15h-270l-115 -4q-16 0 -16 14zM438 -31q-4 -1 -22 13t-30 20t-13 16q0 10 12 29l823 1335q8 16 17 17
q6 0 24 -13q9 -4 29 -15t20 -13l9 -8q-1 -5 -9 -21l-831 -1339q-14 -20 -21 -21h-8z" />
    <glyph glyph-name="oneeighth" unicode="&#x215b;" horiz-adv-x="1585" 
d="M418 698q0 -49 13 -61t65 -12h45q12 0 12 -11v-49q0 -12 -12 -12l-230 6l-225 -6q-16 0 -16 12v49q0 10 20 11h57q57 0 70 10q12 10 12 55l4 258v53q0 115 -4 160q-8 45 -30 45t-60 -12l-69 -25q-18 -6 -21 0l-20 45q-4 10 8 17l332 153q29 14 39 15q14 0 14 -21l-4 -360
v-320zM1245 1350q0 -6 -8 -21l-831 -1339q-6 -20 -17 -21q-12 0 -29 8l-41 29q-8 8 -8 15t13 26l823 1335q8 16 16 17l13 -4l49 -25q20 -14 20 -20zM1389 640q0 56 -38 95t-102 39q-63 0 -101 -41t-34 -92q-2 -49 32 -79t136 -85q41 15 74 61t33 102zM1077 176q0 -62 48 -99
q48 -38 109 -38q62 0 98 38t36 90t-44 91t-144 84q-45 -14 -74 -59t-29 -107zM1222 -18q-140 0 -206 51t-66 121q0 145 172 221q-88 55 -132 105t-44 133t85 155t217 72t202 -50t70 -123t-42 -125t-139 -98q188 -86 189 -241q0 -81 -83 -151t-223 -70z" />
    <glyph glyph-name="threeeighths" unicode="&#x215c;" horiz-adv-x="1585" 
d="M242 541q-117 0 -167 37t-50 77q0 39 19 61q34 38 79 12q20 -13 33 -40l8 -20q16 -62 88 -62t120 48q46 48 46 110q0 168 -156 201q-33 6 -33 28q0 29 25 29q59 6 97 51t38 99t-32 89q-32 36 -78 35q-100 0 -152 -102q-14 -23 -25 -16l-28 8q-8 4 -8 20q20 72 89 132
t185 60t170 -51q55 -52 55 -119t-46 -121t-118 -81v-8q85 -12 147 -70t62 -137q0 -121 -100 -195t-268 -75zM369 -31q-5 -1 -23 13t-30 20t-13 16q0 10 12 29l824 1335q8 16 16 17q6 0 25 -13q49 -24 51 -28t2 -12t-8 -17l-828 -1339q-14 -20 -20 -21h-8zM1247 774
q-63 0 -101 -41t-34 -92q-2 -49 32 -79t136 -85q41 15 74 61q32 46 32 102t-37 95q-38 39 -102 39zM1075 176q0 -62 48 -99q47 -38 107 -38t98 38t38 90t-44 91t-144 84q-47 -14 -75 -59t-28 -107zM1220 -18q-140 0 -206 51t-66 121q0 145 172 221q-88 55 -132 105t-44 133
t85 155t217 72t202 -50t70 -123t-42 -125t-139 -98q188 -86 189 -241q0 -81 -83 -151t-223 -70z" />
    <glyph glyph-name="fiveeighths" unicode="&#x215d;" horiz-adv-x="1585" 
d="M43 623q0 75 58 75q28 0 66 -38q39 -38 109 -38t119 43t49 109t-34 107q-69 81 -244 65q-16 0 -22 4t-7 27l53 377q0 20 25 20h315q36 0 50 14t36 48q8 14 29 4q20 -6 17 -17l-54 -159q-12 -29 -53 -29h-303l-25 -143q63 8 163 -12t162 -82t62 -148q0 -131 -114 -220
t-277 -89q-76 -1 -128 23t-52 59zM378 -31q-7 0 -26 13l-41 28q-8 8 -8 16t12 25l824 1331q8 16 16 17h12l50 -25q16 -12 16 -22t-8 -19l-828 -1339q-12 -25 -19 -25zM1245 774q-63 0 -101 -41t-34 -92q-2 -49 32 -79t136 -85q41 15 74 61q32 46 32 102t-37 95
q-38 39 -102 39zM1073 176q0 -62 48 -99q48 -38 109 -38q62 0 98 38t36 90t-44 91t-144 84q-45 -14 -74 -59t-29 -107zM1218 -18q-140 0 -206 51t-66 121q0 145 172 221q-88 55 -132 105t-44 133t85 155t217 72t202 -50t70 -123t-42 -125t-139 -98q188 -86 189 -241
q0 -81 -83 -151t-223 -70z" />
    <glyph glyph-name="seveneighths" unicode="&#x215e;" horiz-adv-x="1585" 
d="M274 1243q-52 0 -78 -15t-61 -59q-6 -10 -33 -4q-18 8 -12 21l90 225q0 12 18 12t22 -5q3 -5 1 -19q0 -25 82 -25h402q25 0 24 -8q0 -20 -14 -38q-15 -18 -73 -120q-170 -295 -261 -585q-27 -82 -115 -82q-31 0 -50 17t-19 48t53 127l149 228q150 227 179 282h-304z
M1159 1348q0 -10 -8 -19l-827 -1339q-14 -20 -24 -20t-21 7l-41 29q-8 8 -8 15t12 26l823 1335q8 16 16 17l13 -4l49 -25q16 -12 16 -22zM1354 640q0 56 -38 95t-102 39t-101 -41q-38 -41 -34 -92q-2 -49 32 -79t136 -85q41 15 74 61t33 102zM1042 176q0 -62 48 -99
q48 -38 108 -38q59 0 97 38t38 90t-44 91t-144 84q-45 -14 -74 -59t-29 -107zM1493 203q0 -81 -83 -151t-223 -70t-206 51t-66 121q0 145 172 221q-88 55 -132 105t-44 133t85 155q84 72 216 72t202 -50t71 -123q0 -73 -42 -125t-138 -98q188 -86 188 -241z" />
    <glyph glyph-name="partialdiff" unicode="&#x2202;" horiz-adv-x="1026" 
d="M561 752h-2q-102 0 -192 -124t-91 -329q0 -96 44 -174t126 -78q131 0 204 176t98 408q-29 47 -78 84q-50 37 -109 37zM410 1454q291 0 448 -274q106 -188 107 -416q0 -291 -105 -494q-150 -295 -418 -295q-166 0 -268 115q-102 114 -102 296t123 316q125 134 313 134h2
q152 0 252 -113q14 59 14 154q9 479 -305 479q-117 0 -244 -74q-25 -2 -57 42t-18 73q109 57 258 57z" />
    <glyph glyph-name="Delta" unicode="&#x2206;" horiz-adv-x="1359" 
d="M231 111h766l-383 942zM88 0v57l561 1286l74 21l553 -1307v-57h-1188z" />
    <glyph glyph-name="product" unicode="&#x220f;" horiz-adv-x="1540" 
d="M70 1333h1396v-57q-126 -10 -156 -44t-30 -165v-956q0 -129 30 -164t154 -43v-58h-590v58q123 10 152 44t29 163v1075q-1 45 -13 55t-57 10h-430q-47 0 -58 -12t-12 -59v-1069q0 -129 28 -163t140 -44v-58h-577v58q122 10 152 45t30 162v958q0 129 -31 163t-157 44v57z
" />
    <glyph glyph-name="summation" unicode="&#x2211;" horiz-adv-x="1138" 
d="M76 1333h930q8 -154 24 -329l-59 -9q-59 211 -153 242q-48 16 -152 16h-310l375 -583l-463 -643h496q111 0 163 40t103 166l62 -16l-82 -381h-961v58l481 667l-454 715v57z" />
    <glyph glyph-name="minus" unicode="&#x2212;" 
d="M111 561h802v-135h-802v135z" />
    <glyph glyph-name="uni2215" unicode="&#x2215;" horiz-adv-x="124" 
d="M-328 -31q-8 0 -18 6l-43 31q-14 10 -14 18t14 25l823 1335q14 24 33 11l51 -29q12 -8 12 -14l-10 -21l-827 -1339q-13 -23 -21 -23z" />
    <glyph glyph-name="uni2219" unicode="&#x2219;" horiz-adv-x="548" 
d="M282 586q-58 0 -105 38q-46 38 -46 95t37 103q36 46 102 46t107 -41t41 -103t-39 -100t-97 -38z" />
    <glyph glyph-name="radical" unicode="&#x221a;" horiz-adv-x="1159" 
d="M88 850l-33 74l334 170l356 -779h5l266 1563l86 -10l-336 -1946l-481 1026z" />
    <glyph glyph-name="infinity" unicode="&#x221e;" horiz-adv-x="1576" 
d="M864 518q76 -76 108 -106q90 -83 183 -93q78 -1 133 55q56 56 58 143t-52 140t-137 53q-84 0 -170 -74q-46 -39 -90 -83zM400 711q-70 1 -120 -59t-48 -142t56 -136q56 -54 122 -54t128 35q60 36 92 67t85 88q-61 68 -92 98t-93 67q-60 36 -130 36zM1178 817
q127 0 211 -87t84 -219q-1 -132 -93 -215t-225 -83q-88 0 -173 51t-194 168q-74 -74 -112 -108t-115 -72q-78 -39 -158 -39q-125 0 -212 86t-87 215t88 216t208 87t204 -56t187 -165q75 76 117 113t117 73t153 35z" />
    <glyph glyph-name="integral" unicode="&#x222b;" horiz-adv-x="823" 
d="M522 1223v-674q0 -911 -411 -911q-61 0 -100 31q-38 32 -38 75t27 69q65 63 154 -20q46 -45 68 -45t35 22q28 47 28 261v823q1 376 117 572t296 196q55 0 89 -27t34 -67q1 -40 -29 -65q-30 -23 -69 -23t-72 39t-59 39q-38 0 -54 -60t-16 -235z" />
    <glyph glyph-name="approxequal" unicode="&#x2248;" horiz-adv-x="1247" 
d="M858 567q-96 1 -241 63t-253 62t-194 -125l-68 78q49 74 124 118t155 44q111 4 264 -57q137 -62 245 -62t191 115l64 -82q-43 -66 -117 -110t-170 -44zM856 229q-96 -1 -245 63q-147 64 -253 62t-188 -114l-70 73q106 158 281 158q119 4 262 -58q143 -63 251 -63t185 115
l64 -82q-43 -68 -117 -111t-170 -43z" />
    <glyph glyph-name="notequal" unicode="&#x2260;" 
d="M111 287v135h254l96 174h-350v135h426l143 254l119 -65l-105 -189h219v-135h-295l-98 -174h393v-135h-469l-135 -242l-119 68l99 174h-178z" />
    <glyph glyph-name="lessequal" unicode="&#x2264;" 
d="M111 16v136h802v-136h-802zM913 449v-140l-800 340v70l805 336v-137l-560 -226v-6z" />
    <glyph glyph-name="greaterequal" unicode="&#x2265;" 
d="M915 16h-802v136h802v-136zM913 649l-800 -340v140l555 237v6l-559 226v137l804 -336v-70z" />
    <glyph glyph-name="lozenge" unicode="&#x25ca;" horiz-adv-x="1173" 
d="M590 1354h-8l-310 -662l312 -665h4l311 665zM524 1493h125l391 -803l-391 -799h-129l-389 799z" />
    <glyph glyph-name="fi" unicode="&#xfb01;" horiz-adv-x="1130" 
d="M662 10v43q0 16 20 17h39q33 0 37 39t4 186v330q0 69 -20 99t-91 30h-241v-181q0 -418 2 -446q4 -57 47 -57h49q25 0 24 -19v-37q0 -20 -16 -20l-217 6l-242 -6q-16 0 -16 16v47q0 12 20 13h91q45 0 45 69l-2 615h-134q-12 0 -12 16l10 72q2 14 27 14h109v35
q0 285 170 446q156 143 364 144q102 0 168 -42q66 -41 66 -97t-36 -90t-83 -33q-80 0 -144 94q-51 66 -98 65q-94 0 -145 -86q-9 -16 -17 -40l-13 -40q-5 -16 -8 -47t-5 -46q-4 -30 -4 -105v-158h280q109 -4 160 6q52 10 70 12t30 4t19 3q23 0 15 -30t-7 -329v-399
q6 -53 41 -53h74q20 0 20 -19v-37q0 -20 -20 -20l-209 6l-205 -6q-16 0 -16 16z" />
    <glyph glyph-name="fl" unicode="&#xfb02;" horiz-adv-x="1116" 
d="M408 856h352v281q0 104 -11 149q-23 94 -129 93t-155 -67t-55 -239q-2 -59 -2 -176v-41zM657 -6q-16 0 -16 20v39q0 16 25 17h45q51 0 51 69l-2 615h-352v-181q0 -418 2 -446q4 -57 39 -57h65q20 0 21 -19v-37q0 -20 -13 -20l-233 6l-234 -6q-16 0 -16 16v47q0 12 20 13
h86q49 0 50 65l-2 619h-134q-12 0 -12 16l12 70q4 16 25 16h109v35q0 291 143 441t362 149q141 0 242 -37q47 -18 45 -49q-10 -123 -10 -600v-295q0 -303 3 -367t52 -63h74q25 0 24 -19v-37q0 -20 -12 -20l-233 6q-135 0 -179 -3t-47 -3z" />
    <glyph glyph-name="emdash.alt" horiz-adv-x="1536" 
d="M1536 481h-1536v135h1536v-135z" />
    <glyph glyph-name="zero.slash" 
d="M522 1317q-106 0 -153 -131q-66 -184 -66 -531q0 -64 4 -166l377 627q-56 201 -162 201zM525 51q110 0 155 141t45 547q0 109 -8 185l-385 -641q10 -43 20 -68q63 -164 173 -164zM57 621q0 350 125 564t336 214q160 0 268 -109l64 103q10 16 24 8l80 -49q14 -8 0 -33
l-86 -143q98 -190 98 -509t-114 -508q-115 -189 -328 -190q-178 0 -299 135l-75 -122q-9 -19 -21 -7l-84 54q-12 6 4 32l96 162q-88 176 -88 398z" />
    <glyph glyph-name="R_p" horiz-adv-x="2191" 
d="M1528 205q0 -156 192 -156q84 0 144 76q59 76 59 231t-50 269q-26 59 -72 95t-105 36q-105 0 -168 -90v-461zM553 676q280 0 343 249q13 50 13 95q0 119 -78 188q-88 94 -253 95q-51 -1 -75 -17t-24 -61l-4 -541q57 -8 78 -8zM119 -6q-16 0 -17 14v51q0 16 13 17h69
q78 0 78 67q4 201 4 537v168q0 283 -2 342q-2 102 -63 102h-82q-12 0 -13 17v53q0 12 13 12l266 -6l324 6q109 0 199 -34t141 -91q90 -90 90 -219t-90 -229t-242 -137v-13q63 -23 121 -94q6 -6 123 -208t168 -238q29 -20 108 -29v473q0 49 -12 76t-53 47l-45 24
q-16 8 -17 21v20q0 10 17 17l217 98q41 20 57 21q14 0 20 -41l13 -86h4q43 53 116 90t150 37q139 0 229 -103q57 -63 80 -130t23 -167q0 -219 -121 -363t-301 -145q-104 0 -176 29l4 -360q0 -84 12 -106t45 -21h70q20 0 20 -19v-37q0 -20 -20 -20l-41 2l-188 4l-222 -6
q-20 0 -20 20v39q0 16 24 17h62q43 0 48 49t5 286v148q-33 4 -73 4t-232 -6q-34 35 -64 88t-111 213t-130 217q-80 102 -180 102q-37 0 -62 -4v-78q0 -316 8 -386t49 -70h103q16 0 16 -15v-49q0 -18 -20 -18l-246 6q-181 0 -221 -3t-45 -3z" />
    <glyph glyph-name="space_uni0326" horiz-adv-x="401" 
d="M287 -280q0 -72 -42 -144t-78 -104t-65 -50q-24 -12 -36 -12t-13 12q0 12 13 25q115 102 114 201q0 31 -28 49q-67 24 -86 73t12 78q30 30 74 30t90 -43q46 -42 45 -115z" />
    <glyph glyph-name="c_t" horiz-adv-x="1533" 
d="M1036 741h-118q-29 0 -29 27t39 41q168 66 168 289q0 124 -75 202t-220 78t-229 -84t-85 -206q0 -122 101 -214q117 -10 168 -67t51 -105t-25 -72q-25 -26 -65 -26q-84 0 -123 103q-35 84 -127 84q-68 0 -126 -68q-58 -67 -58 -173t14 -174t65 -155q68 -111 200 -111
t233 78q8 8 18 -2l25 -28q10 -10 0 -25q-46 -57 -144 -107t-202 -51q-222 1 -324 131t-102 287q0 103 38 201t113 166q123 115 285 117v4q-82 41 -123 107t-41 134q0 136 139 234t350 98t327 -101t116 -245q0 -18 -8 -182l-5 -70h271q18 0 14 -16l-20 -86q-3 -13 -21 -13
h-248q-6 -129 -6 -274v-184q0 -105 34 -149t75 -44q70 0 119 25q20 8 24 -4l12 -25q4 -16 -8 -29q-115 -82 -258 -82q-88 1 -151 59t-64 126l6 315v266z" />
    <glyph glyph-name="s_t" horiz-adv-x="1435" 
d="M938 741h-119q-29 0 -28 29q0 25 38 39q156 51 156 265q0 106 -72 184t-219 79q-147 -1 -234 -67t-87 -184t110 -214q61 -8 109 -32t49 -43l27 -140q4 -16 -2 -22l-39 -19q-10 -4 -17 9l-98 110q-60 63 -124 63t-105 -32q-41 -33 -41 -88t41 -83q41 -27 161 -59t184 -98
t64 -181q0 -116 -95 -199t-247 -83q-74 1 -137 19t-84 35q-14 14 -16 22l-33 207q-4 12 6 16l39 13q14 4 18 -6l68 -115q33 -55 71 -83t102 -28t106 35t42 92t-43 92t-153 66q-250 74 -250 256q0 141 101 211t202 70v4q-162 94 -162 228t132 220q131 86 353 86t343 -105
t114 -251l-12 -203h273q18 0 14 -16l-21 -86q-2 -13 -20 -13h-250q-4 -86 -4 -274v-184q0 -105 34 -149t74 -44q70 0 119 25q20 8 25 -4l12 -25q4 -16 -8 -29q-115 -82 -258 -82q-87 1 -151 59t-64 126l6 315v266z" />
    <glyph glyph-name="a.sc" horiz-adv-x="1097" 
d="M508 756q-8 0 -21 -25q-97 -262 -122 -311h249l-90 307q-8 29 -16 29zM627 14v41q0 14 12 15h35q37 0 31 42t-74 236h-297q-66 -156 -81 -218t42 -60h41q14 0 14 -15v-47q0 -14 -12 -14l-158 6l-160 -6q-8 0 -8 20v41q0 14 13 15h24q43 0 80 41q8 10 142 298t178 408
q8 27 -4 36t-13 21q0 16 31 23q94 16 141 55q35 35 53 -8q131 -373 155 -454t74 -216t60 -149q39 -55 96 -55h35q14 0 15 -13v-45q0 -18 -15 -18l-90 2q-90 4 -158 4l-186 -6q-16 0 -16 20z" />
    <glyph glyph-name="b.sc" horiz-adv-x="1015" 
d="M426 614v-86q129 -10 170 31q55 49 55 132t-44 127t-115 44q-29 0 -41 -2q-17 -4 -21 -22t-4 -224zM426 459v-248q0 -150 109 -150q67 0 113 45t46 140q0 137 -100 184q-62 29 -168 29zM94 59q0 10 15 11h59q43 0 55 49q6 29 6 295v151q0 154 -5 213t-43 71q-11 3 -29 3
h-54q-10 0 -10 14v47q0 14 12 15l219 -6l175 6q172 0 245 -31q119 -59 119 -182q0 -88 -42 -129t-148 -80v-4q248 -74 247 -262q0 -59 -32 -118q-33 -58 -97 -85q-109 -43 -278 -43l-234 6l-163 -6q-16 0 -17 22v43z" />
    <glyph glyph-name="c.sc" horiz-adv-x="1056" 
d="M571 868q-90 0 -148 -57q-59 -57 -77 -125t-18 -140t3 -112q8 -103 65 -191q58 -89 114 -119t129 -30q213 0 291 137q12 20 26 13l35 -23q8 -4 -2 -26q-51 -95 -157 -157t-242 -63q-231 0 -357 117q-145 131 -145 373q0 199 137 348q47 51 145 92t226 41q127 0 229 -59
q31 -16 35 0l6 22q4 9 26 9t26 -2q6 -2 9 -5q3 -4 3 -14t10 -124q10 -113 13 -137t-17 -24l-49 -8q-6 -2 -8 2t-7 15q-24 87 -98 167t-203 80z" />
    <glyph glyph-name="d.sc" horiz-adv-x="1243" 
d="M446 563v-92q0 -164 5 -295q1 -41 29 -76q28 -34 105 -34t153 43t110 90q74 104 74 264t-91 276q-37 49 -113 85t-148 36t-95 -10t-26 -56t-3 -231zM92 12v47q0 10 10 11h74q38 0 48 46q5 24 5 386v94q0 156 -8 221q-4 35 -67 35h-50q-8 0 -8 14v49q0 12 10 13l218 -6
l215 6q269 0 371 -50q52 -26 104 -71q141 -125 141 -330q0 -121 -28 -197t-97 -147q-137 -137 -459 -137l-278 4l-191 -6q-10 0 -10 18z" />
    <glyph glyph-name="e.sc" horiz-adv-x="1026" 
d="M451 514q102 0 143 10q59 14 72 103q2 10 12 10l45 -2q14 0 11 -15q-3 -16 -3 -94t8 -184q0 -10 -10 -10l-43 -6q-8 -2 -12 10q-29 81 -76 94q-61 14 -147 14v-67l4 -217q0 -61 34 -79q35 -17 118 -18t126 13t63 32t126 150q12 14 20 8l39 -20q10 -4 6 -15l-74 -217
q-8 -20 -22 -20l-79 2l-490 4l-216 -6q-12 0 -12 16v47q0 12 15 13h18q72 0 87 13t15 69v471q0 143 -4 177t-21 43t-79 9h-21q-8 0 -8 14v52q0 10 10 10l232 -6l459 2l55 4q8 0 11 -20t35 -117t33 -105t-3 -10l-33 -14q-12 -6 -21 6l-30 32q-73 83 -112 115q-38 33 -81 33
l-200 4v-338z" />
    <glyph glyph-name="f.sc" horiz-adv-x="970" 
d="M453 850v-375q73 0 139 8t88 90q8 23 16 23l29 -4q8 0 7 -15t-1 -111t6 -165q0 -8 -10 -12l-27 -4q-12 -4 -16 14q-10 43 -30 63q-40 41 -201 41v-292q0 -41 55 -41h53q10 0 10 -13v-47q0 -16 -10 -16l-248 6l-194 -6q-12 0 -13 18v45q0 12 13 13h57q45 0 49 32
q4 45 4 387v91q0 199 -2 215q-12 57 -55 57h-80q-10 0 -10 14v47q0 14 12 15l256 -6q500 0 522 6q4 -27 52 -248q4 -14 -2 -16l-37 -17q-12 -4 -21 12q-23 51 -94 140q-22 29 -70 40t-247 11z" />
    <glyph glyph-name="g.sc" horiz-adv-x="1146" 
d="M604 -25q-256 1 -386 143t-130 356t148 343t403 129q73 0 141 -20t96 -42t33 -12l11 19q6 14 30 14t25 -22q0 -3 7 -55t14 -110t10 -73q0 -14 -19 -16l-39 -13q-9 -5 -16 17q-37 84 -98 145q-102 88 -220 88t-204 -106q-35 -43 -59 -116t-23 -140q0 -219 102 -344
q80 -100 195 -101q67 1 109 23t42 63v125q0 31 -24 46q-25 15 -50 16h-38q-10 0 -11 10v51q0 10 11 10l217 -4l168 2l28 2q12 0 13 -12v-49q0 -12 -11 -12h-28q-59 0 -60 -41v-168l6 -41q0 -12 -22 -23q-168 -82 -371 -82z" />
    <glyph glyph-name="h.sc" horiz-adv-x="1331" 
d="M463 522h393q29 0 29 21v41l-4 211q1 27 -13 42t-34 15h-48q-14 0 -14 12v49q0 14 14 15l213 -6l205 6q18 0 19 -23v-39q0 -14 -21 -14h-53q-45 0 -45 -47l-2 -285v-45l2 -305q2 -60 13 -80t44 -20h62q10 0 10 -15v-47q0 -14 -16 -14l-80 2q-80 4 -133 4l-224 -6
q-18 0 -18 16v47q0 12 14 13h68q37 0 37 69l4 252v41q0 16 -31 17h-387q-20 0 -21 -13v-18q0 -216 2 -267t13 -66q10 -15 33 -15h49q12 0 12 -15v-47q0 -14 -12 -14l-205 6l-229 -6q-14 0 -15 16v47q0 12 17 13h55q27 0 40 11t18 41t5 335v57l-4 260q0 78 -59 78h-57
q-16 0 -17 14v45q0 16 17 17l225 -6l215 6q16 0 16 -25v-37q0 -14 -16 -14h-45q-25 0 -40 -14t-15 -37l-3 -246v-16q1 -17 17 -17z" />
    <glyph glyph-name="i.sc" horiz-adv-x="675" 
d="M76 12v45q0 12 12 13h45q47 0 69 6t24 37t3 342v88l-4 248q0 61 -67 61h-68q-12 0 -12 14v49q0 12 12 13l248 -6l221 6q12 0 12 -13v-49q0 -14 -12 -14h-43q-37 0 -51 -10t-16 -39l-3 -279v-102q0 -248 3 -277q6 -76 67 -75h51q12 0 13 -11v-51q0 -14 -13 -14l-237 6
l-242 -6q-12 0 -12 18z" />
    <glyph glyph-name="j.sc" horiz-adv-x="643" 
d="M166 852h-57q-12 0 -13 10v53q0 12 13 13l253 -6q41 0 121 4l78 2q14 0 14 -17v-45q0 -14 -16 -14h-51q-51 0 -51 -37q-4 -57 -4 -323v-101q0 -267 -7 -323q0 -141 -67 -228q-127 -168 -277 -168t-149 88q0 45 22 72q23 27 56 27t55 -26q22 -25 36 -51q15 -26 28 -26
q67 0 80 152q8 91 8 276l-2 248v359q-4 35 -18 48t-52 13z" />
    <glyph glyph-name="k.sc" horiz-adv-x="1103" 
d="M424 496h12q38 0 170 154t140 166q8 14 0 28t-25 14h-8q-10 0 -11 12v48q0 10 13 10l174 -6l119 6q10 0 10 -15v-47q0 -14 -12 -14h-29q-45 0 -93 -26t-288 -285q30 -39 192 -236t184 -217t56 -18h33q12 0 12 -15v-45q0 -16 -12 -16l-199 6l-190 -6q-14 0 -15 16v43
q0 12 13 13h10q14 0 19 9t-1 21t-102 144t-121 162q-25 29 -45 28h-6v-63l4 -269q0 -29 41 -28h43q12 0 12 -15v-45q0 -16 -12 -16l-178 6l-203 -6q-10 0 -10 18v43q0 14 12 15h45q31 0 39 32q2 10 2 379v60l-6 280q0 31 -43 31h-37q-10 0 -10 12v51q0 12 14 13l185 -6
l192 6q12 0 12 -19v-45q0 -12 -12 -12h-41q-45 0 -45 -33l-4 -229v-94z" />
    <glyph glyph-name="l.sc" horiz-adv-x="983" 
d="M229 582q0 182 -4 216t-14 44t-37 10h-63q-10 0 -11 14v52q0 10 11 10l243 -6l215 6q10 0 11 -15v-49q0 -12 -13 -12h-30q-55 0 -71 -9t-17 -34l-3 -180v-221q0 -289 5 -330q258 0 292 4q23 6 83 78t78 101t30 26l35 -17q6 -2 2 -20l-64 -254q-70 4 -610 4l-115 -2
q-78 -4 -80 -4q-12 0 -12 20v43q0 12 14 13h64q53 0 57 34l4 406v72z" />
    </font>
</defs>
</svg>
